%TF.GenerationSoftware,KiCad,Pcbnew,9.0.7*%
%TF.CreationDate,2026-09-13T17:42:34-04:00*%
%TF.ProjectId,BLDCM-MCU,424c4443-4d2d-44d4-9355-2e6b69636164,v1.0*%
%TF.SameCoordinates,Original*%
%TF.FileFunction,Legend,Top*%
%TF.FilePolarity,Positive*%
%FSLAX46Y46*%
G04 Gerber Fmt 4.6, Leading zero omitted, Abs format (unit mm)*
G04 Created by KiCad (PCBNEW 9.0.7) date 2026-09-13 17:42:34*
%MOMM*%
%LPD*%
G01*
G04 APERTURE LIST*
%ADD10C,0.200000*%
%ADD11C,0.175000*%
%ADD12C,0.254000*%
%ADD13C,0.120000*%
%ADD14C,0.000000*%
%ADD15C,0.127000*%
G04 APERTURE END LIST*
D10*
X143683006Y-106653409D02*
X143825863Y-106701028D01*
X143825863Y-106701028D02*
X143873482Y-106748647D01*
X143873482Y-106748647D02*
X143921101Y-106843885D01*
X143921101Y-106843885D02*
X143921101Y-106986742D01*
X143921101Y-106986742D02*
X143873482Y-107081980D01*
X143873482Y-107081980D02*
X143825863Y-107129600D01*
X143825863Y-107129600D02*
X143730625Y-107177219D01*
X143730625Y-107177219D02*
X143349673Y-107177219D01*
X143349673Y-107177219D02*
X143349673Y-106177219D01*
X143349673Y-106177219D02*
X143683006Y-106177219D01*
X143683006Y-106177219D02*
X143778244Y-106224838D01*
X143778244Y-106224838D02*
X143825863Y-106272457D01*
X143825863Y-106272457D02*
X143873482Y-106367695D01*
X143873482Y-106367695D02*
X143873482Y-106462933D01*
X143873482Y-106462933D02*
X143825863Y-106558171D01*
X143825863Y-106558171D02*
X143778244Y-106605790D01*
X143778244Y-106605790D02*
X143683006Y-106653409D01*
X143683006Y-106653409D02*
X143349673Y-106653409D01*
X144825863Y-107177219D02*
X144349673Y-107177219D01*
X144349673Y-107177219D02*
X144349673Y-106177219D01*
X145159197Y-107177219D02*
X145159197Y-106177219D01*
X145159197Y-106177219D02*
X145397292Y-106177219D01*
X145397292Y-106177219D02*
X145540149Y-106224838D01*
X145540149Y-106224838D02*
X145635387Y-106320076D01*
X145635387Y-106320076D02*
X145683006Y-106415314D01*
X145683006Y-106415314D02*
X145730625Y-106605790D01*
X145730625Y-106605790D02*
X145730625Y-106748647D01*
X145730625Y-106748647D02*
X145683006Y-106939123D01*
X145683006Y-106939123D02*
X145635387Y-107034361D01*
X145635387Y-107034361D02*
X145540149Y-107129600D01*
X145540149Y-107129600D02*
X145397292Y-107177219D01*
X145397292Y-107177219D02*
X145159197Y-107177219D01*
X146730625Y-107081980D02*
X146683006Y-107129600D01*
X146683006Y-107129600D02*
X146540149Y-107177219D01*
X146540149Y-107177219D02*
X146444911Y-107177219D01*
X146444911Y-107177219D02*
X146302054Y-107129600D01*
X146302054Y-107129600D02*
X146206816Y-107034361D01*
X146206816Y-107034361D02*
X146159197Y-106939123D01*
X146159197Y-106939123D02*
X146111578Y-106748647D01*
X146111578Y-106748647D02*
X146111578Y-106605790D01*
X146111578Y-106605790D02*
X146159197Y-106415314D01*
X146159197Y-106415314D02*
X146206816Y-106320076D01*
X146206816Y-106320076D02*
X146302054Y-106224838D01*
X146302054Y-106224838D02*
X146444911Y-106177219D01*
X146444911Y-106177219D02*
X146540149Y-106177219D01*
X146540149Y-106177219D02*
X146683006Y-106224838D01*
X146683006Y-106224838D02*
X146730625Y-106272457D01*
X147159197Y-107177219D02*
X147159197Y-106177219D01*
X147159197Y-106177219D02*
X147492530Y-106891504D01*
X147492530Y-106891504D02*
X147825863Y-106177219D01*
X147825863Y-106177219D02*
X147825863Y-107177219D01*
X148302054Y-106796266D02*
X149063959Y-106796266D01*
X149540149Y-107177219D02*
X149540149Y-106177219D01*
X149540149Y-106177219D02*
X149873482Y-106891504D01*
X149873482Y-106891504D02*
X150206815Y-106177219D01*
X150206815Y-106177219D02*
X150206815Y-107177219D01*
X151254434Y-107081980D02*
X151206815Y-107129600D01*
X151206815Y-107129600D02*
X151063958Y-107177219D01*
X151063958Y-107177219D02*
X150968720Y-107177219D01*
X150968720Y-107177219D02*
X150825863Y-107129600D01*
X150825863Y-107129600D02*
X150730625Y-107034361D01*
X150730625Y-107034361D02*
X150683006Y-106939123D01*
X150683006Y-106939123D02*
X150635387Y-106748647D01*
X150635387Y-106748647D02*
X150635387Y-106605790D01*
X150635387Y-106605790D02*
X150683006Y-106415314D01*
X150683006Y-106415314D02*
X150730625Y-106320076D01*
X150730625Y-106320076D02*
X150825863Y-106224838D01*
X150825863Y-106224838D02*
X150968720Y-106177219D01*
X150968720Y-106177219D02*
X151063958Y-106177219D01*
X151063958Y-106177219D02*
X151206815Y-106224838D01*
X151206815Y-106224838D02*
X151254434Y-106272457D01*
X151683006Y-106177219D02*
X151683006Y-106986742D01*
X151683006Y-106986742D02*
X151730625Y-107081980D01*
X151730625Y-107081980D02*
X151778244Y-107129600D01*
X151778244Y-107129600D02*
X151873482Y-107177219D01*
X151873482Y-107177219D02*
X152063958Y-107177219D01*
X152063958Y-107177219D02*
X152159196Y-107129600D01*
X152159196Y-107129600D02*
X152206815Y-107081980D01*
X152206815Y-107081980D02*
X152254434Y-106986742D01*
X152254434Y-106986742D02*
X152254434Y-106177219D01*
D11*
X148445131Y-107888566D02*
X148611797Y-108355233D01*
X148611797Y-108355233D02*
X148778464Y-107888566D01*
X149411797Y-108355233D02*
X149011797Y-108355233D01*
X149211797Y-108355233D02*
X149211797Y-107655233D01*
X149211797Y-107655233D02*
X149145130Y-107755233D01*
X149145130Y-107755233D02*
X149078464Y-107821900D01*
X149078464Y-107821900D02*
X149011797Y-107855233D01*
X149711797Y-108288566D02*
X149745131Y-108321900D01*
X149745131Y-108321900D02*
X149711797Y-108355233D01*
X149711797Y-108355233D02*
X149678464Y-108321900D01*
X149678464Y-108321900D02*
X149711797Y-108288566D01*
X149711797Y-108288566D02*
X149711797Y-108355233D01*
X150178464Y-107655233D02*
X150245130Y-107655233D01*
X150245130Y-107655233D02*
X150311797Y-107688566D01*
X150311797Y-107688566D02*
X150345130Y-107721900D01*
X150345130Y-107721900D02*
X150378464Y-107788566D01*
X150378464Y-107788566D02*
X150411797Y-107921900D01*
X150411797Y-107921900D02*
X150411797Y-108088566D01*
X150411797Y-108088566D02*
X150378464Y-108221900D01*
X150378464Y-108221900D02*
X150345130Y-108288566D01*
X150345130Y-108288566D02*
X150311797Y-108321900D01*
X150311797Y-108321900D02*
X150245130Y-108355233D01*
X150245130Y-108355233D02*
X150178464Y-108355233D01*
X150178464Y-108355233D02*
X150111797Y-108321900D01*
X150111797Y-108321900D02*
X150078464Y-108288566D01*
X150078464Y-108288566D02*
X150045130Y-108221900D01*
X150045130Y-108221900D02*
X150011797Y-108088566D01*
X150011797Y-108088566D02*
X150011797Y-107921900D01*
X150011797Y-107921900D02*
X150045130Y-107788566D01*
X150045130Y-107788566D02*
X150078464Y-107721900D01*
X150078464Y-107721900D02*
X150111797Y-107688566D01*
X150111797Y-107688566D02*
X150178464Y-107655233D01*
D12*
%TO.C,U12*%
X134483894Y-101016847D02*
X134483880Y-98984841D01*
X136134888Y-98984846D02*
X134483880Y-98984841D01*
X136515879Y-101016839D02*
X134483894Y-101016847D01*
X136515879Y-101016839D02*
X136515893Y-99365838D01*
X136769885Y-98857846D02*
G75*
G02*
X136515885Y-98857846I-127000J0D01*
G01*
X136515885Y-98857846D02*
G75*
G02*
X136769885Y-98857846I127000J0D01*
G01*
D13*
%TO.C,C20*%
X137826918Y-107700963D02*
X137660291Y-107812299D01*
X138226929Y-108299621D02*
X138060302Y-108410957D01*
%TO.C,C11*%
X164052753Y-96837865D02*
X164249302Y-96798769D01*
X164193218Y-97544031D02*
X164389767Y-97504935D01*
D14*
%TO.C,G\u002A\u002A\u002A*%
G36*
X155535010Y-110092907D02*
G01*
X155549162Y-110094716D01*
X155560892Y-110098456D01*
X155571786Y-110104744D01*
X155583428Y-110114194D01*
X155590965Y-110121191D01*
X155604961Y-110136113D01*
X155614134Y-110149811D01*
X155618925Y-110163072D01*
X155619911Y-110172687D01*
X155619196Y-110185218D01*
X155616490Y-110195925D01*
X155611122Y-110206138D01*
X155602421Y-110217188D01*
X155591910Y-110228227D01*
X155577741Y-110241461D01*
X155565006Y-110250910D01*
X155552050Y-110257507D01*
X155537219Y-110262184D01*
X155528125Y-110264186D01*
X155501441Y-110270757D01*
X155479018Y-110279401D01*
X155459640Y-110290846D01*
X155442094Y-110305823D01*
X155425164Y-110325060D01*
X155423754Y-110326863D01*
X155418899Y-110333302D01*
X155414012Y-110340214D01*
X155408827Y-110348067D01*
X155403076Y-110357329D01*
X155396489Y-110368468D01*
X155388800Y-110381950D01*
X155379740Y-110398244D01*
X155369042Y-110417817D01*
X155356436Y-110441137D01*
X155341655Y-110468672D01*
X155330541Y-110489448D01*
X155318291Y-110512369D01*
X155306536Y-110534352D01*
X155295618Y-110554764D01*
X155285876Y-110572967D01*
X155277652Y-110588326D01*
X155271284Y-110600206D01*
X155267113Y-110607972D01*
X155266236Y-110609597D01*
X155262496Y-110616524D01*
X155256524Y-110627585D01*
X155248766Y-110641955D01*
X155239669Y-110658809D01*
X155229678Y-110677319D01*
X155219240Y-110696661D01*
X155218307Y-110698389D01*
X155207534Y-110718337D01*
X155194712Y-110742056D01*
X155180482Y-110768361D01*
X155165485Y-110796068D01*
X155150361Y-110823995D01*
X155135751Y-110850955D01*
X155126008Y-110868925D01*
X155107879Y-110902358D01*
X155092076Y-110931516D01*
X155078233Y-110957080D01*
X155065982Y-110979727D01*
X155054959Y-111000136D01*
X155044795Y-111018987D01*
X155035125Y-111036957D01*
X155025582Y-111054727D01*
X155015800Y-111072975D01*
X155011859Y-111080333D01*
X154981327Y-111137312D01*
X154953396Y-111189349D01*
X154928042Y-111236490D01*
X154905237Y-111278783D01*
X154884958Y-111316274D01*
X154867178Y-111349010D01*
X154851873Y-111377037D01*
X154839017Y-111400401D01*
X154828585Y-111419150D01*
X154820552Y-111433331D01*
X154815040Y-111442743D01*
X154806690Y-111454599D01*
X154796119Y-111466762D01*
X154784649Y-111477935D01*
X154773605Y-111486821D01*
X154764890Y-111491889D01*
X154755137Y-111494859D01*
X154746098Y-111494805D01*
X154736844Y-111491345D01*
X154726448Y-111484095D01*
X154713980Y-111472671D01*
X154710900Y-111469594D01*
X154704824Y-111463397D01*
X154699639Y-111457828D01*
X154694967Y-111452260D01*
X154690427Y-111446071D01*
X154685640Y-111438635D01*
X154680227Y-111429327D01*
X154673810Y-111417524D01*
X154666008Y-111402601D01*
X154656442Y-111383932D01*
X154644733Y-111360894D01*
X154643971Y-111359392D01*
X154635785Y-111343267D01*
X154628116Y-111328171D01*
X154620744Y-111313674D01*
X154613451Y-111299349D01*
X154606017Y-111284769D01*
X154598223Y-111269506D01*
X154589851Y-111253131D01*
X154580681Y-111235218D01*
X154570495Y-111215339D01*
X154559073Y-111193066D01*
X154546196Y-111167971D01*
X154531647Y-111139626D01*
X154515205Y-111107604D01*
X154496651Y-111071477D01*
X154475767Y-111030818D01*
X154472967Y-111025367D01*
X154463869Y-111007629D01*
X154452494Y-110985413D01*
X154439121Y-110959264D01*
X154424029Y-110929731D01*
X154407498Y-110897358D01*
X154389806Y-110862694D01*
X154371233Y-110826283D01*
X154352056Y-110788674D01*
X154332556Y-110750412D01*
X154313011Y-110712045D01*
X154293699Y-110674118D01*
X154292105Y-110670986D01*
X154270966Y-110629480D01*
X154252222Y-110592734D01*
X154235729Y-110560476D01*
X154221340Y-110532434D01*
X154208910Y-110508336D01*
X154198294Y-110487909D01*
X154189347Y-110470882D01*
X154181924Y-110456983D01*
X154175879Y-110445938D01*
X154171066Y-110437476D01*
X154167341Y-110431324D01*
X154164558Y-110427211D01*
X154162571Y-110424864D01*
X154161237Y-110424011D01*
X154160435Y-110424343D01*
X154157771Y-110428602D01*
X154153130Y-110436737D01*
X154147139Y-110447623D01*
X154140426Y-110460136D01*
X154139645Y-110461612D01*
X154132348Y-110475402D01*
X154123295Y-110492487D01*
X154113379Y-110511182D01*
X154103493Y-110529804D01*
X154097791Y-110540537D01*
X154084583Y-110565403D01*
X154069103Y-110594574D01*
X154051711Y-110627369D01*
X154032767Y-110663108D01*
X154012631Y-110701112D01*
X153991664Y-110740699D01*
X153970225Y-110781190D01*
X153948676Y-110821904D01*
X153927376Y-110862160D01*
X153906685Y-110901280D01*
X153886963Y-110938582D01*
X153868572Y-110973386D01*
X153858238Y-110992951D01*
X153848236Y-111011853D01*
X153836288Y-111034368D01*
X153822686Y-111059952D01*
X153807721Y-111088056D01*
X153791687Y-111118134D01*
X153774877Y-111149638D01*
X153757581Y-111182023D01*
X153740094Y-111214742D01*
X153722708Y-111247247D01*
X153705714Y-111278991D01*
X153689405Y-111309429D01*
X153674075Y-111338012D01*
X153660015Y-111364194D01*
X153647517Y-111387429D01*
X153636875Y-111407170D01*
X153628381Y-111422869D01*
X153623809Y-111431271D01*
X153610924Y-111454676D01*
X153600130Y-111473774D01*
X153590957Y-111489275D01*
X153582931Y-111501892D01*
X153575580Y-111512336D01*
X153568430Y-111521320D01*
X153561010Y-111529555D01*
X153553563Y-111537057D01*
X153543419Y-111546685D01*
X153536084Y-111552885D01*
X153530525Y-111556351D01*
X153525705Y-111557776D01*
X153522438Y-111557937D01*
X153514027Y-111557100D01*
X153507315Y-111555371D01*
X153500504Y-111550874D01*
X153491569Y-111542703D01*
X153481439Y-111531921D01*
X153471043Y-111519592D01*
X153461311Y-111506782D01*
X153453170Y-111494554D01*
X153451018Y-111490874D01*
X153446801Y-111483257D01*
X153440278Y-111471345D01*
X153431812Y-111455808D01*
X153421767Y-111437316D01*
X153410508Y-111416540D01*
X153398398Y-111394149D01*
X153385801Y-111370815D01*
X153380623Y-111361211D01*
X153365502Y-111333163D01*
X153348641Y-111301912D01*
X153330809Y-111268878D01*
X153312775Y-111235485D01*
X153295307Y-111203155D01*
X153279173Y-111173312D01*
X153268520Y-111153621D01*
X153251060Y-111121318D01*
X153234297Y-111090214D01*
X153217787Y-111059480D01*
X153201092Y-111028292D01*
X153183767Y-110995822D01*
X153165374Y-110961243D01*
X153145469Y-110923729D01*
X153123612Y-110882453D01*
X153111983Y-110860469D01*
X153102027Y-110841674D01*
X153091266Y-110821424D01*
X153080608Y-110801421D01*
X153070960Y-110783367D01*
X153064688Y-110771677D01*
X153059769Y-110762500D01*
X153052499Y-110748898D01*
X153043175Y-110731423D01*
X153032090Y-110710631D01*
X153019539Y-110687074D01*
X153005816Y-110661306D01*
X152991217Y-110633880D01*
X152976036Y-110605350D01*
X152960567Y-110576270D01*
X152945105Y-110547192D01*
X152929945Y-110518671D01*
X152915382Y-110491261D01*
X152901709Y-110465513D01*
X152891799Y-110446841D01*
X152886097Y-110436413D01*
X152881263Y-110428165D01*
X152877946Y-110423171D01*
X152876915Y-110422176D01*
X152875463Y-110424144D01*
X152872020Y-110430128D01*
X152866533Y-110440230D01*
X152858950Y-110454551D01*
X152849219Y-110473192D01*
X152837287Y-110496254D01*
X152823103Y-110523838D01*
X152806614Y-110556045D01*
X152787768Y-110592977D01*
X152766512Y-110634735D01*
X152742794Y-110681419D01*
X152739188Y-110688523D01*
X152725866Y-110714758D01*
X152710793Y-110744415D01*
X152694784Y-110775893D01*
X152678651Y-110807596D01*
X152663210Y-110837922D01*
X152649272Y-110865273D01*
X152646691Y-110870334D01*
X152622935Y-110916923D01*
X152601457Y-110959057D01*
X152581971Y-110997300D01*
X152564190Y-111032216D01*
X152547827Y-111064371D01*
X152532595Y-111094329D01*
X152518207Y-111122654D01*
X152504377Y-111149912D01*
X152490819Y-111176667D01*
X152477244Y-111203484D01*
X152463367Y-111230926D01*
X152448900Y-111259560D01*
X152433558Y-111289949D01*
X152429819Y-111297356D01*
X152413978Y-111328719D01*
X152400424Y-111355471D01*
X152388919Y-111378042D01*
X152379224Y-111396860D01*
X152371101Y-111412357D01*
X152364311Y-111424960D01*
X152358617Y-111435100D01*
X152353781Y-111443206D01*
X152349564Y-111449708D01*
X152345727Y-111455035D01*
X152342033Y-111459616D01*
X152338244Y-111463882D01*
X152336285Y-111465982D01*
X152324237Y-111478105D01*
X152314454Y-111486244D01*
X152305957Y-111491027D01*
X152297770Y-111493082D01*
X152293832Y-111493284D01*
X152285360Y-111492251D01*
X152277044Y-111488724D01*
X152267861Y-111482062D01*
X152256789Y-111471620D01*
X152252792Y-111467493D01*
X152245529Y-111459333D01*
X152238628Y-111450237D01*
X152231462Y-111439223D01*
X152223405Y-111425310D01*
X152213829Y-111407518D01*
X152210774Y-111401674D01*
X152203059Y-111387003D01*
X152192880Y-111367893D01*
X152180506Y-111344834D01*
X152166201Y-111318319D01*
X152150235Y-111288841D01*
X152132874Y-111256890D01*
X152114384Y-111222960D01*
X152095033Y-111187542D01*
X152075089Y-111151128D01*
X152054817Y-111114210D01*
X152048587Y-111102883D01*
X152042259Y-111091377D01*
X152033631Y-111075680D01*
X152023114Y-111056541D01*
X152011121Y-111034711D01*
X151998064Y-111010941D01*
X151984355Y-110985980D01*
X151970406Y-110960579D01*
X151961870Y-110945032D01*
X151941876Y-110908649D01*
X151921045Y-110870808D01*
X151899592Y-110831895D01*
X151877733Y-110792299D01*
X151855683Y-110752406D01*
X151833657Y-110712606D01*
X151811871Y-110673285D01*
X151790540Y-110634832D01*
X151769881Y-110597634D01*
X151750107Y-110562078D01*
X151731436Y-110528554D01*
X151714081Y-110497448D01*
X151698259Y-110469148D01*
X151684184Y-110444042D01*
X151672074Y-110422518D01*
X151662141Y-110404964D01*
X151654604Y-110391766D01*
X151651795Y-110386914D01*
X151634088Y-110358029D01*
X151617353Y-110334089D01*
X151601035Y-110314612D01*
X151584583Y-110299115D01*
X151567443Y-110287117D01*
X151549063Y-110278135D01*
X151528889Y-110271687D01*
X151516638Y-110269009D01*
X151497799Y-110264768D01*
X151482802Y-110259529D01*
X151469854Y-110252433D01*
X151457161Y-110242624D01*
X151452223Y-110238182D01*
X151435939Y-110220596D01*
X151425049Y-110203057D01*
X151419604Y-110185726D01*
X151419655Y-110168762D01*
X151425023Y-110152771D01*
X151431712Y-110142718D01*
X151441649Y-110131437D01*
X151453451Y-110120181D01*
X151465734Y-110110201D01*
X151477113Y-110102751D01*
X151483578Y-110099785D01*
X151497449Y-110096702D01*
X151514993Y-110095249D01*
X151534494Y-110095408D01*
X151554234Y-110097157D01*
X151572496Y-110100478D01*
X151573888Y-110100823D01*
X151603475Y-110110852D01*
X151633758Y-110125909D01*
X151664143Y-110145533D01*
X151694037Y-110169264D01*
X151722845Y-110196640D01*
X151749975Y-110227201D01*
X151769167Y-110252361D01*
X151778259Y-110265887D01*
X151789680Y-110284178D01*
X151803261Y-110306942D01*
X151818834Y-110333889D01*
X151836230Y-110364729D01*
X151855281Y-110399171D01*
X151871640Y-110429196D01*
X151877269Y-110439578D01*
X151885150Y-110454098D01*
X151894839Y-110471940D01*
X151905896Y-110492290D01*
X151917876Y-110514332D01*
X151930338Y-110537252D01*
X151942089Y-110558859D01*
X151955335Y-110583280D01*
X151970559Y-110611468D01*
X151987110Y-110642208D01*
X152004333Y-110674283D01*
X152021575Y-110706475D01*
X152038184Y-110737568D01*
X152053505Y-110766346D01*
X152055588Y-110770268D01*
X152070467Y-110798271D01*
X152087338Y-110829997D01*
X152105536Y-110864193D01*
X152124396Y-110899611D01*
X152143250Y-110935000D01*
X152161435Y-110969111D01*
X152178283Y-111000692D01*
X152184684Y-111012683D01*
X152198588Y-111038726D01*
X152212281Y-111064384D01*
X152225416Y-111089006D01*
X152237647Y-111111939D01*
X152248625Y-111132534D01*
X152258005Y-111150138D01*
X152265437Y-111164101D01*
X152270576Y-111173771D01*
X152270744Y-111174087D01*
X152277400Y-111186498D01*
X152283080Y-111196825D01*
X152287290Y-111204195D01*
X152289542Y-111207735D01*
X152289771Y-111207912D01*
X152291082Y-111205359D01*
X152294800Y-111197998D01*
X152300808Y-111186064D01*
X152308987Y-111169790D01*
X152319222Y-111149411D01*
X152331395Y-111125159D01*
X152345389Y-111097269D01*
X152361086Y-111065974D01*
X152378369Y-111031509D01*
X152397122Y-110994107D01*
X152417226Y-110954002D01*
X152438564Y-110911427D01*
X152461020Y-110866616D01*
X152484476Y-110819804D01*
X152508815Y-110771224D01*
X152533920Y-110721109D01*
X152554477Y-110680067D01*
X152585568Y-110617991D01*
X152614240Y-110560753D01*
X152640600Y-110508153D01*
X152664755Y-110459990D01*
X152686814Y-110416063D01*
X152706883Y-110376172D01*
X152725071Y-110340115D01*
X152741485Y-110307692D01*
X152756232Y-110278701D01*
X152769421Y-110252943D01*
X152781158Y-110230216D01*
X152791551Y-110210319D01*
X152800708Y-110193051D01*
X152808737Y-110178213D01*
X152815744Y-110165602D01*
X152821838Y-110155018D01*
X152827126Y-110146261D01*
X152831716Y-110139129D01*
X152835715Y-110133421D01*
X152839231Y-110128937D01*
X152842371Y-110125477D01*
X152845244Y-110122838D01*
X152847956Y-110120820D01*
X152850615Y-110119224D01*
X152853328Y-110117846D01*
X152856204Y-110116488D01*
X152856416Y-110116387D01*
X152868772Y-110112789D01*
X152880774Y-110112781D01*
X152887650Y-110113748D01*
X152893296Y-110115672D01*
X152899044Y-110119376D01*
X152906225Y-110125685D01*
X152914162Y-110133422D01*
X152918875Y-110138188D01*
X152923137Y-110142822D01*
X152927249Y-110147832D01*
X152931511Y-110153726D01*
X152936225Y-110161014D01*
X152941693Y-110170202D01*
X152948215Y-110181799D01*
X152956093Y-110196314D01*
X152965629Y-110214254D01*
X152977124Y-110236128D01*
X152990878Y-110262443D01*
X152992520Y-110265590D01*
X153006995Y-110293349D01*
X153022608Y-110323338D01*
X153038745Y-110354374D01*
X153054791Y-110385269D01*
X153070128Y-110414840D01*
X153084142Y-110441899D01*
X153096217Y-110465261D01*
X153097243Y-110467249D01*
X153110226Y-110492394D01*
X153124354Y-110519720D01*
X153139317Y-110548634D01*
X153154808Y-110578542D01*
X153170518Y-110608851D01*
X153186140Y-110638968D01*
X153201366Y-110668299D01*
X153215887Y-110696251D01*
X153229395Y-110722230D01*
X153241582Y-110745642D01*
X153252141Y-110765895D01*
X153260762Y-110782394D01*
X153267139Y-110794547D01*
X153267713Y-110795637D01*
X153273229Y-110806133D01*
X153280782Y-110820555D01*
X153289810Y-110837826D01*
X153299750Y-110856870D01*
X153310040Y-110876609D01*
X153317046Y-110890066D01*
X153326931Y-110909031D01*
X153336569Y-110927466D01*
X153345468Y-110944433D01*
X153353135Y-110958997D01*
X153359081Y-110970221D01*
X153362197Y-110976038D01*
X153369086Y-110988846D01*
X153376557Y-111002857D01*
X153382494Y-111014092D01*
X153407392Y-111061475D01*
X153429754Y-111103907D01*
X153449618Y-111141457D01*
X153467018Y-111174191D01*
X153481991Y-111202177D01*
X153494574Y-111225481D01*
X153504801Y-111244170D01*
X153512711Y-111258311D01*
X153518338Y-111267972D01*
X153521718Y-111273219D01*
X153522843Y-111274271D01*
X153524643Y-111271223D01*
X153528624Y-111263870D01*
X153534407Y-111252933D01*
X153541615Y-111239128D01*
X153549868Y-111223177D01*
X153555917Y-111211406D01*
X153572450Y-111179242D01*
X153589807Y-111145661D01*
X153608315Y-111110037D01*
X153628300Y-111071744D01*
X153650090Y-111030155D01*
X153674010Y-110984644D01*
X153691162Y-110952079D01*
X153717807Y-110901383D01*
X153746787Y-110845968D01*
X153777931Y-110786164D01*
X153811067Y-110722303D01*
X153846023Y-110654714D01*
X153882628Y-110583729D01*
X153920711Y-110509678D01*
X153927300Y-110496846D01*
X153942535Y-110467191D01*
X153957810Y-110437495D01*
X153972792Y-110408402D01*
X153987150Y-110380556D01*
X154000550Y-110354601D01*
X154012660Y-110331182D01*
X154023148Y-110310942D01*
X154031681Y-110294526D01*
X154037165Y-110284029D01*
X154047292Y-110264683D01*
X154058099Y-110243981D01*
X154068760Y-110223508D01*
X154078449Y-110204852D01*
X154086338Y-110189600D01*
X154094954Y-110173250D01*
X154102069Y-110160796D01*
X154108522Y-110151004D01*
X154115152Y-110142643D01*
X154122798Y-110134478D01*
X154126039Y-110131273D01*
X154137501Y-110120776D01*
X154146508Y-110114184D01*
X154153952Y-110110871D01*
X154155567Y-110110500D01*
X154169449Y-110110664D01*
X154183848Y-110116307D01*
X154198858Y-110127474D01*
X154205764Y-110134237D01*
X154207942Y-110136634D01*
X154210248Y-110139468D01*
X154212808Y-110142978D01*
X154215746Y-110147406D01*
X154219186Y-110152992D01*
X154223254Y-110159977D01*
X154228074Y-110168601D01*
X154233771Y-110179105D01*
X154240469Y-110191728D01*
X154248294Y-110206713D01*
X154257370Y-110224299D01*
X154267822Y-110244727D01*
X154279774Y-110268238D01*
X154293352Y-110295072D01*
X154308679Y-110325469D01*
X154325881Y-110359671D01*
X154345082Y-110397918D01*
X154366407Y-110440450D01*
X154389981Y-110487507D01*
X154415929Y-110539332D01*
X154420160Y-110547784D01*
X154454968Y-110617314D01*
X154487342Y-110681969D01*
X154517367Y-110741915D01*
X154545128Y-110797322D01*
X154570709Y-110848355D01*
X154594197Y-110895184D01*
X154615675Y-110937977D01*
X154635229Y-110976899D01*
X154652943Y-111012121D01*
X154668903Y-111043809D01*
X154683192Y-111072131D01*
X154695897Y-111097256D01*
X154707102Y-111119350D01*
X154716891Y-111138581D01*
X154725351Y-111155118D01*
X154732565Y-111169128D01*
X154738619Y-111180779D01*
X154743597Y-111190238D01*
X154747584Y-111197674D01*
X154750666Y-111203254D01*
X154752927Y-111207147D01*
X154754452Y-111209519D01*
X154755326Y-111210538D01*
X154755526Y-111210601D01*
X154757520Y-111207865D01*
X154762071Y-111200115D01*
X154769176Y-111187359D01*
X154778829Y-111169608D01*
X154791026Y-111146868D01*
X154805762Y-111119148D01*
X154823034Y-111086456D01*
X154842836Y-111048801D01*
X154857438Y-111020950D01*
X154866927Y-111002885D01*
X154877557Y-110982727D01*
X154888181Y-110962652D01*
X154897649Y-110944832D01*
X154899797Y-110940804D01*
X154905533Y-110930017D01*
X154913490Y-110914994D01*
X154923269Y-110896490D01*
X154934472Y-110875262D01*
X154946700Y-110852065D01*
X154959553Y-110827654D01*
X154972634Y-110802787D01*
X154978614Y-110791409D01*
X154991890Y-110766153D01*
X155005310Y-110740643D01*
X155018441Y-110715698D01*
X155030852Y-110692141D01*
X155042108Y-110670791D01*
X155051779Y-110652469D01*
X155059431Y-110637997D01*
X155061783Y-110633557D01*
X155071347Y-110615508D01*
X155082557Y-110594329D01*
X155094433Y-110571876D01*
X155105991Y-110550005D01*
X155114711Y-110533490D01*
X155122587Y-110518566D01*
X155132593Y-110499607D01*
X155144227Y-110477561D01*
X155156989Y-110453379D01*
X155170376Y-110428011D01*
X155183888Y-110402406D01*
X155197024Y-110377516D01*
X155197271Y-110377048D01*
X155209704Y-110353668D01*
X155222007Y-110330869D01*
X155233783Y-110309359D01*
X155244639Y-110289846D01*
X155254179Y-110273039D01*
X155262009Y-110259646D01*
X155267733Y-110250376D01*
X155268765Y-110248820D01*
X155279729Y-110234041D01*
X155293843Y-110217060D01*
X155309952Y-110199097D01*
X155326906Y-110181376D01*
X155343548Y-110165118D01*
X155358728Y-110151547D01*
X155366182Y-110145559D01*
X155383212Y-110134045D01*
X155403502Y-110122561D01*
X155425134Y-110112046D01*
X155446189Y-110103438D01*
X155463293Y-110098039D01*
X155480815Y-110094542D01*
X155500082Y-110092760D01*
X155516849Y-110092414D01*
X155535010Y-110092907D01*
G37*
D12*
%TO.C,U10*%
X138309546Y-89747602D02*
X139746381Y-88310747D01*
X139746382Y-91184427D02*
X138309546Y-89747602D01*
X139746382Y-91184427D02*
X140913826Y-90017003D01*
X140913817Y-89478189D02*
X139746381Y-88310747D01*
X141489827Y-89747595D02*
G75*
G02*
X141235827Y-89747595I-127000J0D01*
G01*
X141235827Y-89747595D02*
G75*
G02*
X141489827Y-89747595I127000J0D01*
G01*
%TO.C,U4*%
X163483921Y-98983561D02*
X163483907Y-100634562D01*
X163483921Y-98983561D02*
X165515906Y-98983553D01*
X163864912Y-101015554D02*
X165515920Y-101015559D01*
X165515906Y-98983553D02*
X165515920Y-101015559D01*
X163483915Y-101142554D02*
G75*
G02*
X163229915Y-101142554I-127000J0D01*
G01*
X163229915Y-101142554D02*
G75*
G02*
X163483915Y-101142554I127000J0D01*
G01*
%TO.C,U8*%
X148983253Y-84484194D02*
X151015259Y-84484180D01*
X148983261Y-86516179D02*
X148983253Y-84484194D01*
X148983261Y-86516179D02*
X150634262Y-86516193D01*
X151015254Y-86135188D02*
X151015259Y-84484180D01*
X151269254Y-86643185D02*
G75*
G02*
X151015254Y-86643185I-127000J0D01*
G01*
X151015254Y-86643185D02*
G75*
G02*
X151269254Y-86643185I127000J0D01*
G01*
D13*
%TO.C,C24*%
X157650905Y-112049898D02*
X157762244Y-112216523D01*
X158249556Y-111649877D02*
X158360895Y-111816502D01*
%TO.C,C17*%
X137826918Y-92299447D02*
X137660291Y-92188111D01*
X138226929Y-91700789D02*
X138060302Y-91589453D01*
%TO.C,C27*%
X155200100Y-99040200D02*
X154999700Y-99040200D01*
X155200100Y-99760200D02*
X154999700Y-99760200D01*
D12*
%TO.C,U16*%
X148984546Y-113865212D02*
X148984541Y-115516220D01*
X151016539Y-113484221D02*
X149365538Y-113484207D01*
X151016539Y-113484221D02*
X151016547Y-115516206D01*
X151016547Y-115516206D02*
X148984541Y-115516220D01*
X148984546Y-113357215D02*
G75*
G02*
X148730546Y-113357215I-127000J0D01*
G01*
X148730546Y-113357215D02*
G75*
G02*
X148984546Y-113357215I127000J0D01*
G01*
D13*
%TO.C,C28*%
X155961152Y-100190200D02*
X155438648Y-100190200D01*
X155961152Y-101660200D02*
X155438648Y-101660200D01*
D12*
%TO.C,U7*%
X154220761Y-87153534D02*
X154998361Y-85276221D01*
X154220761Y-87153534D02*
X155746082Y-87785357D01*
X154998361Y-85276221D02*
X156875695Y-86053823D01*
X156243877Y-87579154D02*
X156875695Y-86053823D01*
X156293809Y-88097083D02*
G75*
G02*
X156039807Y-88097083I-127001J0D01*
G01*
X156039807Y-88097083D02*
G75*
G02*
X156293809Y-88097083I127001J0D01*
G01*
D13*
%TO.C,C15*%
X146837555Y-85947347D02*
X146798459Y-85750798D01*
X147543721Y-85806882D02*
X147504625Y-85610333D01*
%TO.C,C23*%
X152456069Y-114193518D02*
X152495165Y-114390067D01*
X153162235Y-114053053D02*
X153201331Y-114249602D01*
%TO.C,C18*%
X135806582Y-97544031D02*
X135610033Y-97504935D01*
X135947047Y-96837865D02*
X135750498Y-96798769D01*
D12*
%TO.C,U19*%
X162420958Y-106244194D02*
X163946300Y-106875985D01*
X162846543Y-104221071D02*
X162214746Y-105746403D01*
X162846543Y-104221071D02*
X164723869Y-104998638D01*
X164723869Y-104998638D02*
X163946300Y-106875985D01*
X162030029Y-106167135D02*
G75*
G02*
X161776027Y-106167135I-127001J0D01*
G01*
X161776027Y-106167135D02*
G75*
G02*
X162030029Y-106167135I127001J0D01*
G01*
D13*
%TO.C,C19*%
X135806582Y-102456379D02*
X135610033Y-102495475D01*
X135947047Y-103162545D02*
X135750498Y-103201641D01*
D12*
%TO.C,U6*%
X158816542Y-89797118D02*
X160024213Y-90922877D01*
X158816542Y-89797118D02*
X160202060Y-88310747D01*
X160202060Y-88310747D02*
X161688451Y-89696275D01*
X160562695Y-90903959D02*
X161688451Y-89696275D01*
X160436212Y-91362147D02*
G75*
G02*
X160182210Y-91362147I-127001J0D01*
G01*
X160182210Y-91362147D02*
G75*
G02*
X160436212Y-91362147I127001J0D01*
G01*
D13*
%TO.C,C25*%
X161772871Y-108299621D02*
X161939498Y-108410957D01*
X162172882Y-107700963D02*
X162339509Y-107812299D01*
D12*
%TO.C,U17*%
X154367747Y-113198364D02*
X154999556Y-114723699D01*
X156099265Y-112068765D02*
X154573934Y-112700562D01*
X156099265Y-112068765D02*
X156876879Y-113946071D01*
X156876879Y-113946071D02*
X154999556Y-114723699D01*
X154183013Y-112777637D02*
G75*
G02*
X153929013Y-112777637I-127000J0D01*
G01*
X153929013Y-112777637D02*
G75*
G02*
X154183013Y-112777637I127000J0D01*
G01*
D13*
%TO.C,C22*%
X146837555Y-114053053D02*
X146798459Y-114249602D01*
X147543721Y-114193518D02*
X147504625Y-114390067D01*
D12*
%TO.C,U13*%
X136054029Y-106877179D02*
X135276401Y-104999856D01*
X136801736Y-104368047D02*
X135276401Y-104999856D01*
X137931335Y-106099565D02*
X136054029Y-106877179D01*
X137931335Y-106099565D02*
X137299538Y-104574234D01*
X137349463Y-104056313D02*
G75*
G02*
X137095463Y-104056313I-127000J0D01*
G01*
X137095463Y-104056313D02*
G75*
G02*
X137349463Y-104056313I127000J0D01*
G01*
%TO.C,U11*%
X135275921Y-95001740D02*
X136053523Y-93124405D01*
X137153234Y-95779339D02*
X135275921Y-95001740D01*
X137153234Y-95779339D02*
X137785057Y-94254018D01*
X137578854Y-93756223D02*
X136053523Y-93124405D01*
X138223784Y-93833292D02*
G75*
G02*
X137969782Y-93833292I-127001J0D01*
G01*
X137969782Y-93833292D02*
G75*
G02*
X138223784Y-93833292I127001J0D01*
G01*
D13*
%TO.C,C21*%
X141700479Y-111773171D02*
X141589143Y-111939798D01*
X142299137Y-112173182D02*
X142187801Y-112339809D01*
%TO.C,C26*%
X164052753Y-103162545D02*
X164249302Y-103201641D01*
X164193218Y-102456379D02*
X164389767Y-102495475D01*
D12*
%TO.C,U20*%
X152199900Y-97400200D02*
X147799900Y-97400200D01*
X152199900Y-102600200D02*
X147799900Y-102600200D01*
D15*
X147463400Y-97400200D02*
G75*
G02*
X147336400Y-97400200I-63500J0D01*
G01*
X147336400Y-97400200D02*
G75*
G02*
X147463400Y-97400200I63500J0D01*
G01*
D12*
%TO.C,U14*%
X139477889Y-109086283D02*
X138310447Y-110253719D01*
X139747302Y-111690554D02*
X138310447Y-110253719D01*
X141184127Y-110253718D02*
X139747302Y-111690554D01*
X141184127Y-110253718D02*
X140016703Y-109086274D01*
X139874295Y-108637273D02*
G75*
G02*
X139620295Y-108637273I-127000J0D01*
G01*
X139620295Y-108637273D02*
G75*
G02*
X139874295Y-108637273I127000J0D01*
G01*
%TO.C,U9*%
X143122921Y-86054329D02*
X145000244Y-85276701D01*
X143900535Y-87931635D02*
X143122921Y-86054329D01*
X143900535Y-87931635D02*
X145425866Y-87299837D01*
X145632053Y-86802036D02*
X145000244Y-85276701D01*
X146070790Y-87222764D02*
G75*
G02*
X145816786Y-87222764I-127002J0D01*
G01*
X145816786Y-87222764D02*
G75*
G02*
X146070790Y-87222764I127002J0D01*
G01*
%TO.C,U5*%
X162068476Y-93900812D02*
X162700245Y-95426154D01*
X162068476Y-93900812D02*
X163945794Y-93123231D01*
X163198042Y-95632350D02*
X164723389Y-95000567D01*
X163945794Y-93123231D02*
X164723389Y-95000567D01*
X162904311Y-95944076D02*
G75*
G02*
X162650311Y-95944076I-127000J0D01*
G01*
X162650311Y-95944076D02*
G75*
G02*
X162904311Y-95944076I127000J0D01*
G01*
D13*
%TO.C,C13*%
X157700653Y-87827218D02*
X157811989Y-87660591D01*
X158299311Y-88227229D02*
X158410647Y-88060602D01*
%TO.C,C16*%
X141700479Y-88227229D02*
X141589143Y-88060602D01*
X142299137Y-87827218D02*
X142187801Y-87660591D01*
D12*
%TO.C,U15*%
X143755923Y-112421246D02*
X143124105Y-113946577D01*
X145001439Y-114724179D02*
X143124105Y-113946577D01*
X145779039Y-112846866D02*
X144253718Y-112215043D01*
X145779039Y-112846866D02*
X145001439Y-114724179D01*
X143959995Y-111903316D02*
G75*
G02*
X143705991Y-111903316I-127002J0D01*
G01*
X143705991Y-111903316D02*
G75*
G02*
X143959995Y-111903316I127002J0D01*
G01*
D13*
%TO.C,C14*%
X152456069Y-85806882D02*
X152495165Y-85610333D01*
X153162235Y-85947347D02*
X153201331Y-85750798D01*
%TO.C,C12*%
X161772871Y-91700789D02*
X161939498Y-91589453D01*
X162172882Y-92299447D02*
X162339509Y-92188111D01*
D12*
%TO.C,U18*%
X158378873Y-109815111D02*
X159546309Y-110982553D01*
X159546308Y-108108873D02*
X158378864Y-109276297D01*
X159546308Y-108108873D02*
X160983144Y-109545698D01*
X160983144Y-109545698D02*
X159546309Y-110982553D01*
X158056863Y-109545705D02*
G75*
G02*
X157802863Y-109545705I-127000J0D01*
G01*
X157802863Y-109545705D02*
G75*
G02*
X158056863Y-109545705I127000J0D01*
G01*
%TD*%
M02*
