%TF.GenerationSoftware,KiCad,Pcbnew,9.0.7*%
%TF.CreationDate,2026-09-13T17:42:34-04:00*%
%TF.ProjectId,BLDCM-MCU,424c4443-4d2d-44d4-9355-2e6b69636164,v1.0*%
%TF.SameCoordinates,Original*%
%TF.FileFunction,Paste,Top*%
%TF.FilePolarity,Positive*%
%FSLAX46Y46*%
G04 Gerber Fmt 4.6, Leading zero omitted, Abs format (unit mm)*
G04 Created by KiCad (PCBNEW 9.0.7) date 2026-09-13 17:42:34*
%MOMM*%
%LPD*%
G01*
G04 APERTURE LIST*
G04 Aperture macros list*
%AMRoundRect*
0 Rectangle with rounded corners*
0 $1 Rounding radius*
0 $2 $3 $4 $5 $6 $7 $8 $9 X,Y pos of 4 corners*
0 Add a 4 corners polygon primitive as box body*
4,1,4,$2,$3,$4,$5,$6,$7,$8,$9,$2,$3,0*
0 Add four circle primitives for the rounded corners*
1,1,$1+$1,$2,$3*
1,1,$1+$1,$4,$5*
1,1,$1+$1,$6,$7*
1,1,$1+$1,$8,$9*
0 Add four rect primitives between the rounded corners*
20,1,$1+$1,$2,$3,$4,$5,0*
20,1,$1+$1,$4,$5,$6,$7,0*
20,1,$1+$1,$6,$7,$8,$9,0*
20,1,$1+$1,$8,$9,$2,$3,0*%
%AMRotRect*
0 Rectangle, with rotation*
0 The origin of the aperture is its center*
0 $1 length*
0 $2 width*
0 $3 Rotation angle, in degrees counterclockwise*
0 Add horizontal line*
21,1,$1,$2,0,0,$3*%
G04 Aperture macros list end*
%ADD10C,0.500000*%
%ADD11R,0.550000X0.550000*%
%ADD12RoundRect,0.160000X0.096111X0.256650X-0.273893X0.009421X-0.096111X-0.256650X0.273893X-0.009421X0*%
%ADD13RoundRect,0.160000X-0.187010X-0.200333X0.249439X-0.113518X0.187010X0.200333X-0.249439X0.113518X0*%
%ADD14RotRect,0.550000X0.550000X135.000000*%
%ADD15RoundRect,0.160000X-0.256651X0.096106X-0.009416X-0.273893X0.256651X-0.096106X0.009416X0.273893X0*%
%ADD16RoundRect,0.160000X0.273893X0.009421X-0.096111X0.256650X-0.273893X-0.009421X0.096111X-0.256650X0*%
%ADD17RoundRect,0.160000X0.222500X0.160000X-0.222500X0.160000X-0.222500X-0.160000X0.222500X-0.160000X0*%
%ADD18RoundRect,0.250000X0.337500X0.475000X-0.337500X0.475000X-0.337500X-0.475000X0.337500X-0.475000X0*%
%ADD19RotRect,0.550000X0.550000X67.500000*%
%ADD20RoundRect,0.160000X0.200333X-0.187010X0.113518X0.249439X-0.200333X0.187010X-0.113518X-0.249439X0*%
%ADD21RoundRect,0.160000X-0.200333X0.187010X-0.113518X-0.249439X0.200333X-0.187010X0.113518X0.249439X0*%
%ADD22RoundRect,0.160000X0.249439X0.113518X-0.187010X0.200333X-0.249439X-0.113518X0.187010X-0.200333X0*%
%ADD23RotRect,0.550000X0.550000X337.501000*%
%ADD24RoundRect,0.160000X0.187010X0.200333X-0.249439X0.113518X-0.187010X-0.200333X0.249439X-0.113518X0*%
%ADD25RotRect,0.550000X0.550000X47.011000*%
%ADD26RoundRect,0.160000X-0.273893X-0.009421X0.096111X-0.256650X0.273893X0.009421X-0.096111X0.256650X0*%
%ADD27RotRect,0.550000X0.550000X292.500000*%
%ADD28RoundRect,0.160000X-0.113518X0.249439X-0.200333X-0.187010X0.113518X-0.249439X0.200333X0.187010X0*%
%ADD29RotRect,0.550000X0.550000X202.500000*%
%ADD30RotRect,0.550000X0.550000X157.500000*%
%ADD31RoundRect,0.160000X-0.009421X0.273893X-0.256650X-0.096111X0.009421X-0.273893X0.256650X0.096111X0*%
%ADD32RoundRect,0.160000X-0.249439X-0.113518X0.187010X-0.200333X0.249439X0.113518X-0.187010X0.200333X0*%
%ADD33RoundRect,0.100000X-0.650000X-0.125000X0.650000X-0.125000X0.650000X0.125000X-0.650000X0.125000X0*%
%ADD34RotRect,0.550000X0.550000X225.000000*%
%ADD35RotRect,0.550000X0.550000X112.500000*%
%ADD36RotRect,0.550000X0.550000X22.499000*%
%ADD37RoundRect,0.160000X0.009421X-0.273893X0.256650X0.096111X-0.009421X0.273893X-0.256650X-0.096111X0*%
%ADD38RoundRect,0.160000X0.256650X-0.096111X0.009421X0.273893X-0.256650X0.096111X-0.009421X-0.273893X0*%
%ADD39RotRect,0.550000X0.550000X247.500000*%
%ADD40RoundRect,0.160000X0.113518X-0.249439X0.200333X0.187010X-0.113518X0.249439X-0.200333X-0.187010X0*%
%ADD41RoundRect,0.160000X-0.096111X-0.256650X0.273893X-0.009421X0.096111X0.256650X-0.273893X0.009421X0*%
%ADD42RotRect,0.550000X0.550000X315.000000*%
G04 APERTURE END LIST*
D10*
%TO.C,TP31*%
X150020900Y-104694200D03*
%TD*%
%TO.C,TP37*%
X156699900Y-104400200D03*
%TD*%
%TO.C,TP17*%
X151199900Y-89600200D03*
%TD*%
%TO.C,TP8*%
X153899900Y-96500200D03*
%TD*%
%TO.C,TP28*%
X151020900Y-104694200D03*
%TD*%
D11*
%TO.C,U12*%
X135974875Y-99525846D03*
X135024886Y-99525837D03*
X135024877Y-100475840D03*
X135974887Y-100475843D03*
%TD*%
D12*
%TO.C,C20*%
X138419626Y-107737896D03*
X137467594Y-108374024D03*
%TD*%
D10*
%TO.C,TP33*%
X149020900Y-104694200D03*
%TD*%
%TO.C,TP9*%
X144899900Y-93400200D03*
%TD*%
D13*
%TO.C,C11*%
X163659760Y-97283089D03*
X164782760Y-97059711D03*
%TD*%
D10*
%TO.C,TP27*%
X150355520Y-96135980D03*
%TD*%
%TO.C,TP34*%
X158499900Y-102900200D03*
%TD*%
%TO.C,TP12*%
X151147900Y-93899200D03*
%TD*%
%TO.C,TP19*%
X151999900Y-89600200D03*
%TD*%
D14*
%TO.C,U10*%
X140418126Y-89747588D03*
X139746388Y-89075838D03*
X139074629Y-89747585D03*
X139746385Y-90419346D03*
%TD*%
D11*
%TO.C,U4*%
X164024925Y-100474554D03*
X164974914Y-100474563D03*
X164974923Y-99524560D03*
X164024913Y-99524557D03*
%TD*%
%TO.C,U8*%
X150474254Y-85975175D03*
X150474263Y-85025186D03*
X149524260Y-85025177D03*
X149524257Y-85975187D03*
%TD*%
D15*
%TO.C,C24*%
X157687828Y-111457190D03*
X158323972Y-112409210D03*
%TD*%
D10*
%TO.C,TP36*%
X141199900Y-103100200D03*
%TD*%
D16*
%TO.C,C17*%
X138419626Y-92262514D03*
X137467594Y-91626386D03*
%TD*%
D10*
%TO.C,TP15*%
X150399900Y-89600200D03*
%TD*%
D17*
%TO.C,C27*%
X155672400Y-99400200D03*
X154527400Y-99400200D03*
%TD*%
D10*
%TO.C,TP32*%
X154699900Y-96500200D03*
%TD*%
D11*
%TO.C,U16*%
X149525546Y-114025225D03*
X149525537Y-114975214D03*
X150475540Y-114975223D03*
X150475543Y-114025213D03*
%TD*%
D10*
%TO.C,TP3*%
X141299900Y-96500200D03*
%TD*%
%TO.C,TP16*%
X154199900Y-105400200D03*
%TD*%
D18*
%TO.C,C28*%
X156737400Y-100925200D03*
X154662400Y-100925200D03*
%TD*%
D19*
%TO.C,U7*%
X155805292Y-87224289D03*
X156168846Y-86346617D03*
X155291161Y-85983059D03*
X154927605Y-86860752D03*
%TD*%
D10*
%TO.C,TP22*%
X157299900Y-103900200D03*
%TD*%
D20*
%TO.C,C15*%
X147282779Y-86340340D03*
X147059401Y-85217340D03*
%TD*%
D21*
%TO.C,C23*%
X152717011Y-113660060D03*
X152940389Y-114783060D03*
%TD*%
D10*
%TO.C,TP29*%
X155499900Y-96500200D03*
%TD*%
D22*
%TO.C,C18*%
X136340040Y-97283089D03*
X135217040Y-97059711D03*
%TD*%
D10*
%TO.C,TP10*%
X144899900Y-94200200D03*
%TD*%
D23*
%TO.C,U19*%
X162775815Y-105805602D03*
X163653494Y-106169142D03*
X164017037Y-105291450D03*
X163139337Y-104927909D03*
%TD*%
D24*
%TO.C,C19*%
X136340040Y-102717321D03*
X135217040Y-102940699D03*
%TD*%
D25*
%TO.C,U6*%
X160276068Y-90418027D03*
X160923832Y-89723130D03*
X160228925Y-89075357D03*
X159581151Y-89770273D03*
%TD*%
D10*
%TO.C,TP24*%
X150131900Y-95169200D03*
%TD*%
%TO.C,TP35*%
X141999900Y-103100200D03*
%TD*%
D26*
%TO.C,C25*%
X161580174Y-107737896D03*
X162532206Y-108374024D03*
%TD*%
D27*
%TO.C,U17*%
X154928800Y-113139165D03*
X155292337Y-114016844D03*
X156170029Y-113653302D03*
X155806479Y-112775606D03*
%TD*%
D28*
%TO.C,C22*%
X147282779Y-113660060D03*
X147059401Y-114783060D03*
%TD*%
D29*
%TO.C,U13*%
X136860935Y-104929101D03*
X135983256Y-105292637D03*
X136346798Y-106170329D03*
X137224494Y-105806779D03*
%TD*%
D10*
%TO.C,TP20*%
X157899900Y-103400200D03*
%TD*%
D30*
%TO.C,U11*%
X137223988Y-94194807D03*
X136346317Y-93831254D03*
X135982759Y-94708939D03*
X136860453Y-95072495D03*
%TD*%
D10*
%TO.C,TP25*%
X149599900Y-89600200D03*
%TD*%
%TO.C,TP7*%
X141241900Y-98852200D03*
%TD*%
%TO.C,TP5*%
X142099900Y-96500200D03*
%TD*%
D31*
%TO.C,C21*%
X142262204Y-111580474D03*
X141626076Y-112532506D03*
%TD*%
D10*
%TO.C,TP23*%
X155699900Y-94300200D03*
%TD*%
D32*
%TO.C,C26*%
X163659760Y-102717321D03*
X164782760Y-102940699D03*
%TD*%
D10*
%TO.C,TP6*%
X142899900Y-96500200D03*
%TD*%
D33*
%TO.C,U20*%
X147099900Y-98050200D03*
X147099900Y-98700200D03*
X147099900Y-99350200D03*
X147099900Y-100000200D03*
X147099900Y-100650200D03*
X147099900Y-101300200D03*
X147099900Y-101950200D03*
X152899900Y-101950200D03*
X152899900Y-101300200D03*
X152899900Y-100650200D03*
X152899900Y-100000200D03*
X152899900Y-99350200D03*
X152899900Y-98700200D03*
X152899900Y-98050200D03*
%TD*%
D10*
%TO.C,TP26*%
X157099900Y-94300200D03*
%TD*%
D34*
%TO.C,U14*%
X139747288Y-109581974D03*
X139075538Y-110253712D03*
X139747285Y-110925471D03*
X140419046Y-110253715D03*
%TD*%
D10*
%TO.C,TP14*%
X150262820Y-93899200D03*
%TD*%
D35*
%TO.C,U9*%
X145071000Y-86861234D03*
X144707463Y-85983556D03*
X143829771Y-86347098D03*
X144193321Y-87224794D03*
%TD*%
D36*
%TO.C,U5*%
X163138854Y-95071296D03*
X164016540Y-94707774D03*
X163653013Y-93830076D03*
X162775310Y-94193610D03*
%TD*%
D10*
%TO.C,TP11*%
X145699900Y-94200200D03*
%TD*%
D37*
%TO.C,C13*%
X157737586Y-88419926D03*
X158373714Y-87467894D03*
%TD*%
D38*
%TO.C,C16*%
X142262204Y-88419926D03*
X141626076Y-87467894D03*
%TD*%
D10*
%TO.C,TP1*%
X159910900Y-99995200D03*
%TD*%
D39*
%TO.C,U15*%
X144194508Y-112776111D03*
X143830954Y-113653783D03*
X144708639Y-114017341D03*
X145072195Y-113139648D03*
%TD*%
D10*
%TO.C,TP30*%
X151147900Y-96058200D03*
%TD*%
%TO.C,TP21*%
X154399900Y-89600200D03*
%TD*%
D40*
%TO.C,C14*%
X152717011Y-86340340D03*
X152940389Y-85217340D03*
%TD*%
D10*
%TO.C,TP2*%
X152799900Y-89600200D03*
%TD*%
D41*
%TO.C,C12*%
X161580174Y-92262514D03*
X162532206Y-91626386D03*
%TD*%
D42*
%TO.C,U18*%
X158874564Y-109545712D03*
X159546302Y-110217462D03*
X160218061Y-109545715D03*
X159546305Y-108873954D03*
%TD*%
D10*
%TO.C,TP18*%
X153399900Y-105400200D03*
%TD*%
%TO.C,TP4*%
X153599900Y-89600200D03*
%TD*%
%TO.C,TP13*%
X144099900Y-94200200D03*
%TD*%
M02*
