M48
; DRILL file {KiCad 9.0.7} date 2026-09-13T17:42:39-0400
; FORMAT={-:-/ absolute / metric / decimal}
; #@! TF.CreationDate,2026-09-13T17:42:39-04:00
; #@! TF.GenerationSoftware,Kicad,Pcbnew,9.0.7
; #@! TF.FileFunction,Plated,1,4,PTH
FMAT,2
METRIC
; #@! TA.AperFunction,Plated,PTH,ViaDrill
T1C0.200
%
G90
G05
T1
X135.3Y-101.9
X135.6Y-98.2
X135.9Y-96.2
X135.9Y-104.0
X137.0Y-107.4
X137.4Y-92.8
X137.432Y-99.619
X138.171Y-105.734
X138.4Y-91.0
X138.9Y-103.5
X139.0Y-96.708
X139.08Y-107.227
X139.178Y-105.879
X139.279Y-99.484
X139.7Y-94.5
X140.226Y-102.281
X141.0Y-92.1
X141.1Y-88.7
X141.2Y-102.1
X141.242Y-99.614
X141.5Y-97.8
X141.6Y-108.4
X141.63Y-105.058
X142.7Y-87.3
X142.9Y-112.3
X143.409Y-110.147
X143.6Y-96.7
X143.8Y-93.5
X144.3Y-104.0
X144.3Y-104.55
X144.4Y-94.8
X144.5Y-111.5
X144.5Y-91.5
X144.5Y-95.7
X144.544Y-107.996
X144.8Y-95.2
X144.925Y-99.2
X144.95Y-101.2
X145.382Y-95.018
X145.408Y-105.608
X145.5Y-89.8
X145.8Y-87.3
X146.0Y-89.423
X146.0Y-90.12
X146.1Y-114.1
X146.3Y-87.5
X146.8Y-87.3
X146.9Y-96.7
X146.9Y-110.6
X147.1Y-103.4
X147.315Y-96.255
X147.5Y-87.3
X147.548Y-92.952
X147.7Y-91.7
X147.7Y-108.5
X147.8Y-88.45
X147.8Y-104.1
X147.9Y-87.7
X147.9Y-95.9
X148.1Y-91.4
X148.1Y-114.2
X148.3Y-87.3
X148.4Y-104.3
X148.6Y-96.5
X149.0Y-94.8
X149.021Y-104.694
X149.25Y-87.7
X149.437Y-88.258
X149.5Y-98.4
X150.0Y-87.2
X150.021Y-104.694
X150.119Y-92.481
X150.2Y-101.5
X150.2Y-112.4
X150.265Y-93.268
X150.495Y-87.69
X150.5Y-91.4
X150.7Y-99.5
X150.767Y-94.534
X150.8Y-92.0
X150.9Y-100.4
X151.021Y-104.694
X151.1Y-108.3
X151.229Y-94.997
X151.3Y-88.6
X151.332Y-91.611
X151.35Y-100.0
X151.482Y-87.755
X151.692Y-95.459
X151.7Y-102.1
X151.8Y-92.1
X151.8Y-114.7
X152.0Y-88.1
X152.5Y-87.6
X152.8Y-97.0
X153.097Y-92.203
X153.1Y-91.5
X153.2Y-92.8
X153.5Y-91.853
X153.5Y-110.1
X153.53Y-87.3
X153.7Y-107.6
X153.8Y-113.9
X153.9Y-94.1
X154.1Y-85.7
X154.1Y-107.2
X154.3Y-98.5
X154.4Y-87.7
X154.5Y-94.1
X154.8Y-91.3
X155.0Y-98.6
X155.2Y-92.1
X155.38Y-104.32
X155.6Y-93.2
X155.6Y-95.2
X155.7Y-94.3
X155.7Y-100.6
X156.1Y-103.7
X156.2Y-108.5
X156.7Y-103.5
X156.9Y-102.9
X157.0Y-88.2
X157.0Y-97.1
X157.1Y-94.3
X157.3Y-112.7
X157.6Y-102.5
X157.8Y-90.9
X157.904Y-97.066
X158.2Y-107.2
X158.3Y-110.6
X158.5Y-101.7
X158.7Y-92.8
X159.0Y-88.4
X159.1Y-112.1
X159.3Y-100.0
X160.2Y-104.9
X161.3Y-95.0
X161.3Y-108.8
X161.5Y-91.0
X161.9Y-102.5
X162.5Y-99.5
X162.5Y-107.2
X162.7Y-92.8
X162.705Y-100.503
X163.9Y-96.1
X164.2Y-98.2
X164.483Y-101.773
M30
