%TF.GenerationSoftware,KiCad,Pcbnew,9.0.7*%
%TF.CreationDate,2026-09-13T17:42:34-04:00*%
%TF.ProjectId,BLDCM-MCU,424c4443-4d2d-44d4-9355-2e6b69636164,v1.0*%
%TF.SameCoordinates,Original*%
%TF.FileFunction,Copper,L3,Inr*%
%TF.FilePolarity,Positive*%
%FSLAX46Y46*%
G04 Gerber Fmt 4.6, Leading zero omitted, Abs format (unit mm)*
G04 Created by KiCad (PCBNEW 9.0.7) date 2026-09-13 17:42:34*
%MOMM*%
%LPD*%
G01*
G04 APERTURE LIST*
%TA.AperFunction,ViaPad*%
%ADD10C,0.400000*%
%TD*%
G04 APERTURE END LIST*
D10*
%TO.N,5V*%
X146299900Y-87500200D03*
X145799900Y-87300200D03*
X164482900Y-101773200D03*
X146799900Y-87300200D03*
%TO.N,GND*%
X161499900Y-91000200D03*
X135899900Y-104000200D03*
X153499900Y-91852712D03*
X155599900Y-93200200D03*
X161899900Y-102500200D03*
X153799900Y-113900200D03*
X138399900Y-91000200D03*
X137399900Y-92800200D03*
X159100000Y-112100000D03*
X149499900Y-98400200D03*
X158999900Y-88400200D03*
X158299900Y-110600200D03*
X139079540Y-107226899D03*
X154099900Y-85700200D03*
X141629690Y-105058450D03*
X147499900Y-87300200D03*
X150199900Y-112400200D03*
X148299900Y-87300200D03*
X141099900Y-88700200D03*
X162699900Y-92800200D03*
X155699900Y-100600200D03*
X141199900Y-102100200D03*
X151799900Y-114700200D03*
X135599900Y-98200200D03*
X158699900Y-92800200D03*
X163899900Y-96100200D03*
X148999900Y-94800200D03*
X148099900Y-114200200D03*
X160199900Y-104900200D03*
X136999900Y-107400200D03*
X147899900Y-87700200D03*
X135299900Y-101900200D03*
X143408930Y-110147160D03*
X156199900Y-108500200D03*
X140999900Y-92100200D03*
X139278750Y-99484270D03*
X150199900Y-101500200D03*
X157299900Y-112700200D03*
X147547999Y-92952101D03*
X138899900Y-103500200D03*
X139699900Y-94500200D03*
X152799900Y-97000200D03*
X154999900Y-98600200D03*
X138170570Y-105733530D03*
X138999900Y-96707733D03*
X156999900Y-88200200D03*
X142899900Y-112300200D03*
X146099900Y-114100200D03*
X144499900Y-91500200D03*
X153499900Y-110100200D03*
X162499880Y-99500210D03*
X164199900Y-98200200D03*
X161299900Y-108800200D03*
X135899900Y-96200200D03*
X141599900Y-108400200D03*
X157799900Y-90900200D03*
X144499890Y-111500210D03*
X142699900Y-87300200D03*
X147699900Y-108500200D03*
X158199900Y-107200200D03*
X162499900Y-107200200D03*
X161299900Y-95000200D03*
X146899900Y-110600200D03*
%TO.N,3.3V*%
X151099900Y-108300200D03*
X137431900Y-99619120D03*
X145999900Y-89423200D03*
X157904117Y-97066358D03*
X145999900Y-90120200D03*
X144924900Y-99200200D03*
X154299900Y-98500200D03*
X145499900Y-89800200D03*
X144543900Y-107996200D03*
%TO.N,/RST*%
X151699900Y-102100200D03*
X150499900Y-91400200D03*
X145407900Y-105608200D03*
X139178217Y-105878517D03*
%TO.N,/CAN.TX*%
X147699900Y-91700200D03*
X153699900Y-107600200D03*
%TO.N,/SWCLK*%
X151331940Y-91610880D03*
X158499900Y-101700200D03*
%TO.N,/USB.DP*%
X157099900Y-94300200D03*
%TO.N,/SWDIO*%
X151799900Y-92100200D03*
X156999900Y-97100200D03*
%TO.N,/VOLT.U*%
X143799900Y-93500200D03*
X144949900Y-101200200D03*
X149999900Y-87200200D03*
%TO.N,/USB.DN*%
X155699900Y-94300200D03*
%TO.N,/VCP.RX*%
X150265230Y-93268330D03*
%TO.N,/TMC.UL*%
X151481760Y-87755230D03*
X144499900Y-95700200D03*
%TO.N,/TMC.WL*%
X153530440Y-87300200D03*
X155199900Y-92100200D03*
X147899900Y-95900200D03*
X153199900Y-92800200D03*
%TO.N,/CURR.W*%
X149437363Y-88257712D03*
X147099900Y-103400200D03*
%TO.N,/TMC.WH*%
X154399900Y-87700200D03*
X155599900Y-95200200D03*
%TO.N,/CURR.V*%
X149249900Y-87700200D03*
X144299900Y-104000200D03*
%TO.N,/TMC.UH*%
X151299900Y-88600200D03*
X153899900Y-94100200D03*
%TO.N,/TMC.DIAG*%
X143599900Y-96700200D03*
X150495190Y-87689590D03*
%TO.N,/VCP.TX*%
X150119174Y-92480926D03*
%TO.N,/TMC.VL*%
X152499980Y-87600200D03*
X153097388Y-92202712D03*
X154799900Y-91300200D03*
X147315160Y-96254800D03*
%TO.N,/VOLT.SRC*%
X153099900Y-91500200D03*
X144399900Y-94800200D03*
%TO.N,/SWO*%
X150799900Y-92000200D03*
X155380230Y-104319870D03*
%TO.N,/VOLT.W*%
X145382235Y-95017865D03*
X146899900Y-96700200D03*
X148599900Y-96500200D03*
%TO.N,/VOLT.V*%
X144799900Y-95200200D03*
%TO.N,/TMC.VH*%
X151999900Y-88100200D03*
X154499900Y-94100200D03*
%TO.N,/CURR.U*%
X147799900Y-88450200D03*
X144299900Y-104550200D03*
%TO.N,/CAN.RX*%
X154099900Y-107200200D03*
X148099900Y-91400200D03*
%TO.N,Net-(U4-DI)*%
X162704900Y-100503200D03*
%TO.N,/LED.DI*%
X159299900Y-100000200D03*
%TO.N,/IMU.CS*%
X141241900Y-99614200D03*
%TO.N,/ENC.CLK*%
X156899900Y-102900200D03*
%TO.N,/ENC.POCI*%
X156699900Y-103500200D03*
%TO.N,/IMU.CLK*%
X150699900Y-99500200D03*
X150766900Y-94534200D03*
%TO.N,/IMU.POCI*%
X150899900Y-100400200D03*
X151229350Y-94996650D03*
%TO.N,/DEBUG0*%
X151020900Y-104694200D03*
%TO.N,/IMU.PICO*%
X151691790Y-95459090D03*
X151349900Y-100000200D03*
%TO.N,/DEBUG1*%
X150020900Y-104694200D03*
%TO.N,/ENC.CS*%
X157599900Y-102500200D03*
%TO.N,/DEBUG2*%
X149020900Y-104694200D03*
%TO.N,/IMU.INT1*%
X140225900Y-102281200D03*
X148399900Y-104300200D03*
%TO.N,/ENC.PICO*%
X156099900Y-103700200D03*
%TO.N,/IMU.INT2*%
X141499900Y-97800200D03*
X147799900Y-104100200D03*
%TD*%
%TA.AperFunction,Conductor*%
%TO.N,GND*%
G36*
X150438293Y-84206610D02*
G01*
X150440696Y-84206677D01*
X151223516Y-84247975D01*
X151225903Y-84248161D01*
X152005720Y-84328358D01*
X152008086Y-84328661D01*
X152782921Y-84447553D01*
X152785321Y-84447983D01*
X153553265Y-84605274D01*
X153555583Y-84605809D01*
X154314780Y-84801121D01*
X154317115Y-84801784D01*
X154738605Y-84932894D01*
X155065620Y-85034616D01*
X155067930Y-85035398D01*
X155803930Y-85305183D01*
X155806178Y-85306071D01*
X156235526Y-85488164D01*
X156527843Y-85612140D01*
X156530060Y-85613146D01*
X157235605Y-85954743D01*
X157237748Y-85955846D01*
X157925458Y-86332140D01*
X157927529Y-86333342D01*
X158595624Y-86743360D01*
X158597660Y-86744681D01*
X159244545Y-87187443D01*
X159246517Y-87188865D01*
X159464781Y-87354787D01*
X159870542Y-87663241D01*
X159872446Y-87664764D01*
X160472119Y-88169617D01*
X160473945Y-88171234D01*
X161047739Y-88705280D01*
X161049482Y-88706985D01*
X161290220Y-88954515D01*
X161506879Y-89177287D01*
X161596007Y-89268929D01*
X161597663Y-89270719D01*
X162115544Y-89859151D01*
X162117109Y-89861021D01*
X162605079Y-90474497D01*
X162606549Y-90476443D01*
X162855116Y-90823028D01*
X163039212Y-91079721D01*
X163063379Y-91113417D01*
X163064745Y-91115425D01*
X163475523Y-91752930D01*
X163489350Y-91774388D01*
X163490618Y-91776469D01*
X163692239Y-92126477D01*
X163881883Y-92455693D01*
X163883047Y-92457835D01*
X164211395Y-93099700D01*
X164240037Y-93155689D01*
X164241091Y-93157881D01*
X164542317Y-93826880D01*
X164562936Y-93872672D01*
X164563878Y-93874914D01*
X164574604Y-93902299D01*
X164849744Y-94604789D01*
X164850577Y-94607081D01*
X165099788Y-95350307D01*
X165100505Y-95352638D01*
X165312417Y-96107303D01*
X165313018Y-96109666D01*
X165487130Y-96873977D01*
X165487612Y-96876368D01*
X165623478Y-97648367D01*
X165623841Y-97650779D01*
X165721130Y-98428602D01*
X165721372Y-98431028D01*
X165779841Y-99212700D01*
X165779963Y-99215136D01*
X165799470Y-99998828D01*
X165799471Y-100001198D01*
X165782080Y-100741141D01*
X165781972Y-100743442D01*
X165729831Y-101481805D01*
X165729615Y-101484097D01*
X165642843Y-102219183D01*
X165642520Y-102221463D01*
X165521303Y-102951696D01*
X165520872Y-102953958D01*
X165365489Y-103677644D01*
X165364953Y-103679884D01*
X165175734Y-104395500D01*
X165175093Y-104397712D01*
X164952465Y-105103637D01*
X164951721Y-105105816D01*
X164696177Y-105800490D01*
X164695332Y-105802632D01*
X164407419Y-106484569D01*
X164406473Y-106486669D01*
X164086853Y-107154294D01*
X164085810Y-107156347D01*
X163735170Y-107808229D01*
X163734037Y-107810221D01*
X163654075Y-107943469D01*
X163353161Y-108444905D01*
X163351930Y-108446851D01*
X162945836Y-109056661D01*
X162942821Y-109060718D01*
X162863442Y-109156759D01*
X162857257Y-109163004D01*
X162741217Y-109260837D01*
X162733321Y-109266269D01*
X162604765Y-109337265D01*
X162597020Y-109340705D01*
X162488050Y-109378200D01*
X162481972Y-109379863D01*
X162410163Y-109394623D01*
X162405317Y-109395368D01*
X162335751Y-109402531D01*
X162328473Y-109402737D01*
X162163805Y-109395139D01*
X162159047Y-109394686D01*
X162085629Y-109384063D01*
X161912612Y-109384002D01*
X161912603Y-109384003D01*
X161741366Y-109408752D01*
X161741358Y-109408753D01*
X161575439Y-109457799D01*
X161418270Y-109530125D01*
X161418261Y-109530130D01*
X161273081Y-109624248D01*
X161142892Y-109738215D01*
X161115624Y-109770039D01*
X161115625Y-109770040D01*
X161112590Y-109773583D01*
X161112539Y-109773610D01*
X161087645Y-109802697D01*
X161086922Y-109803542D01*
X161086920Y-109803542D01*
X161086276Y-109804281D01*
X160675740Y-110264472D01*
X160674367Y-110265949D01*
X160245590Y-110708502D01*
X160244157Y-110709921D01*
X159797303Y-111134676D01*
X159796566Y-111135362D01*
X159774119Y-111155838D01*
X159727049Y-111198779D01*
X159727044Y-111198784D01*
X159609755Y-111346803D01*
X159517746Y-111511736D01*
X159517743Y-111511744D01*
X159453408Y-111689301D01*
X159453404Y-111689315D01*
X159418408Y-111874897D01*
X159413657Y-112063689D01*
X159413659Y-112063710D01*
X159424798Y-112145102D01*
X159425216Y-112149889D01*
X159431463Y-112314632D01*
X159431197Y-112321908D01*
X159423463Y-112391410D01*
X159422678Y-112396252D01*
X159407262Y-112468239D01*
X159405592Y-112474180D01*
X159369034Y-112578525D01*
X159365614Y-112586138D01*
X159294037Y-112714849D01*
X159288582Y-112722729D01*
X159190181Y-112838746D01*
X159184016Y-112844831D01*
X159091639Y-112921130D01*
X159087635Y-112924107D01*
X158441533Y-113355289D01*
X158439471Y-113356592D01*
X157766627Y-113758732D01*
X157764504Y-113759931D01*
X157072451Y-114128116D01*
X157070270Y-114129207D01*
X156360789Y-114462489D01*
X156358556Y-114463471D01*
X155633357Y-114761048D01*
X155631079Y-114761917D01*
X154891980Y-115023041D01*
X154889661Y-115023796D01*
X154138491Y-115247823D01*
X154136138Y-115248462D01*
X153374716Y-115434847D01*
X153372333Y-115435367D01*
X152602635Y-115583630D01*
X152600230Y-115584032D01*
X151824064Y-115693821D01*
X151821641Y-115694102D01*
X151041011Y-115765136D01*
X151038578Y-115765297D01*
X150255346Y-115797406D01*
X150252908Y-115797445D01*
X149469072Y-115790546D01*
X149466634Y-115790464D01*
X148684106Y-115744575D01*
X148681676Y-115744372D01*
X147902391Y-115659606D01*
X147899974Y-115659282D01*
X147125877Y-115535850D01*
X147123479Y-115535406D01*
X146356478Y-115373614D01*
X146354105Y-115373051D01*
X145596110Y-115173298D01*
X145593769Y-115172618D01*
X144846672Y-114935409D01*
X144844366Y-114934614D01*
X144109958Y-114660513D01*
X144107696Y-114659604D01*
X143387849Y-114349309D01*
X143385634Y-114348288D01*
X142682113Y-114002563D01*
X142679952Y-114001433D01*
X141994518Y-113621141D01*
X141992415Y-113619905D01*
X141326734Y-113205972D01*
X141324696Y-113204633D01*
X140680452Y-112758105D01*
X140678483Y-112756667D01*
X140057231Y-112278623D01*
X140055336Y-112277088D01*
X139458660Y-111768746D01*
X139456843Y-111767119D01*
X139096964Y-111428207D01*
X139062494Y-111395745D01*
X140682548Y-111395745D01*
X140682548Y-111395747D01*
X140682548Y-111520949D01*
X140714953Y-111641884D01*
X140777553Y-111750312D01*
X140866084Y-111838843D01*
X140974512Y-111901443D01*
X141047073Y-111920886D01*
X141095445Y-111933848D01*
X141095447Y-111933848D01*
X141220651Y-111933848D01*
X141260960Y-111923046D01*
X141341584Y-111901443D01*
X141450012Y-111838843D01*
X141538543Y-111750312D01*
X141601143Y-111641884D01*
X141633548Y-111520949D01*
X141633548Y-111395747D01*
X141633548Y-111395745D01*
X141620433Y-111346803D01*
X141601143Y-111274812D01*
X141538543Y-111166384D01*
X141450012Y-111077853D01*
X141341584Y-111015253D01*
X141327289Y-111011422D01*
X141220651Y-110982848D01*
X141220649Y-110982848D01*
X141095447Y-110982848D01*
X141095445Y-110982848D01*
X140974515Y-111015252D01*
X140974514Y-111015252D01*
X140974512Y-111015253D01*
X140866084Y-111077853D01*
X140866081Y-111077855D01*
X140777555Y-111166381D01*
X140777553Y-111166384D01*
X140714953Y-111274812D01*
X140714952Y-111274814D01*
X140714952Y-111274815D01*
X140682548Y-111395745D01*
X139062494Y-111395745D01*
X138886164Y-111229688D01*
X138884438Y-111227979D01*
X138825232Y-111166384D01*
X138341230Y-110662848D01*
X138339585Y-110661049D01*
X138067363Y-110348059D01*
X137895946Y-110150970D01*
X148899836Y-110150970D01*
X148899836Y-110348059D01*
X148938283Y-110541342D01*
X148938285Y-110541351D01*
X149013702Y-110723425D01*
X149013704Y-110723429D01*
X149123197Y-110887297D01*
X149262554Y-111026654D01*
X149426422Y-111136147D01*
X149608501Y-111211566D01*
X149801795Y-111250015D01*
X149998877Y-111250015D01*
X150192171Y-111211566D01*
X150374250Y-111136147D01*
X150538118Y-111026654D01*
X150677475Y-110887297D01*
X150786968Y-110723429D01*
X150862387Y-110541350D01*
X150900836Y-110348056D01*
X150900836Y-110150974D01*
X150862387Y-109957680D01*
X150786968Y-109775601D01*
X150677475Y-109611733D01*
X150538118Y-109472376D01*
X150374250Y-109362883D01*
X150374247Y-109362881D01*
X150374246Y-109362881D01*
X150192172Y-109287464D01*
X150192163Y-109287462D01*
X149998880Y-109249015D01*
X149998877Y-109249015D01*
X149801795Y-109249015D01*
X149801791Y-109249015D01*
X149608508Y-109287462D01*
X149608499Y-109287464D01*
X149426425Y-109362881D01*
X149262554Y-109472375D01*
X149123196Y-109611733D01*
X149013702Y-109775604D01*
X148938285Y-109957678D01*
X148938283Y-109957687D01*
X148899836Y-110150970D01*
X137895946Y-110150970D01*
X137825152Y-110069574D01*
X137823602Y-110067699D01*
X137737145Y-109957687D01*
X137641558Y-109836056D01*
X137339255Y-109451390D01*
X137337796Y-109449436D01*
X136884696Y-108809770D01*
X136883337Y-108807747D01*
X136880024Y-108802539D01*
X136865337Y-108779449D01*
X138066252Y-108779449D01*
X138066252Y-108779451D01*
X138066252Y-108904653D01*
X138098657Y-109025588D01*
X138161257Y-109134016D01*
X138249788Y-109222547D01*
X138358216Y-109285147D01*
X138430777Y-109304590D01*
X138479149Y-109317552D01*
X138479151Y-109317552D01*
X138604355Y-109317552D01*
X138644664Y-109306750D01*
X138725288Y-109285147D01*
X138833716Y-109222547D01*
X138922247Y-109134016D01*
X138984847Y-109025588D01*
X139017252Y-108904653D01*
X139017252Y-108779451D01*
X139017252Y-108779449D01*
X138996150Y-108700699D01*
X138984847Y-108658516D01*
X138922247Y-108550088D01*
X138833716Y-108461557D01*
X138725288Y-108398957D01*
X138710993Y-108395126D01*
X138604355Y-108366552D01*
X138604353Y-108366552D01*
X138479151Y-108366552D01*
X138479149Y-108366552D01*
X138358219Y-108398956D01*
X138358218Y-108398956D01*
X138358216Y-108398957D01*
X138275260Y-108446851D01*
X138249788Y-108461557D01*
X138249785Y-108461559D01*
X138161259Y-108550085D01*
X138161257Y-108550088D01*
X138098657Y-108658516D01*
X138098656Y-108658518D01*
X138098656Y-108658519D01*
X138066252Y-108779449D01*
X136865337Y-108779449D01*
X136462625Y-108146331D01*
X136461371Y-108144247D01*
X136410250Y-108054287D01*
X136347277Y-107943469D01*
X144143400Y-107943469D01*
X144143400Y-108048930D01*
X144170692Y-108150785D01*
X144170693Y-108150789D01*
X144212405Y-108223034D01*
X144223420Y-108242113D01*
X144297987Y-108316680D01*
X144331413Y-108335978D01*
X144389310Y-108369406D01*
X144389312Y-108369406D01*
X144389313Y-108369407D01*
X144469647Y-108390932D01*
X144491169Y-108396699D01*
X144491170Y-108396700D01*
X144491173Y-108396700D01*
X144596630Y-108396700D01*
X144596630Y-108396699D01*
X144698487Y-108369407D01*
X144789813Y-108316680D01*
X144859024Y-108247469D01*
X150699400Y-108247469D01*
X150699400Y-108352930D01*
X150726692Y-108454785D01*
X150726693Y-108454789D01*
X150779420Y-108546113D01*
X150853987Y-108620680D01*
X150887413Y-108639978D01*
X150945310Y-108673406D01*
X150945312Y-108673406D01*
X150945313Y-108673407D01*
X151025647Y-108694932D01*
X151047169Y-108700699D01*
X151047170Y-108700700D01*
X151047173Y-108700700D01*
X151152630Y-108700700D01*
X151152630Y-108700699D01*
X151254487Y-108673407D01*
X151345813Y-108620680D01*
X151420380Y-108546113D01*
X151473107Y-108454787D01*
X151500399Y-108352930D01*
X151500400Y-108352930D01*
X151500400Y-108247470D01*
X151500399Y-108247469D01*
X151474493Y-108150785D01*
X151473107Y-108145613D01*
X151473106Y-108145612D01*
X151473106Y-108145610D01*
X151420379Y-108054286D01*
X151345813Y-107979720D01*
X151254489Y-107926993D01*
X151254485Y-107926992D01*
X151152630Y-107899700D01*
X151152627Y-107899700D01*
X151047173Y-107899700D01*
X151047170Y-107899700D01*
X150945314Y-107926992D01*
X150945310Y-107926993D01*
X150853986Y-107979720D01*
X150853986Y-107979721D01*
X150779421Y-108054286D01*
X150779420Y-108054286D01*
X150726693Y-108145610D01*
X150726692Y-108145614D01*
X150699400Y-108247469D01*
X144859024Y-108247469D01*
X144864380Y-108242113D01*
X144917107Y-108150787D01*
X144944399Y-108048930D01*
X144944400Y-108048930D01*
X144944400Y-107943470D01*
X144944399Y-107943469D01*
X144917107Y-107841614D01*
X144917106Y-107841610D01*
X144864379Y-107750286D01*
X144789813Y-107675720D01*
X144698489Y-107622993D01*
X144698485Y-107622992D01*
X144596630Y-107595700D01*
X144596627Y-107595700D01*
X144491173Y-107595700D01*
X144491170Y-107595700D01*
X144389314Y-107622992D01*
X144389310Y-107622993D01*
X144297986Y-107675720D01*
X144297986Y-107675721D01*
X144223421Y-107750286D01*
X144223420Y-107750286D01*
X144170693Y-107841610D01*
X144170692Y-107841614D01*
X144143400Y-107943469D01*
X136347277Y-107943469D01*
X136122246Y-107547469D01*
X153299400Y-107547469D01*
X153299400Y-107652930D01*
X153326692Y-107754785D01*
X153326693Y-107754789D01*
X153379420Y-107846113D01*
X153453987Y-107920680D01*
X153487413Y-107939978D01*
X153545310Y-107973406D01*
X153545312Y-107973406D01*
X153545313Y-107973407D01*
X153625647Y-107994932D01*
X153647169Y-108000699D01*
X153647170Y-108000700D01*
X153647173Y-108000700D01*
X153752630Y-108000700D01*
X153752630Y-108000699D01*
X153854487Y-107973407D01*
X153945813Y-107920680D01*
X154020380Y-107846113D01*
X154073107Y-107754787D01*
X154100399Y-107652930D01*
X154100400Y-107652930D01*
X154100400Y-107649700D01*
X154114752Y-107615052D01*
X154149400Y-107600700D01*
X154152630Y-107600700D01*
X154152630Y-107600699D01*
X154254487Y-107573407D01*
X154345813Y-107520680D01*
X154420380Y-107446113D01*
X154473107Y-107354787D01*
X154500399Y-107252930D01*
X154500400Y-107252930D01*
X154500400Y-107147470D01*
X154500399Y-107147469D01*
X154473107Y-107045614D01*
X154473106Y-107045610D01*
X154420379Y-106954286D01*
X154345813Y-106879720D01*
X154254489Y-106826993D01*
X154254485Y-106826992D01*
X154152630Y-106799700D01*
X154152627Y-106799700D01*
X154047173Y-106799700D01*
X154047170Y-106799700D01*
X153945314Y-106826992D01*
X153945310Y-106826993D01*
X153853986Y-106879720D01*
X153853986Y-106879721D01*
X153779421Y-106954286D01*
X153779420Y-106954286D01*
X153726693Y-107045610D01*
X153726692Y-107045614D01*
X153699400Y-107147469D01*
X153699400Y-107150700D01*
X153685048Y-107185348D01*
X153650400Y-107199700D01*
X153647170Y-107199700D01*
X153545314Y-107226992D01*
X153545310Y-107226993D01*
X153453986Y-107279720D01*
X153453986Y-107279721D01*
X153379421Y-107354286D01*
X153379420Y-107354286D01*
X153326693Y-107445610D01*
X153326692Y-107445614D01*
X153299400Y-107547469D01*
X136122246Y-107547469D01*
X136074089Y-107462724D01*
X136072937Y-107460574D01*
X135720041Y-106760624D01*
X135718998Y-106758420D01*
X135598086Y-106485619D01*
X135401360Y-106041767D01*
X135400434Y-106039529D01*
X135397960Y-106033102D01*
X135318161Y-105825786D01*
X138777717Y-105825786D01*
X138777717Y-105931247D01*
X138805009Y-106033102D01*
X138805010Y-106033106D01*
X138829148Y-106074913D01*
X138857737Y-106124430D01*
X138932304Y-106198997D01*
X138965730Y-106218295D01*
X139023627Y-106251723D01*
X139023629Y-106251723D01*
X139023630Y-106251724D01*
X139103964Y-106273249D01*
X139125486Y-106279016D01*
X139125487Y-106279017D01*
X139125490Y-106279017D01*
X139230947Y-106279017D01*
X139230947Y-106279016D01*
X139332804Y-106251724D01*
X139424130Y-106198997D01*
X139498697Y-106124430D01*
X139551424Y-106033104D01*
X139578716Y-105931247D01*
X139578717Y-105931247D01*
X139578717Y-105825787D01*
X139578716Y-105825786D01*
X139561836Y-105762789D01*
X139551424Y-105723930D01*
X139551423Y-105723929D01*
X139551423Y-105723927D01*
X139498696Y-105632603D01*
X139424130Y-105558037D01*
X139419682Y-105555469D01*
X145007400Y-105555469D01*
X145007400Y-105660930D01*
X145034692Y-105762785D01*
X145034693Y-105762789D01*
X145079376Y-105840180D01*
X145087420Y-105854113D01*
X145161987Y-105928680D01*
X145195413Y-105947978D01*
X145253310Y-105981406D01*
X145253312Y-105981406D01*
X145253313Y-105981407D01*
X145333647Y-106002932D01*
X145355169Y-106008699D01*
X145355170Y-106008700D01*
X145355173Y-106008700D01*
X145460630Y-106008700D01*
X145460630Y-106008699D01*
X145562487Y-105981407D01*
X145653813Y-105928680D01*
X145728380Y-105854113D01*
X145781107Y-105762787D01*
X145808399Y-105660930D01*
X145808400Y-105660930D01*
X145808400Y-105555470D01*
X145808399Y-105555469D01*
X145781107Y-105453614D01*
X145781106Y-105453610D01*
X145728379Y-105362286D01*
X145653813Y-105287720D01*
X145562489Y-105234993D01*
X145562485Y-105234992D01*
X145460630Y-105207700D01*
X145460627Y-105207700D01*
X145355173Y-105207700D01*
X145355170Y-105207700D01*
X145253314Y-105234992D01*
X145253310Y-105234993D01*
X145161986Y-105287720D01*
X145161986Y-105287721D01*
X145087421Y-105362286D01*
X145087420Y-105362286D01*
X145034693Y-105453610D01*
X145034692Y-105453614D01*
X145007400Y-105555469D01*
X139419682Y-105555469D01*
X139332806Y-105505310D01*
X139332802Y-105505309D01*
X139230947Y-105478017D01*
X139230944Y-105478017D01*
X139125490Y-105478017D01*
X139125487Y-105478017D01*
X139023631Y-105505309D01*
X139023627Y-105505310D01*
X138932303Y-105558037D01*
X138932303Y-105558038D01*
X138857738Y-105632603D01*
X138857737Y-105632603D01*
X138805010Y-105723927D01*
X138805009Y-105723931D01*
X138777717Y-105825786D01*
X135318161Y-105825786D01*
X135118846Y-105307968D01*
X135118031Y-105305681D01*
X135094789Y-105234992D01*
X134873184Y-104561002D01*
X134872497Y-104558722D01*
X134704718Y-103947469D01*
X143899400Y-103947469D01*
X143899400Y-104052930D01*
X143926692Y-104154785D01*
X143926693Y-104154789D01*
X143981026Y-104248894D01*
X143979963Y-104249507D01*
X143988555Y-104281609D01*
X143980451Y-104301174D01*
X143981026Y-104301506D01*
X143926693Y-104395610D01*
X143926692Y-104395614D01*
X143899400Y-104497469D01*
X143899400Y-104602930D01*
X143926692Y-104704785D01*
X143926693Y-104704789D01*
X143951022Y-104746927D01*
X143979420Y-104796113D01*
X144053987Y-104870680D01*
X144059620Y-104873932D01*
X144145310Y-104923406D01*
X144145312Y-104923406D01*
X144145313Y-104923407D01*
X144207665Y-104940114D01*
X144247169Y-104950699D01*
X144247170Y-104950700D01*
X144247173Y-104950700D01*
X144352630Y-104950700D01*
X144352630Y-104950699D01*
X144454487Y-104923407D01*
X144545813Y-104870680D01*
X144620380Y-104796113D01*
X144673107Y-104704787D01*
X144700399Y-104602930D01*
X144700400Y-104602930D01*
X144700400Y-104497470D01*
X144700399Y-104497469D01*
X144690891Y-104461986D01*
X144673107Y-104395613D01*
X144673106Y-104395612D01*
X144673106Y-104395610D01*
X144630025Y-104320993D01*
X144620380Y-104304287D01*
X144620379Y-104304286D01*
X144618774Y-104301506D01*
X144619840Y-104300890D01*
X144611242Y-104268808D01*
X144619352Y-104249227D01*
X144618774Y-104248894D01*
X144673106Y-104154789D01*
X144673106Y-104154788D01*
X144673107Y-104154787D01*
X144700399Y-104052930D01*
X144700400Y-104052930D01*
X144700400Y-104047469D01*
X147399400Y-104047469D01*
X147399400Y-104152930D01*
X147426692Y-104254785D01*
X147426693Y-104254789D01*
X147479420Y-104346113D01*
X147553987Y-104420680D01*
X147578459Y-104434809D01*
X147645310Y-104473406D01*
X147645312Y-104473406D01*
X147645313Y-104473407D01*
X147725647Y-104494932D01*
X147747169Y-104500699D01*
X147747170Y-104500700D01*
X147747173Y-104500700D01*
X147852630Y-104500700D01*
X147852630Y-104500699D01*
X147954487Y-104473407D01*
X147974269Y-104461985D01*
X148011449Y-104457090D01*
X148041203Y-104479920D01*
X148051335Y-104497469D01*
X148079420Y-104546113D01*
X148153987Y-104620680D01*
X148177460Y-104634232D01*
X148245310Y-104673406D01*
X148245312Y-104673406D01*
X148245313Y-104673407D01*
X148318720Y-104693076D01*
X148347169Y-104700699D01*
X148347170Y-104700700D01*
X148347173Y-104700700D01*
X148452630Y-104700700D01*
X148452630Y-104700699D01*
X148551666Y-104674163D01*
X148557589Y-104672576D01*
X148558016Y-104674171D01*
X148590139Y-104674163D01*
X148616665Y-104700674D01*
X148620400Y-104719438D01*
X148620400Y-104746930D01*
X148647692Y-104848785D01*
X148647693Y-104848789D01*
X148662210Y-104873932D01*
X148700420Y-104940113D01*
X148774987Y-105014680D01*
X148808413Y-105033978D01*
X148866310Y-105067406D01*
X148866312Y-105067406D01*
X148866313Y-105067407D01*
X148946647Y-105088932D01*
X148968169Y-105094699D01*
X148968170Y-105094700D01*
X148968173Y-105094700D01*
X149073630Y-105094700D01*
X149073630Y-105094699D01*
X149175487Y-105067407D01*
X149266813Y-105014680D01*
X149341380Y-104940113D01*
X149394107Y-104848787D01*
X149421399Y-104746930D01*
X149421400Y-104746930D01*
X149421400Y-104641470D01*
X149421399Y-104641469D01*
X149620400Y-104641469D01*
X149620400Y-104746930D01*
X149647692Y-104848785D01*
X149647693Y-104848789D01*
X149662210Y-104873932D01*
X149700420Y-104940113D01*
X149774987Y-105014680D01*
X149808413Y-105033978D01*
X149866310Y-105067406D01*
X149866312Y-105067406D01*
X149866313Y-105067407D01*
X149946647Y-105088932D01*
X149968169Y-105094699D01*
X149968170Y-105094700D01*
X149968173Y-105094700D01*
X150073630Y-105094700D01*
X150073630Y-105094699D01*
X150175487Y-105067407D01*
X150266813Y-105014680D01*
X150341380Y-104940113D01*
X150394107Y-104848787D01*
X150421399Y-104746930D01*
X150421400Y-104746930D01*
X150421400Y-104641470D01*
X150421399Y-104641469D01*
X150620400Y-104641469D01*
X150620400Y-104746930D01*
X150647692Y-104848785D01*
X150647693Y-104848789D01*
X150662210Y-104873932D01*
X150700420Y-104940113D01*
X150774987Y-105014680D01*
X150808413Y-105033978D01*
X150866310Y-105067406D01*
X150866312Y-105067406D01*
X150866313Y-105067407D01*
X150946647Y-105088932D01*
X150968169Y-105094699D01*
X150968170Y-105094700D01*
X150968173Y-105094700D01*
X151073630Y-105094700D01*
X151073630Y-105094699D01*
X151175487Y-105067407D01*
X151266813Y-105014680D01*
X151341380Y-104940113D01*
X151394107Y-104848787D01*
X151421399Y-104746930D01*
X151421400Y-104746930D01*
X151421400Y-104641470D01*
X151421399Y-104641469D01*
X151415632Y-104619947D01*
X151394107Y-104539613D01*
X151394106Y-104539612D01*
X151394106Y-104539610D01*
X151346462Y-104457090D01*
X151341380Y-104448287D01*
X151266813Y-104373720D01*
X151264868Y-104372597D01*
X151175489Y-104320993D01*
X151175485Y-104320992D01*
X151139168Y-104311261D01*
X151073630Y-104293700D01*
X151073627Y-104293700D01*
X150968173Y-104293700D01*
X150968170Y-104293700D01*
X150866314Y-104320992D01*
X150866310Y-104320993D01*
X150774986Y-104373720D01*
X150774986Y-104373721D01*
X150700421Y-104448286D01*
X150700420Y-104448286D01*
X150647693Y-104539610D01*
X150647692Y-104539614D01*
X150620400Y-104641469D01*
X150421399Y-104641469D01*
X150415632Y-104619947D01*
X150394107Y-104539613D01*
X150394106Y-104539612D01*
X150394106Y-104539610D01*
X150346462Y-104457090D01*
X150341380Y-104448287D01*
X150266813Y-104373720D01*
X150264868Y-104372597D01*
X150175489Y-104320993D01*
X150175485Y-104320992D01*
X150073630Y-104293700D01*
X150073627Y-104293700D01*
X149968173Y-104293700D01*
X149968170Y-104293700D01*
X149866314Y-104320992D01*
X149866310Y-104320993D01*
X149774986Y-104373720D01*
X149774986Y-104373721D01*
X149700421Y-104448286D01*
X149700420Y-104448286D01*
X149647693Y-104539610D01*
X149647692Y-104539614D01*
X149620400Y-104641469D01*
X149421399Y-104641469D01*
X149415632Y-104619947D01*
X149394107Y-104539613D01*
X149394106Y-104539612D01*
X149394106Y-104539610D01*
X149346462Y-104457090D01*
X149341380Y-104448287D01*
X149266813Y-104373720D01*
X149264868Y-104372597D01*
X149175489Y-104320993D01*
X149175485Y-104320992D01*
X149073630Y-104293700D01*
X149073627Y-104293700D01*
X148968173Y-104293700D01*
X148968170Y-104293700D01*
X148863211Y-104321824D01*
X148862785Y-104320237D01*
X148830626Y-104320222D01*
X148804121Y-104293690D01*
X148800400Y-104274961D01*
X148800400Y-104267139D01*
X154979730Y-104267139D01*
X154979730Y-104372600D01*
X155007022Y-104474455D01*
X155007023Y-104474459D01*
X155055657Y-104558694D01*
X155059750Y-104565783D01*
X155134317Y-104640350D01*
X155167743Y-104659648D01*
X155225640Y-104693076D01*
X155225642Y-104693076D01*
X155225643Y-104693077D01*
X155305977Y-104714602D01*
X155327499Y-104720369D01*
X155327500Y-104720370D01*
X155327503Y-104720370D01*
X155432960Y-104720370D01*
X155432960Y-104720369D01*
X155534817Y-104693077D01*
X155626143Y-104640350D01*
X155700710Y-104565783D01*
X155753437Y-104474457D01*
X155780729Y-104372600D01*
X155780730Y-104372600D01*
X155780730Y-104267140D01*
X155780729Y-104267139D01*
X155753437Y-104165284D01*
X155753436Y-104165280D01*
X155700709Y-104073956D01*
X155626143Y-103999390D01*
X155534819Y-103946663D01*
X155534815Y-103946662D01*
X155432960Y-103919370D01*
X155432957Y-103919370D01*
X155327503Y-103919370D01*
X155327500Y-103919370D01*
X155225644Y-103946662D01*
X155225640Y-103946663D01*
X155134316Y-103999390D01*
X155134316Y-103999391D01*
X155059751Y-104073956D01*
X155059750Y-104073956D01*
X155007023Y-104165280D01*
X155007022Y-104165284D01*
X154979730Y-104267139D01*
X148800400Y-104267139D01*
X148800400Y-104247470D01*
X148800399Y-104247469D01*
X148778378Y-104165284D01*
X148773107Y-104145613D01*
X148773106Y-104145612D01*
X148773106Y-104145610D01*
X148720379Y-104054286D01*
X148645813Y-103979720D01*
X148554489Y-103926993D01*
X148554485Y-103926992D01*
X148452630Y-103899700D01*
X148452627Y-103899700D01*
X148347173Y-103899700D01*
X148347170Y-103899700D01*
X148245317Y-103926991D01*
X148245311Y-103926993D01*
X148225527Y-103938415D01*
X148188345Y-103943308D01*
X148158595Y-103920478D01*
X148120380Y-103854287D01*
X148045813Y-103779720D01*
X148034877Y-103773406D01*
X147954489Y-103726993D01*
X147954485Y-103726992D01*
X147852630Y-103699700D01*
X147852627Y-103699700D01*
X147747173Y-103699700D01*
X147747170Y-103699700D01*
X147645314Y-103726992D01*
X147645310Y-103726993D01*
X147553986Y-103779720D01*
X147553986Y-103779721D01*
X147479421Y-103854286D01*
X147479420Y-103854286D01*
X147426693Y-103945610D01*
X147426692Y-103945614D01*
X147399400Y-104047469D01*
X144700400Y-104047469D01*
X144700400Y-103947470D01*
X144700399Y-103947469D01*
X144677494Y-103861985D01*
X144673107Y-103845613D01*
X144673106Y-103845612D01*
X144673106Y-103845610D01*
X144620379Y-103754286D01*
X144545813Y-103679720D01*
X144454489Y-103626993D01*
X144454485Y-103626992D01*
X144352630Y-103599700D01*
X144352627Y-103599700D01*
X144247173Y-103599700D01*
X144247170Y-103599700D01*
X144145314Y-103626992D01*
X144145310Y-103626993D01*
X144053986Y-103679720D01*
X144053986Y-103679721D01*
X143979421Y-103754286D01*
X143979420Y-103754286D01*
X143926693Y-103845610D01*
X143926692Y-103845614D01*
X143899400Y-103947469D01*
X134704718Y-103947469D01*
X134679911Y-103857090D01*
X134665004Y-103802780D01*
X134664417Y-103800413D01*
X134637667Y-103679721D01*
X134564027Y-103347469D01*
X146699400Y-103347469D01*
X146699400Y-103452930D01*
X146726692Y-103554785D01*
X146726693Y-103554789D01*
X146768381Y-103626993D01*
X146779420Y-103646113D01*
X146853987Y-103720680D01*
X146887413Y-103739978D01*
X146945310Y-103773406D01*
X146945312Y-103773406D01*
X146945313Y-103773407D01*
X147022470Y-103794081D01*
X147047169Y-103800699D01*
X147047170Y-103800700D01*
X147047173Y-103800700D01*
X147152630Y-103800700D01*
X147152630Y-103800699D01*
X147254487Y-103773407D01*
X147345813Y-103720680D01*
X147419024Y-103647469D01*
X155699400Y-103647469D01*
X155699400Y-103752930D01*
X155726692Y-103854785D01*
X155726693Y-103854789D01*
X155779130Y-103945610D01*
X155779420Y-103946113D01*
X155853987Y-104020680D01*
X155887413Y-104039978D01*
X155945310Y-104073406D01*
X155945312Y-104073406D01*
X155945313Y-104073407D01*
X156025647Y-104094932D01*
X156047169Y-104100699D01*
X156047170Y-104100700D01*
X156047173Y-104100700D01*
X156152630Y-104100700D01*
X156152630Y-104100699D01*
X156254487Y-104073407D01*
X156345813Y-104020680D01*
X156420380Y-103946113D01*
X156458597Y-103879918D01*
X156488347Y-103857090D01*
X156525527Y-103861983D01*
X156545313Y-103873407D01*
X156625647Y-103894932D01*
X156647169Y-103900699D01*
X156647170Y-103900700D01*
X156647173Y-103900700D01*
X156752630Y-103900700D01*
X156752630Y-103900699D01*
X156854487Y-103873407D01*
X156945813Y-103820680D01*
X157020380Y-103746113D01*
X157073107Y-103654787D01*
X157100399Y-103552930D01*
X157100400Y-103552930D01*
X157100400Y-103447470D01*
X157100399Y-103447469D01*
X157073605Y-103347473D01*
X157073107Y-103345613D01*
X157061684Y-103325828D01*
X157056789Y-103288649D01*
X157079616Y-103258898D01*
X157145813Y-103220680D01*
X157220380Y-103146113D01*
X157273107Y-103054787D01*
X157300399Y-102952930D01*
X157300400Y-102952930D01*
X157300400Y-102874611D01*
X157314752Y-102839963D01*
X157349400Y-102825611D01*
X157373897Y-102832175D01*
X157445313Y-102873407D01*
X157525647Y-102894932D01*
X157547169Y-102900699D01*
X157547170Y-102900700D01*
X157547173Y-102900700D01*
X157652630Y-102900700D01*
X157652630Y-102900699D01*
X157754487Y-102873407D01*
X157845813Y-102820680D01*
X157920380Y-102746113D01*
X157973107Y-102654787D01*
X158000399Y-102552930D01*
X158000400Y-102552930D01*
X158000400Y-102447470D01*
X158000399Y-102447469D01*
X157973107Y-102345614D01*
X157973106Y-102345610D01*
X157923635Y-102259925D01*
X157920380Y-102254287D01*
X157845813Y-102179720D01*
X157835386Y-102173700D01*
X157754489Y-102126993D01*
X157754485Y-102126992D01*
X157652630Y-102099700D01*
X157652627Y-102099700D01*
X157547173Y-102099700D01*
X157547170Y-102099700D01*
X157445314Y-102126992D01*
X157445310Y-102126993D01*
X157353986Y-102179720D01*
X157353986Y-102179721D01*
X157279421Y-102254286D01*
X157279420Y-102254286D01*
X157226693Y-102345610D01*
X157226692Y-102345614D01*
X157199400Y-102447469D01*
X157199400Y-102525788D01*
X157185048Y-102560436D01*
X157150400Y-102574788D01*
X157125900Y-102568223D01*
X157054489Y-102526993D01*
X157054485Y-102526992D01*
X156952630Y-102499700D01*
X156952627Y-102499700D01*
X156847173Y-102499700D01*
X156847170Y-102499700D01*
X156745314Y-102526992D01*
X156745310Y-102526993D01*
X156653986Y-102579720D01*
X156653986Y-102579721D01*
X156579421Y-102654286D01*
X156579420Y-102654286D01*
X156526693Y-102745610D01*
X156526692Y-102745614D01*
X156499400Y-102847469D01*
X156499400Y-102952930D01*
X156526691Y-103054782D01*
X156526693Y-103054788D01*
X156526694Y-103054789D01*
X156538114Y-103074569D01*
X156543009Y-103111750D01*
X156520180Y-103141503D01*
X156453984Y-103179722D01*
X156379422Y-103254284D01*
X156341203Y-103320480D01*
X156311449Y-103343310D01*
X156274269Y-103338414D01*
X156264096Y-103332541D01*
X156254488Y-103326993D01*
X156254482Y-103326991D01*
X156152630Y-103299700D01*
X156152627Y-103299700D01*
X156047173Y-103299700D01*
X156047170Y-103299700D01*
X155945314Y-103326992D01*
X155945310Y-103326993D01*
X155853986Y-103379720D01*
X155853986Y-103379721D01*
X155779421Y-103454286D01*
X155779420Y-103454286D01*
X155726693Y-103545610D01*
X155726692Y-103545614D01*
X155699400Y-103647469D01*
X147419024Y-103647469D01*
X147420380Y-103646113D01*
X147473107Y-103554787D01*
X147500399Y-103452930D01*
X147500400Y-103452930D01*
X147500400Y-103347470D01*
X147500399Y-103347469D01*
X147476666Y-103258895D01*
X147473107Y-103245613D01*
X147473106Y-103245612D01*
X147473106Y-103245610D01*
X147420379Y-103154286D01*
X147345813Y-103079720D01*
X147254489Y-103026993D01*
X147254485Y-103026992D01*
X147152630Y-102999700D01*
X147152627Y-102999700D01*
X147047173Y-102999700D01*
X147047170Y-102999700D01*
X146945314Y-103026992D01*
X146945310Y-103026993D01*
X146853986Y-103079720D01*
X146853986Y-103079721D01*
X146779421Y-103154286D01*
X146779420Y-103154286D01*
X146726693Y-103245610D01*
X146726692Y-103245614D01*
X146699400Y-103347469D01*
X134564027Y-103347469D01*
X134494786Y-103035068D01*
X134494331Y-103032743D01*
X134362991Y-102259913D01*
X134362644Y-102257511D01*
X134362319Y-102254785D01*
X134359184Y-102228469D01*
X139825400Y-102228469D01*
X139825400Y-102333930D01*
X139852692Y-102435785D01*
X139852693Y-102435789D01*
X139889593Y-102499700D01*
X139905420Y-102527113D01*
X139979987Y-102601680D01*
X140013413Y-102620978D01*
X140071310Y-102654406D01*
X140071312Y-102654406D01*
X140071313Y-102654407D01*
X140151647Y-102675932D01*
X140173169Y-102681699D01*
X140173170Y-102681700D01*
X140173173Y-102681700D01*
X140278630Y-102681700D01*
X140278630Y-102681699D01*
X140380487Y-102654407D01*
X140471813Y-102601680D01*
X140546380Y-102527113D01*
X140599107Y-102435787D01*
X140626399Y-102333930D01*
X140626400Y-102333930D01*
X140626400Y-102228470D01*
X140626399Y-102228469D01*
X140611724Y-102173700D01*
X140599107Y-102126613D01*
X140599106Y-102126612D01*
X140599106Y-102126610D01*
X140572579Y-102080665D01*
X140553413Y-102047469D01*
X151299400Y-102047469D01*
X151299400Y-102152930D01*
X151326692Y-102254785D01*
X151326693Y-102254789D01*
X151372384Y-102333927D01*
X151379420Y-102346113D01*
X151453987Y-102420680D01*
X151480150Y-102435785D01*
X151545310Y-102473406D01*
X151545312Y-102473406D01*
X151545313Y-102473407D01*
X151625647Y-102494932D01*
X151647169Y-102500699D01*
X151647170Y-102500700D01*
X151647173Y-102500700D01*
X151752630Y-102500700D01*
X151752630Y-102500699D01*
X151854487Y-102473407D01*
X151945813Y-102420680D01*
X152020380Y-102346113D01*
X152073107Y-102254787D01*
X152100399Y-102152930D01*
X152100400Y-102152930D01*
X152100400Y-102047470D01*
X152100399Y-102047469D01*
X152073107Y-101945614D01*
X152073106Y-101945610D01*
X152039678Y-101887713D01*
X152020380Y-101854287D01*
X151945813Y-101779720D01*
X151854489Y-101726993D01*
X151854485Y-101726992D01*
X151752630Y-101699700D01*
X151752627Y-101699700D01*
X151647173Y-101699700D01*
X151647170Y-101699700D01*
X151545314Y-101726992D01*
X151545310Y-101726993D01*
X151453986Y-101779720D01*
X151453986Y-101779721D01*
X151379421Y-101854286D01*
X151379420Y-101854286D01*
X151326693Y-101945610D01*
X151326692Y-101945614D01*
X151299400Y-102047469D01*
X140553413Y-102047469D01*
X140546380Y-102035287D01*
X140471813Y-101960720D01*
X140445642Y-101945610D01*
X140380489Y-101907993D01*
X140380485Y-101907992D01*
X140278630Y-101880700D01*
X140278627Y-101880700D01*
X140173173Y-101880700D01*
X140173170Y-101880700D01*
X140071314Y-101907992D01*
X140071310Y-101907993D01*
X139979986Y-101960720D01*
X139979986Y-101960721D01*
X139905421Y-102035286D01*
X139905420Y-102035286D01*
X139852693Y-102126610D01*
X139852692Y-102126614D01*
X139825400Y-102228469D01*
X134359184Y-102228469D01*
X134289973Y-101647469D01*
X158099400Y-101647469D01*
X158099400Y-101752930D01*
X158126692Y-101854785D01*
X158126693Y-101854789D01*
X158179130Y-101945610D01*
X158179420Y-101946113D01*
X158253987Y-102020680D01*
X158279287Y-102035287D01*
X158345310Y-102073406D01*
X158345312Y-102073406D01*
X158345313Y-102073407D01*
X158420970Y-102093679D01*
X158447169Y-102100699D01*
X158447170Y-102100700D01*
X158447173Y-102100700D01*
X158552630Y-102100700D01*
X158552630Y-102100699D01*
X158654487Y-102073407D01*
X158745813Y-102020680D01*
X158820380Y-101946113D01*
X158873107Y-101854787D01*
X158900399Y-101752930D01*
X158900400Y-101752930D01*
X158900400Y-101720469D01*
X164082400Y-101720469D01*
X164082400Y-101825930D01*
X164109692Y-101927785D01*
X164109693Y-101927789D01*
X164128707Y-101960721D01*
X164162420Y-102019113D01*
X164236987Y-102093680D01*
X164249146Y-102100700D01*
X164328310Y-102146406D01*
X164328312Y-102146406D01*
X164328313Y-102146407D01*
X164408647Y-102167932D01*
X164430169Y-102173699D01*
X164430170Y-102173700D01*
X164430173Y-102173700D01*
X164535630Y-102173700D01*
X164535630Y-102173699D01*
X164637487Y-102146407D01*
X164728813Y-102093680D01*
X164803380Y-102019113D01*
X164856107Y-101927787D01*
X164883399Y-101825930D01*
X164883400Y-101825930D01*
X164883400Y-101720470D01*
X164883399Y-101720469D01*
X164856107Y-101618614D01*
X164856106Y-101618610D01*
X164813961Y-101545614D01*
X164803380Y-101527287D01*
X164728813Y-101452720D01*
X164717371Y-101446114D01*
X164637489Y-101399993D01*
X164637485Y-101399992D01*
X164535630Y-101372700D01*
X164535627Y-101372700D01*
X164430173Y-101372700D01*
X164430170Y-101372700D01*
X164328314Y-101399992D01*
X164328310Y-101399993D01*
X164236986Y-101452720D01*
X164236986Y-101452721D01*
X164162421Y-101527286D01*
X164162420Y-101527286D01*
X164109693Y-101618610D01*
X164109692Y-101618614D01*
X164082400Y-101720469D01*
X158900400Y-101720469D01*
X158900400Y-101647470D01*
X158900399Y-101647469D01*
X158873107Y-101545614D01*
X158873106Y-101545610D01*
X158820379Y-101454286D01*
X158745813Y-101379720D01*
X158654489Y-101326993D01*
X158654485Y-101326992D01*
X158552630Y-101299700D01*
X158552627Y-101299700D01*
X158447173Y-101299700D01*
X158447170Y-101299700D01*
X158345314Y-101326992D01*
X158345310Y-101326993D01*
X158253986Y-101379720D01*
X158253986Y-101379721D01*
X158179421Y-101454286D01*
X158179420Y-101454286D01*
X158126693Y-101545610D01*
X158126692Y-101545614D01*
X158099400Y-101647469D01*
X134289973Y-101647469D01*
X134269915Y-101479095D01*
X134269694Y-101476740D01*
X134247007Y-101147469D01*
X144549400Y-101147469D01*
X144549400Y-101252930D01*
X144576692Y-101354785D01*
X144576693Y-101354789D01*
X144620328Y-101430365D01*
X144629420Y-101446113D01*
X144703987Y-101520680D01*
X144715429Y-101527286D01*
X144795310Y-101573406D01*
X144795312Y-101573406D01*
X144795313Y-101573407D01*
X144875647Y-101594932D01*
X144897169Y-101600699D01*
X144897170Y-101600700D01*
X144897173Y-101600700D01*
X145002630Y-101600700D01*
X145002630Y-101600699D01*
X145005592Y-101599905D01*
X145016696Y-101596931D01*
X145067470Y-101583325D01*
X145104487Y-101573407D01*
X145195813Y-101520680D01*
X145270380Y-101446113D01*
X145323107Y-101354787D01*
X145350399Y-101252930D01*
X145350400Y-101252930D01*
X145350400Y-101147470D01*
X145350399Y-101147469D01*
X145323107Y-101045614D01*
X145323106Y-101045610D01*
X145270379Y-100954286D01*
X145195813Y-100879720D01*
X145104489Y-100826993D01*
X145104485Y-100826992D01*
X145002630Y-100799700D01*
X145002627Y-100799700D01*
X144897173Y-100799700D01*
X144897170Y-100799700D01*
X144795314Y-100826992D01*
X144795310Y-100826993D01*
X144703986Y-100879720D01*
X144703986Y-100879721D01*
X144629421Y-100954286D01*
X144629420Y-100954286D01*
X144576693Y-101045610D01*
X144576692Y-101045614D01*
X144549400Y-101147469D01*
X134247007Y-101147469D01*
X134215807Y-100694653D01*
X134215703Y-100692280D01*
X134200795Y-99908510D01*
X134200809Y-99906084D01*
X134200975Y-99900699D01*
X134211260Y-99566389D01*
X137031400Y-99566389D01*
X137031400Y-99671850D01*
X137058692Y-99773705D01*
X137058693Y-99773709D01*
X137093484Y-99833967D01*
X137111420Y-99865033D01*
X137185987Y-99939600D01*
X137219413Y-99958898D01*
X137277310Y-99992326D01*
X137277312Y-99992326D01*
X137277313Y-99992327D01*
X137357647Y-100013852D01*
X137379169Y-100019619D01*
X137379170Y-100019620D01*
X137379173Y-100019620D01*
X137484630Y-100019620D01*
X137484630Y-100019619D01*
X137586487Y-99992327D01*
X137595011Y-99987406D01*
X137620705Y-99972571D01*
X137677813Y-99939600D01*
X137752380Y-99865033D01*
X137805107Y-99773707D01*
X137832399Y-99671850D01*
X137832400Y-99671850D01*
X137832400Y-99566391D01*
X137832399Y-99566388D01*
X137831081Y-99561469D01*
X140841400Y-99561469D01*
X140841400Y-99666930D01*
X140868692Y-99768785D01*
X140868693Y-99768789D01*
X140921395Y-99860069D01*
X140921420Y-99860113D01*
X140995987Y-99934680D01*
X141004509Y-99939600D01*
X141087310Y-99987406D01*
X141087312Y-99987406D01*
X141087313Y-99987407D01*
X141167647Y-100008932D01*
X141189169Y-100014699D01*
X141189170Y-100014700D01*
X141189173Y-100014700D01*
X141294630Y-100014700D01*
X141294630Y-100014699D01*
X141396487Y-99987407D01*
X141487813Y-99934680D01*
X141562380Y-99860113D01*
X141612265Y-99773709D01*
X141615106Y-99768789D01*
X141615106Y-99768788D01*
X141615107Y-99768787D01*
X141642399Y-99666930D01*
X141642400Y-99666930D01*
X141642400Y-99561470D01*
X141642399Y-99561469D01*
X141631469Y-99520679D01*
X141615107Y-99459613D01*
X141615106Y-99459612D01*
X141615106Y-99459610D01*
X141581678Y-99401713D01*
X141562380Y-99368287D01*
X141487813Y-99293720D01*
X141396489Y-99240993D01*
X141396485Y-99240992D01*
X141294630Y-99213700D01*
X141294627Y-99213700D01*
X141189173Y-99213700D01*
X141189170Y-99213700D01*
X141087314Y-99240992D01*
X141087310Y-99240993D01*
X140995986Y-99293720D01*
X140995986Y-99293721D01*
X140921421Y-99368286D01*
X140921420Y-99368286D01*
X140868693Y-99459610D01*
X140868692Y-99459614D01*
X140841400Y-99561469D01*
X137831081Y-99561469D01*
X137805107Y-99464534D01*
X137805106Y-99464530D01*
X137752379Y-99373206D01*
X137677813Y-99298640D01*
X137586489Y-99245913D01*
X137586485Y-99245912D01*
X137484630Y-99218620D01*
X137484627Y-99218620D01*
X137379173Y-99218620D01*
X137379170Y-99218620D01*
X137277314Y-99245912D01*
X137277310Y-99245913D01*
X137185986Y-99298640D01*
X137185986Y-99298641D01*
X137111421Y-99373206D01*
X137111420Y-99373206D01*
X137058693Y-99464530D01*
X137058692Y-99464534D01*
X137031400Y-99566389D01*
X134211260Y-99566389D01*
X134224147Y-99147469D01*
X144524400Y-99147469D01*
X144524400Y-99252930D01*
X144551692Y-99354785D01*
X144551693Y-99354789D01*
X144604420Y-99446113D01*
X144678987Y-99520680D01*
X144712413Y-99539978D01*
X144770310Y-99573406D01*
X144770312Y-99573406D01*
X144770313Y-99573407D01*
X144836375Y-99591108D01*
X144872169Y-99600699D01*
X144872170Y-99600700D01*
X144872173Y-99600700D01*
X144977630Y-99600700D01*
X144977630Y-99600699D01*
X145079487Y-99573407D01*
X145170813Y-99520680D01*
X145244024Y-99447469D01*
X150299400Y-99447469D01*
X150299400Y-99552930D01*
X150326692Y-99654785D01*
X150326693Y-99654789D01*
X150379420Y-99746113D01*
X150453987Y-99820680D01*
X150477001Y-99833967D01*
X150545310Y-99873406D01*
X150545312Y-99873406D01*
X150545313Y-99873407D01*
X150625647Y-99894932D01*
X150647169Y-99900699D01*
X150647170Y-99900700D01*
X150647173Y-99900700D01*
X150752630Y-99900700D01*
X150752630Y-99900699D01*
X150854487Y-99873407D01*
X150887802Y-99854172D01*
X150905381Y-99851857D01*
X150922828Y-99848752D01*
X150923802Y-99849432D01*
X150924981Y-99849277D01*
X150939046Y-99860069D01*
X150953583Y-99870213D01*
X150953760Y-99871359D01*
X150954735Y-99872107D01*
X150960156Y-99907136D01*
X150959916Y-99908223D01*
X150949400Y-99947473D01*
X150949400Y-99956027D01*
X150948256Y-99961228D01*
X150940340Y-99972571D01*
X150935048Y-99985348D01*
X150929951Y-99987458D01*
X150926795Y-99991983D01*
X150913177Y-99994407D01*
X150900400Y-99999700D01*
X150847170Y-99999700D01*
X150745314Y-100026992D01*
X150745310Y-100026993D01*
X150653986Y-100079720D01*
X150653986Y-100079721D01*
X150579421Y-100154286D01*
X150579420Y-100154286D01*
X150526693Y-100245610D01*
X150526692Y-100245614D01*
X150499400Y-100347469D01*
X150499400Y-100452930D01*
X150526692Y-100554785D01*
X150526693Y-100554789D01*
X150571812Y-100632936D01*
X150579420Y-100646113D01*
X150653987Y-100720680D01*
X150687413Y-100739978D01*
X150745310Y-100773406D01*
X150745312Y-100773406D01*
X150745313Y-100773407D01*
X150825647Y-100794932D01*
X150847169Y-100800699D01*
X150847170Y-100800700D01*
X150847173Y-100800700D01*
X150952630Y-100800700D01*
X150952630Y-100800699D01*
X151054487Y-100773407D01*
X151145813Y-100720680D01*
X151220380Y-100646113D01*
X151273107Y-100554787D01*
X151300399Y-100452930D01*
X151300400Y-100452930D01*
X151300400Y-100450469D01*
X162304400Y-100450469D01*
X162304400Y-100555930D01*
X162331692Y-100657785D01*
X162331693Y-100657789D01*
X162368004Y-100720680D01*
X162384420Y-100749113D01*
X162458987Y-100823680D01*
X162492413Y-100842978D01*
X162550310Y-100876406D01*
X162550312Y-100876406D01*
X162550313Y-100876407D01*
X162630647Y-100897932D01*
X162652169Y-100903699D01*
X162652170Y-100903700D01*
X162652173Y-100903700D01*
X162757630Y-100903700D01*
X162757630Y-100903699D01*
X162859487Y-100876407D01*
X162950813Y-100823680D01*
X163025380Y-100749113D01*
X163078107Y-100657787D01*
X163105399Y-100555930D01*
X163105400Y-100555930D01*
X163105400Y-100450470D01*
X163105399Y-100450469D01*
X163095909Y-100415052D01*
X163078107Y-100348613D01*
X163078106Y-100348612D01*
X163078106Y-100348610D01*
X163025379Y-100257286D01*
X162950813Y-100182720D01*
X162859489Y-100129993D01*
X162859485Y-100129992D01*
X162757630Y-100102700D01*
X162757627Y-100102700D01*
X162652173Y-100102700D01*
X162652170Y-100102700D01*
X162550314Y-100129992D01*
X162550310Y-100129993D01*
X162458986Y-100182720D01*
X162458986Y-100182721D01*
X162384421Y-100257286D01*
X162384420Y-100257286D01*
X162331693Y-100348610D01*
X162331692Y-100348614D01*
X162304400Y-100450469D01*
X151300400Y-100450469D01*
X151300400Y-100449700D01*
X151314752Y-100415052D01*
X151349400Y-100400700D01*
X151402630Y-100400700D01*
X151402630Y-100400699D01*
X151504487Y-100373407D01*
X151595813Y-100320680D01*
X151670380Y-100246113D01*
X151723107Y-100154787D01*
X151750399Y-100052930D01*
X151750400Y-100052930D01*
X151750400Y-99947470D01*
X151750399Y-99947469D01*
X158899400Y-99947469D01*
X158899400Y-100052930D01*
X158926692Y-100154785D01*
X158926693Y-100154789D01*
X158979130Y-100245610D01*
X158979420Y-100246113D01*
X159053987Y-100320680D01*
X159087413Y-100339978D01*
X159145310Y-100373406D01*
X159145312Y-100373406D01*
X159145313Y-100373407D01*
X159225647Y-100394932D01*
X159247169Y-100400699D01*
X159247170Y-100400700D01*
X159247173Y-100400700D01*
X159352630Y-100400700D01*
X159352630Y-100400699D01*
X159353189Y-100400549D01*
X159355500Y-100399931D01*
X159415055Y-100383972D01*
X159454487Y-100373407D01*
X159545813Y-100320680D01*
X159620380Y-100246113D01*
X159673107Y-100154787D01*
X159700399Y-100052930D01*
X159700400Y-100052930D01*
X159700400Y-99947470D01*
X159700399Y-99947469D01*
X159680206Y-99872107D01*
X159673107Y-99845613D01*
X159673106Y-99845612D01*
X159673106Y-99845610D01*
X159631591Y-99773705D01*
X159620380Y-99754287D01*
X159545813Y-99679720D01*
X159532177Y-99671847D01*
X159454489Y-99626993D01*
X159454485Y-99626992D01*
X159352630Y-99599700D01*
X159352627Y-99599700D01*
X159247173Y-99599700D01*
X159247170Y-99599700D01*
X159145314Y-99626992D01*
X159145310Y-99626993D01*
X159053986Y-99679720D01*
X159053986Y-99679721D01*
X158979421Y-99754286D01*
X158979420Y-99754286D01*
X158926693Y-99845610D01*
X158926692Y-99845614D01*
X158899400Y-99947469D01*
X151750399Y-99947469D01*
X151730206Y-99872107D01*
X151723107Y-99845613D01*
X151723106Y-99845612D01*
X151723106Y-99845610D01*
X151681591Y-99773705D01*
X151670380Y-99754287D01*
X151595813Y-99679720D01*
X151582177Y-99671847D01*
X151504489Y-99626993D01*
X151504485Y-99626992D01*
X151402630Y-99599700D01*
X151402627Y-99599700D01*
X151297173Y-99599700D01*
X151297170Y-99599700D01*
X151195314Y-99626992D01*
X151195310Y-99626993D01*
X151161999Y-99646226D01*
X151124816Y-99651121D01*
X151095064Y-99628291D01*
X151090169Y-99591109D01*
X151100400Y-99552927D01*
X151100400Y-99447473D01*
X151100400Y-99447470D01*
X151100399Y-99447469D01*
X151079182Y-99368286D01*
X151073107Y-99345613D01*
X151073106Y-99345612D01*
X151073106Y-99345610D01*
X151020379Y-99254286D01*
X150945813Y-99179720D01*
X150854489Y-99126993D01*
X150854485Y-99126992D01*
X150752630Y-99099700D01*
X150752627Y-99099700D01*
X150647173Y-99099700D01*
X150647170Y-99099700D01*
X150545314Y-99126992D01*
X150545310Y-99126993D01*
X150453986Y-99179720D01*
X150453986Y-99179721D01*
X150379421Y-99254286D01*
X150379420Y-99254286D01*
X150326693Y-99345610D01*
X150326692Y-99345614D01*
X150299400Y-99447469D01*
X145244024Y-99447469D01*
X145245380Y-99446113D01*
X145298107Y-99354787D01*
X145325399Y-99252930D01*
X145325400Y-99252930D01*
X145325400Y-99147470D01*
X145325399Y-99147469D01*
X145298107Y-99045614D01*
X145298106Y-99045610D01*
X145245379Y-98954286D01*
X145170813Y-98879720D01*
X145079489Y-98826993D01*
X145079485Y-98826992D01*
X144977630Y-98799700D01*
X144977627Y-98799700D01*
X144872173Y-98799700D01*
X144872170Y-98799700D01*
X144770314Y-98826992D01*
X144770310Y-98826993D01*
X144678986Y-98879720D01*
X144678986Y-98879721D01*
X144604421Y-98954286D01*
X144604420Y-98954286D01*
X144551693Y-99045610D01*
X144551692Y-99045614D01*
X144524400Y-99147469D01*
X134224147Y-99147469D01*
X134224914Y-99122537D01*
X134225047Y-99120163D01*
X134279334Y-98447469D01*
X153899400Y-98447469D01*
X153899400Y-98552930D01*
X153926692Y-98654785D01*
X153926693Y-98654789D01*
X153979420Y-98746113D01*
X154053987Y-98820680D01*
X154087413Y-98839978D01*
X154145310Y-98873406D01*
X154145312Y-98873406D01*
X154145313Y-98873407D01*
X154225647Y-98894932D01*
X154247169Y-98900699D01*
X154247170Y-98900700D01*
X154247173Y-98900700D01*
X154352630Y-98900700D01*
X154352630Y-98900699D01*
X154454487Y-98873407D01*
X154545813Y-98820680D01*
X154620380Y-98746113D01*
X154673107Y-98654787D01*
X154700399Y-98552930D01*
X154700400Y-98552930D01*
X154700400Y-98447470D01*
X154700399Y-98447469D01*
X154673107Y-98345614D01*
X154673106Y-98345610D01*
X154620379Y-98254286D01*
X154545813Y-98179720D01*
X154454489Y-98126993D01*
X154454485Y-98126992D01*
X154352630Y-98099700D01*
X154352627Y-98099700D01*
X154247173Y-98099700D01*
X154247170Y-98099700D01*
X154145314Y-98126992D01*
X154145310Y-98126993D01*
X154053986Y-98179720D01*
X154053986Y-98179721D01*
X153979421Y-98254286D01*
X153979420Y-98254286D01*
X153926693Y-98345610D01*
X153926692Y-98345614D01*
X153899400Y-98447469D01*
X134279334Y-98447469D01*
X134288105Y-98338781D01*
X134288353Y-98336430D01*
X134365533Y-97747469D01*
X141099400Y-97747469D01*
X141099400Y-97852930D01*
X141126692Y-97954785D01*
X141126693Y-97954789D01*
X141179420Y-98046113D01*
X141253987Y-98120680D01*
X141287413Y-98139978D01*
X141345310Y-98173406D01*
X141345312Y-98173406D01*
X141345313Y-98173407D01*
X141425647Y-98194932D01*
X141447169Y-98200699D01*
X141447170Y-98200700D01*
X141447173Y-98200700D01*
X141552630Y-98200700D01*
X141552630Y-98200699D01*
X141654487Y-98173407D01*
X141745813Y-98120680D01*
X141820380Y-98046113D01*
X141873107Y-97954787D01*
X141900399Y-97852930D01*
X141900400Y-97852930D01*
X141900400Y-97747470D01*
X141900399Y-97747469D01*
X141873107Y-97645614D01*
X141873106Y-97645610D01*
X141822490Y-97557942D01*
X141820380Y-97554287D01*
X141745813Y-97479720D01*
X141734877Y-97473406D01*
X141654489Y-97426993D01*
X141654485Y-97426992D01*
X141552630Y-97399700D01*
X141552627Y-97399700D01*
X141447173Y-97399700D01*
X141447170Y-97399700D01*
X141345314Y-97426992D01*
X141345310Y-97426993D01*
X141253986Y-97479720D01*
X141253986Y-97479721D01*
X141179421Y-97554286D01*
X141179420Y-97554286D01*
X141126693Y-97645610D01*
X141126692Y-97645614D01*
X141099400Y-97747469D01*
X134365533Y-97747469D01*
X134390216Y-97559110D01*
X134390581Y-97556778D01*
X134530989Y-96785502D01*
X134531474Y-96783172D01*
X134563226Y-96647469D01*
X143199400Y-96647469D01*
X143199400Y-96752930D01*
X143226692Y-96854785D01*
X143226693Y-96854789D01*
X143259593Y-96911772D01*
X143279420Y-96946113D01*
X143353987Y-97020680D01*
X143387413Y-97039978D01*
X143445310Y-97073406D01*
X143445312Y-97073406D01*
X143445313Y-97073407D01*
X143525647Y-97094932D01*
X143547169Y-97100699D01*
X143547170Y-97100700D01*
X143547173Y-97100700D01*
X143652630Y-97100700D01*
X143652630Y-97100699D01*
X143754487Y-97073407D01*
X143845813Y-97020680D01*
X143920380Y-96946113D01*
X143973107Y-96854787D01*
X144000399Y-96752930D01*
X144000400Y-96752930D01*
X144000400Y-96647470D01*
X144000399Y-96647469D01*
X146499400Y-96647469D01*
X146499400Y-96752930D01*
X146526692Y-96854785D01*
X146526693Y-96854789D01*
X146559593Y-96911772D01*
X146579420Y-96946113D01*
X146653987Y-97020680D01*
X146687413Y-97039978D01*
X146745310Y-97073406D01*
X146745312Y-97073406D01*
X146745313Y-97073407D01*
X146825647Y-97094932D01*
X146847169Y-97100699D01*
X146847170Y-97100700D01*
X146847173Y-97100700D01*
X146952630Y-97100700D01*
X146952630Y-97100699D01*
X147054487Y-97073407D01*
X147099413Y-97047469D01*
X156599400Y-97047469D01*
X156599400Y-97152930D01*
X156626692Y-97254785D01*
X156626693Y-97254789D01*
X156679420Y-97346113D01*
X156753987Y-97420680D01*
X156786695Y-97439564D01*
X156845310Y-97473406D01*
X156845312Y-97473406D01*
X156845313Y-97473407D01*
X156925647Y-97494932D01*
X156947169Y-97500699D01*
X156947170Y-97500700D01*
X156947173Y-97500700D01*
X157052630Y-97500700D01*
X157052630Y-97500699D01*
X157154487Y-97473407D01*
X157245813Y-97420680D01*
X157320380Y-97346113D01*
X157373107Y-97254787D01*
X157400399Y-97152930D01*
X157400400Y-97152930D01*
X157400400Y-97047471D01*
X157393870Y-97023102D01*
X157393870Y-97023101D01*
X157391331Y-97013627D01*
X157503617Y-97013627D01*
X157503617Y-97119088D01*
X157530909Y-97220943D01*
X157530910Y-97220947D01*
X157583637Y-97312271D01*
X157658204Y-97386838D01*
X157680482Y-97399700D01*
X157749527Y-97439564D01*
X157749529Y-97439564D01*
X157749530Y-97439565D01*
X157778189Y-97447244D01*
X157851386Y-97466857D01*
X157851387Y-97466858D01*
X157851390Y-97466858D01*
X157956847Y-97466858D01*
X157956847Y-97466857D01*
X158058704Y-97439565D01*
X158150030Y-97386838D01*
X158224597Y-97312271D01*
X158277324Y-97220945D01*
X158304616Y-97119088D01*
X158304617Y-97119088D01*
X158304617Y-97013628D01*
X158304616Y-97013627D01*
X158277324Y-96911772D01*
X158277323Y-96911768D01*
X158243895Y-96853871D01*
X158224597Y-96820445D01*
X158150030Y-96745878D01*
X158058706Y-96693151D01*
X158058702Y-96693150D01*
X157956847Y-96665858D01*
X157956844Y-96665858D01*
X157851390Y-96665858D01*
X157851387Y-96665858D01*
X157749531Y-96693150D01*
X157749527Y-96693151D01*
X157658203Y-96745878D01*
X157658203Y-96745879D01*
X157583638Y-96820444D01*
X157583637Y-96820444D01*
X157530910Y-96911768D01*
X157530909Y-96911772D01*
X157503617Y-97013627D01*
X157391331Y-97013627D01*
X157373107Y-96945613D01*
X157373106Y-96945610D01*
X157331418Y-96873406D01*
X157320380Y-96854287D01*
X157245813Y-96779720D01*
X157154489Y-96726993D01*
X157154485Y-96726992D01*
X157052630Y-96699700D01*
X157052627Y-96699700D01*
X156947173Y-96699700D01*
X156947170Y-96699700D01*
X156845314Y-96726992D01*
X156845310Y-96726993D01*
X156753986Y-96779720D01*
X156753986Y-96779721D01*
X156679421Y-96854286D01*
X156679420Y-96854286D01*
X156626693Y-96945610D01*
X156626692Y-96945614D01*
X156599400Y-97047469D01*
X147099413Y-97047469D01*
X147145813Y-97020680D01*
X147220380Y-96946113D01*
X147273107Y-96854787D01*
X147300399Y-96752930D01*
X147300400Y-96752930D01*
X147300400Y-96704300D01*
X147314752Y-96669652D01*
X147349400Y-96655300D01*
X147367890Y-96655300D01*
X147367890Y-96655299D01*
X147469747Y-96628007D01*
X147561073Y-96575280D01*
X147635640Y-96500713D01*
X147666380Y-96447469D01*
X148199400Y-96447469D01*
X148199400Y-96552930D01*
X148226692Y-96654785D01*
X148226693Y-96654789D01*
X148268381Y-96726993D01*
X148279420Y-96746113D01*
X148353987Y-96820680D01*
X148387413Y-96839978D01*
X148445310Y-96873406D01*
X148445312Y-96873406D01*
X148445313Y-96873407D01*
X148525647Y-96894932D01*
X148547169Y-96900699D01*
X148547170Y-96900700D01*
X148547173Y-96900700D01*
X148652630Y-96900700D01*
X148652630Y-96900699D01*
X148754487Y-96873407D01*
X148845813Y-96820680D01*
X148920380Y-96746113D01*
X148972811Y-96655300D01*
X148973106Y-96654789D01*
X148973106Y-96654788D01*
X148973107Y-96654787D01*
X149000399Y-96552930D01*
X149000400Y-96552930D01*
X149000400Y-96447470D01*
X149000399Y-96447469D01*
X148992975Y-96419761D01*
X148973107Y-96345613D01*
X148973106Y-96345612D01*
X148973106Y-96345610D01*
X148920379Y-96254286D01*
X148845813Y-96179720D01*
X148754489Y-96126993D01*
X148754485Y-96126992D01*
X148652630Y-96099700D01*
X148652627Y-96099700D01*
X148547173Y-96099700D01*
X148547170Y-96099700D01*
X148445314Y-96126992D01*
X148445310Y-96126993D01*
X148353986Y-96179720D01*
X148353986Y-96179721D01*
X148279421Y-96254286D01*
X148279420Y-96254286D01*
X148226693Y-96345610D01*
X148226692Y-96345614D01*
X148199400Y-96447469D01*
X147666380Y-96447469D01*
X147688367Y-96409387D01*
X147713494Y-96315608D01*
X147736324Y-96285856D01*
X147773505Y-96280961D01*
X147808127Y-96290237D01*
X147847171Y-96300700D01*
X147847173Y-96300700D01*
X147952630Y-96300700D01*
X147952630Y-96300699D01*
X148054487Y-96273407D01*
X148145813Y-96220680D01*
X148220380Y-96146113D01*
X148273107Y-96054787D01*
X148300399Y-95952930D01*
X148300400Y-95952930D01*
X148300400Y-95847470D01*
X148300399Y-95847469D01*
X148284848Y-95789431D01*
X148273107Y-95745613D01*
X148273106Y-95745612D01*
X148273106Y-95745610D01*
X148232664Y-95675563D01*
X148220380Y-95654287D01*
X148145813Y-95579720D01*
X148134877Y-95573406D01*
X148054489Y-95526993D01*
X148054485Y-95526992D01*
X147952630Y-95499700D01*
X147952627Y-95499700D01*
X147847173Y-95499700D01*
X147847170Y-95499700D01*
X147745314Y-95526992D01*
X147745310Y-95526993D01*
X147653986Y-95579720D01*
X147653986Y-95579721D01*
X147579421Y-95654286D01*
X147579420Y-95654286D01*
X147526693Y-95745610D01*
X147526692Y-95745614D01*
X147501565Y-95839390D01*
X147478735Y-95869143D01*
X147441553Y-95874038D01*
X147367890Y-95854300D01*
X147367887Y-95854300D01*
X147262433Y-95854300D01*
X147262430Y-95854300D01*
X147160574Y-95881592D01*
X147160570Y-95881593D01*
X147069246Y-95934320D01*
X147069246Y-95934321D01*
X146994681Y-96008886D01*
X146994680Y-96008886D01*
X146941953Y-96100210D01*
X146941952Y-96100214D01*
X146914660Y-96202069D01*
X146914660Y-96250700D01*
X146900308Y-96285348D01*
X146865660Y-96299700D01*
X146847170Y-96299700D01*
X146745314Y-96326992D01*
X146745310Y-96326993D01*
X146653986Y-96379720D01*
X146653986Y-96379721D01*
X146579421Y-96454286D01*
X146579420Y-96454286D01*
X146526693Y-96545610D01*
X146526692Y-96545614D01*
X146499400Y-96647469D01*
X144000399Y-96647469D01*
X143981056Y-96575279D01*
X143973107Y-96545613D01*
X143973106Y-96545612D01*
X143973106Y-96545610D01*
X143920379Y-96454286D01*
X143845813Y-96379720D01*
X143754489Y-96326993D01*
X143754485Y-96326992D01*
X143652630Y-96299700D01*
X143652627Y-96299700D01*
X143547173Y-96299700D01*
X143547170Y-96299700D01*
X143445314Y-96326992D01*
X143445310Y-96326993D01*
X143353986Y-96379720D01*
X143353986Y-96379721D01*
X143279421Y-96454286D01*
X143279420Y-96454286D01*
X143226693Y-96545610D01*
X143226692Y-96545614D01*
X143199400Y-96647469D01*
X134563226Y-96647469D01*
X134710074Y-96019868D01*
X134710669Y-96017579D01*
X134927030Y-95264088D01*
X134927756Y-95261780D01*
X135123086Y-94690386D01*
X140172991Y-94690386D01*
X140172991Y-94887475D01*
X140211438Y-95080758D01*
X140211440Y-95080767D01*
X140286418Y-95261780D01*
X140286859Y-95262845D01*
X140340281Y-95342797D01*
X140382754Y-95406363D01*
X140396352Y-95426713D01*
X140535709Y-95566070D01*
X140699577Y-95675563D01*
X140881656Y-95750982D01*
X141074950Y-95789431D01*
X141272032Y-95789431D01*
X141465326Y-95750982D01*
X141647405Y-95675563D01*
X141811273Y-95566070D01*
X141950630Y-95426713D01*
X142060123Y-95262845D01*
X142135542Y-95080766D01*
X142173991Y-94887472D01*
X142173991Y-94747469D01*
X143999400Y-94747469D01*
X143999400Y-94852930D01*
X144026692Y-94954785D01*
X144026693Y-94954789D01*
X144078337Y-95044238D01*
X144079420Y-95046113D01*
X144153987Y-95120680D01*
X144185043Y-95138610D01*
X144245310Y-95173406D01*
X144245312Y-95173406D01*
X144245313Y-95173407D01*
X144310871Y-95190973D01*
X144347169Y-95200699D01*
X144347170Y-95200700D01*
X144347173Y-95200700D01*
X144350400Y-95200700D01*
X144385048Y-95215052D01*
X144398780Y-95241931D01*
X144399400Y-95245791D01*
X144399400Y-95252927D01*
X144402259Y-95263600D01*
X144402660Y-95266092D01*
X144398860Y-95282072D01*
X144396715Y-95298362D01*
X144394600Y-95299984D01*
X144393984Y-95302577D01*
X144380002Y-95311186D01*
X144366964Y-95321191D01*
X144345311Y-95326993D01*
X144345310Y-95326993D01*
X144253986Y-95379720D01*
X144253986Y-95379721D01*
X144179421Y-95454286D01*
X144179420Y-95454286D01*
X144126693Y-95545610D01*
X144126692Y-95545614D01*
X144099400Y-95647469D01*
X144099400Y-95752930D01*
X144126692Y-95854785D01*
X144126693Y-95854789D01*
X144172611Y-95934320D01*
X144179420Y-95946113D01*
X144253987Y-96020680D01*
X144287413Y-96039978D01*
X144345310Y-96073406D01*
X144345312Y-96073406D01*
X144345313Y-96073407D01*
X144425647Y-96094932D01*
X144447169Y-96100699D01*
X144447170Y-96100700D01*
X144447173Y-96100700D01*
X144552630Y-96100700D01*
X144552630Y-96100699D01*
X144654487Y-96073407D01*
X144745813Y-96020680D01*
X144820380Y-95946113D01*
X144873107Y-95854787D01*
X144900399Y-95752930D01*
X144900400Y-95752930D01*
X144900400Y-95647471D01*
X144898189Y-95639220D01*
X144903083Y-95602038D01*
X144932834Y-95579208D01*
X144954487Y-95573407D01*
X145045813Y-95520680D01*
X145120380Y-95446113D01*
X145146530Y-95400817D01*
X145176282Y-95377988D01*
X145213462Y-95382881D01*
X145227648Y-95391072D01*
X145303895Y-95411502D01*
X145329504Y-95418364D01*
X145329505Y-95418365D01*
X145329508Y-95418365D01*
X145434965Y-95418365D01*
X145434965Y-95418364D01*
X145536822Y-95391072D01*
X145628148Y-95338345D01*
X145702715Y-95263778D01*
X145755442Y-95172452D01*
X145782734Y-95070595D01*
X145782735Y-95070595D01*
X145782735Y-94965135D01*
X145782734Y-94965134D01*
X145759848Y-94879721D01*
X145755442Y-94863278D01*
X145755441Y-94863277D01*
X145755441Y-94863275D01*
X145710449Y-94785348D01*
X145702715Y-94771952D01*
X145628148Y-94697385D01*
X145536824Y-94644658D01*
X145536820Y-94644657D01*
X145434965Y-94617365D01*
X145434962Y-94617365D01*
X145329508Y-94617365D01*
X145329505Y-94617365D01*
X145227649Y-94644657D01*
X145227645Y-94644658D01*
X145136321Y-94697385D01*
X145136321Y-94697386D01*
X145061758Y-94771948D01*
X145061753Y-94771955D01*
X145035604Y-94817246D01*
X145005850Y-94840076D01*
X144968670Y-94835181D01*
X144954487Y-94826993D01*
X144954485Y-94826992D01*
X144852630Y-94799700D01*
X144852627Y-94799700D01*
X144849400Y-94799700D01*
X144814752Y-94785348D01*
X144800400Y-94750700D01*
X144800400Y-94747470D01*
X144800399Y-94747469D01*
X144784675Y-94688785D01*
X144773107Y-94645613D01*
X144773106Y-94645612D01*
X144773106Y-94645610D01*
X144736263Y-94581798D01*
X144720380Y-94554287D01*
X144647562Y-94481469D01*
X150366400Y-94481469D01*
X150366400Y-94586930D01*
X150393692Y-94688785D01*
X150393693Y-94688789D01*
X150441706Y-94771948D01*
X150446420Y-94780113D01*
X150520987Y-94854680D01*
X150554413Y-94873978D01*
X150612310Y-94907406D01*
X150612312Y-94907406D01*
X150612313Y-94907407D01*
X150692647Y-94928932D01*
X150714169Y-94934699D01*
X150714170Y-94934700D01*
X150779850Y-94934700D01*
X150814498Y-94949052D01*
X150828850Y-94983700D01*
X150828850Y-95049380D01*
X150856142Y-95151235D01*
X150856143Y-95151239D01*
X150908505Y-95241931D01*
X150908870Y-95242563D01*
X150983437Y-95317130D01*
X151016863Y-95336428D01*
X151074760Y-95369856D01*
X151074762Y-95369856D01*
X151074763Y-95369857D01*
X151123374Y-95382882D01*
X151176619Y-95397149D01*
X151176620Y-95397150D01*
X151242290Y-95397150D01*
X151276938Y-95411502D01*
X151291290Y-95446150D01*
X151291290Y-95511820D01*
X151318582Y-95613675D01*
X151318583Y-95613679D01*
X151354313Y-95675564D01*
X151371310Y-95705003D01*
X151445877Y-95779570D01*
X151462955Y-95789430D01*
X151537200Y-95832296D01*
X151537202Y-95832296D01*
X151537203Y-95832297D01*
X151596502Y-95848186D01*
X151639059Y-95859589D01*
X151639060Y-95859590D01*
X151639063Y-95859590D01*
X151744520Y-95859590D01*
X151744520Y-95859589D01*
X151846377Y-95832297D01*
X151937703Y-95779570D01*
X152012270Y-95705003D01*
X152064997Y-95613677D01*
X152092289Y-95511820D01*
X152092290Y-95511820D01*
X152092290Y-95406360D01*
X152092289Y-95406359D01*
X152078470Y-95354785D01*
X152064997Y-95304503D01*
X152064996Y-95304502D01*
X152064996Y-95304500D01*
X152028871Y-95241931D01*
X152012270Y-95213177D01*
X151946562Y-95147469D01*
X155199400Y-95147469D01*
X155199400Y-95252930D01*
X155226692Y-95354785D01*
X155226693Y-95354789D01*
X155268219Y-95426712D01*
X155279420Y-95446113D01*
X155353987Y-95520680D01*
X155387413Y-95539978D01*
X155445310Y-95573406D01*
X155445312Y-95573406D01*
X155445313Y-95573407D01*
X155514290Y-95591889D01*
X155547169Y-95600699D01*
X155547170Y-95600700D01*
X155547173Y-95600700D01*
X155652630Y-95600700D01*
X155652630Y-95600699D01*
X155754487Y-95573407D01*
X155845813Y-95520680D01*
X155920380Y-95446113D01*
X155973107Y-95354787D01*
X156000399Y-95252930D01*
X156000400Y-95252930D01*
X156000400Y-95147470D01*
X156000399Y-95147469D01*
X155979800Y-95070592D01*
X155973107Y-95045613D01*
X155973106Y-95045612D01*
X155973106Y-95045610D01*
X155926643Y-94965135D01*
X155920380Y-94954287D01*
X155845813Y-94879720D01*
X155824095Y-94867181D01*
X155816869Y-94863009D01*
X157925673Y-94863009D01*
X157925673Y-95060098D01*
X157964120Y-95253381D01*
X157964122Y-95253390D01*
X158039539Y-95435464D01*
X158039541Y-95435468D01*
X158090556Y-95511817D01*
X158135927Y-95579721D01*
X158149034Y-95599336D01*
X158288391Y-95738693D01*
X158452259Y-95848186D01*
X158634338Y-95923605D01*
X158827632Y-95962054D01*
X159024714Y-95962054D01*
X159218008Y-95923605D01*
X159400087Y-95848186D01*
X159563955Y-95738693D01*
X159703312Y-95599336D01*
X159812805Y-95435468D01*
X159888224Y-95253389D01*
X159926673Y-95060095D01*
X159926673Y-94863013D01*
X159888224Y-94669719D01*
X159812805Y-94487640D01*
X159703312Y-94323772D01*
X159563955Y-94184415D01*
X159528901Y-94160993D01*
X159500792Y-94142211D01*
X159400087Y-94074922D01*
X159400084Y-94074920D01*
X159400083Y-94074920D01*
X159218009Y-93999503D01*
X159218000Y-93999501D01*
X159024717Y-93961054D01*
X159024714Y-93961054D01*
X158827632Y-93961054D01*
X158827628Y-93961054D01*
X158634345Y-93999501D01*
X158634336Y-93999503D01*
X158452262Y-94074920D01*
X158288391Y-94184414D01*
X158149033Y-94323772D01*
X158039539Y-94487643D01*
X157964122Y-94669717D01*
X157964120Y-94669726D01*
X157925673Y-94863009D01*
X155816869Y-94863009D01*
X155754489Y-94826993D01*
X155754485Y-94826992D01*
X155652630Y-94799700D01*
X155652627Y-94799700D01*
X155547173Y-94799700D01*
X155547170Y-94799700D01*
X155445314Y-94826992D01*
X155445310Y-94826993D01*
X155353986Y-94879720D01*
X155353986Y-94879721D01*
X155279421Y-94954286D01*
X155279420Y-94954286D01*
X155226693Y-95045610D01*
X155226692Y-95045614D01*
X155199400Y-95147469D01*
X151946562Y-95147469D01*
X151937703Y-95138610D01*
X151846379Y-95085883D01*
X151846375Y-95085882D01*
X151744520Y-95058590D01*
X151744517Y-95058590D01*
X151678850Y-95058590D01*
X151644202Y-95044238D01*
X151629850Y-95009590D01*
X151629850Y-94943920D01*
X151629849Y-94943919D01*
X151608241Y-94863278D01*
X151602557Y-94842063D01*
X151602556Y-94842062D01*
X151602556Y-94842060D01*
X151549829Y-94750736D01*
X151475263Y-94676170D01*
X151383939Y-94623443D01*
X151383935Y-94623442D01*
X151282080Y-94596150D01*
X151282077Y-94596150D01*
X151216400Y-94596150D01*
X151181752Y-94581798D01*
X151167400Y-94547150D01*
X151167400Y-94481470D01*
X151167399Y-94481469D01*
X151151110Y-94420679D01*
X151140107Y-94379613D01*
X151140106Y-94379612D01*
X151140106Y-94379610D01*
X151102814Y-94315020D01*
X151087380Y-94288287D01*
X151012813Y-94213720D01*
X150921489Y-94160993D01*
X150921485Y-94160992D01*
X150819630Y-94133700D01*
X150819627Y-94133700D01*
X150714173Y-94133700D01*
X150714170Y-94133700D01*
X150612314Y-94160992D01*
X150612310Y-94160993D01*
X150520986Y-94213720D01*
X150520986Y-94213721D01*
X150446421Y-94288286D01*
X150446420Y-94288286D01*
X150393693Y-94379610D01*
X150393692Y-94379614D01*
X150366400Y-94481469D01*
X144647562Y-94481469D01*
X144645813Y-94479720D01*
X144634877Y-94473406D01*
X144554489Y-94426993D01*
X144554485Y-94426992D01*
X144452630Y-94399700D01*
X144452627Y-94399700D01*
X144347173Y-94399700D01*
X144347170Y-94399700D01*
X144245314Y-94426992D01*
X144245310Y-94426993D01*
X144153986Y-94479720D01*
X144153986Y-94479721D01*
X144079421Y-94554286D01*
X144079420Y-94554286D01*
X144026693Y-94645610D01*
X144026692Y-94645614D01*
X143999400Y-94747469D01*
X142173991Y-94747469D01*
X142173991Y-94690390D01*
X142135542Y-94497096D01*
X142060123Y-94315017D01*
X141950630Y-94151149D01*
X141846950Y-94047469D01*
X153499400Y-94047469D01*
X153499400Y-94152930D01*
X153526692Y-94254785D01*
X153526693Y-94254789D01*
X153561468Y-94315020D01*
X153579420Y-94346113D01*
X153653987Y-94420680D01*
X153687413Y-94439978D01*
X153745310Y-94473406D01*
X153745312Y-94473406D01*
X153745313Y-94473407D01*
X153792084Y-94485939D01*
X153847169Y-94500699D01*
X153847170Y-94500700D01*
X153847173Y-94500700D01*
X153952630Y-94500700D01*
X153952630Y-94500699D01*
X154054487Y-94473407D01*
X154145813Y-94420680D01*
X154165252Y-94401241D01*
X154199900Y-94386889D01*
X154234548Y-94401241D01*
X154253987Y-94420680D01*
X154287413Y-94439978D01*
X154345310Y-94473406D01*
X154345312Y-94473406D01*
X154345313Y-94473407D01*
X154392084Y-94485939D01*
X154447169Y-94500699D01*
X154447170Y-94500700D01*
X154447173Y-94500700D01*
X154552630Y-94500700D01*
X154552630Y-94500699D01*
X154654487Y-94473407D01*
X154745813Y-94420680D01*
X154820380Y-94346113D01*
X154873107Y-94254787D01*
X154875068Y-94247469D01*
X155299400Y-94247469D01*
X155299400Y-94352930D01*
X155326692Y-94454785D01*
X155326693Y-94454789D01*
X155379420Y-94546113D01*
X155453987Y-94620680D01*
X155458773Y-94623443D01*
X155545310Y-94673406D01*
X155545312Y-94673406D01*
X155545313Y-94673407D01*
X155602705Y-94688785D01*
X155647169Y-94700699D01*
X155647170Y-94700700D01*
X155647173Y-94700700D01*
X155752630Y-94700700D01*
X155752630Y-94700699D01*
X155854487Y-94673407D01*
X155945813Y-94620680D01*
X156020380Y-94546113D01*
X156073107Y-94454787D01*
X156100399Y-94352930D01*
X156100400Y-94352930D01*
X156100400Y-94247470D01*
X156100399Y-94247469D01*
X156699400Y-94247469D01*
X156699400Y-94352930D01*
X156726692Y-94454785D01*
X156726693Y-94454789D01*
X156779420Y-94546113D01*
X156853987Y-94620680D01*
X156858773Y-94623443D01*
X156945310Y-94673406D01*
X156945312Y-94673406D01*
X156945313Y-94673407D01*
X157002705Y-94688785D01*
X157047169Y-94700699D01*
X157047170Y-94700700D01*
X157047173Y-94700700D01*
X157152630Y-94700700D01*
X157152630Y-94700699D01*
X157254487Y-94673407D01*
X157345813Y-94620680D01*
X157420380Y-94546113D01*
X157473107Y-94454787D01*
X157500399Y-94352930D01*
X157500400Y-94352930D01*
X157500400Y-94247470D01*
X157500399Y-94247469D01*
X157483504Y-94184415D01*
X157473107Y-94145613D01*
X157473106Y-94145612D01*
X157473106Y-94145610D01*
X157439678Y-94087713D01*
X157420380Y-94054287D01*
X157345813Y-93979720D01*
X157254489Y-93926993D01*
X157254485Y-93926992D01*
X157152630Y-93899700D01*
X157152627Y-93899700D01*
X157047173Y-93899700D01*
X157047170Y-93899700D01*
X156945314Y-93926992D01*
X156945310Y-93926993D01*
X156853986Y-93979720D01*
X156853986Y-93979721D01*
X156779421Y-94054286D01*
X156779420Y-94054286D01*
X156726693Y-94145610D01*
X156726692Y-94145614D01*
X156699400Y-94247469D01*
X156100399Y-94247469D01*
X156083504Y-94184415D01*
X156073107Y-94145613D01*
X156073106Y-94145612D01*
X156073106Y-94145610D01*
X156039678Y-94087713D01*
X156020380Y-94054287D01*
X155945813Y-93979720D01*
X155854489Y-93926993D01*
X155854485Y-93926992D01*
X155752630Y-93899700D01*
X155752627Y-93899700D01*
X155647173Y-93899700D01*
X155647170Y-93899700D01*
X155545314Y-93926992D01*
X155545310Y-93926993D01*
X155453986Y-93979720D01*
X155453986Y-93979721D01*
X155379421Y-94054286D01*
X155379420Y-94054286D01*
X155326693Y-94145610D01*
X155326692Y-94145614D01*
X155299400Y-94247469D01*
X154875068Y-94247469D01*
X154900399Y-94152930D01*
X154900400Y-94152930D01*
X154900400Y-94047470D01*
X154900399Y-94047469D01*
X154873107Y-93945614D01*
X154873106Y-93945610D01*
X154831418Y-93873406D01*
X154820380Y-93854287D01*
X154745813Y-93779720D01*
X154654489Y-93726993D01*
X154654485Y-93726992D01*
X154552630Y-93699700D01*
X154552627Y-93699700D01*
X154447173Y-93699700D01*
X154447170Y-93699700D01*
X154345314Y-93726992D01*
X154345310Y-93726993D01*
X154253986Y-93779720D01*
X154253986Y-93779721D01*
X154234548Y-93799159D01*
X154199900Y-93813511D01*
X154165252Y-93799159D01*
X154145813Y-93779720D01*
X154054489Y-93726993D01*
X154054485Y-93726992D01*
X153952630Y-93699700D01*
X153952627Y-93699700D01*
X153847173Y-93699700D01*
X153847170Y-93699700D01*
X153745314Y-93726992D01*
X153745310Y-93726993D01*
X153653986Y-93779720D01*
X153653986Y-93779721D01*
X153579421Y-93854286D01*
X153579420Y-93854286D01*
X153526693Y-93945610D01*
X153526692Y-93945614D01*
X153499400Y-94047469D01*
X141846950Y-94047469D01*
X141811273Y-94011792D01*
X141792881Y-93999503D01*
X141735338Y-93961054D01*
X141647405Y-93902299D01*
X141647402Y-93902297D01*
X141647401Y-93902297D01*
X141465327Y-93826880D01*
X141465318Y-93826878D01*
X141272035Y-93788431D01*
X141272032Y-93788431D01*
X141074950Y-93788431D01*
X141074946Y-93788431D01*
X140881663Y-93826878D01*
X140881654Y-93826880D01*
X140699580Y-93902297D01*
X140535709Y-94011791D01*
X140396351Y-94151149D01*
X140286857Y-94315020D01*
X140211440Y-94497094D01*
X140211438Y-94497103D01*
X140172991Y-94690386D01*
X135123086Y-94690386D01*
X135181332Y-94520002D01*
X135182146Y-94517801D01*
X135472320Y-93789543D01*
X135473274Y-93787313D01*
X135628698Y-93447469D01*
X143399400Y-93447469D01*
X143399400Y-93552930D01*
X143426692Y-93654785D01*
X143426693Y-93654789D01*
X143468381Y-93726993D01*
X143479420Y-93746113D01*
X143553987Y-93820680D01*
X143564726Y-93826880D01*
X143645310Y-93873406D01*
X143645312Y-93873406D01*
X143645313Y-93873407D01*
X143725647Y-93894932D01*
X143747169Y-93900699D01*
X143747170Y-93900700D01*
X143747173Y-93900700D01*
X143852630Y-93900700D01*
X143852630Y-93900699D01*
X143954487Y-93873407D01*
X144045813Y-93820680D01*
X144120380Y-93746113D01*
X144173107Y-93654787D01*
X144200399Y-93552930D01*
X144200400Y-93552930D01*
X144200400Y-93447470D01*
X144200399Y-93447469D01*
X144173107Y-93345614D01*
X144173106Y-93345610D01*
X144120379Y-93254286D01*
X144045813Y-93179720D01*
X143954489Y-93126993D01*
X143954485Y-93126992D01*
X143852630Y-93099700D01*
X143852627Y-93099700D01*
X143747173Y-93099700D01*
X143747170Y-93099700D01*
X143645314Y-93126992D01*
X143645310Y-93126993D01*
X143553986Y-93179720D01*
X143553986Y-93179721D01*
X143479421Y-93254286D01*
X143479420Y-93254286D01*
X143426693Y-93345610D01*
X143426692Y-93345614D01*
X143399400Y-93447469D01*
X135628698Y-93447469D01*
X135799311Y-93074414D01*
X135800333Y-93072317D01*
X136134619Y-92428195D01*
X149718674Y-92428195D01*
X149718674Y-92533656D01*
X149745966Y-92635511D01*
X149745967Y-92635515D01*
X149798694Y-92726839D01*
X149873261Y-92801406D01*
X149879334Y-92804912D01*
X149964584Y-92854132D01*
X149964587Y-92854133D01*
X149999699Y-92863541D01*
X150029452Y-92886371D01*
X150034347Y-92923553D01*
X150020481Y-92944472D01*
X150021588Y-92945579D01*
X149944751Y-93022416D01*
X149944750Y-93022416D01*
X149892023Y-93113740D01*
X149892022Y-93113744D01*
X149864730Y-93215599D01*
X149864730Y-93321060D01*
X149892022Y-93422915D01*
X149892023Y-93422919D01*
X149906200Y-93447473D01*
X149944750Y-93514243D01*
X150019317Y-93588810D01*
X150052743Y-93608108D01*
X150110640Y-93641536D01*
X150110642Y-93641536D01*
X150110643Y-93641537D01*
X150160101Y-93654789D01*
X150212499Y-93668829D01*
X150212500Y-93668830D01*
X150212503Y-93668830D01*
X150317960Y-93668830D01*
X150317960Y-93668829D01*
X150419817Y-93641537D01*
X150511143Y-93588810D01*
X150585710Y-93514243D01*
X150638437Y-93422917D01*
X150665729Y-93321060D01*
X150665730Y-93321060D01*
X150665730Y-93215600D01*
X150665729Y-93215599D01*
X150641987Y-93126992D01*
X150638437Y-93113743D01*
X150638436Y-93113742D01*
X150638436Y-93113740D01*
X150585709Y-93022416D01*
X150511143Y-92947850D01*
X150419818Y-92895123D01*
X150384703Y-92885714D01*
X150354951Y-92862884D01*
X150350056Y-92825701D01*
X150364051Y-92804912D01*
X150362816Y-92803677D01*
X150439653Y-92726840D01*
X150439654Y-92726839D01*
X150492381Y-92635513D01*
X150519673Y-92533656D01*
X150519674Y-92533656D01*
X150519674Y-92428196D01*
X150519673Y-92428195D01*
X150509930Y-92391831D01*
X150514825Y-92354649D01*
X150544578Y-92331819D01*
X150581758Y-92336713D01*
X150645313Y-92373407D01*
X150714073Y-92391831D01*
X150747169Y-92400699D01*
X150747170Y-92400700D01*
X150747173Y-92400700D01*
X150852630Y-92400700D01*
X150852630Y-92400699D01*
X150954487Y-92373407D01*
X151045813Y-92320680D01*
X151120380Y-92246113D01*
X151173107Y-92154787D01*
X151200400Y-92052927D01*
X151200400Y-92052922D01*
X151200819Y-92049746D01*
X151202139Y-92049919D01*
X151214752Y-92019472D01*
X151249400Y-92005120D01*
X151262083Y-92006790D01*
X151279211Y-92011380D01*
X151350400Y-92011380D01*
X151385048Y-92025732D01*
X151399400Y-92060380D01*
X151399400Y-92152930D01*
X151426692Y-92254785D01*
X151426693Y-92254789D01*
X151464736Y-92320680D01*
X151479420Y-92346113D01*
X151553987Y-92420680D01*
X151587413Y-92439978D01*
X151645310Y-92473406D01*
X151645312Y-92473406D01*
X151645313Y-92473407D01*
X151668874Y-92479720D01*
X151747169Y-92500699D01*
X151747170Y-92500700D01*
X151747173Y-92500700D01*
X151852630Y-92500700D01*
X151852630Y-92500699D01*
X151954487Y-92473407D01*
X152045813Y-92420680D01*
X152120380Y-92346113D01*
X152173107Y-92254787D01*
X152200399Y-92152930D01*
X152200400Y-92152930D01*
X152200400Y-92149981D01*
X152696888Y-92149981D01*
X152696888Y-92255442D01*
X152724180Y-92357297D01*
X152724181Y-92357301D01*
X152776908Y-92448625D01*
X152853746Y-92525463D01*
X152852329Y-92526879D01*
X152867940Y-92553912D01*
X152861796Y-92584811D01*
X152826692Y-92645613D01*
X152826692Y-92645614D01*
X152799400Y-92747469D01*
X152799400Y-92852930D01*
X152826692Y-92954785D01*
X152826693Y-92954789D01*
X152865739Y-93022417D01*
X152879420Y-93046113D01*
X152953987Y-93120680D01*
X152987413Y-93139978D01*
X153045310Y-93173406D01*
X153045312Y-93173406D01*
X153045313Y-93173407D01*
X153125647Y-93194932D01*
X153147169Y-93200699D01*
X153147170Y-93200700D01*
X153147173Y-93200700D01*
X153252630Y-93200700D01*
X153252630Y-93200699D01*
X153354487Y-93173407D01*
X153445813Y-93120680D01*
X153520380Y-93046113D01*
X153573107Y-92954787D01*
X153600399Y-92852930D01*
X153600400Y-92852930D01*
X153600400Y-92747470D01*
X153600399Y-92747469D01*
X153573107Y-92645614D01*
X153573106Y-92645610D01*
X153520379Y-92554286D01*
X153443542Y-92477449D01*
X153444952Y-92476038D01*
X153429343Y-92448972D01*
X153435492Y-92418099D01*
X153470594Y-92357301D01*
X153470594Y-92357300D01*
X153470595Y-92357299D01*
X153497887Y-92255442D01*
X153497888Y-92255442D01*
X153497888Y-92149982D01*
X153497887Y-92149981D01*
X153477369Y-92073406D01*
X153470595Y-92048125D01*
X153470594Y-92048124D01*
X153470594Y-92048122D01*
X153417867Y-91956798D01*
X153348429Y-91887360D01*
X153334077Y-91852712D01*
X153348429Y-91818064D01*
X153420379Y-91746114D01*
X153420380Y-91746113D01*
X153473107Y-91654787D01*
X153500399Y-91552930D01*
X153500400Y-91552930D01*
X153500400Y-91447470D01*
X153500399Y-91447469D01*
X153478293Y-91364967D01*
X153473107Y-91345613D01*
X153420380Y-91254287D01*
X153413562Y-91247469D01*
X154399400Y-91247469D01*
X154399400Y-91352930D01*
X154426692Y-91454785D01*
X154426693Y-91454789D01*
X154448505Y-91492567D01*
X154479420Y-91546113D01*
X154553987Y-91620680D01*
X154574834Y-91632716D01*
X154645310Y-91673406D01*
X154645312Y-91673406D01*
X154645313Y-91673407D01*
X154689878Y-91685348D01*
X154747169Y-91700699D01*
X154747170Y-91700700D01*
X154747173Y-91700700D01*
X154852629Y-91700700D01*
X154937655Y-91677917D01*
X154974837Y-91682812D01*
X154997667Y-91712565D01*
X154992772Y-91749747D01*
X154974838Y-91767681D01*
X154953987Y-91779720D01*
X154953984Y-91779722D01*
X154879421Y-91854286D01*
X154879420Y-91854286D01*
X154826693Y-91945610D01*
X154826692Y-91945614D01*
X154799400Y-92047469D01*
X154799400Y-92152930D01*
X154826692Y-92254785D01*
X154826693Y-92254789D01*
X154864736Y-92320680D01*
X154879420Y-92346113D01*
X154953987Y-92420680D01*
X154987413Y-92439978D01*
X155045310Y-92473406D01*
X155045312Y-92473406D01*
X155045313Y-92473407D01*
X155068874Y-92479720D01*
X155147169Y-92500699D01*
X155147170Y-92500700D01*
X155147173Y-92500700D01*
X155252630Y-92500700D01*
X155252630Y-92500699D01*
X155354487Y-92473407D01*
X155445813Y-92420680D01*
X155520380Y-92346113D01*
X155573107Y-92254787D01*
X155600399Y-92152930D01*
X155600400Y-92152930D01*
X155600400Y-92047470D01*
X155600399Y-92047469D01*
X155588841Y-92004335D01*
X155573107Y-91945613D01*
X155573106Y-91945612D01*
X155573106Y-91945610D01*
X155520670Y-91854790D01*
X155520380Y-91854287D01*
X155445813Y-91779720D01*
X155424963Y-91767682D01*
X155354489Y-91726993D01*
X155354485Y-91726992D01*
X155252630Y-91699700D01*
X155252627Y-91699700D01*
X155147173Y-91699700D01*
X155147170Y-91699700D01*
X155062144Y-91722482D01*
X155024962Y-91717587D01*
X155002132Y-91687834D01*
X155007027Y-91650652D01*
X155024958Y-91632720D01*
X155045813Y-91620680D01*
X155120380Y-91546113D01*
X155173107Y-91454787D01*
X155200399Y-91352930D01*
X155200400Y-91352930D01*
X155200400Y-91247470D01*
X155200399Y-91247469D01*
X155173107Y-91145614D01*
X155173106Y-91145610D01*
X155120379Y-91054286D01*
X155045813Y-90979720D01*
X154954489Y-90926993D01*
X154954485Y-90926992D01*
X154852630Y-90899700D01*
X154852627Y-90899700D01*
X154747173Y-90899700D01*
X154747170Y-90899700D01*
X154645314Y-90926992D01*
X154645310Y-90926993D01*
X154553986Y-90979720D01*
X154553986Y-90979721D01*
X154479421Y-91054286D01*
X154479420Y-91054286D01*
X154426693Y-91145610D01*
X154426692Y-91145614D01*
X154399400Y-91247469D01*
X153413562Y-91247469D01*
X153345813Y-91179720D01*
X153254489Y-91126993D01*
X153254485Y-91126992D01*
X153152630Y-91099700D01*
X153152627Y-91099700D01*
X153047173Y-91099700D01*
X153047170Y-91099700D01*
X152945314Y-91126992D01*
X152945310Y-91126993D01*
X152853986Y-91179720D01*
X152853986Y-91179721D01*
X152779421Y-91254286D01*
X152779420Y-91254286D01*
X152726693Y-91345610D01*
X152726692Y-91345614D01*
X152699400Y-91447469D01*
X152699400Y-91552930D01*
X152726692Y-91654785D01*
X152726693Y-91654789D01*
X152779420Y-91746113D01*
X152848859Y-91815552D01*
X152863211Y-91850200D01*
X152848859Y-91884848D01*
X152776909Y-91956798D01*
X152776908Y-91956798D01*
X152724181Y-92048122D01*
X152724180Y-92048126D01*
X152696888Y-92149981D01*
X152200400Y-92149981D01*
X152200400Y-92047470D01*
X152200399Y-92047469D01*
X152188841Y-92004335D01*
X152173107Y-91945613D01*
X152173106Y-91945612D01*
X152173106Y-91945610D01*
X152120670Y-91854790D01*
X152120380Y-91854287D01*
X152045813Y-91779720D01*
X152024963Y-91767682D01*
X151954489Y-91726993D01*
X151954485Y-91726992D01*
X151852630Y-91699700D01*
X151852627Y-91699700D01*
X151781440Y-91699700D01*
X151746792Y-91685348D01*
X151732440Y-91650700D01*
X151732440Y-91558150D01*
X151732439Y-91558149D01*
X151705147Y-91456294D01*
X151705146Y-91456290D01*
X151660938Y-91379721D01*
X151652420Y-91364967D01*
X151577853Y-91290400D01*
X151486529Y-91237673D01*
X151486525Y-91237672D01*
X151384670Y-91210380D01*
X151384667Y-91210380D01*
X151279213Y-91210380D01*
X151279210Y-91210380D01*
X151177354Y-91237672D01*
X151177350Y-91237673D01*
X151086026Y-91290400D01*
X151086026Y-91290401D01*
X151011462Y-91364964D01*
X151011460Y-91364966D01*
X151011460Y-91364967D01*
X151002942Y-91379721D01*
X150991835Y-91398959D01*
X150962081Y-91421789D01*
X150924899Y-91416893D01*
X150902069Y-91387139D01*
X150900400Y-91374458D01*
X150900400Y-91347470D01*
X150900399Y-91347469D01*
X150885108Y-91290401D01*
X150873107Y-91245613D01*
X150873106Y-91245612D01*
X150873106Y-91245610D01*
X150820379Y-91154286D01*
X150745813Y-91079720D01*
X150654489Y-91026993D01*
X150654485Y-91026992D01*
X150552630Y-90999700D01*
X150552627Y-90999700D01*
X150447173Y-90999700D01*
X150447170Y-90999700D01*
X150345314Y-91026992D01*
X150345310Y-91026993D01*
X150253986Y-91079720D01*
X150253986Y-91079721D01*
X150179421Y-91154286D01*
X150179420Y-91154286D01*
X150126693Y-91245610D01*
X150126692Y-91245614D01*
X150099400Y-91347469D01*
X150099400Y-91452930D01*
X150126692Y-91554785D01*
X150126693Y-91554789D01*
X150164736Y-91620680D01*
X150179420Y-91646113D01*
X150253987Y-91720680D01*
X150287413Y-91739978D01*
X150345310Y-91773406D01*
X150345312Y-91773406D01*
X150345313Y-91773407D01*
X150356748Y-91776471D01*
X150391962Y-91785907D01*
X150421715Y-91808737D01*
X150426610Y-91845919D01*
X150399400Y-91947469D01*
X150399400Y-92052927D01*
X150409144Y-92089295D01*
X150404248Y-92126477D01*
X150374494Y-92149307D01*
X150337313Y-92144411D01*
X150324248Y-92136868D01*
X150273763Y-92107719D01*
X150273759Y-92107718D01*
X150171904Y-92080426D01*
X150171901Y-92080426D01*
X150066447Y-92080426D01*
X150066444Y-92080426D01*
X149964588Y-92107718D01*
X149964584Y-92107719D01*
X149873260Y-92160446D01*
X149873260Y-92160447D01*
X149798695Y-92235012D01*
X149798694Y-92235012D01*
X149745967Y-92326336D01*
X149745966Y-92326340D01*
X149718674Y-92428195D01*
X136134619Y-92428195D01*
X136161459Y-92376478D01*
X136162603Y-92374403D01*
X136557879Y-91697431D01*
X136559155Y-91695366D01*
X136573488Y-91673407D01*
X136590417Y-91647469D01*
X147299400Y-91647469D01*
X147299400Y-91752930D01*
X147326692Y-91854785D01*
X147326693Y-91854789D01*
X147379130Y-91945610D01*
X147379420Y-91946113D01*
X147453987Y-92020680D01*
X147487413Y-92039978D01*
X147545310Y-92073406D01*
X147545312Y-92073406D01*
X147545313Y-92073407D01*
X147625647Y-92094932D01*
X147647169Y-92100699D01*
X147647170Y-92100700D01*
X147647173Y-92100700D01*
X147752630Y-92100700D01*
X147752630Y-92100699D01*
X147854487Y-92073407D01*
X147945813Y-92020680D01*
X148020380Y-91946113D01*
X148073107Y-91854787D01*
X148077868Y-91837017D01*
X148100697Y-91807265D01*
X148125198Y-91800700D01*
X148152630Y-91800700D01*
X148152630Y-91800699D01*
X148254487Y-91773407D01*
X148345813Y-91720680D01*
X148420380Y-91646113D01*
X148473107Y-91554787D01*
X148500399Y-91452930D01*
X148500400Y-91452930D01*
X148500400Y-91347470D01*
X148500399Y-91347469D01*
X148485108Y-91290401D01*
X148473107Y-91245613D01*
X148473106Y-91245612D01*
X148473106Y-91245610D01*
X148420379Y-91154286D01*
X148345813Y-91079720D01*
X148254489Y-91026993D01*
X148254485Y-91026992D01*
X148152630Y-90999700D01*
X148152627Y-90999700D01*
X148047173Y-90999700D01*
X148047170Y-90999700D01*
X147945314Y-91026992D01*
X147945310Y-91026993D01*
X147853986Y-91079720D01*
X147853986Y-91079721D01*
X147779421Y-91154286D01*
X147779420Y-91154286D01*
X147726694Y-91245609D01*
X147726693Y-91245613D01*
X147721931Y-91263382D01*
X147699103Y-91293135D01*
X147674602Y-91299700D01*
X147647170Y-91299700D01*
X147545314Y-91326992D01*
X147545310Y-91326993D01*
X147453986Y-91379720D01*
X147453986Y-91379721D01*
X147379421Y-91454286D01*
X147379420Y-91454286D01*
X147326693Y-91545610D01*
X147326692Y-91545614D01*
X147299400Y-91647469D01*
X136590417Y-91647469D01*
X136987606Y-91038924D01*
X136988965Y-91036950D01*
X137449561Y-90402617D01*
X137451035Y-90400691D01*
X137552394Y-90274787D01*
X137942595Y-89790091D01*
X137944134Y-89788272D01*
X137980472Y-89747469D01*
X145099400Y-89747469D01*
X145099400Y-89852930D01*
X145126692Y-89954785D01*
X145126693Y-89954789D01*
X145147659Y-89991102D01*
X145179420Y-90046113D01*
X145253987Y-90120680D01*
X145287413Y-90139978D01*
X145345310Y-90173406D01*
X145345312Y-90173406D01*
X145345313Y-90173407D01*
X145425647Y-90194932D01*
X145447169Y-90200699D01*
X145447170Y-90200700D01*
X145447173Y-90200700D01*
X145552629Y-90200700D01*
X145555879Y-90199829D01*
X145593061Y-90204723D01*
X145615892Y-90234476D01*
X145615892Y-90234477D01*
X145626692Y-90274786D01*
X145626693Y-90274789D01*
X145679420Y-90366113D01*
X145753987Y-90440680D01*
X145787413Y-90459978D01*
X145845310Y-90493406D01*
X145845312Y-90493406D01*
X145845313Y-90493407D01*
X145925647Y-90514932D01*
X145947169Y-90520699D01*
X145947170Y-90520700D01*
X145947173Y-90520700D01*
X146052630Y-90520700D01*
X146052630Y-90520699D01*
X146154487Y-90493407D01*
X146245813Y-90440680D01*
X146320380Y-90366113D01*
X146373107Y-90274787D01*
X146400399Y-90172930D01*
X146400400Y-90172930D01*
X146400400Y-90067470D01*
X146400399Y-90067469D01*
X146394632Y-90045947D01*
X146373107Y-89965613D01*
X146373106Y-89965612D01*
X146373106Y-89965610D01*
X146320379Y-89874286D01*
X146252441Y-89806348D01*
X146238089Y-89771700D01*
X146252441Y-89737052D01*
X146320379Y-89669114D01*
X146320380Y-89669113D01*
X146373107Y-89577787D01*
X146400399Y-89475930D01*
X146400400Y-89475930D01*
X146400400Y-89370470D01*
X146400399Y-89370469D01*
X146373425Y-89269801D01*
X146373107Y-89268613D01*
X146373106Y-89268612D01*
X146373106Y-89268610D01*
X146335143Y-89202857D01*
X146320380Y-89177287D01*
X146245813Y-89102720D01*
X146154489Y-89049993D01*
X146154485Y-89049992D01*
X146052630Y-89022700D01*
X146052627Y-89022700D01*
X145947173Y-89022700D01*
X145947170Y-89022700D01*
X145845314Y-89049992D01*
X145845310Y-89049993D01*
X145753986Y-89102720D01*
X145753986Y-89102721D01*
X145679421Y-89177286D01*
X145679420Y-89177286D01*
X145626693Y-89268610D01*
X145626692Y-89268614D01*
X145601299Y-89363382D01*
X145578469Y-89393135D01*
X145553969Y-89399700D01*
X145447170Y-89399700D01*
X145345314Y-89426992D01*
X145345310Y-89426993D01*
X145253986Y-89479720D01*
X145253986Y-89479721D01*
X145179421Y-89554286D01*
X145179420Y-89554286D01*
X145126693Y-89645610D01*
X145126692Y-89645614D01*
X145099400Y-89747469D01*
X137980472Y-89747469D01*
X138465511Y-89202832D01*
X138467130Y-89201101D01*
X139016976Y-88642339D01*
X139018686Y-88640685D01*
X139283098Y-88397469D01*
X147399400Y-88397469D01*
X147399400Y-88502930D01*
X147426692Y-88604785D01*
X147426693Y-88604789D01*
X147479420Y-88696113D01*
X147553987Y-88770680D01*
X147587413Y-88789978D01*
X147645310Y-88823406D01*
X147645312Y-88823406D01*
X147645313Y-88823407D01*
X147725647Y-88844932D01*
X147747169Y-88850699D01*
X147747170Y-88850700D01*
X147747173Y-88850700D01*
X147852630Y-88850700D01*
X147852630Y-88850699D01*
X147954487Y-88823407D01*
X148045813Y-88770680D01*
X148120380Y-88696113D01*
X148173107Y-88604787D01*
X148200399Y-88502930D01*
X148200400Y-88502930D01*
X148200400Y-88397470D01*
X148200399Y-88397469D01*
X148188828Y-88354286D01*
X148173107Y-88295613D01*
X148173106Y-88295612D01*
X148173106Y-88295610D01*
X148120781Y-88204982D01*
X148120380Y-88204287D01*
X148045813Y-88129720D01*
X148011595Y-88109964D01*
X147954489Y-88076993D01*
X147954485Y-88076992D01*
X147852630Y-88049700D01*
X147852627Y-88049700D01*
X147747173Y-88049700D01*
X147747170Y-88049700D01*
X147645314Y-88076992D01*
X147645310Y-88076993D01*
X147553986Y-88129720D01*
X147553986Y-88129721D01*
X147479421Y-88204286D01*
X147479420Y-88204286D01*
X147426693Y-88295610D01*
X147426692Y-88295614D01*
X147399400Y-88397469D01*
X139283098Y-88397469D01*
X139595684Y-88109940D01*
X139597465Y-88108383D01*
X140200092Y-87607055D01*
X140201998Y-87605549D01*
X140208455Y-87600700D01*
X140678822Y-87247469D01*
X145399400Y-87247469D01*
X145399400Y-87352930D01*
X145426692Y-87454785D01*
X145426693Y-87454789D01*
X145464736Y-87520680D01*
X145479420Y-87546113D01*
X145553987Y-87620680D01*
X145582010Y-87636859D01*
X145645310Y-87673406D01*
X145645312Y-87673406D01*
X145645313Y-87673407D01*
X145714652Y-87691986D01*
X145747169Y-87700699D01*
X145747170Y-87700700D01*
X145747173Y-87700700D01*
X145852628Y-87700700D01*
X145861377Y-87698355D01*
X145903409Y-87687092D01*
X145940588Y-87691986D01*
X145958525Y-87709922D01*
X145979420Y-87746113D01*
X146053987Y-87820680D01*
X146087413Y-87839978D01*
X146145310Y-87873406D01*
X146145312Y-87873406D01*
X146145313Y-87873407D01*
X146209352Y-87890566D01*
X146247169Y-87900699D01*
X146247170Y-87900700D01*
X146247173Y-87900700D01*
X146352630Y-87900700D01*
X146352630Y-87900699D01*
X146454487Y-87873407D01*
X146545813Y-87820680D01*
X146620380Y-87746113D01*
X146641273Y-87709923D01*
X146671026Y-87687093D01*
X146696392Y-87687093D01*
X146747171Y-87700700D01*
X146747173Y-87700700D01*
X146852630Y-87700700D01*
X146852630Y-87700699D01*
X146954487Y-87673407D01*
X146999413Y-87647469D01*
X148849400Y-87647469D01*
X148849400Y-87752930D01*
X148876692Y-87854785D01*
X148876693Y-87854789D01*
X148929420Y-87946113D01*
X149003987Y-88020680D01*
X149042888Y-88043139D01*
X149065718Y-88072892D01*
X149063963Y-88099748D01*
X149064987Y-88100023D01*
X149036863Y-88204981D01*
X149036863Y-88310442D01*
X149064155Y-88412297D01*
X149064156Y-88412301D01*
X149100437Y-88475140D01*
X149116883Y-88503625D01*
X149191450Y-88578192D01*
X149224876Y-88597490D01*
X149282773Y-88630918D01*
X149282775Y-88630918D01*
X149282776Y-88630919D01*
X149325479Y-88642361D01*
X149384632Y-88658211D01*
X149384633Y-88658212D01*
X149384636Y-88658212D01*
X149490093Y-88658212D01*
X149490093Y-88658211D01*
X149591950Y-88630919D01*
X149683276Y-88578192D01*
X149713999Y-88547469D01*
X150899400Y-88547469D01*
X150899400Y-88652930D01*
X150926692Y-88754785D01*
X150926693Y-88754789D01*
X150979420Y-88846113D01*
X151053987Y-88920680D01*
X151087413Y-88939978D01*
X151145310Y-88973406D01*
X151145312Y-88973406D01*
X151145313Y-88973407D01*
X151225647Y-88994932D01*
X151247169Y-89000699D01*
X151247170Y-89000700D01*
X151247173Y-89000700D01*
X151352630Y-89000700D01*
X151352630Y-89000699D01*
X151454487Y-88973407D01*
X151545813Y-88920680D01*
X151620380Y-88846113D01*
X151673107Y-88754787D01*
X151700399Y-88652930D01*
X151700400Y-88652930D01*
X151700400Y-88547471D01*
X151687867Y-88500699D01*
X151681018Y-88475138D01*
X151685912Y-88437958D01*
X151715665Y-88415127D01*
X151752847Y-88420021D01*
X151752848Y-88420022D01*
X151753986Y-88420679D01*
X151753987Y-88420680D01*
X151783913Y-88437958D01*
X151845310Y-88473406D01*
X151845312Y-88473406D01*
X151845313Y-88473407D01*
X151925647Y-88494932D01*
X151947169Y-88500699D01*
X151947170Y-88500700D01*
X151947173Y-88500700D01*
X152052630Y-88500700D01*
X152052630Y-88500699D01*
X152154487Y-88473407D01*
X152245813Y-88420680D01*
X152320380Y-88346113D01*
X152373107Y-88254787D01*
X152400399Y-88152930D01*
X152400400Y-88152930D01*
X152400400Y-88049700D01*
X152414752Y-88015052D01*
X152449400Y-88000700D01*
X152552710Y-88000700D01*
X152552710Y-88000699D01*
X152654567Y-87973407D01*
X152745893Y-87920680D01*
X152820460Y-87846113D01*
X152873187Y-87754787D01*
X152900479Y-87652930D01*
X152900480Y-87652930D01*
X152900480Y-87547470D01*
X152900479Y-87547469D01*
X152890256Y-87509316D01*
X152873187Y-87445613D01*
X152873186Y-87445612D01*
X152873186Y-87445610D01*
X152829018Y-87369110D01*
X152820460Y-87354287D01*
X152745893Y-87279720D01*
X152737264Y-87274738D01*
X152690034Y-87247469D01*
X153129940Y-87247469D01*
X153129940Y-87352930D01*
X153157232Y-87454785D01*
X153157233Y-87454789D01*
X153195276Y-87520680D01*
X153209960Y-87546113D01*
X153284527Y-87620680D01*
X153312550Y-87636859D01*
X153375850Y-87673406D01*
X153375852Y-87673406D01*
X153375853Y-87673407D01*
X153445192Y-87691986D01*
X153477709Y-87700699D01*
X153477710Y-87700700D01*
X153477713Y-87700700D01*
X153583170Y-87700700D01*
X153583170Y-87700699D01*
X153685027Y-87673407D01*
X153729953Y-87647469D01*
X153999400Y-87647469D01*
X153999400Y-87752930D01*
X154026692Y-87854785D01*
X154026693Y-87854789D01*
X154079420Y-87946113D01*
X154153987Y-88020680D01*
X154187413Y-88039978D01*
X154245310Y-88073406D01*
X154245312Y-88073406D01*
X154245313Y-88073407D01*
X154325647Y-88094932D01*
X154347169Y-88100699D01*
X154347170Y-88100700D01*
X154347173Y-88100700D01*
X154452630Y-88100700D01*
X154452630Y-88100699D01*
X154554487Y-88073407D01*
X154645813Y-88020680D01*
X154720380Y-87946113D01*
X154773107Y-87854787D01*
X154800399Y-87752930D01*
X154800400Y-87752930D01*
X154800400Y-87647470D01*
X154800399Y-87647469D01*
X154773605Y-87547473D01*
X154773107Y-87545613D01*
X154773106Y-87545612D01*
X154773106Y-87545610D01*
X154739678Y-87487713D01*
X154720380Y-87454287D01*
X154645813Y-87379720D01*
X154627436Y-87369110D01*
X154554489Y-87326993D01*
X154554485Y-87326992D01*
X154452630Y-87299700D01*
X154452627Y-87299700D01*
X154347173Y-87299700D01*
X154347170Y-87299700D01*
X154245314Y-87326992D01*
X154245310Y-87326993D01*
X154153986Y-87379720D01*
X154153986Y-87379721D01*
X154079421Y-87454286D01*
X154079420Y-87454286D01*
X154026693Y-87545610D01*
X154026692Y-87545614D01*
X153999400Y-87647469D01*
X153729953Y-87647469D01*
X153776353Y-87620680D01*
X153850920Y-87546113D01*
X153903647Y-87454787D01*
X153930939Y-87352930D01*
X153930940Y-87352930D01*
X153930940Y-87247470D01*
X153930939Y-87247469D01*
X153918139Y-87199700D01*
X153903647Y-87145613D01*
X153903646Y-87145612D01*
X153903646Y-87145610D01*
X153850923Y-87054293D01*
X153850920Y-87054287D01*
X153776353Y-86979720D01*
X153685029Y-86926993D01*
X153685025Y-86926992D01*
X153583170Y-86899700D01*
X153583167Y-86899700D01*
X153477713Y-86899700D01*
X153477710Y-86899700D01*
X153375854Y-86926992D01*
X153375850Y-86926993D01*
X153284526Y-86979720D01*
X153284526Y-86979721D01*
X153209961Y-87054286D01*
X153209960Y-87054286D01*
X153157233Y-87145610D01*
X153157232Y-87145614D01*
X153129940Y-87247469D01*
X152690034Y-87247469D01*
X152654569Y-87226993D01*
X152654565Y-87226992D01*
X152552710Y-87199700D01*
X152552707Y-87199700D01*
X152447253Y-87199700D01*
X152447250Y-87199700D01*
X152345394Y-87226992D01*
X152345390Y-87226993D01*
X152254066Y-87279720D01*
X152254066Y-87279721D01*
X152179501Y-87354286D01*
X152179500Y-87354286D01*
X152126773Y-87445610D01*
X152126772Y-87445614D01*
X152099480Y-87547469D01*
X152099480Y-87650700D01*
X152085128Y-87685348D01*
X152050480Y-87699700D01*
X151947170Y-87699700D01*
X151933238Y-87703433D01*
X151896056Y-87698538D01*
X151873226Y-87668785D01*
X151856687Y-87607062D01*
X151854967Y-87600643D01*
X151854966Y-87600642D01*
X151854966Y-87600640D01*
X151802239Y-87509316D01*
X151727673Y-87434750D01*
X151636349Y-87382023D01*
X151636345Y-87382022D01*
X151534490Y-87354730D01*
X151534487Y-87354730D01*
X151429033Y-87354730D01*
X151429030Y-87354730D01*
X151327174Y-87382022D01*
X151327170Y-87382023D01*
X151235846Y-87434750D01*
X151235846Y-87434751D01*
X151161281Y-87509316D01*
X151161280Y-87509316D01*
X151108553Y-87600640D01*
X151108552Y-87600644D01*
X151081260Y-87702499D01*
X151081260Y-87807960D01*
X151108552Y-87909815D01*
X151108553Y-87909819D01*
X151151127Y-87983557D01*
X151161280Y-88001143D01*
X151235847Y-88075710D01*
X151279129Y-88100699D01*
X151292234Y-88108265D01*
X151315064Y-88138018D01*
X151310169Y-88175200D01*
X151280416Y-88198030D01*
X151267734Y-88199700D01*
X151247170Y-88199700D01*
X151145314Y-88226992D01*
X151145310Y-88226993D01*
X151053986Y-88279720D01*
X151053986Y-88279721D01*
X150979421Y-88354286D01*
X150979420Y-88354286D01*
X150926693Y-88445610D01*
X150926692Y-88445614D01*
X150899400Y-88547469D01*
X149713999Y-88547469D01*
X149757843Y-88503625D01*
X149810570Y-88412299D01*
X149837862Y-88310442D01*
X149837863Y-88310442D01*
X149837863Y-88204982D01*
X149837862Y-88204981D01*
X149810570Y-88103126D01*
X149810569Y-88103122D01*
X149757842Y-88011798D01*
X149683276Y-87937232D01*
X149654607Y-87920680D01*
X149644373Y-87914771D01*
X149621544Y-87885019D01*
X149623306Y-87858165D01*
X149622276Y-87857889D01*
X149649901Y-87754789D01*
X149650399Y-87752930D01*
X149650400Y-87752930D01*
X149650400Y-87647470D01*
X149650399Y-87647469D01*
X149623605Y-87547473D01*
X149623107Y-87545613D01*
X149623106Y-87545612D01*
X149623106Y-87545610D01*
X149589678Y-87487713D01*
X149570380Y-87454287D01*
X149495813Y-87379720D01*
X149477436Y-87369110D01*
X149404489Y-87326993D01*
X149404485Y-87326992D01*
X149302630Y-87299700D01*
X149302627Y-87299700D01*
X149197173Y-87299700D01*
X149197170Y-87299700D01*
X149095314Y-87326992D01*
X149095310Y-87326993D01*
X149003986Y-87379720D01*
X149003986Y-87379721D01*
X148929421Y-87454286D01*
X148929420Y-87454286D01*
X148876693Y-87545610D01*
X148876692Y-87545614D01*
X148849400Y-87647469D01*
X146999413Y-87647469D01*
X147045813Y-87620680D01*
X147120380Y-87546113D01*
X147173107Y-87454787D01*
X147200399Y-87352930D01*
X147200400Y-87352930D01*
X147200400Y-87247470D01*
X147200399Y-87247469D01*
X147176143Y-87156943D01*
X147173604Y-87147469D01*
X149599400Y-87147469D01*
X149599400Y-87252930D01*
X149626692Y-87354785D01*
X149626693Y-87354789D01*
X149672860Y-87434751D01*
X149679420Y-87446113D01*
X149753987Y-87520680D01*
X149778790Y-87535000D01*
X149845310Y-87573406D01*
X149845312Y-87573406D01*
X149845313Y-87573407D01*
X149891416Y-87585760D01*
X149947169Y-87600699D01*
X149947170Y-87600700D01*
X150045690Y-87600700D01*
X150080338Y-87615052D01*
X150094690Y-87649700D01*
X150094690Y-87742320D01*
X150121982Y-87844175D01*
X150121983Y-87844179D01*
X150159879Y-87909815D01*
X150174710Y-87935503D01*
X150249277Y-88010070D01*
X150267654Y-88020680D01*
X150340600Y-88062796D01*
X150340602Y-88062796D01*
X150340603Y-88062797D01*
X150380197Y-88073406D01*
X150442459Y-88090089D01*
X150442460Y-88090090D01*
X150442463Y-88090090D01*
X150547920Y-88090090D01*
X150547920Y-88090089D01*
X150649777Y-88062797D01*
X150741103Y-88010070D01*
X150815670Y-87935503D01*
X150868397Y-87844177D01*
X150895689Y-87742320D01*
X150895690Y-87742320D01*
X150895690Y-87636860D01*
X150895689Y-87636859D01*
X150868397Y-87535004D01*
X150868396Y-87535000D01*
X150834968Y-87477103D01*
X150815670Y-87443677D01*
X150741103Y-87369110D01*
X150649779Y-87316383D01*
X150649775Y-87316382D01*
X150547920Y-87289090D01*
X150547917Y-87289090D01*
X150449400Y-87289090D01*
X150414752Y-87274738D01*
X150400400Y-87240090D01*
X150400400Y-87147470D01*
X150400399Y-87147469D01*
X150373107Y-87045614D01*
X150373106Y-87045610D01*
X150320379Y-86954286D01*
X150245813Y-86879720D01*
X150154489Y-86826993D01*
X150154485Y-86826992D01*
X150052630Y-86799700D01*
X150052627Y-86799700D01*
X149947173Y-86799700D01*
X149947170Y-86799700D01*
X149845314Y-86826992D01*
X149845310Y-86826993D01*
X149753986Y-86879720D01*
X149753986Y-86879721D01*
X149679421Y-86954286D01*
X149679420Y-86954286D01*
X149626693Y-87045610D01*
X149626692Y-87045614D01*
X149599400Y-87147469D01*
X147173604Y-87147469D01*
X147173107Y-87145613D01*
X147173106Y-87145610D01*
X147120383Y-87054293D01*
X147120380Y-87054287D01*
X147045813Y-86979720D01*
X146954489Y-86926993D01*
X146954485Y-86926992D01*
X146852630Y-86899700D01*
X146852627Y-86899700D01*
X146747173Y-86899700D01*
X146747170Y-86899700D01*
X146645314Y-86926992D01*
X146645310Y-86926993D01*
X146553986Y-86979720D01*
X146553986Y-86979721D01*
X146479423Y-87054283D01*
X146479418Y-87054290D01*
X146458525Y-87090477D01*
X146428771Y-87113307D01*
X146403408Y-87113306D01*
X146352630Y-87099700D01*
X146352627Y-87099700D01*
X146247173Y-87099700D01*
X146247170Y-87099700D01*
X146196391Y-87113306D01*
X146159209Y-87108411D01*
X146141274Y-87090476D01*
X146120384Y-87054293D01*
X146120381Y-87054290D01*
X146120380Y-87054287D01*
X146045813Y-86979720D01*
X145954489Y-86926993D01*
X145954485Y-86926992D01*
X145852630Y-86899700D01*
X145852627Y-86899700D01*
X145747173Y-86899700D01*
X145747170Y-86899700D01*
X145645314Y-86926992D01*
X145645310Y-86926993D01*
X145553986Y-86979720D01*
X145553986Y-86979721D01*
X145479421Y-87054286D01*
X145479420Y-87054286D01*
X145426693Y-87145610D01*
X145426692Y-87145614D01*
X145399400Y-87247469D01*
X140678822Y-87247469D01*
X140828836Y-87134813D01*
X140830787Y-87133423D01*
X141480250Y-86694469D01*
X141482283Y-86693168D01*
X142152818Y-86287048D01*
X142154881Y-86285868D01*
X142844780Y-85913621D01*
X142846927Y-85912530D01*
X143554464Y-85575080D01*
X143556689Y-85574086D01*
X144280144Y-85272253D01*
X144282368Y-85271389D01*
X145020000Y-85005904D01*
X145022254Y-85005157D01*
X145772149Y-84776710D01*
X145774418Y-84776079D01*
X146534783Y-84585216D01*
X146537150Y-84584685D01*
X147305984Y-84431906D01*
X147308369Y-84431493D01*
X148083905Y-84317147D01*
X148086287Y-84316857D01*
X148866516Y-84241241D01*
X148868940Y-84241067D01*
X149651976Y-84204363D01*
X149654370Y-84204310D01*
X150438293Y-84206610D01*
G37*
%TD.AperFunction*%
%TD*%
M02*
