%TF.GenerationSoftware,KiCad,Pcbnew,9.0.7*%
%TF.CreationDate,2026-09-13T17:42:34-04:00*%
%TF.ProjectId,BLDCM-MCU,424c4443-4d2d-44d4-9355-2e6b69636164,v1.0*%
%TF.SameCoordinates,Original*%
%TF.FileFunction,Paste,Bot*%
%TF.FilePolarity,Positive*%
%FSLAX46Y46*%
G04 Gerber Fmt 4.6, Leading zero omitted, Abs format (unit mm)*
G04 Created by KiCad (PCBNEW 9.0.7) date 2026-09-13 17:42:34*
%MOMM*%
%LPD*%
G01*
G04 APERTURE LIST*
G04 Aperture macros list*
%AMRoundRect*
0 Rectangle with rounded corners*
0 $1 Rounding radius*
0 $2 $3 $4 $5 $6 $7 $8 $9 X,Y pos of 4 corners*
0 Add a 4 corners polygon primitive as box body*
4,1,4,$2,$3,$4,$5,$6,$7,$8,$9,$2,$3,0*
0 Add four circle primitives for the rounded corners*
1,1,$1+$1,$2,$3*
1,1,$1+$1,$4,$5*
1,1,$1+$1,$6,$7*
1,1,$1+$1,$8,$9*
0 Add four rect primitives between the rounded corners*
20,1,$1+$1,$2,$3,$4,$5,0*
20,1,$1+$1,$4,$5,$6,$7,0*
20,1,$1+$1,$6,$7,$8,$9,0*
20,1,$1+$1,$8,$9,$2,$3,0*%
%AMRotRect*
0 Rectangle, with rotation*
0 The origin of the aperture is its center*
0 $1 length*
0 $2 width*
0 $3 Rotation angle, in degrees counterclockwise*
0 Add horizontal line*
21,1,$1,$2,0,0,$3*%
%AMFreePoly0*
4,1,11,0.000001,0.000001,0.000001,0.000000,0.080601,-0.909350,0.080601,-0.909351,-0.318199,-1.308151,-0.318201,-1.308151,-1.272791,-0.353551,-1.272791,-0.353549,-0.459621,0.459621,-0.459619,0.459621,0.000001,0.000001,0.000001,0.000001,$1*%
%AMFreePoly1*
4,1,11,0.080601,0.909351,0.080601,0.909350,0.000001,0.000000,0.000001,-0.000001,-0.459619,-0.459621,-0.459621,-0.459621,-1.272791,0.353549,-1.272791,0.353551,-0.318201,1.308151,-0.318199,1.308151,0.080601,0.909351,0.080601,0.909351,$1*%
G04 Aperture macros list end*
%ADD10RoundRect,0.160000X0.222500X0.160000X-0.222500X0.160000X-0.222500X-0.160000X0.222500X-0.160000X0*%
%ADD11RoundRect,0.160000X0.270468X-0.044194X-0.044194X0.270468X-0.270468X0.044194X0.044194X-0.270468X0*%
%ADD12RotRect,1.400000X1.200000X45.000000*%
%ADD13RoundRect,0.160000X0.044194X0.270468X-0.270468X-0.044194X-0.044194X-0.270468X0.270468X0.044194X0*%
%ADD14RoundRect,0.160000X0.160000X-0.222500X0.160000X0.222500X-0.160000X0.222500X-0.160000X-0.222500X0*%
%ADD15RoundRect,0.237500X-0.380070X0.044194X0.044194X-0.380070X0.380070X-0.044194X-0.044194X0.380070X0*%
%ADD16RoundRect,0.160000X-0.270468X0.044194X0.044194X-0.270468X0.270468X-0.044194X-0.044194X0.270468X0*%
%ADD17RoundRect,0.160000X-0.044194X-0.270468X0.270468X0.044194X0.044194X0.270468X-0.270468X-0.044194X0*%
%ADD18RoundRect,0.137500X-0.387500X-0.137500X0.387500X-0.137500X0.387500X0.137500X-0.387500X0.137500X0*%
%ADD19RoundRect,0.075000X0.075000X-0.237500X0.075000X0.237500X-0.075000X0.237500X-0.075000X-0.237500X0*%
%ADD20RoundRect,0.075000X0.237500X-0.075000X0.237500X0.075000X-0.237500X0.075000X-0.237500X-0.075000X0*%
%ADD21RoundRect,0.070000X0.452548X0.551543X-0.551543X-0.452548X-0.452548X-0.551543X0.551543X0.452548X0*%
%ADD22RoundRect,0.070000X0.551543X-0.452548X-0.452548X0.551543X-0.551543X0.452548X0.452548X-0.551543X0*%
%ADD23RoundRect,0.070000X-0.452548X-0.551543X0.551543X0.452548X0.452548X0.551543X-0.551543X-0.452548X0*%
%ADD24RoundRect,0.070000X-0.551543X0.452548X0.452548X-0.551543X0.551543X-0.452548X-0.452548X0.551543X0*%
%ADD25RoundRect,0.160000X-0.222500X-0.160000X0.222500X-0.160000X0.222500X0.160000X-0.222500X0.160000X0*%
%ADD26FreePoly0,90.000000*%
%ADD27FreePoly1,0.000000*%
%ADD28RotRect,1.100000X0.700000X225.000000*%
%ADD29RotRect,1.100000X1.400000X225.000000*%
%ADD30C,0.025400*%
%ADD31R,0.250000X1.800000*%
G04 APERTURE END LIST*
D10*
%TO.C,R5*%
X161672400Y-97700200D03*
X160527400Y-97700200D03*
%TD*%
D11*
%TO.C,C3*%
X146104719Y-92705019D03*
X145295081Y-91895381D03*
%TD*%
D12*
%TO.C,Y1*%
X141903542Y-106894477D03*
X143459177Y-105338842D03*
X144661258Y-106540923D03*
X143105623Y-108096558D03*
%TD*%
D13*
%TO.C,C7*%
X141190459Y-105495381D03*
X140380821Y-106305019D03*
%TD*%
D14*
%TO.C,C9*%
X138551290Y-99372700D03*
X138551290Y-98227700D03*
%TD*%
D15*
%TO.C,C6*%
X144190020Y-92590320D03*
X145409780Y-93810080D03*
%TD*%
D16*
%TO.C,R1*%
X154807081Y-105940381D03*
X155616719Y-106750019D03*
%TD*%
D10*
%TO.C,C5*%
X159372400Y-97700200D03*
X158227400Y-97700200D03*
%TD*%
D14*
%TO.C,C10*%
X138551290Y-101672700D03*
X138551290Y-100527700D03*
%TD*%
D17*
%TO.C,C2*%
X142068921Y-104670469D03*
X142878559Y-103860831D03*
%TD*%
%TO.C,C1*%
X144647081Y-108909019D03*
X145456719Y-108099381D03*
%TD*%
D18*
%TO.C,U2*%
X158199900Y-100971840D03*
X158199900Y-100021840D03*
X158199900Y-99071840D03*
X160799900Y-99071840D03*
X160799900Y-100971840D03*
%TD*%
D19*
%TO.C,U3*%
X141749900Y-101162700D03*
X141249900Y-101162700D03*
X140749900Y-101162700D03*
X140249900Y-101162700D03*
D20*
X140087400Y-100500200D03*
X140087400Y-100000200D03*
X140087400Y-99500200D03*
D19*
X140249900Y-98837700D03*
X140749900Y-98837700D03*
X141249900Y-98837700D03*
X141749900Y-98837700D03*
D20*
X141912400Y-99500200D03*
X141912400Y-100000200D03*
X141912400Y-100500200D03*
%TD*%
D21*
%TO.C,U1*%
X148636454Y-106658363D03*
X148282894Y-106304803D03*
X147929344Y-105951253D03*
X147575785Y-105597703D03*
X147222234Y-105244143D03*
X146868684Y-104890593D03*
X146515124Y-104537043D03*
X146161574Y-104183483D03*
X145808024Y-103829933D03*
X145454464Y-103476383D03*
X145100914Y-103122823D03*
X144747364Y-102769273D03*
X144393804Y-102415723D03*
X144040254Y-102062163D03*
X143686704Y-101708613D03*
X143333145Y-101355053D03*
D22*
X143333145Y-98625633D03*
X143686704Y-98272073D03*
X144040254Y-97918523D03*
X144393804Y-97564973D03*
X144747364Y-97211413D03*
X145100914Y-96857863D03*
X145454464Y-96504313D03*
X145808024Y-96150753D03*
X146161574Y-95797203D03*
X146515124Y-95443643D03*
X146868684Y-95090093D03*
X147222234Y-94736543D03*
X147575785Y-94382983D03*
X147929344Y-94029433D03*
X148282894Y-93675883D03*
X148636454Y-93322333D03*
D23*
X151365875Y-93322333D03*
X151719434Y-93675883D03*
X152072984Y-94029433D03*
X152426534Y-94382983D03*
X152780095Y-94736543D03*
X153133645Y-95090093D03*
X153487194Y-95443643D03*
X153840754Y-95797203D03*
X154194305Y-96150753D03*
X154547864Y-96504313D03*
X154901414Y-96857863D03*
X155254964Y-97211413D03*
X155608525Y-97564973D03*
X155962074Y-97918523D03*
X156315624Y-98272073D03*
X156669174Y-98625633D03*
D24*
X156669174Y-101355053D03*
X156315624Y-101708613D03*
X155962074Y-102062163D03*
X155608525Y-102415723D03*
X155254964Y-102769273D03*
X154901414Y-103122823D03*
X154547864Y-103476383D03*
X154194305Y-103829933D03*
X153840754Y-104183483D03*
X153487194Y-104537043D03*
X153133645Y-104890593D03*
X152780095Y-105244143D03*
X152426534Y-105597703D03*
X152072984Y-105951253D03*
X151719434Y-106304803D03*
X151365875Y-106658363D03*
%TD*%
D25*
%TO.C,C4*%
X149432400Y-107488200D03*
X150577400Y-107488200D03*
%TD*%
D17*
%TO.C,R4*%
X139571521Y-105485219D03*
X140381159Y-104675581D03*
%TD*%
D26*
%TO.C,K1*%
X140408048Y-111108348D03*
D27*
X138891752Y-109592052D03*
D28*
X139814545Y-108205656D03*
X141794444Y-110185555D03*
D29*
X140937431Y-109116411D03*
D30*
X140965027Y-111705114D03*
X138348728Y-109088834D03*
%TD*%
D31*
%TO.C,J1*%
X146499900Y-90000200D03*
X146499900Y-86000200D03*
X146999900Y-90000200D03*
X146999900Y-86000200D03*
X147499900Y-90000200D03*
X147499900Y-86000200D03*
X147999900Y-90000200D03*
X147999900Y-86000200D03*
X148499900Y-90000200D03*
X148499900Y-86000200D03*
X148999900Y-90000200D03*
X148999900Y-86000200D03*
X149499900Y-90000200D03*
X149499900Y-86000200D03*
X149999900Y-90000200D03*
X149999900Y-86000200D03*
X150499900Y-90000200D03*
X150499900Y-86000200D03*
X150999900Y-90000200D03*
X150999900Y-86000200D03*
X151499900Y-90000200D03*
X151499900Y-86000200D03*
X151999900Y-90000200D03*
X151999900Y-86000200D03*
X152499900Y-90000200D03*
X152499900Y-86000200D03*
X152999900Y-90000200D03*
X152999900Y-86000200D03*
X153499900Y-90000200D03*
X153499900Y-86000200D03*
%TD*%
D17*
%TO.C,C8*%
X137995081Y-107105019D03*
X138804719Y-106295381D03*
%TD*%
M02*
