%TF.GenerationSoftware,KiCad,Pcbnew,9.0.7*%
%TF.CreationDate,2026-09-13T17:42:34-04:00*%
%TF.ProjectId,BLDCM-MCU,424c4443-4d2d-44d4-9355-2e6b69636164,v1.0*%
%TF.SameCoordinates,Original*%
%TF.FileFunction,Profile,NP*%
%FSLAX46Y46*%
G04 Gerber Fmt 4.6, Leading zero omitted, Abs format (unit mm)*
G04 Created by KiCad (PCBNEW 9.0.7) date 2026-09-13 17:42:34*
%MOMM*%
%LPD*%
G01*
G04 APERTURE LIST*
%TA.AperFunction,Profile*%
%ADD10C,0.050000*%
%TD*%
%ADD11C,0.050000*%
G04 APERTURE END LIST*
D10*
X161238939Y-109934277D02*
G75*
G02*
X159931932Y-111283275I-11565339J9897677D01*
G01*
D11*
X159625109Y-112130061D02*
X159626270Y-112138607D01*
X159627355Y-112147189D01*
X159628364Y-112155805D01*
X159629296Y-112164454D01*
X159630151Y-112173135D01*
X159630929Y-112181846D01*
X159631629Y-112190585D01*
X159632250Y-112199351D01*
X159632794Y-112208143D01*
X159633258Y-112216958D01*
X159633644Y-112225795D01*
X159633950Y-112234653D01*
X159634177Y-112243530D01*
X159634324Y-112252425D01*
X159634392Y-112261335D01*
X159634379Y-112270259D01*
X159634343Y-112274726D01*
X159634287Y-112279196D01*
X159634211Y-112283668D01*
X159634114Y-112288143D01*
X159633998Y-112292621D01*
X159633861Y-112297100D01*
X159633705Y-112301581D01*
X159633528Y-112306064D01*
X159633332Y-112310549D01*
X159633115Y-112315034D01*
X159632878Y-112319521D01*
X159632621Y-112324009D01*
X159632344Y-112328497D01*
X159632047Y-112332986D01*
X159631730Y-112337475D01*
X159631392Y-112341964D01*
X159631035Y-112346452D01*
X159630658Y-112350941D01*
X159630260Y-112355429D01*
X159629843Y-112359916D01*
X159629406Y-112364402D01*
X159628948Y-112368888D01*
X159628471Y-112373371D01*
X159627973Y-112377853D01*
X159627456Y-112382333D01*
X159626919Y-112386812D01*
X159626362Y-112391288D01*
X159625785Y-112395762D01*
X159625188Y-112400233D01*
X159624571Y-112404702D01*
X159623935Y-112409167D01*
X159623278Y-112413630D01*
X159622603Y-112418088D01*
X159621907Y-112422545D01*
X159621192Y-112426996D01*
X159620456Y-112431445D01*
X159619702Y-112435888D01*
X159618927Y-112440329D01*
X159618134Y-112444763D01*
X159617320Y-112449194D01*
X159616488Y-112453619D01*
X159615635Y-112458041D01*
X159614764Y-112462455D01*
X159613873Y-112466867D01*
X159612963Y-112471270D01*
X159612033Y-112475671D01*
X159611085Y-112480062D01*
X159610117Y-112484451D01*
X159609130Y-112488830D01*
X159608123Y-112493206D01*
X159607099Y-112497572D01*
X159606054Y-112501935D01*
X159604991Y-112506287D01*
X159603909Y-112510636D01*
X159602809Y-112514974D01*
X159601689Y-112519309D01*
X159600551Y-112523632D01*
X159599393Y-112527951D01*
X159598218Y-112532258D01*
X159597023Y-112536561D01*
X159595811Y-112540853D01*
X159594580Y-112545139D01*
X159593331Y-112549414D01*
X159592062Y-112553683D01*
X159590776Y-112557940D01*
X159589471Y-112562192D01*
X159588149Y-112566431D01*
X159586808Y-112570665D01*
X159585450Y-112574885D01*
X159584073Y-112579100D01*
X159582679Y-112583301D01*
X159581265Y-112587497D01*
X159579836Y-112591678D01*
X159578387Y-112595854D01*
X159576922Y-112600015D01*
X159575438Y-112604171D01*
X159573938Y-112608311D01*
X159572418Y-112612446D01*
X159570883Y-112616565D01*
X159569329Y-112620678D01*
X159567760Y-112624775D01*
X159566171Y-112628866D01*
X159564567Y-112632942D01*
X159562944Y-112637011D01*
X159561306Y-112641063D01*
X159559649Y-112645109D01*
X159557977Y-112649139D01*
X159556286Y-112653161D01*
X159554581Y-112657168D01*
X159552857Y-112661166D01*
X159551205Y-112664950D01*
D10*
X166000000Y-100000000D02*
G75*
G02*
X163105235Y-109178933I-16000000J0D01*
G01*
X159625109Y-112130061D02*
G75*
G02*
X159931929Y-111283271I959391J131361D01*
G01*
D11*
X162142427Y-109594866D02*
X162150958Y-109596097D01*
X162159525Y-109597252D01*
X162168128Y-109598331D01*
X162176765Y-109599334D01*
X162185433Y-109600260D01*
X162194133Y-109601108D01*
X162202862Y-109601880D01*
X162211619Y-109602573D01*
X162220402Y-109603188D01*
X162229209Y-109603725D01*
X162238040Y-109604182D01*
X162246892Y-109604561D01*
X162255763Y-109604861D01*
X162264654Y-109605081D01*
X162273560Y-109605221D01*
X162282482Y-109605282D01*
X162286948Y-109605282D01*
X162291417Y-109605262D01*
X162295889Y-109605223D01*
X162300364Y-109605163D01*
X162304841Y-109605083D01*
X162309320Y-109604983D01*
X162313802Y-109604864D01*
X162318286Y-109604724D01*
X162322771Y-109604564D01*
X162327258Y-109604384D01*
X162331746Y-109604183D01*
X162336235Y-109603963D01*
X162340725Y-109603723D01*
X162345216Y-109603462D01*
X162349707Y-109603182D01*
X162354198Y-109602881D01*
X162358689Y-109602561D01*
X162363181Y-109602220D01*
X162367672Y-109601860D01*
X162372163Y-109601479D01*
X162376652Y-109601078D01*
X162381141Y-109600657D01*
X162385628Y-109600217D01*
X162390115Y-109599756D01*
X162394599Y-109599275D01*
X162399083Y-109598775D01*
X162403563Y-109598254D01*
X162408043Y-109597714D01*
X162412519Y-109597153D01*
X162416994Y-109596573D01*
X162421464Y-109595973D01*
X162425933Y-109595353D01*
X162430398Y-109594714D01*
X162434861Y-109594054D01*
X162439318Y-109593375D01*
X162443774Y-109592676D01*
X162448224Y-109591958D01*
X162452672Y-109591220D01*
X162457114Y-109590462D01*
X162461553Y-109589685D01*
X162465986Y-109588889D01*
X162470416Y-109588072D01*
X162474839Y-109587237D01*
X162479259Y-109586381D01*
X162483671Y-109585507D01*
X162488080Y-109584613D01*
X162492481Y-109583701D01*
X162496879Y-109582768D01*
X162501268Y-109581817D01*
X162505654Y-109580846D01*
X162510030Y-109579857D01*
X162514403Y-109578848D01*
X162518766Y-109577820D01*
X162523126Y-109576773D01*
X162527475Y-109575708D01*
X162531820Y-109574623D01*
X162536155Y-109573520D01*
X162540485Y-109572398D01*
X162544804Y-109571257D01*
X162549119Y-109570098D01*
X162553423Y-109568920D01*
X162557722Y-109567723D01*
X162562009Y-109566509D01*
X162566291Y-109565275D01*
X162570561Y-109564023D01*
X162574826Y-109562753D01*
X162579078Y-109561465D01*
X162583325Y-109560158D01*
X162587559Y-109558834D01*
X162591788Y-109557490D01*
X162596003Y-109556130D01*
X162600213Y-109554751D01*
X162604409Y-109553355D01*
X162608600Y-109551940D01*
X162612776Y-109550508D01*
X162616946Y-109549057D01*
X162621102Y-109547590D01*
X162625251Y-109546104D01*
X162629386Y-109544602D01*
X162633515Y-109543081D01*
X162637628Y-109541545D01*
X162641736Y-109539989D01*
X162645827Y-109538417D01*
X162649912Y-109536827D01*
X162653982Y-109535221D01*
X162658044Y-109533597D01*
X162662091Y-109531957D01*
X162666131Y-109530299D01*
X162670154Y-109528625D01*
X162674171Y-109526933D01*
X162678171Y-109525226D01*
X162682163Y-109523500D01*
X162682735Y-109523251D01*
D10*
X159209977Y-113083437D02*
G75*
G02*
X166000000Y-100000000I-9209977J13083437D01*
G01*
X159726173Y-94961554D02*
G75*
G02*
X158126173Y-94961554I-800000J0D01*
G01*
X158126173Y-94961554D02*
G75*
G02*
X159726173Y-94961554I800000J0D01*
G01*
X150700336Y-110249515D02*
G75*
G02*
X149100336Y-110249515I-800000J0D01*
G01*
X149100336Y-110249515D02*
G75*
G02*
X150700336Y-110249515I800000J0D01*
G01*
X161238939Y-109934277D02*
G75*
G02*
X162142427Y-109594869I759761J-650223D01*
G01*
D11*
X159551205Y-112664950D02*
X159547728Y-112672904D01*
X159544170Y-112680841D01*
X159540532Y-112688761D01*
X159536815Y-112696663D01*
X159533019Y-112704546D01*
X159529144Y-112712409D01*
X159525189Y-112720251D01*
X159521157Y-112728071D01*
X159517047Y-112735867D01*
X159512859Y-112743640D01*
X159508594Y-112751387D01*
X159504252Y-112759107D01*
X159499834Y-112766800D01*
X159495340Y-112774465D01*
X159490772Y-112782099D01*
X159486128Y-112789703D01*
X159481411Y-112797275D01*
X159476620Y-112804814D01*
X159471756Y-112812318D01*
X159466819Y-112819787D01*
X159461812Y-112827219D01*
X159456733Y-112834613D01*
X159451585Y-112841968D01*
X159446367Y-112849283D01*
X159441080Y-112856556D01*
X159435726Y-112863786D01*
X159430305Y-112870973D01*
X159424818Y-112878114D01*
X159419265Y-112885209D01*
X159413649Y-112892257D01*
X159407969Y-112899256D01*
X159402227Y-112906204D01*
X159396423Y-112913102D01*
X159390559Y-112919947D01*
X159384635Y-112926738D01*
X159378654Y-112933475D01*
X159372615Y-112940156D01*
X159366520Y-112946779D01*
X159360370Y-112953344D01*
X159354166Y-112959850D01*
X159351045Y-112963080D01*
X159347910Y-112966295D01*
X159344762Y-112969495D01*
X159341602Y-112972678D01*
X159338429Y-112975847D01*
X159335244Y-112978999D01*
X159332047Y-112982135D01*
X159328837Y-112985255D01*
X159325615Y-112988359D01*
X159322382Y-112991447D01*
X159319137Y-112994518D01*
X159315880Y-112997572D01*
X159312613Y-113000609D01*
X159309334Y-113003630D01*
X159306044Y-113006633D01*
X159302743Y-113009620D01*
X159299431Y-113012589D01*
X159296109Y-113015541D01*
X159292777Y-113018475D01*
X159289434Y-113021391D01*
X159286082Y-113024290D01*
X159282719Y-113027171D01*
X159279347Y-113030033D01*
X159275965Y-113032878D01*
X159272574Y-113035704D01*
X159269174Y-113038512D01*
X159265765Y-113041301D01*
X159262346Y-113044072D01*
X159258920Y-113046824D01*
X159255484Y-113049558D01*
X159252041Y-113052272D01*
X159248588Y-113054968D01*
X159245129Y-113057643D01*
X159241660Y-113060301D01*
X159238186Y-113062938D01*
X159234702Y-113065557D01*
X159231212Y-113068155D01*
X159227714Y-113070735D01*
X159224210Y-113073294D01*
X159220698Y-113075834D01*
X159217181Y-113078354D01*
X159213655Y-113080854D01*
X159209977Y-113083437D01*
D10*
X141973491Y-94788931D02*
G75*
G02*
X140373491Y-94788931I-800000J0D01*
G01*
X140373491Y-94788931D02*
G75*
G02*
X141973491Y-94788931I800000J0D01*
G01*
D11*
X162682735Y-109523251D02*
X162690696Y-109519798D01*
X162698640Y-109516266D01*
X162706568Y-109512653D01*
X162714478Y-109508961D01*
X162722369Y-109505189D01*
X162730241Y-109501338D01*
X162738091Y-109497409D01*
X162745920Y-109493401D01*
X162753726Y-109489315D01*
X162761507Y-109485151D01*
X162769264Y-109480910D01*
X162776995Y-109476593D01*
X162784699Y-109472199D01*
X162792374Y-109467729D01*
X162800020Y-109463184D01*
X162807635Y-109458563D01*
X162815219Y-109453869D01*
X162822769Y-109449101D01*
X162830286Y-109444260D01*
X162837768Y-109439347D01*
X162845213Y-109434362D01*
X162852621Y-109429306D01*
X162859990Y-109424179D01*
X162867319Y-109418983D01*
X162874607Y-109413718D01*
X162881852Y-109408385D01*
X162889055Y-109402985D01*
X162896212Y-109397519D01*
X162903323Y-109391987D01*
X162910387Y-109386390D01*
X162917403Y-109380730D01*
X162924369Y-109375008D01*
X162931284Y-109369223D01*
X162938148Y-109363378D01*
X162944958Y-109357473D01*
X162951713Y-109351510D01*
X162958413Y-109345489D01*
X162965057Y-109339412D01*
X162971642Y-109333279D01*
X162978168Y-109327092D01*
X162981409Y-109323978D01*
X162984634Y-109320852D01*
X162987844Y-109317712D01*
X162991039Y-109314560D01*
X162994218Y-109311395D01*
X162997381Y-109308217D01*
X163000528Y-109305028D01*
X163003659Y-109301825D01*
X163006774Y-109298611D01*
X163009873Y-109295385D01*
X163012955Y-109292148D01*
X163016021Y-109288898D01*
X163019070Y-109285637D01*
X163022102Y-109282365D01*
X163025117Y-109279082D01*
X163028116Y-109275788D01*
X163031096Y-109272483D01*
X163034060Y-109269167D01*
X163037006Y-109265841D01*
X163039935Y-109262505D01*
X163042845Y-109259159D01*
X163045739Y-109255802D01*
X163048613Y-109252436D01*
X163051471Y-109249059D01*
X163054309Y-109245674D01*
X163057130Y-109242279D01*
X163059932Y-109238876D01*
X163062716Y-109235462D01*
X163065480Y-109232041D01*
X163068227Y-109228610D01*
X163070954Y-109225172D01*
X163073663Y-109221724D01*
X163076352Y-109218270D01*
X163079022Y-109214806D01*
X163081673Y-109211336D01*
X163084305Y-109207856D01*
X163086917Y-109204371D01*
X163089510Y-109200877D01*
X163092082Y-109197377D01*
X163094636Y-109193869D01*
X163097169Y-109190356D01*
X163099683Y-109186834D01*
X163102176Y-109183308D01*
X163104651Y-109179773D01*
X163105235Y-109178933D01*
M02*
