%TF.GenerationSoftware,KiCad,Pcbnew,9.0.7*%
%TF.CreationDate,2026-09-13T17:42:34-04:00*%
%TF.ProjectId,BLDCM-MCU,424c4443-4d2d-44d4-9355-2e6b69636164,v1.0*%
%TF.SameCoordinates,Original*%
%TF.FileFunction,Soldermask,Bot*%
%TF.FilePolarity,Negative*%
%FSLAX46Y46*%
G04 Gerber Fmt 4.6, Leading zero omitted, Abs format (unit mm)*
G04 Created by KiCad (PCBNEW 9.0.7) date 2026-09-13 17:42:34*
%MOMM*%
%LPD*%
G01*
G04 APERTURE LIST*
G04 Aperture macros list*
%AMRoundRect*
0 Rectangle with rounded corners*
0 $1 Rounding radius*
0 $2 $3 $4 $5 $6 $7 $8 $9 X,Y pos of 4 corners*
0 Add a 4 corners polygon primitive as box body*
4,1,4,$2,$3,$4,$5,$6,$7,$8,$9,$2,$3,0*
0 Add four circle primitives for the rounded corners*
1,1,$1+$1,$2,$3*
1,1,$1+$1,$4,$5*
1,1,$1+$1,$6,$7*
1,1,$1+$1,$8,$9*
0 Add four rect primitives between the rounded corners*
20,1,$1+$1,$2,$3,$4,$5,0*
20,1,$1+$1,$4,$5,$6,$7,0*
20,1,$1+$1,$6,$7,$8,$9,0*
20,1,$1+$1,$8,$9,$2,$3,0*%
%AMFreePoly0*
4,1,18,-0.416602,0.521056,-0.406587,0.512653,0.053033,0.053033,0.074707,0.006622,0.155307,-0.902728,0.142085,-0.952298,0.133633,-0.962383,-0.265167,-1.361183,-0.311663,-1.382865,-0.361218,-1.369586,-0.371233,-1.361183,-1.325823,-0.406583,-1.347505,-0.360086,-1.334226,-0.310531,-1.325823,-0.300517,-0.512653,0.512653,-0.466157,0.534335,-0.416602,0.521056,-0.416602,0.521056,$1*%
%AMFreePoly1*
4,1,18,-0.275182,1.369587,-0.265167,1.361183,0.133633,0.962383,0.155315,0.915887,0.155307,0.902728,0.074707,-0.006622,0.053033,-0.053033,-0.406587,-0.512653,-0.453083,-0.534335,-0.502638,-0.521056,-0.512653,-0.512653,-1.325823,0.300517,-1.347505,0.347013,-1.334226,0.396568,-1.325823,0.406583,-0.371233,1.361183,-0.324737,1.382865,-0.275182,1.369587,-0.275182,1.369587,$1*%
G04 Aperture macros list end*
%ADD10RoundRect,0.185000X0.247500X0.185000X-0.247500X0.185000X-0.247500X-0.185000X0.247500X-0.185000X0*%
%ADD11RoundRect,0.185000X0.305824X-0.044194X-0.044194X0.305824X-0.305824X0.044194X0.044194X-0.305824X0*%
%ADD12RoundRect,0.050000X-0.070711X-0.919239X0.919239X0.070711X0.070711X0.919239X-0.919239X-0.070711X0*%
%ADD13RoundRect,0.185000X0.044194X0.305824X-0.305824X-0.044194X-0.044194X-0.305824X0.305824X0.044194X0*%
%ADD14RoundRect,0.185000X0.185000X-0.247500X0.185000X0.247500X-0.185000X0.247500X-0.185000X-0.247500X0*%
%ADD15RoundRect,0.262500X-0.415425X0.044194X0.044194X-0.415425X0.415425X-0.044194X-0.044194X0.415425X0*%
%ADD16RoundRect,0.185000X-0.305824X0.044194X0.044194X-0.305824X0.305824X-0.044194X-0.044194X0.305824X0*%
%ADD17RoundRect,0.185000X-0.044194X-0.305824X0.305824X0.044194X0.044194X0.305824X-0.305824X-0.044194X0*%
%ADD18RoundRect,0.162500X-0.412500X-0.162500X0.412500X-0.162500X0.412500X0.162500X-0.412500X0.162500X0*%
%ADD19RoundRect,0.100000X0.100000X-0.262500X0.100000X0.262500X-0.100000X0.262500X-0.100000X-0.262500X0*%
%ADD20RoundRect,0.100000X0.262500X-0.100000X0.262500X0.100000X-0.262500X0.100000X-0.262500X-0.100000X0*%
%ADD21RoundRect,0.095000X0.452548X0.586899X-0.586899X-0.452548X-0.452548X-0.586899X0.586899X0.452548X0*%
%ADD22RoundRect,0.095000X0.586899X-0.452548X-0.452548X0.586899X-0.586899X0.452548X0.452548X-0.586899X0*%
%ADD23RoundRect,0.095000X-0.452548X-0.586899X0.586899X0.452548X0.452548X0.586899X-0.586899X-0.452548X0*%
%ADD24RoundRect,0.095000X-0.586899X0.452548X0.452548X-0.586899X0.586899X-0.452548X-0.452548X0.586899X0*%
%ADD25RoundRect,0.185000X-0.247500X-0.185000X0.247500X-0.185000X0.247500X0.185000X-0.247500X0.185000X0*%
%ADD26FreePoly0,90.000000*%
%ADD27FreePoly1,0.000000*%
%ADD28RoundRect,0.050000X0.141421X0.636396X-0.636396X-0.141421X-0.141421X-0.636396X0.636396X0.141421X0*%
%ADD29RoundRect,0.050000X-0.106066X0.883883X-0.883883X0.106066X0.106066X-0.883883X0.883883X-0.106066X0*%
%ADD30C,0.125400*%
%ADD31RoundRect,0.050000X0.125000X-0.900000X0.125000X0.900000X-0.125000X0.900000X-0.125000X-0.900000X0*%
%ADD32C,0.500000*%
G04 APERTURE END LIST*
D10*
%TO.C,R5*%
X161672400Y-97700200D03*
X160527400Y-97700200D03*
%TD*%
D11*
%TO.C,C3*%
X146104719Y-92705019D03*
X145295081Y-91895381D03*
%TD*%
D12*
%TO.C,Y1*%
X141903542Y-106894477D03*
X143459177Y-105338842D03*
X144661258Y-106540923D03*
X143105623Y-108096558D03*
%TD*%
D13*
%TO.C,C7*%
X141190459Y-105495381D03*
X140380821Y-106305019D03*
%TD*%
D14*
%TO.C,C9*%
X138551290Y-99372700D03*
X138551290Y-98227700D03*
%TD*%
D15*
%TO.C,C6*%
X144190020Y-92590320D03*
X145409780Y-93810080D03*
%TD*%
D16*
%TO.C,R1*%
X154807081Y-105940381D03*
X155616719Y-106750019D03*
%TD*%
D10*
%TO.C,C5*%
X159372400Y-97700200D03*
X158227400Y-97700200D03*
%TD*%
D14*
%TO.C,C10*%
X138551290Y-101672700D03*
X138551290Y-100527700D03*
%TD*%
D17*
%TO.C,C2*%
X142068921Y-104670469D03*
X142878559Y-103860831D03*
%TD*%
%TO.C,C1*%
X144647081Y-108909019D03*
X145456719Y-108099381D03*
%TD*%
D18*
%TO.C,U2*%
X158199900Y-100971840D03*
X158199900Y-100021840D03*
X158199900Y-99071840D03*
X160799900Y-99071840D03*
X160799900Y-100971840D03*
%TD*%
D19*
%TO.C,U3*%
X141749900Y-101162700D03*
X141249900Y-101162700D03*
X140749900Y-101162700D03*
X140249900Y-101162700D03*
D20*
X140087400Y-100500200D03*
X140087400Y-100000200D03*
X140087400Y-99500200D03*
D19*
X140249900Y-98837700D03*
X140749900Y-98837700D03*
X141249900Y-98837700D03*
X141749900Y-98837700D03*
D20*
X141912400Y-99500200D03*
X141912400Y-100000200D03*
X141912400Y-100500200D03*
%TD*%
D21*
%TO.C,U1*%
X148636454Y-106658363D03*
X148282894Y-106304803D03*
X147929344Y-105951253D03*
X147575785Y-105597703D03*
X147222234Y-105244143D03*
X146868684Y-104890593D03*
X146515124Y-104537043D03*
X146161574Y-104183483D03*
X145808024Y-103829933D03*
X145454464Y-103476383D03*
X145100914Y-103122823D03*
X144747364Y-102769273D03*
X144393804Y-102415723D03*
X144040254Y-102062163D03*
X143686704Y-101708613D03*
X143333145Y-101355053D03*
D22*
X143333145Y-98625633D03*
X143686704Y-98272073D03*
X144040254Y-97918523D03*
X144393804Y-97564973D03*
X144747364Y-97211413D03*
X145100914Y-96857863D03*
X145454464Y-96504313D03*
X145808024Y-96150753D03*
X146161574Y-95797203D03*
X146515124Y-95443643D03*
X146868684Y-95090093D03*
X147222234Y-94736543D03*
X147575785Y-94382983D03*
X147929344Y-94029433D03*
X148282894Y-93675883D03*
X148636454Y-93322333D03*
D23*
X151365875Y-93322333D03*
X151719434Y-93675883D03*
X152072984Y-94029433D03*
X152426534Y-94382983D03*
X152780095Y-94736543D03*
X153133645Y-95090093D03*
X153487194Y-95443643D03*
X153840754Y-95797203D03*
X154194305Y-96150753D03*
X154547864Y-96504313D03*
X154901414Y-96857863D03*
X155254964Y-97211413D03*
X155608525Y-97564973D03*
X155962074Y-97918523D03*
X156315624Y-98272073D03*
X156669174Y-98625633D03*
D24*
X156669174Y-101355053D03*
X156315624Y-101708613D03*
X155962074Y-102062163D03*
X155608525Y-102415723D03*
X155254964Y-102769273D03*
X154901414Y-103122823D03*
X154547864Y-103476383D03*
X154194305Y-103829933D03*
X153840754Y-104183483D03*
X153487194Y-104537043D03*
X153133645Y-104890593D03*
X152780095Y-105244143D03*
X152426534Y-105597703D03*
X152072984Y-105951253D03*
X151719434Y-106304803D03*
X151365875Y-106658363D03*
%TD*%
D25*
%TO.C,C4*%
X149432400Y-107488200D03*
X150577400Y-107488200D03*
%TD*%
D17*
%TO.C,R4*%
X139571521Y-105485219D03*
X140381159Y-104675581D03*
%TD*%
D26*
%TO.C,K1*%
X140408048Y-111108348D03*
D27*
X138891752Y-109592052D03*
D28*
X139814545Y-108205656D03*
X141794444Y-110185555D03*
D29*
X140937431Y-109116411D03*
D30*
X140965027Y-111705114D03*
X138348728Y-109088834D03*
%TD*%
D31*
%TO.C,J1*%
X146499900Y-90000200D03*
X146499900Y-86000200D03*
X146999900Y-90000200D03*
X146999900Y-86000200D03*
X147499900Y-90000200D03*
X147499900Y-86000200D03*
X147999900Y-90000200D03*
X147999900Y-86000200D03*
X148499900Y-90000200D03*
X148499900Y-86000200D03*
X148999900Y-90000200D03*
X148999900Y-86000200D03*
X149499900Y-90000200D03*
X149499900Y-86000200D03*
X149999900Y-90000200D03*
X149999900Y-86000200D03*
X150499900Y-90000200D03*
X150499900Y-86000200D03*
X150999900Y-90000200D03*
X150999900Y-86000200D03*
X151499900Y-90000200D03*
X151499900Y-86000200D03*
X151999900Y-90000200D03*
X151999900Y-86000200D03*
X152499900Y-90000200D03*
X152499900Y-86000200D03*
X152999900Y-90000200D03*
X152999900Y-86000200D03*
X153499900Y-90000200D03*
X153499900Y-86000200D03*
%TD*%
D17*
%TO.C,C8*%
X137995081Y-107105019D03*
X138804719Y-106295381D03*
%TD*%
D32*
X146299900Y-87500200D03*
X145799900Y-87300200D03*
X164482900Y-101773200D03*
X146799900Y-87300200D03*
X139079540Y-107226899D03*
X141629690Y-105058450D03*
X147499900Y-87300200D03*
X148299900Y-87300200D03*
X136999900Y-107400200D03*
X147899900Y-87700200D03*
X143408930Y-110147160D03*
X139278750Y-99484270D03*
X147547999Y-92952101D03*
X138170570Y-105733530D03*
X151099900Y-108300200D03*
X137431900Y-99619120D03*
X145999900Y-89423200D03*
X157904117Y-97066358D03*
X145999900Y-90120200D03*
X144924900Y-99200200D03*
X145499900Y-89800200D03*
X144543900Y-107996200D03*
X151699900Y-102100200D03*
X150499900Y-91400200D03*
X145407900Y-105608200D03*
X139178217Y-105878517D03*
X153699900Y-107600200D03*
X151331940Y-91610880D03*
X158499900Y-101700200D03*
X157099900Y-94300200D03*
X151799900Y-92100200D03*
X156999900Y-97100200D03*
X143799900Y-93500200D03*
X144949900Y-101200200D03*
X149999900Y-87200200D03*
X155699900Y-94300200D03*
X150265230Y-93268330D03*
X151481760Y-87755230D03*
X144499900Y-95700200D03*
X153530440Y-87300200D03*
X155199900Y-92100200D03*
X147899900Y-95900200D03*
X153199900Y-92800200D03*
X149437363Y-88257712D03*
X147099900Y-103400200D03*
X154399900Y-87700200D03*
X155599900Y-95200200D03*
X149249900Y-87700200D03*
X144299900Y-104000200D03*
X151299900Y-88600200D03*
X153899900Y-94100200D03*
X143599900Y-96700200D03*
X150495190Y-87689590D03*
X150119174Y-92480926D03*
X152499980Y-87600200D03*
X153097388Y-92202712D03*
X154799900Y-91300200D03*
X147315160Y-96254800D03*
X153099900Y-91500200D03*
X144399900Y-94800200D03*
X150799900Y-92000200D03*
X155380230Y-104319870D03*
X145382235Y-95017865D03*
X146899900Y-96700200D03*
X148599900Y-96500200D03*
X144799900Y-95200200D03*
X151999900Y-88100200D03*
X154499900Y-94100200D03*
X147799900Y-88450200D03*
X144299900Y-104550200D03*
X154099900Y-107200200D03*
X162704900Y-100503200D03*
X159299900Y-100000200D03*
X141241900Y-99614200D03*
X156899900Y-102900200D03*
X156699900Y-103500200D03*
X150699900Y-99500200D03*
X150766900Y-94534200D03*
X150899900Y-100400200D03*
X151229350Y-94996650D03*
X151020900Y-104694200D03*
X151691790Y-95459090D03*
X151349900Y-100000200D03*
X150020900Y-104694200D03*
X157599900Y-102500200D03*
X149020900Y-104694200D03*
X140225900Y-102281200D03*
X148399900Y-104300200D03*
X156099900Y-103700200D03*
X141499900Y-97800200D03*
X147799900Y-104100200D03*
M02*
