%TF.GenerationSoftware,KiCad,Pcbnew,9.0.7*%
%TF.CreationDate,2026-09-13T17:45:20-04:00*%
%TF.ProjectId,BLDCM-Power,424c4443-4d2d-4506-9f77-65722e6b6963,v1.0*%
%TF.SameCoordinates,Original*%
%TF.FileFunction,Paste,Bot*%
%TF.FilePolarity,Positive*%
%FSLAX46Y46*%
G04 Gerber Fmt 4.6, Leading zero omitted, Abs format (unit mm)*
G04 Created by KiCad (PCBNEW 9.0.7) date 2026-09-13 17:45:20*
%MOMM*%
%LPD*%
G01*
G04 APERTURE LIST*
G04 Aperture macros list*
%AMRoundRect*
0 Rectangle with rounded corners*
0 $1 Rounding radius*
0 $2 $3 $4 $5 $6 $7 $8 $9 X,Y pos of 4 corners*
0 Add a 4 corners polygon primitive as box body*
4,1,4,$2,$3,$4,$5,$6,$7,$8,$9,$2,$3,0*
0 Add four circle primitives for the rounded corners*
1,1,$1+$1,$2,$3*
1,1,$1+$1,$4,$5*
1,1,$1+$1,$6,$7*
1,1,$1+$1,$8,$9*
0 Add four rect primitives between the rounded corners*
20,1,$1+$1,$2,$3,$4,$5,0*
20,1,$1+$1,$4,$5,$6,$7,0*
20,1,$1+$1,$6,$7,$8,$9,0*
20,1,$1+$1,$8,$9,$2,$3,0*%
G04 Aperture macros list end*
%ADD10RoundRect,0.112500X0.112500X0.237500X-0.112500X0.237500X-0.112500X-0.237500X0.112500X-0.237500X0*%
%ADD11R,0.740000X2.790000*%
%ADD12RoundRect,0.150000X1.100000X-0.350000X1.100000X0.350000X-1.100000X0.350000X-1.100000X-0.350000X0*%
%ADD13RoundRect,0.270000X1.630000X-0.630000X1.630000X0.630000X-1.630000X0.630000X-1.630000X-0.630000X0*%
%ADD14R,0.600000X1.150000*%
%ADD15R,0.300000X1.150000*%
%ADD16RoundRect,0.160000X0.222500X0.160000X-0.222500X0.160000X-0.222500X-0.160000X0.222500X-0.160000X0*%
%ADD17RoundRect,0.150000X-1.100000X0.350000X-1.100000X-0.350000X1.100000X-0.350000X1.100000X0.350000X0*%
%ADD18RoundRect,0.270000X-1.630000X0.630000X-1.630000X-0.630000X1.630000X-0.630000X1.630000X0.630000X0*%
G04 APERTURE END LIST*
D10*
%TO.C,D3*%
X150595920Y-107268080D03*
X149295920Y-107268080D03*
X149945920Y-105268080D03*
%TD*%
D11*
%TO.C,J5*%
X153810000Y-96970000D03*
X153810000Y-92900000D03*
X152540000Y-96970000D03*
X152540000Y-92900000D03*
X151270000Y-96970000D03*
X151270000Y-92900000D03*
X150000000Y-96970000D03*
X150000000Y-92900000D03*
X148730000Y-96970000D03*
X148730000Y-92900000D03*
X147460000Y-96970000D03*
X147460000Y-92900000D03*
X146190000Y-96970000D03*
X146190000Y-92900000D03*
%TD*%
D12*
%TO.C,J4*%
X157850000Y-103000000D03*
X157850000Y-101000000D03*
X157850000Y-99000000D03*
X157850000Y-97000000D03*
D13*
X162000000Y-105400000D03*
X162000000Y-94600000D03*
%TD*%
D14*
%TO.C,J6*%
X153200000Y-108925000D03*
X152400000Y-108925000D03*
D15*
X151250000Y-108925000D03*
X150250000Y-108925000D03*
X149750000Y-108925000D03*
X148750000Y-108925000D03*
D14*
X146800000Y-108925000D03*
X147600000Y-108925000D03*
D15*
X148250000Y-108925000D03*
X149250000Y-108925000D03*
X150750000Y-108925000D03*
X151750000Y-108925000D03*
%TD*%
D16*
%TO.C,R3*%
X152972500Y-107600000D03*
X151827500Y-107600000D03*
%TD*%
D17*
%TO.C,J3*%
X142150000Y-97000000D03*
X142150000Y-99000000D03*
X142150000Y-101000000D03*
X142150000Y-103000000D03*
D18*
X138000000Y-94600000D03*
X138000000Y-105400000D03*
%TD*%
M02*
