%TF.GenerationSoftware,KiCad,Pcbnew,9.0.7*%
%TF.CreationDate,2026-09-13T17:45:20-04:00*%
%TF.ProjectId,BLDCM-Power,424c4443-4d2d-4506-9f77-65722e6b6963,v1.0*%
%TF.SameCoordinates,Original*%
%TF.FileFunction,Copper,L2,Inr*%
%TF.FilePolarity,Positive*%
%FSLAX46Y46*%
G04 Gerber Fmt 4.6, Leading zero omitted, Abs format (unit mm)*
G04 Created by KiCad (PCBNEW 9.0.7) date 2026-09-13 17:45:20*
%MOMM*%
%LPD*%
G01*
G04 APERTURE LIST*
%TA.AperFunction,ComponentPad*%
%ADD10C,0.900000*%
%TD*%
%TA.AperFunction,ComponentPad*%
%ADD11O,1.000000X1.800000*%
%TD*%
%TA.AperFunction,ComponentPad*%
%ADD12O,1.000000X2.200000*%
%TD*%
%TA.AperFunction,ViaPad*%
%ADD13C,0.400000*%
%TD*%
G04 APERTURE END LIST*
D10*
%TO.N,/TMC.U.OUT*%
%TO.C,J2*%
X155828620Y-107651470D03*
%TO.N,/TMC.V.OUT*%
X156712500Y-106767580D03*
%TO.N,/TMC.W.OUT*%
X157596390Y-105883700D03*
%TD*%
D11*
%TO.N,GND*%
%TO.C,J6*%
X154320000Y-109500000D03*
X145680000Y-109500000D03*
D12*
X154320000Y-113500000D03*
X145680000Y-113500000D03*
%TD*%
D13*
%TO.N,VIN*%
X151000000Y-100100000D03*
X150500000Y-100100000D03*
X150500000Y-99600000D03*
X151000000Y-99600000D03*
X156900000Y-99000000D03*
X156400000Y-99000000D03*
%TO.N,GND*%
X156500000Y-87600000D03*
X152995000Y-88150080D03*
X150300000Y-114700000D03*
X143025120Y-92165770D03*
X154600000Y-93300000D03*
X143200000Y-95300000D03*
X144400000Y-90400000D03*
X163600000Y-102400000D03*
X156500000Y-108700000D03*
X139000000Y-103300000D03*
X142100000Y-89200000D03*
X151700000Y-91000000D03*
X156800000Y-93100000D03*
X151300000Y-101200000D03*
X157100000Y-95900000D03*
X155744990Y-113050090D03*
X148100000Y-113800000D03*
X137200000Y-101500000D03*
X141999000Y-92298080D03*
X157800000Y-107400000D03*
X158059303Y-91425000D03*
X150800000Y-87500000D03*
X161900000Y-90900000D03*
X140200000Y-90900000D03*
X154994990Y-96550090D03*
X161600000Y-91800000D03*
X138700000Y-93100000D03*
X135700000Y-94600000D03*
X161500000Y-90500000D03*
X139300000Y-108000000D03*
X161100000Y-90100000D03*
X142634000Y-91790080D03*
X139000000Y-89200000D03*
X157700000Y-112300000D03*
X149000000Y-91000000D03*
X151795000Y-88250080D03*
X151000000Y-105400000D03*
X149300000Y-105200000D03*
X144095000Y-97300077D03*
X153627821Y-88224730D03*
X158300000Y-95000000D03*
X164800000Y-99200000D03*
X149400000Y-106200000D03*
X144600000Y-101900000D03*
X142253000Y-91409080D03*
X142600000Y-86800000D03*
X160300000Y-109600000D03*
X158300000Y-94500000D03*
X142507000Y-92679080D03*
X140100000Y-97000000D03*
X154000000Y-112500000D03*
X142600000Y-107100000D03*
X137295447Y-98304553D03*
X160357984Y-101482447D03*
X143375000Y-92552080D03*
X161100000Y-108700000D03*
X144300000Y-100000000D03*
X159669998Y-101459998D03*
X142200000Y-100000000D03*
X162500000Y-97300000D03*
X152395000Y-88150080D03*
X145047000Y-94838080D03*
X158300000Y-95500000D03*
X162000000Y-103800000D03*
X155100000Y-95200000D03*
X160500000Y-99400000D03*
X160500000Y-98900000D03*
X144695000Y-98450080D03*
X160400000Y-102900000D03*
X148100000Y-107700000D03*
X142900000Y-109700000D03*
X150500000Y-91000000D03*
X162500000Y-93400000D03*
X144095000Y-99050080D03*
X160600000Y-100600000D03*
X142400000Y-94400000D03*
X141618000Y-91917080D03*
X144100000Y-112700000D03*
X162500000Y-92900000D03*
X151000000Y-100700000D03*
X159694912Y-102907632D03*
X138900000Y-100700000D03*
X148000000Y-85500000D03*
X150500000Y-111600000D03*
X159800000Y-106600000D03*
X137395000Y-107950080D03*
X144695000Y-97850080D03*
X164600000Y-96800000D03*
X154700000Y-92100000D03*
X150800000Y-101200000D03*
X141600000Y-102100000D03*
X142888000Y-93060080D03*
X138600000Y-109300000D03*
X145300000Y-86100000D03*
X146800000Y-109800000D03*
X141395000Y-111950080D03*
X153800000Y-107600000D03*
X154100000Y-86800000D03*
X147500000Y-87200000D03*
X162600000Y-100700000D03*
%TO.N,3.3V*%
X148900000Y-111500000D03*
X144600000Y-107200000D03*
X148500000Y-111900000D03*
X156800000Y-91200000D03*
X155700000Y-91600000D03*
X140800000Y-110736899D03*
X157400000Y-90200000D03*
X140400000Y-92400000D03*
X145600000Y-89700000D03*
X155200000Y-94100000D03*
X145100000Y-107200000D03*
X141308529Y-110736899D03*
X145500000Y-93600000D03*
X155700000Y-92200000D03*
X139700000Y-96400000D03*
X145900000Y-89300000D03*
X140500000Y-102200000D03*
X140390920Y-99300000D03*
X143800000Y-90500000D03*
%TO.N,/USB.DN*%
X153295000Y-88750080D03*
%TO.N,/USB.DP*%
X152195000Y-88750080D03*
%TO.N,/VCP.TX*%
X149895000Y-88450080D03*
%TO.N,/VCP.RX*%
X149495000Y-88950080D03*
%TO.N,/SWCLK*%
X150895000Y-88150080D03*
%TO.N,/TMC.UL*%
X154095000Y-87350080D03*
X151695000Y-87450080D03*
%TO.N,/CAN.RX*%
X143375000Y-89758080D03*
X144100000Y-88600000D03*
%TO.N,/TMC.DIAG*%
X150762000Y-85059080D03*
X145100000Y-94300000D03*
%TO.N,/VOLT.SRC*%
X154045000Y-90050080D03*
X157100000Y-94100000D03*
%TO.N,/SWDIO*%
X152795000Y-90950080D03*
%TO.N,/RST*%
X150495000Y-88750080D03*
%TO.N,/TMC.VL*%
X145395000Y-92850080D03*
X152540000Y-85440080D03*
%TO.N,/SWO*%
X150995000Y-88950080D03*
%TO.N,/TMC.UH*%
X155645000Y-90100080D03*
X155207000Y-95727080D03*
%TO.N,/TMC.U.OUT*%
X152200000Y-105300000D03*
X134700000Y-98000000D03*
X141300000Y-105000000D03*
%TO.N,/TMC.W.OUT*%
X148700003Y-105800000D03*
X154500000Y-103300000D03*
X147700000Y-103650000D03*
X134600000Y-100700000D03*
X151767920Y-113832080D03*
%TO.N,/TMC.V.OUT*%
X144900000Y-105100000D03*
X137889320Y-103732040D03*
X153400000Y-104100000D03*
%TO.N,/CAN.DN*%
X144095000Y-98450080D03*
X160000000Y-101900000D03*
%TO.N,/CAN.DP*%
X144095000Y-97850080D03*
X160000000Y-102450003D03*
%TO.N,5V*%
X158900000Y-88200000D03*
X159300000Y-88600000D03*
X147000000Y-85400000D03*
X146500000Y-85400000D03*
%TO.N,VBUS*%
X161500000Y-96900000D03*
X162000000Y-96900000D03*
%TO.N,/TMC.U.IN*%
X141800000Y-104950000D03*
X152579819Y-104450305D03*
%TO.N,/TMC.V.IN*%
X153800000Y-103200000D03*
X143900000Y-104786249D03*
%TO.N,/TMC.W.IN*%
X147200000Y-103594723D03*
X148200000Y-105800000D03*
X154700000Y-102600000D03*
X151100000Y-113182080D03*
%TO.N,/CURR.W*%
X145300000Y-96100000D03*
X149321450Y-85222890D03*
%TO.N,/CURR.U*%
X144300000Y-96100000D03*
X148400000Y-87200000D03*
%TO.N,/CURR.V*%
X149000000Y-87200000D03*
X144800000Y-96000000D03*
%TD*%
%TA.AperFunction,Conductor*%
%TO.N,3.3V*%
G36*
X150390772Y-84205408D02*
G01*
X151159281Y-84243161D01*
X151165283Y-84243604D01*
X151931009Y-84319022D01*
X151937022Y-84319764D01*
X152698118Y-84432661D01*
X152704103Y-84433701D01*
X153458709Y-84583801D01*
X153464613Y-84585126D01*
X154210974Y-84772080D01*
X154216837Y-84773702D01*
X154953115Y-84997050D01*
X154958863Y-84998949D01*
X155683326Y-85258165D01*
X155688957Y-85260337D01*
X156399802Y-85554780D01*
X156405345Y-85557236D01*
X157073406Y-85873206D01*
X157100894Y-85886207D01*
X157106328Y-85888943D01*
X157599833Y-86152727D01*
X157784857Y-86251624D01*
X157790147Y-86254621D01*
X158450106Y-86650184D01*
X158455200Y-86653410D01*
X159088959Y-87076874D01*
X159094944Y-87080873D01*
X159099916Y-87084374D01*
X159328746Y-87254086D01*
X159717914Y-87542713D01*
X159722712Y-87546458D01*
X160317452Y-88034549D01*
X160322060Y-88038524D01*
X160892143Y-88555216D01*
X160896551Y-88559413D01*
X161440586Y-89103448D01*
X161444783Y-89107856D01*
X161961475Y-89677939D01*
X161965450Y-89682547D01*
X162453541Y-90277287D01*
X162457286Y-90282085D01*
X162915622Y-90900079D01*
X162919126Y-90905055D01*
X162984441Y-91002805D01*
X163346167Y-91544167D01*
X163346574Y-91544775D01*
X163349821Y-91549904D01*
X163592379Y-91954587D01*
X163745375Y-92209846D01*
X163748375Y-92215142D01*
X164111055Y-92893669D01*
X164113792Y-92899105D01*
X164442758Y-93594644D01*
X164445224Y-93600208D01*
X164569195Y-93899500D01*
X164716069Y-94254085D01*
X164739652Y-94311018D01*
X164741843Y-94316697D01*
X165001045Y-95041121D01*
X165002954Y-95046900D01*
X165226296Y-95783160D01*
X165227919Y-95789025D01*
X165414869Y-96535369D01*
X165416202Y-96541308D01*
X165566297Y-97295890D01*
X165567338Y-97301886D01*
X165680233Y-98062963D01*
X165680978Y-98069004D01*
X165756392Y-98834682D01*
X165756840Y-98840752D01*
X165794592Y-99609227D01*
X165794741Y-99615311D01*
X165794741Y-100384688D01*
X165794592Y-100390772D01*
X165756840Y-101159247D01*
X165756392Y-101165317D01*
X165680978Y-101930995D01*
X165680233Y-101937036D01*
X165567338Y-102698113D01*
X165566297Y-102704109D01*
X165416202Y-103458691D01*
X165414869Y-103464630D01*
X165227919Y-104210974D01*
X165226296Y-104216839D01*
X165002954Y-104953099D01*
X165001045Y-104958878D01*
X164741843Y-105683302D01*
X164739652Y-105688981D01*
X164445224Y-106399791D01*
X164442758Y-106405355D01*
X164113792Y-107100894D01*
X164111055Y-107106330D01*
X163748375Y-107784857D01*
X163745375Y-107790153D01*
X163349830Y-108450082D01*
X163346574Y-108455224D01*
X162919126Y-109094944D01*
X162915622Y-109099920D01*
X162457286Y-109717914D01*
X162453541Y-109722712D01*
X161965450Y-110317452D01*
X161961475Y-110322060D01*
X161444783Y-110892143D01*
X161440586Y-110896551D01*
X160896551Y-111440586D01*
X160892143Y-111444783D01*
X160322060Y-111961475D01*
X160317452Y-111965450D01*
X159722712Y-112453541D01*
X159717914Y-112457286D01*
X159099920Y-112915622D01*
X159094944Y-112919126D01*
X158455224Y-113346574D01*
X158450082Y-113349830D01*
X157790153Y-113745375D01*
X157784857Y-113748375D01*
X157106330Y-114111055D01*
X157100894Y-114113792D01*
X156405355Y-114442758D01*
X156399791Y-114445224D01*
X155688981Y-114739652D01*
X155683302Y-114741843D01*
X154958878Y-115001045D01*
X154953099Y-115002954D01*
X154216839Y-115226296D01*
X154210974Y-115227919D01*
X153464630Y-115414869D01*
X153458691Y-115416202D01*
X152704109Y-115566297D01*
X152698113Y-115567338D01*
X151937036Y-115680233D01*
X151930995Y-115680978D01*
X151165317Y-115756392D01*
X151159247Y-115756840D01*
X150390772Y-115794592D01*
X150384688Y-115794741D01*
X149615312Y-115794741D01*
X149609228Y-115794592D01*
X148840752Y-115756840D01*
X148834682Y-115756392D01*
X148069004Y-115680978D01*
X148062963Y-115680233D01*
X147301886Y-115567338D01*
X147295890Y-115566297D01*
X146541308Y-115416202D01*
X146535369Y-115414869D01*
X145789025Y-115227919D01*
X145783160Y-115226296D01*
X145046900Y-115002954D01*
X145041121Y-115001045D01*
X144316697Y-114741843D01*
X144311018Y-114739652D01*
X144265435Y-114720771D01*
X144087996Y-114647273D01*
X143600208Y-114445224D01*
X143594644Y-114442758D01*
X143015822Y-114168995D01*
X144979499Y-114168995D01*
X145006418Y-114304322D01*
X145006421Y-114304332D01*
X145059221Y-114431804D01*
X145059228Y-114431817D01*
X145135885Y-114546541D01*
X145135888Y-114546545D01*
X145233454Y-114644111D01*
X145233458Y-114644114D01*
X145348182Y-114720771D01*
X145348195Y-114720778D01*
X145425328Y-114752727D01*
X145475672Y-114773580D01*
X145475676Y-114773580D01*
X145475677Y-114773581D01*
X145611004Y-114800500D01*
X145611007Y-114800500D01*
X145748995Y-114800500D01*
X145840041Y-114782389D01*
X145884328Y-114773580D01*
X146011811Y-114720775D01*
X146121814Y-114647273D01*
X149899500Y-114647273D01*
X149899500Y-114752727D01*
X149926793Y-114854587D01*
X149979520Y-114945913D01*
X150054087Y-115020480D01*
X150145413Y-115073207D01*
X150247273Y-115100500D01*
X150247275Y-115100500D01*
X150352725Y-115100500D01*
X150352727Y-115100500D01*
X150454587Y-115073207D01*
X150545913Y-115020480D01*
X150620480Y-114945913D01*
X150673207Y-114854587D01*
X150700500Y-114752727D01*
X150700500Y-114647273D01*
X150673207Y-114545413D01*
X150620480Y-114454087D01*
X150545913Y-114379520D01*
X150454587Y-114326793D01*
X150352727Y-114299500D01*
X150247273Y-114299500D01*
X150145413Y-114326793D01*
X150145410Y-114326794D01*
X150054085Y-114379521D01*
X149979521Y-114454085D01*
X149926794Y-114545410D01*
X149926793Y-114545413D01*
X149899500Y-114647273D01*
X146121814Y-114647273D01*
X146126542Y-114644114D01*
X146126545Y-114644111D01*
X146219192Y-114551465D01*
X146224111Y-114546545D01*
X146224114Y-114546542D01*
X146300775Y-114431811D01*
X146353580Y-114304328D01*
X146379662Y-114173206D01*
X146380500Y-114168995D01*
X146380500Y-113747273D01*
X147699500Y-113747273D01*
X147699500Y-113852727D01*
X147726793Y-113954587D01*
X147779520Y-114045913D01*
X147854087Y-114120480D01*
X147945413Y-114173207D01*
X148047273Y-114200500D01*
X148047275Y-114200500D01*
X148152725Y-114200500D01*
X148152727Y-114200500D01*
X148254587Y-114173207D01*
X148345913Y-114120480D01*
X148420480Y-114045913D01*
X148473207Y-113954587D01*
X148500500Y-113852727D01*
X148500500Y-113747273D01*
X148473207Y-113645413D01*
X148420480Y-113554087D01*
X148345913Y-113479520D01*
X148279059Y-113440922D01*
X148254589Y-113426794D01*
X148254588Y-113426793D01*
X148254587Y-113426793D01*
X148152727Y-113399500D01*
X148047273Y-113399500D01*
X147945413Y-113426793D01*
X147945410Y-113426794D01*
X147854085Y-113479521D01*
X147779521Y-113554085D01*
X147726794Y-113645410D01*
X147726793Y-113645413D01*
X147699500Y-113747273D01*
X146380500Y-113747273D01*
X146380500Y-113129353D01*
X150699500Y-113129353D01*
X150699500Y-113234807D01*
X150715898Y-113296003D01*
X150726793Y-113336666D01*
X150726794Y-113336669D01*
X150734393Y-113349830D01*
X150779520Y-113427993D01*
X150854087Y-113502560D01*
X150945413Y-113555287D01*
X151047273Y-113582580D01*
X151047275Y-113582580D01*
X151152724Y-113582580D01*
X151152727Y-113582580D01*
X151233377Y-113560970D01*
X151303223Y-113562633D01*
X151361086Y-113601795D01*
X151388590Y-113666023D01*
X151385242Y-113712837D01*
X151367420Y-113779351D01*
X151367420Y-113779353D01*
X151367420Y-113884807D01*
X151394713Y-113986667D01*
X151447440Y-114077993D01*
X151522007Y-114152560D01*
X151613333Y-114205287D01*
X151715193Y-114232580D01*
X151715195Y-114232580D01*
X151820645Y-114232580D01*
X151820647Y-114232580D01*
X151922507Y-114205287D01*
X152013833Y-114152560D01*
X152088400Y-114077993D01*
X152141127Y-113986667D01*
X152168420Y-113884807D01*
X152168420Y-113779353D01*
X152141127Y-113677493D01*
X152088400Y-113586167D01*
X152013833Y-113511600D01*
X151922507Y-113458873D01*
X151820647Y-113431580D01*
X151715193Y-113431580D01*
X151715191Y-113431580D01*
X151634544Y-113453189D01*
X151564694Y-113451526D01*
X151506832Y-113412363D01*
X151479329Y-113348134D01*
X151482676Y-113301325D01*
X151500500Y-113234807D01*
X151500500Y-113129353D01*
X151473207Y-113027493D01*
X151420480Y-112936167D01*
X151345913Y-112861600D01*
X151254587Y-112808873D01*
X151152727Y-112781580D01*
X151047273Y-112781580D01*
X150945413Y-112808873D01*
X150945410Y-112808874D01*
X150854085Y-112861601D01*
X150779521Y-112936165D01*
X150726794Y-113027490D01*
X150726793Y-113027493D01*
X150699500Y-113129353D01*
X146380500Y-113129353D01*
X146380500Y-112831004D01*
X146353581Y-112695677D01*
X146353580Y-112695676D01*
X146353580Y-112695672D01*
X146345798Y-112676884D01*
X146300778Y-112568195D01*
X146300771Y-112568182D01*
X146260583Y-112508037D01*
X146224114Y-112453458D01*
X146224111Y-112453454D01*
X146217930Y-112447273D01*
X153599500Y-112447273D01*
X153599500Y-112552727D01*
X153626793Y-112654587D01*
X153626795Y-112654592D01*
X153629904Y-112662096D01*
X153627331Y-112663161D01*
X153640605Y-112717884D01*
X153638364Y-112736170D01*
X153625886Y-112798902D01*
X153619500Y-112831007D01*
X153619500Y-114168993D01*
X153619500Y-114168995D01*
X153619499Y-114168995D01*
X153646418Y-114304322D01*
X153646421Y-114304332D01*
X153699221Y-114431804D01*
X153699228Y-114431817D01*
X153775885Y-114546541D01*
X153775888Y-114546545D01*
X153873454Y-114644111D01*
X153873458Y-114644114D01*
X153988182Y-114720771D01*
X153988195Y-114720778D01*
X154065328Y-114752727D01*
X154115672Y-114773580D01*
X154115676Y-114773580D01*
X154115677Y-114773581D01*
X154251004Y-114800500D01*
X154251007Y-114800500D01*
X154388995Y-114800500D01*
X154480041Y-114782389D01*
X154524328Y-114773580D01*
X154651811Y-114720775D01*
X154766542Y-114644114D01*
X154864114Y-114546542D01*
X154940775Y-114431811D01*
X154993580Y-114304328D01*
X155019662Y-114173206D01*
X155020500Y-114168995D01*
X155020500Y-112997363D01*
X155344490Y-112997363D01*
X155344490Y-113102817D01*
X155371783Y-113204677D01*
X155424510Y-113296003D01*
X155499077Y-113370570D01*
X155590403Y-113423297D01*
X155692263Y-113450590D01*
X155692265Y-113450590D01*
X155797715Y-113450590D01*
X155797717Y-113450590D01*
X155899577Y-113423297D01*
X155990903Y-113370570D01*
X156065470Y-113296003D01*
X156118197Y-113204677D01*
X156145490Y-113102817D01*
X156145490Y-112997363D01*
X156118197Y-112895503D01*
X156065470Y-112804177D01*
X155990903Y-112729610D01*
X155899577Y-112676883D01*
X155797717Y-112649590D01*
X155692263Y-112649590D01*
X155590403Y-112676883D01*
X155590400Y-112676884D01*
X155499075Y-112729611D01*
X155424511Y-112804175D01*
X155371784Y-112895500D01*
X155371783Y-112895503D01*
X155344490Y-112997363D01*
X155020500Y-112997363D01*
X155020500Y-112831004D01*
X154993581Y-112695677D01*
X154993580Y-112695676D01*
X154993580Y-112695672D01*
X154985798Y-112676884D01*
X154940778Y-112568195D01*
X154940771Y-112568182D01*
X154864114Y-112453458D01*
X154864111Y-112453454D01*
X154766545Y-112355888D01*
X154766541Y-112355885D01*
X154746132Y-112342248D01*
X154651817Y-112279228D01*
X154651804Y-112279221D01*
X154574674Y-112247273D01*
X157299500Y-112247273D01*
X157299500Y-112352727D01*
X157326793Y-112454587D01*
X157379520Y-112545913D01*
X157454087Y-112620480D01*
X157545413Y-112673207D01*
X157647273Y-112700500D01*
X157647275Y-112700500D01*
X157752725Y-112700500D01*
X157752727Y-112700500D01*
X157854587Y-112673207D01*
X157945913Y-112620480D01*
X158020480Y-112545913D01*
X158073207Y-112454587D01*
X158100500Y-112352727D01*
X158100500Y-112247273D01*
X158073207Y-112145413D01*
X158020480Y-112054087D01*
X157945913Y-111979520D01*
X157854587Y-111926793D01*
X157752727Y-111899500D01*
X157647273Y-111899500D01*
X157545413Y-111926793D01*
X157545410Y-111926794D01*
X157454085Y-111979521D01*
X157379521Y-112054085D01*
X157326794Y-112145410D01*
X157326793Y-112145413D01*
X157299500Y-112247273D01*
X154574674Y-112247273D01*
X154524332Y-112226421D01*
X154524322Y-112226418D01*
X154388995Y-112199500D01*
X154388993Y-112199500D01*
X154313744Y-112199500D01*
X154251744Y-112182887D01*
X154245914Y-112179521D01*
X154245913Y-112179520D01*
X154154587Y-112126793D01*
X154052727Y-112099500D01*
X153947273Y-112099500D01*
X153845413Y-112126793D01*
X153845410Y-112126794D01*
X153754085Y-112179521D01*
X153679521Y-112254085D01*
X153626794Y-112345410D01*
X153626793Y-112345413D01*
X153599500Y-112447273D01*
X146217930Y-112447273D01*
X146126545Y-112355888D01*
X146126541Y-112355885D01*
X146011817Y-112279228D01*
X146011804Y-112279221D01*
X145884332Y-112226421D01*
X145884322Y-112226418D01*
X145748995Y-112199500D01*
X145748993Y-112199500D01*
X145611007Y-112199500D01*
X145611005Y-112199500D01*
X145475677Y-112226418D01*
X145475667Y-112226421D01*
X145348195Y-112279221D01*
X145348182Y-112279228D01*
X145233458Y-112355885D01*
X145233454Y-112355888D01*
X145135888Y-112453454D01*
X145135885Y-112453458D01*
X145059228Y-112568182D01*
X145059221Y-112568195D01*
X145006421Y-112695667D01*
X145006418Y-112695677D01*
X144979500Y-112831004D01*
X144979500Y-112831007D01*
X144979500Y-114168993D01*
X144979500Y-114168995D01*
X144979499Y-114168995D01*
X143015822Y-114168995D01*
X142899105Y-114113792D01*
X142893669Y-114111055D01*
X142215142Y-113748375D01*
X142209846Y-113745375D01*
X141938238Y-113582580D01*
X141549904Y-113349821D01*
X141544789Y-113346582D01*
X140945146Y-112945914D01*
X140905055Y-112919126D01*
X140900079Y-112915622D01*
X140661587Y-112738744D01*
X140538253Y-112647273D01*
X143699500Y-112647273D01*
X143699500Y-112752727D01*
X143714545Y-112808874D01*
X143726793Y-112854586D01*
X143726794Y-112854589D01*
X143740922Y-112879059D01*
X143779520Y-112945913D01*
X143854087Y-113020480D01*
X143945413Y-113073207D01*
X144047273Y-113100500D01*
X144047275Y-113100500D01*
X144152725Y-113100500D01*
X144152727Y-113100500D01*
X144254587Y-113073207D01*
X144345913Y-113020480D01*
X144420480Y-112945913D01*
X144473207Y-112854587D01*
X144500500Y-112752727D01*
X144500500Y-112647273D01*
X144473207Y-112545413D01*
X144420480Y-112454087D01*
X144345913Y-112379520D01*
X144254587Y-112326793D01*
X144152727Y-112299500D01*
X144047273Y-112299500D01*
X143945413Y-112326793D01*
X143945410Y-112326794D01*
X143854085Y-112379521D01*
X143779521Y-112454085D01*
X143726794Y-112545410D01*
X143726793Y-112545413D01*
X143699500Y-112647273D01*
X140538253Y-112647273D01*
X140282085Y-112457286D01*
X140277287Y-112453541D01*
X139706465Y-111985079D01*
X139682547Y-111965450D01*
X139677939Y-111961475D01*
X139607191Y-111897353D01*
X140994500Y-111897353D01*
X140994500Y-112002807D01*
X141021793Y-112104667D01*
X141074520Y-112195993D01*
X141149087Y-112270560D01*
X141240413Y-112323287D01*
X141342273Y-112350580D01*
X141342275Y-112350580D01*
X141447725Y-112350580D01*
X141447727Y-112350580D01*
X141549587Y-112323287D01*
X141640913Y-112270560D01*
X141715480Y-112195993D01*
X141768207Y-112104667D01*
X141795500Y-112002807D01*
X141795500Y-111897353D01*
X141768207Y-111795493D01*
X141715480Y-111704167D01*
X141640913Y-111629600D01*
X141549587Y-111576873D01*
X141447727Y-111549580D01*
X141342273Y-111549580D01*
X141240413Y-111576873D01*
X141240410Y-111576874D01*
X141149085Y-111629601D01*
X141074521Y-111704165D01*
X141021794Y-111795490D01*
X141021793Y-111795493D01*
X140994500Y-111897353D01*
X139607191Y-111897353D01*
X139220937Y-111547273D01*
X150099500Y-111547273D01*
X150099500Y-111652727D01*
X150126793Y-111754587D01*
X150179520Y-111845913D01*
X150254087Y-111920480D01*
X150345413Y-111973207D01*
X150447273Y-112000500D01*
X150447275Y-112000500D01*
X150552725Y-112000500D01*
X150552727Y-112000500D01*
X150654587Y-111973207D01*
X150745913Y-111920480D01*
X150820480Y-111845913D01*
X150873207Y-111754587D01*
X150900500Y-111652727D01*
X150900500Y-111547273D01*
X150873207Y-111445413D01*
X150820480Y-111354087D01*
X150745913Y-111279520D01*
X150654587Y-111226793D01*
X150552727Y-111199500D01*
X150447273Y-111199500D01*
X150345413Y-111226793D01*
X150345410Y-111226794D01*
X150254085Y-111279521D01*
X150179521Y-111354085D01*
X150126794Y-111445410D01*
X150126793Y-111445413D01*
X150099500Y-111547273D01*
X139220937Y-111547273D01*
X139107856Y-111444783D01*
X139103448Y-111440586D01*
X138559413Y-110896551D01*
X138555216Y-110892143D01*
X138038524Y-110322060D01*
X138034549Y-110317452D01*
X137546458Y-109722712D01*
X137542713Y-109717914D01*
X137242418Y-109313013D01*
X137193662Y-109247273D01*
X138199500Y-109247273D01*
X138199500Y-109352727D01*
X138226793Y-109454587D01*
X138279520Y-109545913D01*
X138354087Y-109620480D01*
X138445413Y-109673207D01*
X138547273Y-109700500D01*
X138547275Y-109700500D01*
X138652725Y-109700500D01*
X138652727Y-109700500D01*
X138754587Y-109673207D01*
X138799506Y-109647273D01*
X142499500Y-109647273D01*
X142499500Y-109752727D01*
X142526793Y-109854587D01*
X142579520Y-109945913D01*
X142654087Y-110020480D01*
X142745413Y-110073207D01*
X142847273Y-110100500D01*
X142847275Y-110100500D01*
X142952725Y-110100500D01*
X142952727Y-110100500D01*
X143054587Y-110073207D01*
X143145913Y-110020480D01*
X143197398Y-109968995D01*
X144979499Y-109968995D01*
X145006418Y-110104322D01*
X145006421Y-110104332D01*
X145059221Y-110231804D01*
X145059228Y-110231817D01*
X145135885Y-110346541D01*
X145135888Y-110346545D01*
X145233454Y-110444111D01*
X145233458Y-110444114D01*
X145348182Y-110520771D01*
X145348195Y-110520778D01*
X145475667Y-110573578D01*
X145475672Y-110573580D01*
X145475676Y-110573580D01*
X145475677Y-110573581D01*
X145611004Y-110600500D01*
X145611007Y-110600500D01*
X145748995Y-110600500D01*
X145840041Y-110582389D01*
X145884328Y-110573580D01*
X146011811Y-110520775D01*
X146126542Y-110444114D01*
X146224114Y-110346542D01*
X146300775Y-110231811D01*
X146336559Y-110145418D01*
X146380398Y-110091019D01*
X146446692Y-110068953D01*
X146514391Y-110086232D01*
X146538800Y-110105193D01*
X146554087Y-110120480D01*
X146645413Y-110173207D01*
X146747273Y-110200500D01*
X146747275Y-110200500D01*
X146852725Y-110200500D01*
X146852727Y-110200500D01*
X146954587Y-110173207D01*
X147045913Y-110120480D01*
X147120480Y-110045913D01*
X147164889Y-109968995D01*
X153619499Y-109968995D01*
X153646418Y-110104322D01*
X153646421Y-110104332D01*
X153699221Y-110231804D01*
X153699228Y-110231817D01*
X153775885Y-110346541D01*
X153775888Y-110346545D01*
X153873454Y-110444111D01*
X153873458Y-110444114D01*
X153988182Y-110520771D01*
X153988195Y-110520778D01*
X154115667Y-110573578D01*
X154115672Y-110573580D01*
X154115676Y-110573580D01*
X154115677Y-110573581D01*
X154251004Y-110600500D01*
X154251007Y-110600500D01*
X154388995Y-110600500D01*
X154480041Y-110582389D01*
X154524328Y-110573580D01*
X154651811Y-110520775D01*
X154766542Y-110444114D01*
X154864114Y-110346542D01*
X154940775Y-110231811D01*
X154993580Y-110104328D01*
X155019662Y-109973206D01*
X155020500Y-109968995D01*
X155020500Y-109547273D01*
X159899500Y-109547273D01*
X159899500Y-109652727D01*
X159926793Y-109754587D01*
X159979520Y-109845913D01*
X160054087Y-109920480D01*
X160145413Y-109973207D01*
X160247273Y-110000500D01*
X160247275Y-110000500D01*
X160352725Y-110000500D01*
X160352727Y-110000500D01*
X160454587Y-109973207D01*
X160545913Y-109920480D01*
X160620480Y-109845913D01*
X160673207Y-109754587D01*
X160700500Y-109652727D01*
X160700500Y-109547273D01*
X160673207Y-109445413D01*
X160620480Y-109354087D01*
X160545913Y-109279520D01*
X160454587Y-109226793D01*
X160352727Y-109199500D01*
X160247273Y-109199500D01*
X160145413Y-109226793D01*
X160145410Y-109226794D01*
X160054085Y-109279521D01*
X159979521Y-109354085D01*
X159926794Y-109445410D01*
X159926793Y-109445413D01*
X159899500Y-109547273D01*
X155020500Y-109547273D01*
X155020500Y-109031004D01*
X154993581Y-108895677D01*
X154993580Y-108895676D01*
X154993580Y-108895672D01*
X154976562Y-108854586D01*
X154940778Y-108768195D01*
X154940771Y-108768182D01*
X154864114Y-108653458D01*
X154864111Y-108653454D01*
X154766545Y-108555888D01*
X154766541Y-108555885D01*
X154651817Y-108479228D01*
X154651804Y-108479221D01*
X154524332Y-108426421D01*
X154524322Y-108426418D01*
X154388995Y-108399500D01*
X154388993Y-108399500D01*
X154251007Y-108399500D01*
X154251005Y-108399500D01*
X154115677Y-108426418D01*
X154115667Y-108426421D01*
X153988195Y-108479221D01*
X153988182Y-108479228D01*
X153873458Y-108555885D01*
X153873454Y-108555888D01*
X153775888Y-108653454D01*
X153775885Y-108653458D01*
X153699228Y-108768182D01*
X153699221Y-108768195D01*
X153646421Y-108895667D01*
X153646418Y-108895677D01*
X153619500Y-109031004D01*
X153619500Y-109031007D01*
X153619500Y-109968993D01*
X153619500Y-109968995D01*
X153619499Y-109968995D01*
X147164889Y-109968995D01*
X147173207Y-109954587D01*
X147200500Y-109852727D01*
X147200500Y-109747273D01*
X147173207Y-109645413D01*
X147120480Y-109554087D01*
X147045913Y-109479520D01*
X146954587Y-109426793D01*
X146852727Y-109399500D01*
X146747273Y-109399500D01*
X146645413Y-109426793D01*
X146645410Y-109426794D01*
X146566500Y-109472353D01*
X146498599Y-109488826D01*
X146432573Y-109465973D01*
X146389382Y-109411052D01*
X146380500Y-109364966D01*
X146380500Y-109031004D01*
X146353581Y-108895677D01*
X146353580Y-108895676D01*
X146353580Y-108895672D01*
X146336562Y-108854586D01*
X146300778Y-108768195D01*
X146300771Y-108768182D01*
X146224114Y-108653458D01*
X146224111Y-108653454D01*
X146126545Y-108555888D01*
X146126541Y-108555885D01*
X146011817Y-108479228D01*
X146011804Y-108479221D01*
X145884332Y-108426421D01*
X145884322Y-108426418D01*
X145748995Y-108399500D01*
X145748993Y-108399500D01*
X145611007Y-108399500D01*
X145611005Y-108399500D01*
X145475677Y-108426418D01*
X145475667Y-108426421D01*
X145348195Y-108479221D01*
X145348182Y-108479228D01*
X145233458Y-108555885D01*
X145233454Y-108555888D01*
X145135888Y-108653454D01*
X145135885Y-108653458D01*
X145059228Y-108768182D01*
X145059221Y-108768195D01*
X145006421Y-108895667D01*
X145006418Y-108895677D01*
X144979500Y-109031004D01*
X144979500Y-109031007D01*
X144979500Y-109968993D01*
X144979500Y-109968995D01*
X144979499Y-109968995D01*
X143197398Y-109968995D01*
X143220480Y-109945913D01*
X143273207Y-109854587D01*
X143300500Y-109752727D01*
X143300500Y-109647273D01*
X143273207Y-109545413D01*
X143220480Y-109454087D01*
X143145913Y-109379520D01*
X143054587Y-109326793D01*
X142952727Y-109299500D01*
X142847273Y-109299500D01*
X142745413Y-109326793D01*
X142745410Y-109326794D01*
X142654085Y-109379521D01*
X142579521Y-109454085D01*
X142526794Y-109545410D01*
X142526793Y-109545413D01*
X142499500Y-109647273D01*
X138799506Y-109647273D01*
X138845913Y-109620480D01*
X138920480Y-109545913D01*
X138973207Y-109454587D01*
X139000500Y-109352727D01*
X139000500Y-109247273D01*
X138973207Y-109145413D01*
X138920480Y-109054087D01*
X138845913Y-108979520D01*
X138754587Y-108926793D01*
X138652727Y-108899500D01*
X138547273Y-108899500D01*
X138445413Y-108926793D01*
X138445410Y-108926794D01*
X138354085Y-108979521D01*
X138279521Y-109054085D01*
X138226794Y-109145410D01*
X138226793Y-109145413D01*
X138199500Y-109247273D01*
X137193662Y-109247273D01*
X137084807Y-109100500D01*
X137084374Y-109099916D01*
X137080873Y-109094944D01*
X137066348Y-109073206D01*
X136653410Y-108455200D01*
X136650184Y-108450106D01*
X136318877Y-107897353D01*
X136994500Y-107897353D01*
X136994500Y-108002807D01*
X137021793Y-108104667D01*
X137074520Y-108195993D01*
X137149087Y-108270560D01*
X137240413Y-108323287D01*
X137342273Y-108350580D01*
X137342275Y-108350580D01*
X137447725Y-108350580D01*
X137447727Y-108350580D01*
X137549587Y-108323287D01*
X137640913Y-108270560D01*
X137715480Y-108195993D01*
X137768207Y-108104667D01*
X137795500Y-108002807D01*
X137795500Y-107947273D01*
X138899500Y-107947273D01*
X138899500Y-108052727D01*
X138926793Y-108154587D01*
X138979520Y-108245913D01*
X139054087Y-108320480D01*
X139145413Y-108373207D01*
X139247273Y-108400500D01*
X139247275Y-108400500D01*
X139352725Y-108400500D01*
X139352727Y-108400500D01*
X139454587Y-108373207D01*
X139545913Y-108320480D01*
X139620480Y-108245913D01*
X139673207Y-108154587D01*
X139700500Y-108052727D01*
X139700500Y-107947273D01*
X139673207Y-107845413D01*
X139620480Y-107754087D01*
X139545913Y-107679520D01*
X139490059Y-107647273D01*
X147699500Y-107647273D01*
X147699500Y-107752727D01*
X147726793Y-107854587D01*
X147779520Y-107945913D01*
X147854087Y-108020480D01*
X147945413Y-108073207D01*
X148047273Y-108100500D01*
X148047275Y-108100500D01*
X148152725Y-108100500D01*
X148152727Y-108100500D01*
X148254587Y-108073207D01*
X148345913Y-108020480D01*
X148420480Y-107945913D01*
X148473207Y-107854587D01*
X148500500Y-107752727D01*
X148500500Y-107647273D01*
X148473705Y-107547273D01*
X153399500Y-107547273D01*
X153399500Y-107652727D01*
X153426793Y-107754587D01*
X153479520Y-107845913D01*
X153554087Y-107920480D01*
X153645413Y-107973207D01*
X153747273Y-108000500D01*
X153747275Y-108000500D01*
X153852725Y-108000500D01*
X153852727Y-108000500D01*
X153954587Y-107973207D01*
X154045913Y-107920480D01*
X154120480Y-107845913D01*
X154173207Y-107754587D01*
X154183669Y-107715541D01*
X155178119Y-107715541D01*
X155203117Y-107841208D01*
X155203119Y-107841214D01*
X155252153Y-107959594D01*
X155252158Y-107959603D01*
X155323343Y-108066138D01*
X155323346Y-108066142D01*
X155413947Y-108156743D01*
X155413951Y-108156746D01*
X155520486Y-108227931D01*
X155520492Y-108227934D01*
X155520493Y-108227935D01*
X155638876Y-108276971D01*
X155638880Y-108276971D01*
X155638881Y-108276972D01*
X155764548Y-108301970D01*
X155764551Y-108301970D01*
X155892691Y-108301970D01*
X155977235Y-108285152D01*
X156018364Y-108276971D01*
X156027084Y-108273358D01*
X156096552Y-108265887D01*
X156159032Y-108297160D01*
X156194687Y-108357248D01*
X156192196Y-108427073D01*
X156181927Y-108449918D01*
X156126794Y-108545410D01*
X156126793Y-108545413D01*
X156099500Y-108647273D01*
X156099500Y-108752727D01*
X156126793Y-108854587D01*
X156179520Y-108945913D01*
X156254087Y-109020480D01*
X156345413Y-109073207D01*
X156447273Y-109100500D01*
X156447275Y-109100500D01*
X156552725Y-109100500D01*
X156552727Y-109100500D01*
X156654587Y-109073207D01*
X156745913Y-109020480D01*
X156820480Y-108945913D01*
X156873207Y-108854587D01*
X156900500Y-108752727D01*
X156900500Y-108647273D01*
X160699500Y-108647273D01*
X160699500Y-108752727D01*
X160726793Y-108854587D01*
X160779520Y-108945913D01*
X160854087Y-109020480D01*
X160945413Y-109073207D01*
X161047273Y-109100500D01*
X161047275Y-109100500D01*
X161152725Y-109100500D01*
X161152727Y-109100500D01*
X161254587Y-109073207D01*
X161345913Y-109020480D01*
X161420480Y-108945913D01*
X161473207Y-108854587D01*
X161500500Y-108752727D01*
X161500500Y-108647273D01*
X161473207Y-108545413D01*
X161420480Y-108454087D01*
X161345913Y-108379520D01*
X161254587Y-108326793D01*
X161152727Y-108299500D01*
X161047273Y-108299500D01*
X160945413Y-108326793D01*
X160945410Y-108326794D01*
X160854085Y-108379521D01*
X160779521Y-108454085D01*
X160726794Y-108545410D01*
X160726793Y-108545413D01*
X160699500Y-108647273D01*
X156900500Y-108647273D01*
X156873207Y-108545413D01*
X156820480Y-108454087D01*
X156745913Y-108379520D01*
X156654587Y-108326793D01*
X156552727Y-108299500D01*
X156447273Y-108299500D01*
X156447268Y-108299500D01*
X156420623Y-108306640D01*
X156350773Y-108304976D01*
X156292912Y-108265813D01*
X156265409Y-108201584D01*
X156276996Y-108132682D01*
X156300852Y-108099183D01*
X156333893Y-108066142D01*
X156333896Y-108066139D01*
X156405085Y-107959597D01*
X156454121Y-107841214D01*
X156471723Y-107752725D01*
X156479120Y-107715541D01*
X156479120Y-107587401D01*
X156475905Y-107571239D01*
X156473282Y-107558053D01*
X156479508Y-107488463D01*
X156522370Y-107433285D01*
X156588259Y-107410039D01*
X156619092Y-107412244D01*
X156648430Y-107418080D01*
X156648431Y-107418080D01*
X156776571Y-107418080D01*
X156861115Y-107401262D01*
X156902244Y-107393081D01*
X157020627Y-107344045D01*
X157127169Y-107272856D01*
X157199189Y-107200835D01*
X157260510Y-107167352D01*
X157330202Y-107172336D01*
X157386136Y-107214207D01*
X157410553Y-107279671D01*
X157406644Y-107320610D01*
X157399500Y-107347271D01*
X157399500Y-107347273D01*
X157399500Y-107452727D01*
X157426793Y-107554587D01*
X157479520Y-107645913D01*
X157554087Y-107720480D01*
X157645413Y-107773207D01*
X157747273Y-107800500D01*
X157747275Y-107800500D01*
X157852725Y-107800500D01*
X157852727Y-107800500D01*
X157954587Y-107773207D01*
X158045913Y-107720480D01*
X158120480Y-107645913D01*
X158173207Y-107554587D01*
X158200500Y-107452727D01*
X158200500Y-107347273D01*
X158173207Y-107245413D01*
X158120480Y-107154087D01*
X158045913Y-107079520D01*
X157954587Y-107026793D01*
X157852727Y-106999500D01*
X157747273Y-106999500D01*
X157645413Y-107026793D01*
X157645410Y-107026794D01*
X157554084Y-107079521D01*
X157539600Y-107094006D01*
X157478276Y-107127490D01*
X157408585Y-107122504D01*
X157352652Y-107080631D01*
X157328237Y-107015166D01*
X157336646Y-106963276D01*
X157336233Y-106963151D01*
X157337165Y-106960078D01*
X157337361Y-106958868D01*
X157338001Y-106957324D01*
X157358537Y-106854085D01*
X157363000Y-106831651D01*
X157363000Y-106703509D01*
X157357164Y-106674172D01*
X157363391Y-106604580D01*
X157406253Y-106549402D01*
X157412288Y-106547273D01*
X159399500Y-106547273D01*
X159399500Y-106652727D01*
X159426793Y-106754587D01*
X159479520Y-106845913D01*
X159554087Y-106920480D01*
X159645413Y-106973207D01*
X159747273Y-107000500D01*
X159747275Y-107000500D01*
X159852725Y-107000500D01*
X159852727Y-107000500D01*
X159954587Y-106973207D01*
X160045913Y-106920480D01*
X160120480Y-106845913D01*
X160173207Y-106754587D01*
X160200500Y-106652727D01*
X160200500Y-106547273D01*
X160173207Y-106445413D01*
X160120480Y-106354087D01*
X160045913Y-106279520D01*
X159954587Y-106226793D01*
X159852727Y-106199500D01*
X159747273Y-106199500D01*
X159645413Y-106226793D01*
X159645410Y-106226794D01*
X159554085Y-106279521D01*
X159479521Y-106354085D01*
X159426794Y-106445410D01*
X159426793Y-106445413D01*
X159399500Y-106547273D01*
X157412288Y-106547273D01*
X157472143Y-106526157D01*
X157502970Y-106528361D01*
X157532321Y-106534200D01*
X157660461Y-106534200D01*
X157745005Y-106517382D01*
X157786134Y-106509201D01*
X157904517Y-106460165D01*
X158011059Y-106388976D01*
X158101666Y-106298369D01*
X158172855Y-106191827D01*
X158221891Y-106073444D01*
X158241054Y-105977110D01*
X158246890Y-105947771D01*
X158246890Y-105819628D01*
X158221892Y-105693961D01*
X158221891Y-105693960D01*
X158221891Y-105693956D01*
X158172855Y-105575573D01*
X158172854Y-105575572D01*
X158172851Y-105575566D01*
X158101666Y-105469031D01*
X158101663Y-105469027D01*
X158011062Y-105378426D01*
X158011058Y-105378423D01*
X157904523Y-105307238D01*
X157904514Y-105307233D01*
X157786134Y-105258199D01*
X157786128Y-105258197D01*
X157660461Y-105233200D01*
X157660459Y-105233200D01*
X157532321Y-105233200D01*
X157532319Y-105233200D01*
X157406651Y-105258197D01*
X157406645Y-105258199D01*
X157288265Y-105307233D01*
X157288256Y-105307238D01*
X157181721Y-105378423D01*
X157181717Y-105378426D01*
X157091116Y-105469027D01*
X157091113Y-105469031D01*
X157019928Y-105575566D01*
X157019923Y-105575575D01*
X156970889Y-105693955D01*
X156970887Y-105693961D01*
X156945890Y-105819628D01*
X156945890Y-105819631D01*
X156945890Y-105947769D01*
X156947146Y-105954085D01*
X156951726Y-105977110D01*
X156945497Y-106046702D01*
X156902634Y-106101878D01*
X156836744Y-106125122D01*
X156805917Y-106122917D01*
X156776572Y-106117080D01*
X156776569Y-106117080D01*
X156648431Y-106117080D01*
X156648429Y-106117080D01*
X156522761Y-106142077D01*
X156522755Y-106142079D01*
X156404375Y-106191113D01*
X156404366Y-106191118D01*
X156297831Y-106262303D01*
X156297827Y-106262306D01*
X156207226Y-106352907D01*
X156207223Y-106352911D01*
X156136038Y-106459446D01*
X156136033Y-106459455D01*
X156086999Y-106577835D01*
X156086997Y-106577841D01*
X156062000Y-106703508D01*
X156062000Y-106831653D01*
X156067837Y-106860997D01*
X156061610Y-106930588D01*
X156018747Y-106985766D01*
X155952857Y-107009010D01*
X155922030Y-107006806D01*
X155892689Y-107000970D01*
X155764551Y-107000970D01*
X155764549Y-107000970D01*
X155638881Y-107025967D01*
X155638875Y-107025969D01*
X155520495Y-107075003D01*
X155520486Y-107075008D01*
X155413951Y-107146193D01*
X155413947Y-107146196D01*
X155323346Y-107236797D01*
X155323343Y-107236801D01*
X155252158Y-107343336D01*
X155252153Y-107343345D01*
X155203119Y-107461725D01*
X155203117Y-107461731D01*
X155178120Y-107587398D01*
X155178120Y-107587401D01*
X155178120Y-107715539D01*
X155178120Y-107715541D01*
X155178119Y-107715541D01*
X154183669Y-107715541D01*
X154200500Y-107652727D01*
X154200500Y-107547273D01*
X154173207Y-107445413D01*
X154120480Y-107354087D01*
X154045913Y-107279520D01*
X153971921Y-107236801D01*
X153954589Y-107226794D01*
X153954588Y-107226793D01*
X153954587Y-107226793D01*
X153852727Y-107199500D01*
X153747273Y-107199500D01*
X153645413Y-107226793D01*
X153645410Y-107226794D01*
X153554085Y-107279521D01*
X153479521Y-107354085D01*
X153426794Y-107445410D01*
X153426793Y-107445413D01*
X153399500Y-107547273D01*
X148473705Y-107547273D01*
X148473207Y-107545413D01*
X148420480Y-107454087D01*
X148345913Y-107379520D01*
X148254587Y-107326793D01*
X148152727Y-107299500D01*
X148047273Y-107299500D01*
X147945413Y-107326793D01*
X147945410Y-107326794D01*
X147854085Y-107379521D01*
X147779521Y-107454085D01*
X147726794Y-107545410D01*
X147726794Y-107545411D01*
X147726793Y-107545413D01*
X147699500Y-107647273D01*
X139490059Y-107647273D01*
X139454587Y-107626793D01*
X139352727Y-107599500D01*
X139247273Y-107599500D01*
X139145413Y-107626793D01*
X139145410Y-107626794D01*
X139054085Y-107679521D01*
X138979521Y-107754085D01*
X138926794Y-107845410D01*
X138926793Y-107845413D01*
X138899500Y-107947273D01*
X137795500Y-107947273D01*
X137795500Y-107897353D01*
X137768207Y-107795493D01*
X137715480Y-107704167D01*
X137640913Y-107629600D01*
X137549587Y-107576873D01*
X137447727Y-107549580D01*
X137342273Y-107549580D01*
X137240413Y-107576873D01*
X137240410Y-107576874D01*
X137149085Y-107629601D01*
X137074521Y-107704165D01*
X137021794Y-107795490D01*
X137021793Y-107795493D01*
X136994500Y-107897353D01*
X136318877Y-107897353D01*
X136254613Y-107790134D01*
X136251624Y-107784857D01*
X136245396Y-107773206D01*
X135888943Y-107106328D01*
X135886205Y-107100889D01*
X135882076Y-107092158D01*
X135860847Y-107047273D01*
X142199500Y-107047273D01*
X142199500Y-107152727D01*
X142226793Y-107254587D01*
X142279520Y-107345913D01*
X142354087Y-107420480D01*
X142445413Y-107473207D01*
X142547273Y-107500500D01*
X142547275Y-107500500D01*
X142652725Y-107500500D01*
X142652727Y-107500500D01*
X142754587Y-107473207D01*
X142845913Y-107420480D01*
X142920480Y-107345913D01*
X142973207Y-107254587D01*
X143000500Y-107152727D01*
X143000500Y-107047273D01*
X142973207Y-106945413D01*
X142920480Y-106854087D01*
X142845913Y-106779520D01*
X142754587Y-106726793D01*
X142652727Y-106699500D01*
X142547273Y-106699500D01*
X142445413Y-106726793D01*
X142445410Y-106726794D01*
X142354085Y-106779521D01*
X142279521Y-106854085D01*
X142226794Y-106945410D01*
X142226793Y-106945413D01*
X142199500Y-107047273D01*
X135860847Y-107047273D01*
X135636629Y-106573206D01*
X135557236Y-106405345D01*
X135554775Y-106399791D01*
X135284492Y-105747273D01*
X147799500Y-105747273D01*
X147799500Y-105852727D01*
X147826793Y-105954587D01*
X147879520Y-106045913D01*
X147954087Y-106120480D01*
X148045413Y-106173207D01*
X148147273Y-106200500D01*
X148147275Y-106200500D01*
X148252725Y-106200500D01*
X148252727Y-106200500D01*
X148354587Y-106173207D01*
X148388003Y-106153914D01*
X148455900Y-106137442D01*
X148512001Y-106153915D01*
X148545416Y-106173207D01*
X148647276Y-106200500D01*
X148647278Y-106200500D01*
X148752727Y-106200500D01*
X148752730Y-106200500D01*
X148850140Y-106174399D01*
X148919987Y-106176062D01*
X148977850Y-106215224D01*
X149002006Y-106262080D01*
X149026793Y-106354588D01*
X149026794Y-106354589D01*
X149079520Y-106445913D01*
X149154087Y-106520480D01*
X149245413Y-106573207D01*
X149347273Y-106600500D01*
X149347275Y-106600500D01*
X149452725Y-106600500D01*
X149452727Y-106600500D01*
X149554587Y-106573207D01*
X149645913Y-106520480D01*
X149720480Y-106445913D01*
X149773207Y-106354587D01*
X149800500Y-106252727D01*
X149800500Y-106147273D01*
X149773207Y-106045413D01*
X149720480Y-105954087D01*
X149645913Y-105879520D01*
X149554587Y-105826793D01*
X149474970Y-105805460D01*
X149415311Y-105769096D01*
X149384782Y-105706249D01*
X149393076Y-105636874D01*
X149437562Y-105582996D01*
X149447702Y-105577538D01*
X149447548Y-105577271D01*
X149454587Y-105573207D01*
X149545913Y-105520480D01*
X149620480Y-105445913D01*
X149673207Y-105354587D01*
X149675167Y-105347273D01*
X150599500Y-105347273D01*
X150599500Y-105452727D01*
X150626793Y-105554587D01*
X150679520Y-105645913D01*
X150754087Y-105720480D01*
X150845413Y-105773207D01*
X150947273Y-105800500D01*
X150947275Y-105800500D01*
X151052725Y-105800500D01*
X151052727Y-105800500D01*
X151154587Y-105773207D01*
X151245913Y-105720480D01*
X151320480Y-105645913D01*
X151373207Y-105554587D01*
X151400500Y-105452727D01*
X151400500Y-105347273D01*
X151373705Y-105247273D01*
X151799500Y-105247273D01*
X151799500Y-105352727D01*
X151826793Y-105454587D01*
X151879520Y-105545913D01*
X151954087Y-105620480D01*
X152045413Y-105673207D01*
X152147273Y-105700500D01*
X152147275Y-105700500D01*
X152252725Y-105700500D01*
X152252727Y-105700500D01*
X152354587Y-105673207D01*
X152445913Y-105620480D01*
X152520480Y-105545913D01*
X152573207Y-105454587D01*
X152600500Y-105352727D01*
X152600500Y-105247273D01*
X152573207Y-105145413D01*
X152520480Y-105054087D01*
X152520479Y-105054086D01*
X152520478Y-105054084D01*
X152517565Y-105050288D01*
X152492373Y-104985118D01*
X152506413Y-104916674D01*
X152555229Y-104866686D01*
X152615943Y-104850805D01*
X152632544Y-104850805D01*
X152632546Y-104850805D01*
X152734406Y-104823512D01*
X152825732Y-104770785D01*
X152900299Y-104696218D01*
X152953026Y-104604892D01*
X152980319Y-104503032D01*
X152980319Y-104503029D01*
X152980930Y-104500749D01*
X153017295Y-104441089D01*
X153080141Y-104410559D01*
X153149517Y-104418853D01*
X153162697Y-104425451D01*
X153245413Y-104473207D01*
X153347273Y-104500500D01*
X153347275Y-104500500D01*
X153452725Y-104500500D01*
X153452727Y-104500500D01*
X153554587Y-104473207D01*
X153645913Y-104420480D01*
X153720480Y-104345913D01*
X153773207Y-104254587D01*
X153800500Y-104152727D01*
X153800500Y-104047273D01*
X153773207Y-103945413D01*
X153720480Y-103854087D01*
X153678574Y-103812181D01*
X153645089Y-103750858D01*
X153645345Y-103747273D01*
X161599500Y-103747273D01*
X161599500Y-103852727D01*
X161626793Y-103954587D01*
X161679520Y-104045913D01*
X161754087Y-104120480D01*
X161845413Y-104173207D01*
X161947273Y-104200500D01*
X161947275Y-104200500D01*
X162052725Y-104200500D01*
X162052727Y-104200500D01*
X162154587Y-104173207D01*
X162245913Y-104120480D01*
X162320480Y-104045913D01*
X162373207Y-103954587D01*
X162400500Y-103852727D01*
X162400500Y-103747273D01*
X162373207Y-103645413D01*
X162320480Y-103554087D01*
X162245913Y-103479520D01*
X162154587Y-103426793D01*
X162052727Y-103399500D01*
X161947273Y-103399500D01*
X161845413Y-103426793D01*
X161845410Y-103426794D01*
X161754085Y-103479521D01*
X161679521Y-103554085D01*
X161626794Y-103645410D01*
X161626793Y-103645413D01*
X161599500Y-103747273D01*
X153645345Y-103747273D01*
X153650073Y-103681166D01*
X153691945Y-103625233D01*
X153757409Y-103600816D01*
X153766255Y-103600500D01*
X153852725Y-103600500D01*
X153852727Y-103600500D01*
X153954587Y-103573207D01*
X154032095Y-103528457D01*
X154099990Y-103511986D01*
X154166017Y-103534838D01*
X154181772Y-103548165D01*
X154254087Y-103620480D01*
X154345413Y-103673207D01*
X154447273Y-103700500D01*
X154447275Y-103700500D01*
X154552725Y-103700500D01*
X154552727Y-103700500D01*
X154654587Y-103673207D01*
X154745913Y-103620480D01*
X154820480Y-103545913D01*
X154873207Y-103454587D01*
X154900500Y-103352727D01*
X154900500Y-103247273D01*
X154873207Y-103145413D01*
X154855983Y-103115581D01*
X154839511Y-103047682D01*
X154862363Y-102981655D01*
X154901366Y-102946198D01*
X154945913Y-102920480D01*
X155020480Y-102845913D01*
X155073207Y-102754587D01*
X155100500Y-102652727D01*
X155100500Y-102547273D01*
X155073207Y-102445413D01*
X155020480Y-102354087D01*
X154945913Y-102279520D01*
X154854587Y-102226793D01*
X154752727Y-102199500D01*
X154647273Y-102199500D01*
X154545413Y-102226793D01*
X154545410Y-102226794D01*
X154454085Y-102279521D01*
X154379521Y-102354085D01*
X154326794Y-102445410D01*
X154326793Y-102445413D01*
X154299500Y-102547273D01*
X154299500Y-102652727D01*
X154326793Y-102754587D01*
X154344015Y-102784417D01*
X154346149Y-102793212D01*
X154351745Y-102800328D01*
X154354257Y-102826634D01*
X154360488Y-102852316D01*
X154357527Y-102860870D01*
X154358388Y-102869881D01*
X154346279Y-102893369D01*
X154337636Y-102918343D01*
X154329673Y-102925581D01*
X154326373Y-102931984D01*
X154298630Y-102953802D01*
X154267910Y-102971539D01*
X154200010Y-102988013D01*
X154133983Y-102965162D01*
X154118227Y-102951834D01*
X154045914Y-102879521D01*
X154045913Y-102879520D01*
X153954587Y-102826793D01*
X153852727Y-102799500D01*
X153747273Y-102799500D01*
X153645413Y-102826793D01*
X153645410Y-102826794D01*
X153554085Y-102879521D01*
X153479521Y-102954085D01*
X153426794Y-103045410D01*
X153426793Y-103045413D01*
X153399500Y-103147273D01*
X153399500Y-103252727D01*
X153426793Y-103354587D01*
X153476795Y-103441194D01*
X153479521Y-103445914D01*
X153521426Y-103487819D01*
X153554911Y-103549142D01*
X153549927Y-103618834D01*
X153508055Y-103674767D01*
X153442591Y-103699184D01*
X153433745Y-103699500D01*
X153347273Y-103699500D01*
X153245413Y-103726793D01*
X153245410Y-103726794D01*
X153154085Y-103779521D01*
X153079521Y-103854085D01*
X153026794Y-103945410D01*
X153026793Y-103945411D01*
X152998888Y-104049556D01*
X152962522Y-104109216D01*
X152899675Y-104139745D01*
X152830300Y-104131450D01*
X152817113Y-104124849D01*
X152734408Y-104077099D01*
X152734407Y-104077098D01*
X152734406Y-104077098D01*
X152632546Y-104049805D01*
X152527092Y-104049805D01*
X152425232Y-104077098D01*
X152425229Y-104077099D01*
X152333904Y-104129826D01*
X152259340Y-104204390D01*
X152206613Y-104295715D01*
X152206612Y-104295718D01*
X152179319Y-104397578D01*
X152179319Y-104503032D01*
X152205168Y-104599500D01*
X152206612Y-104604891D01*
X152206613Y-104604894D01*
X152259340Y-104696220D01*
X152262254Y-104700017D01*
X152287446Y-104765187D01*
X152273406Y-104833631D01*
X152224590Y-104883619D01*
X152163876Y-104899500D01*
X152147273Y-104899500D01*
X152045413Y-104926793D01*
X152045410Y-104926794D01*
X151954085Y-104979521D01*
X151879521Y-105054085D01*
X151826794Y-105145410D01*
X151826793Y-105145413D01*
X151799500Y-105247273D01*
X151373705Y-105247273D01*
X151373207Y-105245413D01*
X151320480Y-105154087D01*
X151245913Y-105079520D01*
X151163888Y-105032163D01*
X151154589Y-105026794D01*
X151154588Y-105026793D01*
X151154587Y-105026793D01*
X151052727Y-104999500D01*
X150947273Y-104999500D01*
X150845413Y-105026793D01*
X150845410Y-105026794D01*
X150754085Y-105079521D01*
X150679521Y-105154085D01*
X150626794Y-105245410D01*
X150626794Y-105245411D01*
X150626793Y-105245413D01*
X150599500Y-105347273D01*
X149675167Y-105347273D01*
X149700500Y-105252727D01*
X149700500Y-105147273D01*
X149673207Y-105045413D01*
X149620480Y-104954087D01*
X149545913Y-104879520D01*
X149454587Y-104826793D01*
X149352727Y-104799500D01*
X149247273Y-104799500D01*
X149145413Y-104826793D01*
X149145410Y-104826794D01*
X149054085Y-104879521D01*
X148979521Y-104954085D01*
X148926794Y-105045410D01*
X148926793Y-105045413D01*
X148899500Y-105147273D01*
X148899500Y-105252725D01*
X148900561Y-105260783D01*
X148897271Y-105261216D01*
X148895964Y-105315641D01*
X148856789Y-105373495D01*
X148792554Y-105400985D01*
X148761026Y-105398737D01*
X148760786Y-105400561D01*
X148752731Y-105399500D01*
X148752730Y-105399500D01*
X148647276Y-105399500D01*
X148545416Y-105426793D01*
X148545411Y-105426795D01*
X148511999Y-105446085D01*
X148444098Y-105462556D01*
X148388002Y-105446085D01*
X148354587Y-105426793D01*
X148331019Y-105420478D01*
X148252727Y-105399500D01*
X148147273Y-105399500D01*
X148045413Y-105426793D01*
X148045410Y-105426794D01*
X147954085Y-105479521D01*
X147879521Y-105554085D01*
X147826794Y-105645410D01*
X147826793Y-105645413D01*
X147799500Y-105747273D01*
X135284492Y-105747273D01*
X135260337Y-105688957D01*
X135258165Y-105683326D01*
X134998955Y-104958879D01*
X134998955Y-104958878D01*
X134997045Y-104953099D01*
X134995277Y-104947273D01*
X140899500Y-104947273D01*
X140899500Y-105052727D01*
X140926659Y-105154085D01*
X140926793Y-105154586D01*
X140926794Y-105154589D01*
X140929604Y-105159456D01*
X140979520Y-105245913D01*
X141054087Y-105320480D01*
X141145413Y-105373207D01*
X141247273Y-105400500D01*
X141247275Y-105400500D01*
X141352725Y-105400500D01*
X141352727Y-105400500D01*
X141454587Y-105373207D01*
X141531771Y-105328644D01*
X141599670Y-105312172D01*
X141641224Y-105321471D01*
X141645405Y-105323202D01*
X141645413Y-105323207D01*
X141747273Y-105350500D01*
X141747275Y-105350500D01*
X141852725Y-105350500D01*
X141852727Y-105350500D01*
X141954587Y-105323207D01*
X142045913Y-105270480D01*
X142120480Y-105195913D01*
X142173207Y-105104587D01*
X142200500Y-105002727D01*
X142200500Y-104897273D01*
X142173207Y-104795413D01*
X142137474Y-104733522D01*
X143499500Y-104733522D01*
X143499500Y-104838976D01*
X143526586Y-104940061D01*
X143526793Y-104940835D01*
X143526794Y-104940838D01*
X143537210Y-104958879D01*
X143579520Y-105032162D01*
X143654087Y-105106729D01*
X143745413Y-105159456D01*
X143847273Y-105186749D01*
X143847275Y-105186749D01*
X143952725Y-105186749D01*
X143952727Y-105186749D01*
X144054587Y-105159456D01*
X144145913Y-105106729D01*
X144205371Y-105047271D01*
X144499500Y-105047271D01*
X144499500Y-105047273D01*
X144499500Y-105152727D01*
X144526793Y-105254587D01*
X144579520Y-105345913D01*
X144654087Y-105420480D01*
X144745413Y-105473207D01*
X144847273Y-105500500D01*
X144847275Y-105500500D01*
X144952725Y-105500500D01*
X144952727Y-105500500D01*
X145054587Y-105473207D01*
X145145913Y-105420480D01*
X145220480Y-105345913D01*
X145273207Y-105254587D01*
X145300500Y-105152727D01*
X145300500Y-105047273D01*
X145273207Y-104945413D01*
X145220480Y-104854087D01*
X145145913Y-104779520D01*
X145079059Y-104740922D01*
X145054589Y-104726794D01*
X145054588Y-104726793D01*
X145054587Y-104726793D01*
X144952727Y-104699500D01*
X144847273Y-104699500D01*
X144745413Y-104726793D01*
X144745410Y-104726794D01*
X144654085Y-104779521D01*
X144579521Y-104854085D01*
X144529882Y-104940061D01*
X144529881Y-104940064D01*
X144526793Y-104945413D01*
X144504895Y-105027135D01*
X144504883Y-105027180D01*
X144499500Y-105047271D01*
X144205371Y-105047271D01*
X144220480Y-105032162D01*
X144273207Y-104940836D01*
X144300500Y-104838976D01*
X144300500Y-104733522D01*
X144273207Y-104631662D01*
X144220480Y-104540336D01*
X144145913Y-104465769D01*
X144054587Y-104413042D01*
X143952727Y-104385749D01*
X143847273Y-104385749D01*
X143745413Y-104413042D01*
X143745410Y-104413043D01*
X143654085Y-104465770D01*
X143579521Y-104540334D01*
X143526794Y-104631659D01*
X143526793Y-104631662D01*
X143499500Y-104733522D01*
X142137474Y-104733522D01*
X142120480Y-104704087D01*
X142045913Y-104629520D01*
X141954587Y-104576793D01*
X141852727Y-104549500D01*
X141747273Y-104549500D01*
X141645413Y-104576793D01*
X141645412Y-104576793D01*
X141568228Y-104621355D01*
X141500328Y-104637826D01*
X141458780Y-104628530D01*
X141454589Y-104626794D01*
X141454587Y-104626793D01*
X141352727Y-104599500D01*
X141247273Y-104599500D01*
X141145413Y-104626793D01*
X141145410Y-104626794D01*
X141054085Y-104679521D01*
X140979521Y-104754085D01*
X140926794Y-104845410D01*
X140926793Y-104845413D01*
X140899500Y-104947273D01*
X134995277Y-104947273D01*
X134994949Y-104946191D01*
X134773702Y-104216837D01*
X134772080Y-104210974D01*
X134752160Y-104131450D01*
X134638906Y-103679313D01*
X137488820Y-103679313D01*
X137488820Y-103784767D01*
X137516113Y-103886627D01*
X137568840Y-103977953D01*
X137643407Y-104052520D01*
X137734733Y-104105247D01*
X137836593Y-104132540D01*
X137836595Y-104132540D01*
X137942045Y-104132540D01*
X137942047Y-104132540D01*
X138043907Y-104105247D01*
X138135233Y-104052520D01*
X138209800Y-103977953D01*
X138262527Y-103886627D01*
X138289820Y-103784767D01*
X138289820Y-103679313D01*
X138262527Y-103577453D01*
X138209800Y-103486127D01*
X138135233Y-103411560D01*
X138043907Y-103358833D01*
X137942047Y-103331540D01*
X137836593Y-103331540D01*
X137734733Y-103358833D01*
X137734730Y-103358834D01*
X137643405Y-103411561D01*
X137568841Y-103486125D01*
X137516114Y-103577450D01*
X137516113Y-103577453D01*
X137488820Y-103679313D01*
X134638906Y-103679313D01*
X134585126Y-103464613D01*
X134583797Y-103458691D01*
X134582981Y-103454589D01*
X134541744Y-103247273D01*
X138599500Y-103247273D01*
X138599500Y-103352727D01*
X138626793Y-103454587D01*
X138679520Y-103545913D01*
X138754087Y-103620480D01*
X138845413Y-103673207D01*
X138947273Y-103700500D01*
X138947275Y-103700500D01*
X139052725Y-103700500D01*
X139052727Y-103700500D01*
X139154587Y-103673207D01*
X139245913Y-103620480D01*
X139320480Y-103545913D01*
X139322741Y-103541996D01*
X146799500Y-103541996D01*
X146799500Y-103647450D01*
X146826793Y-103749310D01*
X146879520Y-103840636D01*
X146954087Y-103915203D01*
X147045413Y-103967930D01*
X147147273Y-103995223D01*
X147147275Y-103995223D01*
X147252725Y-103995223D01*
X147252727Y-103995223D01*
X147354587Y-103967930D01*
X147354588Y-103967929D01*
X147362438Y-103965826D01*
X147362856Y-103967388D01*
X147422915Y-103960928D01*
X147462902Y-103975569D01*
X147545413Y-104023207D01*
X147647273Y-104050500D01*
X147647275Y-104050500D01*
X147752725Y-104050500D01*
X147752727Y-104050500D01*
X147854587Y-104023207D01*
X147945913Y-103970480D01*
X148020480Y-103895913D01*
X148073207Y-103804587D01*
X148100500Y-103702727D01*
X148100500Y-103597273D01*
X148073207Y-103495413D01*
X148020480Y-103404087D01*
X147945913Y-103329520D01*
X147861593Y-103280838D01*
X147854589Y-103276794D01*
X147854588Y-103276793D01*
X147854587Y-103276793D01*
X147752727Y-103249500D01*
X147647273Y-103249500D01*
X147545413Y-103276793D01*
X147545411Y-103276793D01*
X147537562Y-103278897D01*
X147537144Y-103277337D01*
X147477060Y-103283790D01*
X147437092Y-103269150D01*
X147354587Y-103221516D01*
X147252727Y-103194223D01*
X147147273Y-103194223D01*
X147045413Y-103221516D01*
X147045410Y-103221517D01*
X146954085Y-103274244D01*
X146879521Y-103348808D01*
X146826794Y-103440133D01*
X146826793Y-103440136D01*
X146799500Y-103541996D01*
X139322741Y-103541996D01*
X139373207Y-103454587D01*
X139400500Y-103352727D01*
X139400500Y-103247273D01*
X139373207Y-103145413D01*
X139320480Y-103054087D01*
X139245913Y-102979520D01*
X139154587Y-102926793D01*
X139052727Y-102899500D01*
X138947273Y-102899500D01*
X138845413Y-102926793D01*
X138845410Y-102926794D01*
X138754085Y-102979521D01*
X138679521Y-103054085D01*
X138626794Y-103145410D01*
X138626793Y-103145413D01*
X138599500Y-103247273D01*
X134541744Y-103247273D01*
X134433701Y-102704103D01*
X134432661Y-102698112D01*
X134337612Y-102057340D01*
X134336119Y-102047273D01*
X141199500Y-102047273D01*
X141199500Y-102152727D01*
X141226793Y-102254587D01*
X141279520Y-102345913D01*
X141354087Y-102420480D01*
X141445413Y-102473207D01*
X141547273Y-102500500D01*
X141547275Y-102500500D01*
X141652725Y-102500500D01*
X141652727Y-102500500D01*
X141754587Y-102473207D01*
X141845913Y-102420480D01*
X141920480Y-102345913D01*
X141973207Y-102254587D01*
X142000500Y-102152727D01*
X142000500Y-102047273D01*
X141973207Y-101945413D01*
X141920480Y-101854087D01*
X141913666Y-101847273D01*
X144199500Y-101847273D01*
X144199500Y-101952727D01*
X144226793Y-102054587D01*
X144279520Y-102145913D01*
X144354087Y-102220480D01*
X144445413Y-102273207D01*
X144547273Y-102300500D01*
X144547275Y-102300500D01*
X144652725Y-102300500D01*
X144652727Y-102300500D01*
X144754587Y-102273207D01*
X144845913Y-102220480D01*
X144920480Y-102145913D01*
X144973207Y-102054587D01*
X145000500Y-101952727D01*
X145000500Y-101847273D01*
X144973207Y-101745413D01*
X144920480Y-101654087D01*
X144845913Y-101579520D01*
X144754587Y-101526793D01*
X144652727Y-101499500D01*
X144547273Y-101499500D01*
X144445413Y-101526793D01*
X144445410Y-101526794D01*
X144354085Y-101579521D01*
X144279521Y-101654085D01*
X144226794Y-101745410D01*
X144226793Y-101745413D01*
X144199500Y-101847273D01*
X141913666Y-101847273D01*
X141845913Y-101779520D01*
X141754587Y-101726793D01*
X141652727Y-101699500D01*
X141547273Y-101699500D01*
X141445413Y-101726793D01*
X141445410Y-101726794D01*
X141354085Y-101779521D01*
X141279521Y-101854085D01*
X141226794Y-101945410D01*
X141226793Y-101945413D01*
X141199500Y-102047273D01*
X134336119Y-102047273D01*
X134322094Y-101952727D01*
X134319764Y-101937022D01*
X134319021Y-101930995D01*
X134316081Y-101901147D01*
X134271378Y-101447273D01*
X136799500Y-101447273D01*
X136799500Y-101552727D01*
X136826793Y-101654587D01*
X136879520Y-101745913D01*
X136954087Y-101820480D01*
X137045413Y-101873207D01*
X137147273Y-101900500D01*
X137147275Y-101900500D01*
X137252725Y-101900500D01*
X137252727Y-101900500D01*
X137354587Y-101873207D01*
X137445913Y-101820480D01*
X137520480Y-101745913D01*
X137573207Y-101654587D01*
X137600500Y-101552727D01*
X137600500Y-101447273D01*
X137573207Y-101345413D01*
X137520480Y-101254087D01*
X137445913Y-101179520D01*
X137354587Y-101126793D01*
X137252727Y-101099500D01*
X137147273Y-101099500D01*
X137045413Y-101126793D01*
X137045410Y-101126794D01*
X136954085Y-101179521D01*
X136879521Y-101254085D01*
X136826794Y-101345410D01*
X136826793Y-101345413D01*
X136799500Y-101447273D01*
X134271378Y-101447273D01*
X134245483Y-101184359D01*
X134258502Y-101115715D01*
X134306566Y-101065005D01*
X134374417Y-101048330D01*
X134430885Y-101064820D01*
X134445406Y-101073204D01*
X134445409Y-101073205D01*
X134445413Y-101073207D01*
X134547273Y-101100500D01*
X134547275Y-101100500D01*
X134652725Y-101100500D01*
X134652727Y-101100500D01*
X134754587Y-101073207D01*
X134845913Y-101020480D01*
X134920480Y-100945913D01*
X134973207Y-100854587D01*
X135000500Y-100752727D01*
X135000500Y-100647273D01*
X138499500Y-100647273D01*
X138499500Y-100752727D01*
X138526793Y-100854587D01*
X138579520Y-100945913D01*
X138654087Y-101020480D01*
X138745413Y-101073207D01*
X138847273Y-101100500D01*
X138847275Y-101100500D01*
X138952725Y-101100500D01*
X138952727Y-101100500D01*
X139054587Y-101073207D01*
X139145913Y-101020480D01*
X139220480Y-100945913D01*
X139273207Y-100854587D01*
X139300500Y-100752727D01*
X139300500Y-100647273D01*
X139273207Y-100545413D01*
X139220480Y-100454087D01*
X139145913Y-100379520D01*
X139054587Y-100326793D01*
X138952727Y-100299500D01*
X138847273Y-100299500D01*
X138745413Y-100326793D01*
X138745410Y-100326794D01*
X138654085Y-100379521D01*
X138579521Y-100454085D01*
X138526794Y-100545410D01*
X138526793Y-100545413D01*
X138499500Y-100647273D01*
X135000500Y-100647273D01*
X134973207Y-100545413D01*
X134920480Y-100454087D01*
X134845913Y-100379520D01*
X134754587Y-100326793D01*
X134652727Y-100299500D01*
X134547273Y-100299500D01*
X134445413Y-100326793D01*
X134445410Y-100326794D01*
X134412296Y-100345913D01*
X134398139Y-100354087D01*
X134391259Y-100358059D01*
X134323359Y-100374532D01*
X134257332Y-100351680D01*
X134214141Y-100296758D01*
X134205259Y-100250672D01*
X134205259Y-99947273D01*
X141799500Y-99947273D01*
X141799500Y-100052727D01*
X141826793Y-100154587D01*
X141879520Y-100245913D01*
X141954087Y-100320480D01*
X142045413Y-100373207D01*
X142147273Y-100400500D01*
X142147275Y-100400500D01*
X142252725Y-100400500D01*
X142252727Y-100400500D01*
X142354587Y-100373207D01*
X142445913Y-100320480D01*
X142520480Y-100245913D01*
X142573207Y-100154587D01*
X142600500Y-100052727D01*
X142600500Y-99947273D01*
X142573207Y-99845413D01*
X142520480Y-99754087D01*
X142445913Y-99679520D01*
X142354587Y-99626793D01*
X142252727Y-99599500D01*
X142147273Y-99599500D01*
X142045413Y-99626793D01*
X142045410Y-99626794D01*
X141954085Y-99679521D01*
X141879521Y-99754085D01*
X141826794Y-99845410D01*
X141826793Y-99845413D01*
X141799500Y-99947273D01*
X134205259Y-99947273D01*
X134205259Y-99615311D01*
X134205408Y-99609227D01*
X134206777Y-99581364D01*
X134243161Y-98840715D01*
X134243604Y-98834719D01*
X134284002Y-98424553D01*
X134310162Y-98359769D01*
X134367196Y-98319410D01*
X134436997Y-98316293D01*
X134469402Y-98329322D01*
X134545413Y-98373207D01*
X134647273Y-98400500D01*
X134647275Y-98400500D01*
X134752725Y-98400500D01*
X134752727Y-98400500D01*
X134854587Y-98373207D01*
X134945913Y-98320480D01*
X135014567Y-98251826D01*
X136894947Y-98251826D01*
X136894947Y-98357280D01*
X136922240Y-98459140D01*
X136974967Y-98550466D01*
X137049534Y-98625033D01*
X137140860Y-98677760D01*
X137242720Y-98705053D01*
X137242722Y-98705053D01*
X137348172Y-98705053D01*
X137348174Y-98705053D01*
X137450034Y-98677760D01*
X137541360Y-98625033D01*
X137615927Y-98550466D01*
X137668654Y-98459140D01*
X137695947Y-98357280D01*
X137695947Y-98251826D01*
X137668654Y-98149966D01*
X137615927Y-98058640D01*
X137541360Y-97984073D01*
X137450034Y-97931346D01*
X137348174Y-97904053D01*
X137242720Y-97904053D01*
X137140860Y-97931346D01*
X137140857Y-97931347D01*
X137049532Y-97984074D01*
X136974968Y-98058638D01*
X136922241Y-98149963D01*
X136922240Y-98149966D01*
X136894947Y-98251826D01*
X135014567Y-98251826D01*
X135020480Y-98245913D01*
X135073207Y-98154587D01*
X135100500Y-98052727D01*
X135100500Y-97947273D01*
X135073207Y-97845413D01*
X135020480Y-97754087D01*
X134945913Y-97679520D01*
X134854587Y-97626793D01*
X134752727Y-97599500D01*
X134647273Y-97599500D01*
X134647271Y-97599500D01*
X134560272Y-97622811D01*
X134526496Y-97622006D01*
X134492714Y-97621856D01*
X134491668Y-97621177D01*
X134490423Y-97621148D01*
X134462440Y-97602208D01*
X134434106Y-97583820D01*
X134433593Y-97582684D01*
X134432560Y-97581985D01*
X134419251Y-97550904D01*
X134405365Y-97520135D01*
X134405372Y-97518492D01*
X134405057Y-97517756D01*
X134405522Y-97484841D01*
X134409999Y-97454664D01*
X134432662Y-97301874D01*
X134433702Y-97295890D01*
X134438214Y-97273206D01*
X134503046Y-96947273D01*
X139699500Y-96947273D01*
X139699500Y-97052727D01*
X139726793Y-97154587D01*
X139779520Y-97245913D01*
X139854087Y-97320480D01*
X139945413Y-97373207D01*
X140047273Y-97400500D01*
X140047275Y-97400500D01*
X140152725Y-97400500D01*
X140152727Y-97400500D01*
X140254587Y-97373207D01*
X140345913Y-97320480D01*
X140419043Y-97247350D01*
X143694500Y-97247350D01*
X143694500Y-97352804D01*
X143721773Y-97454587D01*
X143721793Y-97454663D01*
X143721794Y-97454666D01*
X143755518Y-97513077D01*
X143771991Y-97580977D01*
X143755519Y-97637075D01*
X143721795Y-97695488D01*
X143721793Y-97695493D01*
X143694500Y-97797353D01*
X143694500Y-97902807D01*
X143706415Y-97947273D01*
X143721793Y-98004666D01*
X143721794Y-98004669D01*
X143769951Y-98088080D01*
X143786424Y-98155981D01*
X143769951Y-98212080D01*
X143721794Y-98295490D01*
X143721793Y-98295493D01*
X143694500Y-98397353D01*
X143694500Y-98502807D01*
X143707271Y-98550467D01*
X143721793Y-98604666D01*
X143721794Y-98604669D01*
X143769951Y-98688080D01*
X143786424Y-98755981D01*
X143769951Y-98812080D01*
X143721794Y-98895490D01*
X143721793Y-98895493D01*
X143694500Y-98997353D01*
X143694500Y-99102807D01*
X143721793Y-99204667D01*
X143774520Y-99295993D01*
X143849087Y-99370560D01*
X143940413Y-99423287D01*
X144032020Y-99447832D01*
X144091680Y-99484197D01*
X144122209Y-99547044D01*
X144113914Y-99616419D01*
X144069429Y-99670297D01*
X144061930Y-99674992D01*
X144054085Y-99679521D01*
X143979521Y-99754085D01*
X143926794Y-99845410D01*
X143926793Y-99845413D01*
X143899500Y-99947273D01*
X143899500Y-100052727D01*
X143926793Y-100154587D01*
X143979520Y-100245913D01*
X144054087Y-100320480D01*
X144145413Y-100373207D01*
X144247273Y-100400500D01*
X144247275Y-100400500D01*
X144352725Y-100400500D01*
X144352727Y-100400500D01*
X144454587Y-100373207D01*
X144545913Y-100320480D01*
X144620480Y-100245913D01*
X144673207Y-100154587D01*
X144700500Y-100052727D01*
X144700500Y-99947273D01*
X144673207Y-99845413D01*
X144620480Y-99754087D01*
X144545913Y-99679520D01*
X144454587Y-99626793D01*
X144357756Y-99600847D01*
X144352661Y-99598993D01*
X144328718Y-99581364D01*
X144303319Y-99565882D01*
X144300883Y-99560868D01*
X144296398Y-99557566D01*
X144292466Y-99547273D01*
X150099500Y-99547273D01*
X150099500Y-99652727D01*
X150126659Y-99754085D01*
X150126793Y-99754586D01*
X150126794Y-99754589D01*
X150146084Y-99788000D01*
X150162557Y-99855900D01*
X150146084Y-99912000D01*
X150126794Y-99945410D01*
X150126793Y-99945413D01*
X150099500Y-100047273D01*
X150099500Y-100152727D01*
X150126793Y-100254587D01*
X150179520Y-100345913D01*
X150254087Y-100420480D01*
X150345413Y-100473207D01*
X150447273Y-100500500D01*
X150447275Y-100500500D01*
X150477428Y-100500500D01*
X150485621Y-100502905D01*
X150494065Y-100501621D01*
X150518644Y-100512602D01*
X150544467Y-100520185D01*
X150550058Y-100526637D01*
X150557857Y-100530122D01*
X150572598Y-100552649D01*
X150590222Y-100572989D01*
X150592435Y-100582966D01*
X150596114Y-100588588D01*
X150597529Y-100605925D01*
X150601424Y-100623480D01*
X150601556Y-100639597D01*
X150599500Y-100647273D01*
X150599500Y-100752727D01*
X150602581Y-100764229D01*
X150602712Y-100780035D01*
X150597296Y-100799056D01*
X150596823Y-100818827D01*
X150587924Y-100831970D01*
X150583579Y-100847234D01*
X150568740Y-100860307D01*
X150559708Y-100873647D01*
X150559834Y-100873773D01*
X150559183Y-100874423D01*
X150557653Y-100876684D01*
X150554212Y-100879423D01*
X150554091Y-100879515D01*
X150479521Y-100954085D01*
X150426794Y-101045410D01*
X150426793Y-101045413D01*
X150399500Y-101147273D01*
X150399500Y-101252727D01*
X150426793Y-101354587D01*
X150479520Y-101445913D01*
X150554087Y-101520480D01*
X150645413Y-101573207D01*
X150747273Y-101600500D01*
X150747275Y-101600500D01*
X150852725Y-101600500D01*
X150852727Y-101600500D01*
X150954587Y-101573207D01*
X150988001Y-101553915D01*
X151055898Y-101537442D01*
X151111997Y-101553914D01*
X151145413Y-101573207D01*
X151247273Y-101600500D01*
X151247275Y-101600500D01*
X151352725Y-101600500D01*
X151352727Y-101600500D01*
X151454587Y-101573207D01*
X151545913Y-101520480D01*
X151620480Y-101445913D01*
X151642790Y-101407271D01*
X159269498Y-101407271D01*
X159269498Y-101512725D01*
X159296791Y-101614585D01*
X159349518Y-101705911D01*
X159424085Y-101780478D01*
X159515411Y-101833205D01*
X159515416Y-101833206D01*
X159522916Y-101836313D01*
X159521434Y-101839891D01*
X159565838Y-101865943D01*
X159592670Y-101910298D01*
X159599500Y-101930015D01*
X159599500Y-101952727D01*
X159626793Y-102054587D01*
X159666431Y-102123243D01*
X159670301Y-102134414D01*
X159671429Y-102157975D01*
X159676991Y-102180900D01*
X159673152Y-102193970D01*
X159673643Y-102204204D01*
X159666527Y-102216536D01*
X159660519Y-102236998D01*
X159626795Y-102295411D01*
X159626793Y-102295416D01*
X159599500Y-102397276D01*
X159599500Y-102428668D01*
X159579815Y-102495707D01*
X159537501Y-102536054D01*
X159448998Y-102587152D01*
X159374433Y-102661717D01*
X159321706Y-102753042D01*
X159321705Y-102753045D01*
X159294412Y-102854905D01*
X159294412Y-102960359D01*
X159321705Y-103062219D01*
X159374432Y-103153545D01*
X159448999Y-103228112D01*
X159540325Y-103280839D01*
X159642185Y-103308132D01*
X159642187Y-103308132D01*
X159747637Y-103308132D01*
X159747639Y-103308132D01*
X159849499Y-103280839D01*
X159940825Y-103228112D01*
X159963591Y-103205346D01*
X160024914Y-103171861D01*
X160094606Y-103176845D01*
X160138953Y-103205346D01*
X160154087Y-103220480D01*
X160245413Y-103273207D01*
X160347273Y-103300500D01*
X160347275Y-103300500D01*
X160452725Y-103300500D01*
X160452727Y-103300500D01*
X160554587Y-103273207D01*
X160645913Y-103220480D01*
X160720480Y-103145913D01*
X160773207Y-103054587D01*
X160800500Y-102952727D01*
X160800500Y-102847273D01*
X160773207Y-102745413D01*
X160720480Y-102654087D01*
X160645913Y-102579520D01*
X160554589Y-102526794D01*
X160554588Y-102526793D01*
X160515898Y-102516426D01*
X160492405Y-102510131D01*
X160432746Y-102473767D01*
X160403364Y-102416854D01*
X160400500Y-102403761D01*
X160400500Y-102397276D01*
X160387102Y-102347273D01*
X163199500Y-102347273D01*
X163199500Y-102452727D01*
X163226793Y-102554587D01*
X163279520Y-102645913D01*
X163354087Y-102720480D01*
X163445413Y-102773207D01*
X163547273Y-102800500D01*
X163547275Y-102800500D01*
X163652725Y-102800500D01*
X163652727Y-102800500D01*
X163754587Y-102773207D01*
X163845913Y-102720480D01*
X163920480Y-102645913D01*
X163973207Y-102554587D01*
X164000500Y-102452727D01*
X164000500Y-102347273D01*
X163973207Y-102245413D01*
X163920480Y-102154087D01*
X163845913Y-102079520D01*
X163754587Y-102026793D01*
X163652727Y-101999500D01*
X163547273Y-101999500D01*
X163445413Y-102026793D01*
X163445410Y-102026794D01*
X163354085Y-102079521D01*
X163279521Y-102154085D01*
X163226794Y-102245410D01*
X163226793Y-102245413D01*
X163199500Y-102347273D01*
X160387102Y-102347273D01*
X160373207Y-102295416D01*
X160339480Y-102237000D01*
X160323008Y-102169101D01*
X160339479Y-102113004D01*
X160373207Y-102054587D01*
X160400500Y-101952727D01*
X160400500Y-101952724D01*
X160401324Y-101949649D01*
X160437689Y-101889989D01*
X160489004Y-101861968D01*
X160512571Y-101855654D01*
X160603897Y-101802927D01*
X160678464Y-101728360D01*
X160731191Y-101637034D01*
X160758484Y-101535174D01*
X160758484Y-101429720D01*
X160731191Y-101327860D01*
X160678464Y-101236534D01*
X160638739Y-101196809D01*
X160605254Y-101135486D01*
X160610238Y-101065794D01*
X160652110Y-101009861D01*
X160694324Y-100989353D01*
X160754587Y-100973207D01*
X160845913Y-100920480D01*
X160920480Y-100845913D01*
X160973207Y-100754587D01*
X161000500Y-100652727D01*
X161000500Y-100647273D01*
X162199500Y-100647273D01*
X162199500Y-100752727D01*
X162226793Y-100854587D01*
X162279520Y-100945913D01*
X162354087Y-101020480D01*
X162445413Y-101073207D01*
X162547273Y-101100500D01*
X162547275Y-101100500D01*
X162652725Y-101100500D01*
X162652727Y-101100500D01*
X162754587Y-101073207D01*
X162845913Y-101020480D01*
X162920480Y-100945913D01*
X162973207Y-100854587D01*
X163000500Y-100752727D01*
X163000500Y-100647273D01*
X162973207Y-100545413D01*
X162920480Y-100454087D01*
X162845913Y-100379520D01*
X162754587Y-100326793D01*
X162652727Y-100299500D01*
X162547273Y-100299500D01*
X162445413Y-100326793D01*
X162445410Y-100326794D01*
X162354085Y-100379521D01*
X162279521Y-100454085D01*
X162226794Y-100545410D01*
X162226793Y-100545413D01*
X162199500Y-100647273D01*
X161000500Y-100647273D01*
X161000500Y-100547273D01*
X160973207Y-100445413D01*
X160920480Y-100354087D01*
X160845913Y-100279520D01*
X160754587Y-100226793D01*
X160652727Y-100199500D01*
X160547273Y-100199500D01*
X160445413Y-100226793D01*
X160445410Y-100226794D01*
X160354085Y-100279521D01*
X160279521Y-100354085D01*
X160226794Y-100445410D01*
X160226793Y-100445413D01*
X160199500Y-100547273D01*
X160199500Y-100652727D01*
X160226793Y-100754587D01*
X160271118Y-100831361D01*
X160279521Y-100845914D01*
X160319244Y-100885637D01*
X160352729Y-100946960D01*
X160347745Y-101016652D01*
X160305873Y-101072585D01*
X160285702Y-101084875D01*
X160275066Y-101090036D01*
X160203397Y-101109240D01*
X160112071Y-101161967D01*
X160098136Y-101175901D01*
X160079354Y-101185017D01*
X160064648Y-101187484D01*
X160051561Y-101194629D01*
X160030889Y-101193148D01*
X160010448Y-101196578D01*
X159996741Y-101190702D01*
X159981870Y-101189637D01*
X159957063Y-101173693D01*
X159946230Y-101169049D01*
X159943456Y-101164947D01*
X159937534Y-101161141D01*
X159915912Y-101139519D01*
X159915911Y-101139518D01*
X159824585Y-101086791D01*
X159722725Y-101059498D01*
X159617271Y-101059498D01*
X159515411Y-101086791D01*
X159515408Y-101086792D01*
X159424083Y-101139519D01*
X159349519Y-101214083D01*
X159296792Y-101305408D01*
X159296791Y-101305411D01*
X159269498Y-101407271D01*
X151642790Y-101407271D01*
X151673207Y-101354587D01*
X151700500Y-101252727D01*
X151700500Y-101147273D01*
X151673207Y-101045413D01*
X151620480Y-100954087D01*
X151545913Y-100879520D01*
X151462498Y-100831360D01*
X151414284Y-100780793D01*
X151400500Y-100723974D01*
X151400500Y-100647275D01*
X151400500Y-100647273D01*
X151373207Y-100545413D01*
X151325047Y-100461998D01*
X151308575Y-100394100D01*
X151325047Y-100338001D01*
X151373207Y-100254587D01*
X151400500Y-100152727D01*
X151400500Y-100047273D01*
X151373207Y-99945413D01*
X151353915Y-99911998D01*
X151337442Y-99844102D01*
X151353914Y-99788002D01*
X151373207Y-99754587D01*
X151400500Y-99652727D01*
X151400500Y-99547273D01*
X151373207Y-99445413D01*
X151320480Y-99354087D01*
X151245913Y-99279520D01*
X151154587Y-99226793D01*
X151052727Y-99199500D01*
X150947273Y-99199500D01*
X150845413Y-99226793D01*
X150845410Y-99226794D01*
X150812000Y-99246084D01*
X150744100Y-99262557D01*
X150688000Y-99246084D01*
X150654589Y-99226794D01*
X150654588Y-99226793D01*
X150654587Y-99226793D01*
X150552727Y-99199500D01*
X150447273Y-99199500D01*
X150345413Y-99226793D01*
X150345410Y-99226794D01*
X150254085Y-99279521D01*
X150179521Y-99354085D01*
X150126794Y-99445410D01*
X150126793Y-99445413D01*
X150099500Y-99547273D01*
X144292466Y-99547273D01*
X144285786Y-99529789D01*
X144272790Y-99503035D01*
X144273451Y-99497502D01*
X144271463Y-99492297D01*
X144277554Y-99463188D01*
X144281085Y-99433659D01*
X144284632Y-99429361D01*
X144285774Y-99423909D01*
X144306631Y-99402717D01*
X144325570Y-99379781D01*
X144333033Y-99375109D01*
X144340913Y-99370560D01*
X144415480Y-99295993D01*
X144468207Y-99204667D01*
X144495500Y-99102807D01*
X144495500Y-98997353D01*
X144495499Y-98997351D01*
X144494439Y-98989297D01*
X144497737Y-98988862D01*
X144498716Y-98947273D01*
X155999500Y-98947273D01*
X155999500Y-99052727D01*
X156026793Y-99154587D01*
X156079520Y-99245913D01*
X156154087Y-99320480D01*
X156245413Y-99373207D01*
X156347273Y-99400500D01*
X156347275Y-99400500D01*
X156452725Y-99400500D01*
X156452727Y-99400500D01*
X156554587Y-99373207D01*
X156588001Y-99353915D01*
X156655898Y-99337442D01*
X156711997Y-99353914D01*
X156745413Y-99373207D01*
X156847273Y-99400500D01*
X156847275Y-99400500D01*
X156952725Y-99400500D01*
X156952727Y-99400500D01*
X157054587Y-99373207D01*
X157145913Y-99320480D01*
X157220480Y-99245913D01*
X157273207Y-99154587D01*
X157300500Y-99052727D01*
X157300500Y-98947273D01*
X157273705Y-98847273D01*
X160099500Y-98847273D01*
X160099500Y-98952727D01*
X160126295Y-99052726D01*
X160126793Y-99054586D01*
X160126794Y-99054589D01*
X160146084Y-99088000D01*
X160162557Y-99155900D01*
X160146084Y-99212000D01*
X160126794Y-99245410D01*
X160126793Y-99245413D01*
X160099500Y-99347273D01*
X160099500Y-99452727D01*
X160126793Y-99554587D01*
X160179520Y-99645913D01*
X160254087Y-99720480D01*
X160345413Y-99773207D01*
X160447273Y-99800500D01*
X160447275Y-99800500D01*
X160552725Y-99800500D01*
X160552727Y-99800500D01*
X160654587Y-99773207D01*
X160745913Y-99720480D01*
X160820480Y-99645913D01*
X160873207Y-99554587D01*
X160900500Y-99452727D01*
X160900500Y-99347273D01*
X160873207Y-99245413D01*
X160853915Y-99211998D01*
X160851084Y-99200333D01*
X160844121Y-99190553D01*
X160843000Y-99167010D01*
X160838211Y-99147273D01*
X164399500Y-99147273D01*
X164399500Y-99252727D01*
X164426793Y-99354587D01*
X164479520Y-99445913D01*
X164554087Y-99520480D01*
X164645413Y-99573207D01*
X164747273Y-99600500D01*
X164747275Y-99600500D01*
X164852725Y-99600500D01*
X164852727Y-99600500D01*
X164954587Y-99573207D01*
X165045913Y-99520480D01*
X165120480Y-99445913D01*
X165173207Y-99354587D01*
X165200500Y-99252727D01*
X165200500Y-99147273D01*
X165173207Y-99045413D01*
X165120480Y-98954087D01*
X165045913Y-98879520D01*
X164954587Y-98826793D01*
X164852727Y-98799500D01*
X164747273Y-98799500D01*
X164645413Y-98826793D01*
X164645410Y-98826794D01*
X164554085Y-98879521D01*
X164479521Y-98954085D01*
X164426794Y-99045410D01*
X164426793Y-99045413D01*
X164399500Y-99147273D01*
X160838211Y-99147273D01*
X160837442Y-99144102D01*
X160841286Y-99131011D01*
X160840798Y-99120762D01*
X160853916Y-99088000D01*
X160873207Y-99054587D01*
X160900500Y-98952727D01*
X160900500Y-98847273D01*
X160873207Y-98745413D01*
X160820480Y-98654087D01*
X160745913Y-98579520D01*
X160654587Y-98526793D01*
X160552727Y-98499500D01*
X160447273Y-98499500D01*
X160345413Y-98526793D01*
X160345410Y-98526794D01*
X160254085Y-98579521D01*
X160179521Y-98654085D01*
X160126794Y-98745410D01*
X160126793Y-98745413D01*
X160099500Y-98847273D01*
X157273705Y-98847273D01*
X157273207Y-98845413D01*
X157220480Y-98754087D01*
X157145913Y-98679520D01*
X157054587Y-98626793D01*
X156952727Y-98599500D01*
X156847273Y-98599500D01*
X156745413Y-98626793D01*
X156745410Y-98626794D01*
X156712000Y-98646084D01*
X156644100Y-98662557D01*
X156588000Y-98646084D01*
X156554589Y-98626794D01*
X156554588Y-98626793D01*
X156554587Y-98626793D01*
X156452727Y-98599500D01*
X156347273Y-98599500D01*
X156245413Y-98626793D01*
X156245410Y-98626794D01*
X156154085Y-98679521D01*
X156079521Y-98754085D01*
X156026794Y-98845410D01*
X156026794Y-98845411D01*
X156026793Y-98845413D01*
X155999500Y-98947273D01*
X144498716Y-98947273D01*
X144499017Y-98934494D01*
X144538164Y-98876621D01*
X144602385Y-98849100D01*
X144633974Y-98851359D01*
X144634217Y-98849519D01*
X144642271Y-98850579D01*
X144642273Y-98850580D01*
X144642275Y-98850580D01*
X144747725Y-98850580D01*
X144747727Y-98850580D01*
X144849587Y-98823287D01*
X144940913Y-98770560D01*
X145015480Y-98695993D01*
X145068207Y-98604667D01*
X145095500Y-98502807D01*
X145095500Y-98397353D01*
X145068207Y-98295493D01*
X145020047Y-98212078D01*
X145003575Y-98144180D01*
X145020047Y-98088081D01*
X145068207Y-98004667D01*
X145095500Y-97902807D01*
X145095500Y-97797353D01*
X145068207Y-97695493D01*
X145015480Y-97604167D01*
X144940913Y-97529600D01*
X144849587Y-97476873D01*
X144747727Y-97449580D01*
X144642273Y-97449580D01*
X144642270Y-97449580D01*
X144635684Y-97450447D01*
X144566649Y-97439681D01*
X144514393Y-97393300D01*
X144495500Y-97327508D01*
X144495500Y-97247352D01*
X144495500Y-97247350D01*
X144468207Y-97145490D01*
X144415480Y-97054164D01*
X144340913Y-96979597D01*
X144249587Y-96926870D01*
X144147727Y-96899577D01*
X144042273Y-96899577D01*
X143940413Y-96926870D01*
X143940410Y-96926871D01*
X143849085Y-96979598D01*
X143774521Y-97054162D01*
X143721794Y-97145487D01*
X143721793Y-97145490D01*
X143694500Y-97247350D01*
X140419043Y-97247350D01*
X140420480Y-97245913D01*
X140473207Y-97154587D01*
X140500500Y-97052727D01*
X140500500Y-96947273D01*
X140473207Y-96845413D01*
X140420480Y-96754087D01*
X140345913Y-96679520D01*
X140254587Y-96626793D01*
X140152727Y-96599500D01*
X140047273Y-96599500D01*
X139945413Y-96626793D01*
X139945410Y-96626794D01*
X139854085Y-96679521D01*
X139779521Y-96754085D01*
X139726794Y-96845410D01*
X139726793Y-96845413D01*
X139699500Y-96947273D01*
X134503046Y-96947273D01*
X134583802Y-96541282D01*
X134585124Y-96535395D01*
X134707392Y-96047273D01*
X143899500Y-96047273D01*
X143899500Y-96152727D01*
X143926793Y-96254587D01*
X143979520Y-96345913D01*
X144054087Y-96420480D01*
X144145413Y-96473207D01*
X144247273Y-96500500D01*
X144247275Y-96500500D01*
X144352725Y-96500500D01*
X144352727Y-96500500D01*
X144454587Y-96473207D01*
X144545913Y-96420480D01*
X144553597Y-96412795D01*
X144614914Y-96379309D01*
X144673369Y-96380697D01*
X144747273Y-96400500D01*
X144747276Y-96400500D01*
X144852723Y-96400500D01*
X144852727Y-96400500D01*
X144926629Y-96380698D01*
X144996473Y-96382361D01*
X145046399Y-96412792D01*
X145054087Y-96420480D01*
X145145413Y-96473207D01*
X145247273Y-96500500D01*
X145247275Y-96500500D01*
X145352725Y-96500500D01*
X145352727Y-96500500D01*
X145364435Y-96497363D01*
X154594490Y-96497363D01*
X154594490Y-96602817D01*
X154621783Y-96704677D01*
X154674510Y-96796003D01*
X154749077Y-96870570D01*
X154840403Y-96923297D01*
X154942263Y-96950590D01*
X154942265Y-96950590D01*
X155047715Y-96950590D01*
X155047717Y-96950590D01*
X155149577Y-96923297D01*
X155240903Y-96870570D01*
X155264200Y-96847273D01*
X161099500Y-96847273D01*
X161099500Y-96952727D01*
X161126793Y-97054587D01*
X161179520Y-97145913D01*
X161254087Y-97220480D01*
X161345413Y-97273207D01*
X161447273Y-97300500D01*
X161447275Y-97300500D01*
X161552725Y-97300500D01*
X161552727Y-97300500D01*
X161654587Y-97273207D01*
X161688001Y-97253915D01*
X161755898Y-97237442D01*
X161781532Y-97241378D01*
X161797601Y-97245603D01*
X161845413Y-97273207D01*
X161947273Y-97300500D01*
X162006387Y-97300500D01*
X162021889Y-97304576D01*
X162038635Y-97314676D01*
X162057396Y-97320185D01*
X162067934Y-97332347D01*
X162081719Y-97340661D01*
X162090346Y-97358211D01*
X162103151Y-97372989D01*
X162110131Y-97392404D01*
X162112300Y-97400499D01*
X162126793Y-97454588D01*
X162126794Y-97454589D01*
X162139660Y-97476873D01*
X162179520Y-97545913D01*
X162254087Y-97620480D01*
X162345413Y-97673207D01*
X162447273Y-97700500D01*
X162447275Y-97700500D01*
X162552725Y-97700500D01*
X162552727Y-97700500D01*
X162654587Y-97673207D01*
X162745913Y-97620480D01*
X162820480Y-97545913D01*
X162873207Y-97454587D01*
X162900500Y-97352727D01*
X162900500Y-97247273D01*
X162873207Y-97145413D01*
X162820480Y-97054087D01*
X162745913Y-96979520D01*
X162654722Y-96926871D01*
X162654589Y-96926794D01*
X162654588Y-96926793D01*
X162654587Y-96926793D01*
X162552727Y-96899500D01*
X162509643Y-96899500D01*
X162482927Y-96891655D01*
X162455462Y-96887037D01*
X162449862Y-96881946D01*
X162442604Y-96879815D01*
X162424371Y-96858773D01*
X162403762Y-96840038D01*
X162399487Y-96830055D01*
X162396849Y-96827011D01*
X162389868Y-96807593D01*
X162380127Y-96771239D01*
X162375531Y-96754087D01*
X162373705Y-96747273D01*
X164199500Y-96747273D01*
X164199500Y-96852727D01*
X164226793Y-96954587D01*
X164279520Y-97045913D01*
X164354087Y-97120480D01*
X164445413Y-97173207D01*
X164547273Y-97200500D01*
X164547275Y-97200500D01*
X164652725Y-97200500D01*
X164652727Y-97200500D01*
X164754587Y-97173207D01*
X164845913Y-97120480D01*
X164920480Y-97045913D01*
X164973207Y-96954587D01*
X165000500Y-96852727D01*
X165000500Y-96747273D01*
X164973207Y-96645413D01*
X164920480Y-96554087D01*
X164845913Y-96479520D01*
X164754587Y-96426793D01*
X164652727Y-96399500D01*
X164547273Y-96399500D01*
X164445413Y-96426793D01*
X164445410Y-96426794D01*
X164354085Y-96479521D01*
X164279521Y-96554085D01*
X164226794Y-96645410D01*
X164226793Y-96645413D01*
X164199500Y-96747273D01*
X162373705Y-96747273D01*
X162373207Y-96745413D01*
X162320480Y-96654087D01*
X162245913Y-96579520D01*
X162154587Y-96526793D01*
X162052727Y-96499500D01*
X161947273Y-96499500D01*
X161845413Y-96526793D01*
X161845410Y-96526794D01*
X161812000Y-96546084D01*
X161744100Y-96562557D01*
X161688000Y-96546084D01*
X161654589Y-96526794D01*
X161654588Y-96526793D01*
X161654587Y-96526793D01*
X161552727Y-96499500D01*
X161447273Y-96499500D01*
X161345413Y-96526793D01*
X161345410Y-96526794D01*
X161254085Y-96579521D01*
X161179521Y-96654085D01*
X161126794Y-96745410D01*
X161126794Y-96745411D01*
X161126793Y-96745413D01*
X161099500Y-96847273D01*
X155264200Y-96847273D01*
X155315470Y-96796003D01*
X155368197Y-96704677D01*
X155395490Y-96602817D01*
X155395490Y-96497363D01*
X155368197Y-96395503D01*
X155315470Y-96304177D01*
X155315468Y-96304175D01*
X155315467Y-96304173D01*
X155310521Y-96297727D01*
X155311705Y-96296818D01*
X155282544Y-96243413D01*
X155287528Y-96173721D01*
X155329400Y-96117788D01*
X155356262Y-96102492D01*
X155361578Y-96100289D01*
X155361587Y-96100287D01*
X155452913Y-96047560D01*
X155527480Y-95972993D01*
X155580207Y-95881667D01*
X155589423Y-95847273D01*
X156699500Y-95847273D01*
X156699500Y-95952727D01*
X156726793Y-96054587D01*
X156779520Y-96145913D01*
X156854087Y-96220480D01*
X156945413Y-96273207D01*
X157047273Y-96300500D01*
X157047275Y-96300500D01*
X157152725Y-96300500D01*
X157152727Y-96300500D01*
X157254587Y-96273207D01*
X157345913Y-96220480D01*
X157420480Y-96145913D01*
X157473207Y-96054587D01*
X157500500Y-95952727D01*
X157500500Y-95847273D01*
X157473207Y-95745413D01*
X157420480Y-95654087D01*
X157345913Y-95579520D01*
X157254587Y-95526793D01*
X157152727Y-95499500D01*
X157047273Y-95499500D01*
X156945413Y-95526793D01*
X156945410Y-95526794D01*
X156854085Y-95579521D01*
X156779521Y-95654085D01*
X156726794Y-95745410D01*
X156726793Y-95745413D01*
X156699500Y-95847273D01*
X155589423Y-95847273D01*
X155607500Y-95779807D01*
X155607500Y-95674353D01*
X155580207Y-95572493D01*
X155527480Y-95481167D01*
X155508549Y-95462236D01*
X155475064Y-95400913D01*
X155476454Y-95342465D01*
X155500500Y-95252727D01*
X155500500Y-95147273D01*
X155473207Y-95045413D01*
X155420480Y-94954087D01*
X155345913Y-94879520D01*
X155254587Y-94826793D01*
X155152727Y-94799500D01*
X155047273Y-94799500D01*
X154945413Y-94826793D01*
X154945410Y-94826794D01*
X154854085Y-94879521D01*
X154779521Y-94954085D01*
X154726794Y-95045410D01*
X154726793Y-95045413D01*
X154699500Y-95147273D01*
X154699500Y-95252727D01*
X154726295Y-95352726D01*
X154726793Y-95354586D01*
X154726794Y-95354589D01*
X154779521Y-95445914D01*
X154798450Y-95464843D01*
X154831935Y-95526166D01*
X154830544Y-95584616D01*
X154806500Y-95674351D01*
X154806500Y-95674353D01*
X154806500Y-95779807D01*
X154833793Y-95881667D01*
X154874819Y-95952727D01*
X154886522Y-95972996D01*
X154891469Y-95979443D01*
X154890284Y-95980352D01*
X154919445Y-96033756D01*
X154914461Y-96103448D01*
X154872589Y-96159381D01*
X154845737Y-96174673D01*
X154840404Y-96176882D01*
X154749075Y-96229611D01*
X154674511Y-96304175D01*
X154621784Y-96395500D01*
X154621783Y-96395503D01*
X154594490Y-96497363D01*
X145364435Y-96497363D01*
X145454587Y-96473207D01*
X145545913Y-96420480D01*
X145620480Y-96345913D01*
X145673207Y-96254587D01*
X145700500Y-96152727D01*
X145700500Y-96047273D01*
X145673207Y-95945413D01*
X145620480Y-95854087D01*
X145545913Y-95779520D01*
X145454587Y-95726793D01*
X145352727Y-95699500D01*
X145247273Y-95699500D01*
X145173374Y-95719301D01*
X145103524Y-95717638D01*
X145053600Y-95687207D01*
X145045914Y-95679521D01*
X145045913Y-95679520D01*
X144954587Y-95626793D01*
X144852727Y-95599500D01*
X144747273Y-95599500D01*
X144645413Y-95626793D01*
X144645410Y-95626794D01*
X144554085Y-95679520D01*
X144546392Y-95687213D01*
X144485066Y-95720693D01*
X144426625Y-95719300D01*
X144352728Y-95699500D01*
X144352727Y-95699500D01*
X144247273Y-95699500D01*
X144145413Y-95726793D01*
X144145410Y-95726794D01*
X144054085Y-95779521D01*
X143979521Y-95854085D01*
X143926794Y-95945410D01*
X143926793Y-95945413D01*
X143899500Y-96047273D01*
X134707392Y-96047273D01*
X134772083Y-95789013D01*
X134773703Y-95783160D01*
X134774720Y-95779807D01*
X134936263Y-95247273D01*
X142799500Y-95247273D01*
X142799500Y-95352727D01*
X142826793Y-95454587D01*
X142879520Y-95545913D01*
X142954087Y-95620480D01*
X143045413Y-95673207D01*
X143147273Y-95700500D01*
X143147275Y-95700500D01*
X143252725Y-95700500D01*
X143252727Y-95700500D01*
X143354587Y-95673207D01*
X143445913Y-95620480D01*
X143520480Y-95545913D01*
X143573207Y-95454587D01*
X143600500Y-95352727D01*
X143600500Y-95247273D01*
X143573207Y-95145413D01*
X143520480Y-95054087D01*
X143445913Y-94979520D01*
X143354587Y-94926793D01*
X143252727Y-94899500D01*
X143147273Y-94899500D01*
X143045413Y-94926793D01*
X143045410Y-94926794D01*
X142954085Y-94979521D01*
X142879521Y-95054085D01*
X142826794Y-95145410D01*
X142826793Y-95145413D01*
X142799500Y-95247273D01*
X134936263Y-95247273D01*
X134997054Y-95046872D01*
X134998944Y-95041148D01*
X135097609Y-94765398D01*
X135138726Y-94708913D01*
X135203858Y-94683621D01*
X135272323Y-94697558D01*
X135322386Y-94746297D01*
X135324424Y-94750485D01*
X135344557Y-94785355D01*
X135379520Y-94845913D01*
X135454087Y-94920480D01*
X135545413Y-94973207D01*
X135647273Y-95000500D01*
X135647275Y-95000500D01*
X135752725Y-95000500D01*
X135752727Y-95000500D01*
X135854587Y-94973207D01*
X135945913Y-94920480D01*
X136020480Y-94845913D01*
X136073207Y-94754587D01*
X136100500Y-94652727D01*
X136100500Y-94547273D01*
X136073207Y-94445413D01*
X136020480Y-94354087D01*
X136013666Y-94347273D01*
X141999500Y-94347273D01*
X141999500Y-94452727D01*
X142026793Y-94554587D01*
X142079520Y-94645913D01*
X142154087Y-94720480D01*
X142245413Y-94773207D01*
X142347273Y-94800500D01*
X142347275Y-94800500D01*
X142452725Y-94800500D01*
X142452727Y-94800500D01*
X142509257Y-94785353D01*
X144646500Y-94785353D01*
X144646500Y-94890807D01*
X144673793Y-94992667D01*
X144726520Y-95083993D01*
X144801087Y-95158560D01*
X144892413Y-95211287D01*
X144994273Y-95238580D01*
X144994275Y-95238580D01*
X145099725Y-95238580D01*
X145099727Y-95238580D01*
X145201587Y-95211287D01*
X145292913Y-95158560D01*
X145367480Y-95083993D01*
X145420207Y-94992667D01*
X145447500Y-94890807D01*
X145447500Y-94785353D01*
X145420207Y-94683493D01*
X145416422Y-94676938D01*
X145399950Y-94609039D01*
X145416423Y-94552939D01*
X145420478Y-94545914D01*
X145420480Y-94545913D01*
X145473207Y-94454587D01*
X145500500Y-94352727D01*
X145500500Y-94247273D01*
X145473207Y-94145413D01*
X145420480Y-94054087D01*
X145413666Y-94047273D01*
X156699500Y-94047273D01*
X156699500Y-94152727D01*
X156726793Y-94254587D01*
X156779520Y-94345913D01*
X156854087Y-94420480D01*
X156945413Y-94473207D01*
X157047273Y-94500500D01*
X157047275Y-94500500D01*
X157152725Y-94500500D01*
X157152727Y-94500500D01*
X157254587Y-94473207D01*
X157299506Y-94447273D01*
X157899500Y-94447273D01*
X157899500Y-94552727D01*
X157926295Y-94652726D01*
X157926793Y-94654586D01*
X157926794Y-94654589D01*
X157946084Y-94688000D01*
X157962557Y-94755900D01*
X157946084Y-94812000D01*
X157926794Y-94845410D01*
X157926793Y-94845413D01*
X157899500Y-94947273D01*
X157899500Y-95052727D01*
X157924834Y-95147273D01*
X157926793Y-95154586D01*
X157926794Y-95154589D01*
X157946084Y-95188000D01*
X157962557Y-95255900D01*
X157946084Y-95312000D01*
X157926794Y-95345410D01*
X157926793Y-95345413D01*
X157899500Y-95447273D01*
X157899500Y-95552727D01*
X157926793Y-95654587D01*
X157979520Y-95745913D01*
X158054087Y-95820480D01*
X158145413Y-95873207D01*
X158247273Y-95900500D01*
X158247275Y-95900500D01*
X158352725Y-95900500D01*
X158352727Y-95900500D01*
X158454587Y-95873207D01*
X158545913Y-95820480D01*
X158620480Y-95745913D01*
X158673207Y-95654587D01*
X158700500Y-95552727D01*
X158700500Y-95447273D01*
X158673207Y-95345413D01*
X158653915Y-95311998D01*
X158637442Y-95244102D01*
X158653914Y-95188002D01*
X158673207Y-95154587D01*
X158700500Y-95052727D01*
X158700500Y-94947273D01*
X158673207Y-94845413D01*
X158653915Y-94811998D01*
X158637442Y-94744102D01*
X158653914Y-94688002D01*
X158673207Y-94654587D01*
X158700500Y-94552727D01*
X158700500Y-94447273D01*
X158673207Y-94345413D01*
X158620480Y-94254087D01*
X158545913Y-94179520D01*
X158454587Y-94126793D01*
X158352727Y-94099500D01*
X158247273Y-94099500D01*
X158145413Y-94126793D01*
X158145410Y-94126794D01*
X158054085Y-94179521D01*
X157979521Y-94254085D01*
X157926794Y-94345410D01*
X157926793Y-94345413D01*
X157899500Y-94447273D01*
X157299506Y-94447273D01*
X157345913Y-94420480D01*
X157420480Y-94345913D01*
X157473207Y-94254587D01*
X157500500Y-94152727D01*
X157500500Y-94047273D01*
X157473207Y-93945413D01*
X157420480Y-93854087D01*
X157345913Y-93779520D01*
X157254587Y-93726793D01*
X157152727Y-93699500D01*
X157047273Y-93699500D01*
X156945413Y-93726793D01*
X156929256Y-93736120D01*
X156929253Y-93736122D01*
X156870429Y-93770084D01*
X156865022Y-93773207D01*
X156854084Y-93779522D01*
X156779521Y-93854085D01*
X156726794Y-93945410D01*
X156726793Y-93945413D01*
X156699500Y-94047273D01*
X145413666Y-94047273D01*
X145345913Y-93979520D01*
X145254587Y-93926793D01*
X145152727Y-93899500D01*
X145047273Y-93899500D01*
X144945413Y-93926793D01*
X144945410Y-93926794D01*
X144854085Y-93979521D01*
X144779521Y-94054085D01*
X144726794Y-94145410D01*
X144726793Y-94145413D01*
X144699500Y-94247273D01*
X144699500Y-94352727D01*
X144726295Y-94452726D01*
X144726793Y-94454586D01*
X144726795Y-94454591D01*
X144730577Y-94461142D01*
X144747048Y-94529043D01*
X144730577Y-94585139D01*
X144673793Y-94683492D01*
X144673793Y-94683493D01*
X144646500Y-94785353D01*
X142509257Y-94785353D01*
X142554587Y-94773207D01*
X142645913Y-94720480D01*
X142720480Y-94645913D01*
X142773207Y-94554587D01*
X142800500Y-94452727D01*
X142800500Y-94347273D01*
X142773207Y-94245413D01*
X142720480Y-94154087D01*
X142645913Y-94079520D01*
X142554587Y-94026793D01*
X142452727Y-93999500D01*
X142347273Y-93999500D01*
X142245413Y-94026793D01*
X142245410Y-94026794D01*
X142154085Y-94079521D01*
X142079521Y-94154085D01*
X142026794Y-94245410D01*
X142026793Y-94245413D01*
X141999500Y-94347273D01*
X136013666Y-94347273D01*
X135945913Y-94279520D01*
X135854587Y-94226793D01*
X135752727Y-94199500D01*
X135647273Y-94199500D01*
X135545413Y-94226793D01*
X135545410Y-94226794D01*
X135532950Y-94233988D01*
X135465049Y-94250458D01*
X135399023Y-94227604D01*
X135355834Y-94172682D01*
X135349195Y-94103128D01*
X135356389Y-94079152D01*
X135554786Y-93600182D01*
X135557229Y-93594669D01*
X135816129Y-93047273D01*
X138299500Y-93047273D01*
X138299500Y-93152727D01*
X138326793Y-93254587D01*
X138379520Y-93345913D01*
X138454087Y-93420480D01*
X138545413Y-93473207D01*
X138647273Y-93500500D01*
X138647275Y-93500500D01*
X138752725Y-93500500D01*
X138752727Y-93500500D01*
X138854587Y-93473207D01*
X138945913Y-93420480D01*
X139020480Y-93345913D01*
X139073207Y-93254587D01*
X139100500Y-93152727D01*
X139100500Y-93047273D01*
X139073207Y-92945413D01*
X139020480Y-92854087D01*
X138945913Y-92779520D01*
X138855337Y-92727226D01*
X138854589Y-92726794D01*
X138854588Y-92726793D01*
X138854587Y-92726793D01*
X138752727Y-92699500D01*
X138647273Y-92699500D01*
X138545413Y-92726793D01*
X138545410Y-92726794D01*
X138454085Y-92779521D01*
X138379521Y-92854085D01*
X138326794Y-92945410D01*
X138326793Y-92945413D01*
X138299500Y-93047273D01*
X135816129Y-93047273D01*
X135886216Y-92899087D01*
X135888934Y-92893687D01*
X136251637Y-92215117D01*
X136254610Y-92209869D01*
X136461704Y-91864353D01*
X141217500Y-91864353D01*
X141217500Y-91969807D01*
X141244793Y-92071667D01*
X141297520Y-92162993D01*
X141372087Y-92237560D01*
X141463413Y-92290287D01*
X141522325Y-92306072D01*
X141581986Y-92342437D01*
X141610006Y-92393751D01*
X141625793Y-92452667D01*
X141678520Y-92543993D01*
X141753087Y-92618560D01*
X141844413Y-92671287D01*
X141946273Y-92698580D01*
X141946275Y-92698580D01*
X142002448Y-92698580D01*
X142069487Y-92718265D01*
X142115242Y-92771069D01*
X142122223Y-92790486D01*
X142133793Y-92833668D01*
X142133794Y-92833669D01*
X142186520Y-92924993D01*
X142261087Y-92999560D01*
X142352413Y-93052287D01*
X142411325Y-93068072D01*
X142470986Y-93104437D01*
X142499006Y-93155751D01*
X142514078Y-93212000D01*
X142514794Y-93214669D01*
X142519769Y-93223286D01*
X142567520Y-93305993D01*
X142642087Y-93380560D01*
X142733413Y-93433287D01*
X142835273Y-93460580D01*
X142835275Y-93460580D01*
X142940725Y-93460580D01*
X142940727Y-93460580D01*
X143042587Y-93433287D01*
X143133913Y-93380560D01*
X143208480Y-93305993D01*
X143261207Y-93214667D01*
X143288500Y-93112807D01*
X143288500Y-93076580D01*
X143308185Y-93009541D01*
X143360989Y-92963786D01*
X143412500Y-92952580D01*
X143427725Y-92952580D01*
X143427727Y-92952580D01*
X143529587Y-92925287D01*
X143620913Y-92872560D01*
X143695480Y-92797993D01*
X143695850Y-92797353D01*
X144994500Y-92797353D01*
X144994500Y-92902807D01*
X145021793Y-93004667D01*
X145074520Y-93095993D01*
X145149087Y-93170560D01*
X145240413Y-93223287D01*
X145342273Y-93250580D01*
X145342275Y-93250580D01*
X145447725Y-93250580D01*
X145447727Y-93250580D01*
X145460069Y-93247273D01*
X154199500Y-93247273D01*
X154199500Y-93352727D01*
X154226793Y-93454587D01*
X154279520Y-93545913D01*
X154354087Y-93620480D01*
X154445413Y-93673207D01*
X154547273Y-93700500D01*
X154547275Y-93700500D01*
X154652725Y-93700500D01*
X154652727Y-93700500D01*
X154754587Y-93673207D01*
X154845913Y-93620480D01*
X154920480Y-93545913D01*
X154973207Y-93454587D01*
X155000500Y-93352727D01*
X155000500Y-93247273D01*
X154973207Y-93145413D01*
X154920480Y-93054087D01*
X154913666Y-93047273D01*
X156399500Y-93047273D01*
X156399500Y-93152727D01*
X156426793Y-93254587D01*
X156479520Y-93345913D01*
X156554087Y-93420480D01*
X156645413Y-93473207D01*
X156747273Y-93500500D01*
X156747275Y-93500500D01*
X156851737Y-93500500D01*
X156852727Y-93500500D01*
X156954587Y-93473207D01*
X157045913Y-93420480D01*
X157120480Y-93345913D01*
X157173207Y-93254587D01*
X157200500Y-93152727D01*
X157200500Y-93047273D01*
X157173207Y-92945413D01*
X157120480Y-92854087D01*
X157113666Y-92847273D01*
X162099500Y-92847273D01*
X162099500Y-92952727D01*
X162126659Y-93054085D01*
X162126793Y-93054586D01*
X162126794Y-93054589D01*
X162146084Y-93088000D01*
X162162557Y-93155900D01*
X162146084Y-93212000D01*
X162126794Y-93245410D01*
X162126793Y-93245413D01*
X162099500Y-93347273D01*
X162099500Y-93452727D01*
X162126793Y-93554587D01*
X162179520Y-93645913D01*
X162254087Y-93720480D01*
X162345413Y-93773207D01*
X162447273Y-93800500D01*
X162447275Y-93800500D01*
X162552725Y-93800500D01*
X162552727Y-93800500D01*
X162654587Y-93773207D01*
X162745913Y-93720480D01*
X162820480Y-93645913D01*
X162873207Y-93554587D01*
X162900500Y-93452727D01*
X162900500Y-93347273D01*
X162873207Y-93245413D01*
X162853915Y-93211998D01*
X162837442Y-93144102D01*
X162853914Y-93088002D01*
X162873207Y-93054587D01*
X162900500Y-92952727D01*
X162900500Y-92847273D01*
X162873207Y-92745413D01*
X162820480Y-92654087D01*
X162745913Y-92579520D01*
X162654587Y-92526793D01*
X162552727Y-92499500D01*
X162447273Y-92499500D01*
X162345413Y-92526793D01*
X162345410Y-92526794D01*
X162254085Y-92579521D01*
X162179521Y-92654085D01*
X162126794Y-92745410D01*
X162126793Y-92745413D01*
X162099500Y-92847273D01*
X157113666Y-92847273D01*
X157045913Y-92779520D01*
X156955337Y-92727226D01*
X156954589Y-92726794D01*
X156954588Y-92726793D01*
X156954587Y-92726793D01*
X156852727Y-92699500D01*
X156747273Y-92699500D01*
X156645413Y-92726793D01*
X156645410Y-92726794D01*
X156554085Y-92779521D01*
X156479521Y-92854085D01*
X156426794Y-92945410D01*
X156426793Y-92945413D01*
X156399500Y-93047273D01*
X154913666Y-93047273D01*
X154845913Y-92979520D01*
X154754587Y-92926793D01*
X154652727Y-92899500D01*
X154547273Y-92899500D01*
X154445413Y-92926793D01*
X154445410Y-92926794D01*
X154354085Y-92979521D01*
X154279521Y-93054085D01*
X154226794Y-93145410D01*
X154226793Y-93145413D01*
X154199500Y-93247273D01*
X145460069Y-93247273D01*
X145549587Y-93223287D01*
X145640913Y-93170560D01*
X145715480Y-93095993D01*
X145768207Y-93004667D01*
X145795500Y-92902807D01*
X145795500Y-92797353D01*
X145768207Y-92695493D01*
X145715480Y-92604167D01*
X145640913Y-92529600D01*
X145549587Y-92476873D01*
X145447727Y-92449580D01*
X145342273Y-92449580D01*
X145240413Y-92476873D01*
X145240410Y-92476874D01*
X145149085Y-92529601D01*
X145074521Y-92604165D01*
X145021794Y-92695490D01*
X145021793Y-92695493D01*
X144994500Y-92797353D01*
X143695850Y-92797353D01*
X143748207Y-92706667D01*
X143775500Y-92604807D01*
X143775500Y-92499353D01*
X143748207Y-92397493D01*
X143695480Y-92306167D01*
X143620913Y-92231600D01*
X143529587Y-92178873D01*
X143505733Y-92172481D01*
X143495485Y-92166235D01*
X143483648Y-92164245D01*
X143466202Y-92148386D01*
X143446073Y-92136117D01*
X143439536Y-92124145D01*
X143431947Y-92117247D01*
X143418053Y-92084803D01*
X143407997Y-92047273D01*
X154299500Y-92047273D01*
X154299500Y-92152727D01*
X154326793Y-92254587D01*
X154379520Y-92345913D01*
X154454087Y-92420480D01*
X154545413Y-92473207D01*
X154647273Y-92500500D01*
X154647275Y-92500500D01*
X154752725Y-92500500D01*
X154752727Y-92500500D01*
X154854587Y-92473207D01*
X154945913Y-92420480D01*
X155020480Y-92345913D01*
X155073207Y-92254587D01*
X155100500Y-92152727D01*
X155100500Y-92047273D01*
X155073207Y-91945413D01*
X155020480Y-91854087D01*
X154945913Y-91779520D01*
X154879059Y-91740922D01*
X154854589Y-91726794D01*
X154854588Y-91726793D01*
X154854587Y-91726793D01*
X154752727Y-91699500D01*
X154647273Y-91699500D01*
X154545413Y-91726793D01*
X154545410Y-91726794D01*
X154454085Y-91779521D01*
X154379521Y-91854085D01*
X154326794Y-91945410D01*
X154326793Y-91945413D01*
X154299500Y-92047273D01*
X143407997Y-92047273D01*
X143398327Y-92011183D01*
X143345600Y-91919857D01*
X143271033Y-91845290D01*
X143179709Y-91792564D01*
X143179708Y-91792563D01*
X143108357Y-91773445D01*
X143048697Y-91737079D01*
X143020677Y-91685765D01*
X143007207Y-91635493D01*
X142954480Y-91544167D01*
X142879913Y-91469600D01*
X142788587Y-91416873D01*
X142729671Y-91401086D01*
X142670012Y-91364721D01*
X142641992Y-91313405D01*
X142639098Y-91302603D01*
X142626207Y-91254493D01*
X142573480Y-91163167D01*
X142498913Y-91088600D01*
X142426049Y-91046532D01*
X142407591Y-91035875D01*
X142407589Y-91035874D01*
X142407587Y-91035873D01*
X142305727Y-91008580D01*
X142200273Y-91008580D01*
X142098413Y-91035873D01*
X142098410Y-91035874D01*
X142007085Y-91088601D01*
X141932521Y-91163165D01*
X141879794Y-91254490D01*
X141879793Y-91254493D01*
X141852500Y-91356353D01*
X141852500Y-91403686D01*
X141832815Y-91470725D01*
X141780011Y-91516480D01*
X141710853Y-91526424D01*
X141696408Y-91523461D01*
X141670728Y-91516580D01*
X141670727Y-91516580D01*
X141565273Y-91516580D01*
X141463413Y-91543873D01*
X141463410Y-91543874D01*
X141372085Y-91596601D01*
X141297521Y-91671165D01*
X141244794Y-91762490D01*
X141244793Y-91762493D01*
X141217500Y-91864353D01*
X136461704Y-91864353D01*
X136650202Y-91549864D01*
X136653397Y-91544817D01*
X137080889Y-90905031D01*
X137084360Y-90900102D01*
X137123541Y-90847273D01*
X139799500Y-90847273D01*
X139799500Y-90952727D01*
X139826793Y-91054587D01*
X139879520Y-91145913D01*
X139954087Y-91220480D01*
X140045413Y-91273207D01*
X140147273Y-91300500D01*
X140147275Y-91300500D01*
X140252725Y-91300500D01*
X140252727Y-91300500D01*
X140354587Y-91273207D01*
X140445913Y-91220480D01*
X140520480Y-91145913D01*
X140573207Y-91054587D01*
X140600500Y-90952727D01*
X140600500Y-90947273D01*
X148599500Y-90947273D01*
X148599500Y-91052727D01*
X148609113Y-91088601D01*
X148626793Y-91154586D01*
X148626794Y-91154589D01*
X148631747Y-91163167D01*
X148679520Y-91245913D01*
X148754087Y-91320480D01*
X148845413Y-91373207D01*
X148947273Y-91400500D01*
X148947275Y-91400500D01*
X149052725Y-91400500D01*
X149052727Y-91400500D01*
X149154587Y-91373207D01*
X149245913Y-91320480D01*
X149320480Y-91245913D01*
X149373207Y-91154587D01*
X149400500Y-91052727D01*
X149400500Y-90947273D01*
X150099500Y-90947273D01*
X150099500Y-91052727D01*
X150109113Y-91088601D01*
X150126793Y-91154586D01*
X150126794Y-91154589D01*
X150131747Y-91163167D01*
X150179520Y-91245913D01*
X150254087Y-91320480D01*
X150345413Y-91373207D01*
X150447273Y-91400500D01*
X150447275Y-91400500D01*
X150552725Y-91400500D01*
X150552727Y-91400500D01*
X150654587Y-91373207D01*
X150745913Y-91320480D01*
X150820480Y-91245913D01*
X150873207Y-91154587D01*
X150900500Y-91052727D01*
X150900500Y-90947273D01*
X151299500Y-90947273D01*
X151299500Y-91052727D01*
X151309113Y-91088601D01*
X151326793Y-91154586D01*
X151326794Y-91154589D01*
X151331747Y-91163167D01*
X151379520Y-91245913D01*
X151454087Y-91320480D01*
X151545413Y-91373207D01*
X151647273Y-91400500D01*
X151647275Y-91400500D01*
X151752725Y-91400500D01*
X151752727Y-91400500D01*
X151854587Y-91373207D01*
X151856205Y-91372273D01*
X157658803Y-91372273D01*
X157658803Y-91477727D01*
X157686096Y-91579587D01*
X157738823Y-91670913D01*
X157813390Y-91745480D01*
X157904716Y-91798207D01*
X158006576Y-91825500D01*
X158006578Y-91825500D01*
X158112028Y-91825500D01*
X158112030Y-91825500D01*
X158213890Y-91798207D01*
X158305216Y-91745480D01*
X158379783Y-91670913D01*
X158432510Y-91579587D01*
X158459803Y-91477727D01*
X158459803Y-91372273D01*
X158432510Y-91270413D01*
X158379783Y-91179087D01*
X158305216Y-91104520D01*
X158218731Y-91054588D01*
X158213892Y-91051794D01*
X158213891Y-91051793D01*
X158213890Y-91051793D01*
X158112030Y-91024500D01*
X158006576Y-91024500D01*
X157904716Y-91051793D01*
X157904713Y-91051794D01*
X157813388Y-91104521D01*
X157738824Y-91179085D01*
X157686097Y-91270410D01*
X157686096Y-91270413D01*
X157658803Y-91372273D01*
X151856205Y-91372273D01*
X151945913Y-91320480D01*
X152020480Y-91245913D01*
X152073207Y-91154587D01*
X152100500Y-91052727D01*
X152100500Y-90947273D01*
X152087124Y-90897353D01*
X152394500Y-90897353D01*
X152394500Y-91002807D01*
X152421793Y-91104667D01*
X152474520Y-91195993D01*
X152549087Y-91270560D01*
X152640413Y-91323287D01*
X152742273Y-91350580D01*
X152742275Y-91350580D01*
X152847725Y-91350580D01*
X152847727Y-91350580D01*
X152949587Y-91323287D01*
X153040913Y-91270560D01*
X153115480Y-91195993D01*
X153168207Y-91104667D01*
X153195500Y-91002807D01*
X153195500Y-90897353D01*
X153168207Y-90795493D01*
X153115480Y-90704167D01*
X153040913Y-90629600D01*
X152956195Y-90580688D01*
X152949589Y-90576874D01*
X152949588Y-90576873D01*
X152949587Y-90576873D01*
X152847727Y-90549580D01*
X152742273Y-90549580D01*
X152640413Y-90576873D01*
X152640410Y-90576874D01*
X152549085Y-90629601D01*
X152474521Y-90704165D01*
X152421794Y-90795490D01*
X152421793Y-90795493D01*
X152394500Y-90897353D01*
X152087124Y-90897353D01*
X152073207Y-90845413D01*
X152020480Y-90754087D01*
X151945913Y-90679520D01*
X151854587Y-90626793D01*
X151752727Y-90599500D01*
X151647273Y-90599500D01*
X151545413Y-90626793D01*
X151545410Y-90626794D01*
X151454085Y-90679521D01*
X151379521Y-90754085D01*
X151326794Y-90845410D01*
X151326793Y-90845413D01*
X151299500Y-90947273D01*
X150900500Y-90947273D01*
X150873207Y-90845413D01*
X150820480Y-90754087D01*
X150745913Y-90679520D01*
X150654587Y-90626793D01*
X150552727Y-90599500D01*
X150447273Y-90599500D01*
X150345413Y-90626793D01*
X150345410Y-90626794D01*
X150254085Y-90679521D01*
X150179521Y-90754085D01*
X150126794Y-90845410D01*
X150126793Y-90845413D01*
X150099500Y-90947273D01*
X149400500Y-90947273D01*
X149373207Y-90845413D01*
X149320480Y-90754087D01*
X149245913Y-90679520D01*
X149154587Y-90626793D01*
X149052727Y-90599500D01*
X148947273Y-90599500D01*
X148845413Y-90626793D01*
X148845410Y-90626794D01*
X148754085Y-90679521D01*
X148679521Y-90754085D01*
X148626794Y-90845410D01*
X148626793Y-90845413D01*
X148599500Y-90947273D01*
X140600500Y-90947273D01*
X140600500Y-90847273D01*
X140573207Y-90745413D01*
X140520480Y-90654087D01*
X140445913Y-90579520D01*
X140354587Y-90526793D01*
X140252727Y-90499500D01*
X140147273Y-90499500D01*
X140045413Y-90526793D01*
X140045410Y-90526794D01*
X139954085Y-90579521D01*
X139879521Y-90654085D01*
X139826794Y-90745410D01*
X139826793Y-90745413D01*
X139799500Y-90847273D01*
X137123541Y-90847273D01*
X137494366Y-90347273D01*
X143999500Y-90347273D01*
X143999500Y-90452727D01*
X144026793Y-90554587D01*
X144079520Y-90645913D01*
X144154087Y-90720480D01*
X144245413Y-90773207D01*
X144347273Y-90800500D01*
X144347275Y-90800500D01*
X144452725Y-90800500D01*
X144452727Y-90800500D01*
X144554587Y-90773207D01*
X144645913Y-90720480D01*
X144720480Y-90645913D01*
X144773207Y-90554587D01*
X144800500Y-90452727D01*
X144800500Y-90347273D01*
X144773207Y-90245413D01*
X144720480Y-90154087D01*
X144645913Y-90079520D01*
X144579059Y-90040922D01*
X144554589Y-90026794D01*
X144554588Y-90026793D01*
X144554587Y-90026793D01*
X144452727Y-89999500D01*
X144347273Y-89999500D01*
X144245413Y-90026793D01*
X144245410Y-90026794D01*
X144154085Y-90079521D01*
X144079521Y-90154085D01*
X144026794Y-90245410D01*
X144026793Y-90245413D01*
X143999500Y-90347273D01*
X137494366Y-90347273D01*
X137542725Y-90282069D01*
X137546441Y-90277307D01*
X138015832Y-89705353D01*
X142974500Y-89705353D01*
X142974500Y-89810807D01*
X143001793Y-89912667D01*
X143054520Y-90003993D01*
X143129087Y-90078560D01*
X143220413Y-90131287D01*
X143322273Y-90158580D01*
X143322275Y-90158580D01*
X143427725Y-90158580D01*
X143427727Y-90158580D01*
X143529587Y-90131287D01*
X143620913Y-90078560D01*
X143695480Y-90003993D01*
X143699314Y-89997353D01*
X153644500Y-89997353D01*
X153644500Y-90102807D01*
X153671793Y-90204667D01*
X153724520Y-90295993D01*
X153799087Y-90370560D01*
X153890413Y-90423287D01*
X153992273Y-90450580D01*
X153992275Y-90450580D01*
X154097725Y-90450580D01*
X154097727Y-90450580D01*
X154199587Y-90423287D01*
X154290913Y-90370560D01*
X154365480Y-90295993D01*
X154418207Y-90204667D01*
X154445500Y-90102807D01*
X154445500Y-90047353D01*
X155244500Y-90047353D01*
X155244500Y-90152807D01*
X155271793Y-90254667D01*
X155324520Y-90345993D01*
X155399087Y-90420560D01*
X155490413Y-90473287D01*
X155592273Y-90500580D01*
X155592275Y-90500580D01*
X155697725Y-90500580D01*
X155697727Y-90500580D01*
X155799587Y-90473287D01*
X155890913Y-90420560D01*
X155965480Y-90345993D01*
X156018207Y-90254667D01*
X156045500Y-90152807D01*
X156045500Y-90047353D01*
X156045479Y-90047273D01*
X160699500Y-90047273D01*
X160699500Y-90152727D01*
X160726659Y-90254085D01*
X160726793Y-90254586D01*
X160726794Y-90254589D01*
X160726839Y-90254667D01*
X160779520Y-90345913D01*
X160854087Y-90420480D01*
X160945413Y-90473207D01*
X161019311Y-90493007D01*
X161078971Y-90529372D01*
X161106992Y-90580688D01*
X161126793Y-90654588D01*
X161126794Y-90654589D01*
X161179520Y-90745913D01*
X161254087Y-90820480D01*
X161345413Y-90873207D01*
X161419311Y-90893007D01*
X161478971Y-90929372D01*
X161506992Y-90980688D01*
X161526793Y-91054588D01*
X161526794Y-91054589D01*
X161555622Y-91104521D01*
X161579521Y-91145914D01*
X161622054Y-91188447D01*
X161655539Y-91249770D01*
X161650555Y-91319462D01*
X161608683Y-91375395D01*
X161555077Y-91397228D01*
X161555123Y-91397397D01*
X161553777Y-91397757D01*
X161550565Y-91399066D01*
X161547278Y-91399498D01*
X161445413Y-91426793D01*
X161445410Y-91426794D01*
X161354085Y-91479521D01*
X161279521Y-91554085D01*
X161226794Y-91645410D01*
X161226793Y-91645413D01*
X161199500Y-91747273D01*
X161199500Y-91852727D01*
X161226793Y-91954587D01*
X161279520Y-92045913D01*
X161354087Y-92120480D01*
X161445413Y-92173207D01*
X161547273Y-92200500D01*
X161547275Y-92200500D01*
X161652725Y-92200500D01*
X161652727Y-92200500D01*
X161754587Y-92173207D01*
X161845913Y-92120480D01*
X161920480Y-92045913D01*
X161973207Y-91954587D01*
X162000500Y-91852727D01*
X162000500Y-91747273D01*
X161973207Y-91645413D01*
X161920480Y-91554087D01*
X161877945Y-91511552D01*
X161844460Y-91450229D01*
X161849444Y-91380537D01*
X161891316Y-91324604D01*
X161944922Y-91302773D01*
X161944877Y-91302603D01*
X161946231Y-91302240D01*
X161949446Y-91300931D01*
X161952715Y-91300500D01*
X161952727Y-91300500D01*
X162054587Y-91273207D01*
X162145913Y-91220480D01*
X162220480Y-91145913D01*
X162273207Y-91054587D01*
X162300500Y-90952727D01*
X162300500Y-90847273D01*
X162273207Y-90745413D01*
X162220480Y-90654087D01*
X162145913Y-90579520D01*
X162054589Y-90526794D01*
X162054588Y-90526793D01*
X161980688Y-90506992D01*
X161921028Y-90470626D01*
X161893007Y-90419310D01*
X161873207Y-90345413D01*
X161820480Y-90254087D01*
X161745913Y-90179520D01*
X161662369Y-90131286D01*
X161654589Y-90126794D01*
X161654588Y-90126793D01*
X161580688Y-90106992D01*
X161521028Y-90070626D01*
X161493007Y-90019310D01*
X161473207Y-89945413D01*
X161420480Y-89854087D01*
X161345913Y-89779520D01*
X161259449Y-89729600D01*
X161254589Y-89726794D01*
X161254588Y-89726793D01*
X161254587Y-89726793D01*
X161152727Y-89699500D01*
X161047273Y-89699500D01*
X160945413Y-89726793D01*
X160945410Y-89726794D01*
X160854085Y-89779521D01*
X160779521Y-89854085D01*
X160726794Y-89945410D01*
X160726793Y-89945413D01*
X160699500Y-90047273D01*
X156045479Y-90047273D01*
X156018207Y-89945493D01*
X155965480Y-89854167D01*
X155890913Y-89779600D01*
X155804312Y-89729601D01*
X155799589Y-89726874D01*
X155799588Y-89726873D01*
X155799587Y-89726873D01*
X155697727Y-89699580D01*
X155592273Y-89699580D01*
X155490413Y-89726873D01*
X155490410Y-89726874D01*
X155399085Y-89779601D01*
X155324521Y-89854165D01*
X155271794Y-89945490D01*
X155271793Y-89945493D01*
X155244500Y-90047353D01*
X154445500Y-90047353D01*
X154445500Y-89997353D01*
X154418207Y-89895493D01*
X154365480Y-89804167D01*
X154290913Y-89729600D01*
X154205343Y-89680196D01*
X154199589Y-89676874D01*
X154199588Y-89676873D01*
X154199587Y-89676873D01*
X154097727Y-89649580D01*
X153992273Y-89649580D01*
X153890413Y-89676873D01*
X153890410Y-89676874D01*
X153799085Y-89729601D01*
X153724521Y-89804165D01*
X153671794Y-89895490D01*
X153671793Y-89895493D01*
X153644500Y-89997353D01*
X143699314Y-89997353D01*
X143748207Y-89912667D01*
X143775500Y-89810807D01*
X143775500Y-89705353D01*
X143748207Y-89603493D01*
X143695480Y-89512167D01*
X143620913Y-89437600D01*
X143529587Y-89384873D01*
X143427727Y-89357580D01*
X143322273Y-89357580D01*
X143220413Y-89384873D01*
X143220410Y-89384874D01*
X143129085Y-89437601D01*
X143054521Y-89512165D01*
X143001794Y-89603490D01*
X143001793Y-89603493D01*
X142974500Y-89705353D01*
X138015832Y-89705353D01*
X138034560Y-89682533D01*
X138038511Y-89677953D01*
X138406661Y-89271761D01*
X138466267Y-89235308D01*
X138536120Y-89236867D01*
X138594040Y-89275943D01*
X138618313Y-89322939D01*
X138623516Y-89342359D01*
X138626793Y-89354588D01*
X138626794Y-89354589D01*
X138679520Y-89445913D01*
X138754087Y-89520480D01*
X138845413Y-89573207D01*
X138947273Y-89600500D01*
X138947275Y-89600500D01*
X139052725Y-89600500D01*
X139052727Y-89600500D01*
X139154587Y-89573207D01*
X139245913Y-89520480D01*
X139320480Y-89445913D01*
X139373207Y-89354587D01*
X139400500Y-89252727D01*
X139400500Y-89147273D01*
X141699500Y-89147273D01*
X141699500Y-89252727D01*
X141726793Y-89354587D01*
X141779520Y-89445913D01*
X141854087Y-89520480D01*
X141945413Y-89573207D01*
X142047273Y-89600500D01*
X142047275Y-89600500D01*
X142152725Y-89600500D01*
X142152727Y-89600500D01*
X142254587Y-89573207D01*
X142345913Y-89520480D01*
X142420480Y-89445913D01*
X142473207Y-89354587D01*
X142500500Y-89252727D01*
X142500500Y-89147273D01*
X142473207Y-89045413D01*
X142420480Y-88954087D01*
X142345913Y-88879520D01*
X142255337Y-88827226D01*
X142254589Y-88826794D01*
X142254588Y-88826793D01*
X142254587Y-88826793D01*
X142152727Y-88799500D01*
X142047273Y-88799500D01*
X141945413Y-88826793D01*
X141945410Y-88826794D01*
X141854085Y-88879521D01*
X141779521Y-88954085D01*
X141726794Y-89045410D01*
X141726793Y-89045413D01*
X141699500Y-89147273D01*
X139400500Y-89147273D01*
X139373207Y-89045413D01*
X139320480Y-88954087D01*
X139245913Y-88879520D01*
X139155337Y-88827226D01*
X139154589Y-88826794D01*
X139154588Y-88826793D01*
X139138261Y-88822418D01*
X139110832Y-88815069D01*
X139105649Y-88811910D01*
X139099594Y-88811477D01*
X139076165Y-88793938D01*
X139051174Y-88778705D01*
X139048520Y-88773243D01*
X139043661Y-88769605D01*
X139033433Y-88742185D01*
X139020645Y-88715858D01*
X139021365Y-88709829D01*
X139019244Y-88704141D01*
X139025465Y-88675541D01*
X139028940Y-88646482D01*
X139033135Y-88640283D01*
X139034096Y-88635868D01*
X139055244Y-88607617D01*
X139103468Y-88559393D01*
X139107836Y-88555234D01*
X139116620Y-88547273D01*
X143699500Y-88547273D01*
X143699500Y-88652727D01*
X143726793Y-88754587D01*
X143779520Y-88845913D01*
X143854087Y-88920480D01*
X143945413Y-88973207D01*
X144047273Y-89000500D01*
X144047275Y-89000500D01*
X144152725Y-89000500D01*
X144152727Y-89000500D01*
X144254587Y-88973207D01*
X144345913Y-88920480D01*
X144369040Y-88897353D01*
X149094500Y-88897353D01*
X149094500Y-89002807D01*
X149121793Y-89104667D01*
X149174520Y-89195993D01*
X149249087Y-89270560D01*
X149340413Y-89323287D01*
X149442273Y-89350580D01*
X149442275Y-89350580D01*
X149547725Y-89350580D01*
X149547727Y-89350580D01*
X149649587Y-89323287D01*
X149740913Y-89270560D01*
X149815480Y-89195993D01*
X149868207Y-89104667D01*
X149895500Y-89002807D01*
X149895500Y-88975489D01*
X149915185Y-88908450D01*
X149967989Y-88862695D01*
X150037147Y-88852751D01*
X150100703Y-88881776D01*
X150126884Y-88913486D01*
X150174520Y-88995993D01*
X150249087Y-89070560D01*
X150340413Y-89123287D01*
X150442273Y-89150580D01*
X150442275Y-89150580D01*
X150547726Y-89150580D01*
X150547727Y-89150580D01*
X150547727Y-89150579D01*
X150555784Y-89149519D01*
X150556094Y-89151880D01*
X150613793Y-89153245D01*
X150668654Y-89190364D01*
X150668773Y-89190246D01*
X150669385Y-89190858D01*
X150671661Y-89192398D01*
X150674429Y-89195874D01*
X150674519Y-89195991D01*
X150674520Y-89195993D01*
X150749087Y-89270560D01*
X150840413Y-89323287D01*
X150942273Y-89350580D01*
X150942275Y-89350580D01*
X151047725Y-89350580D01*
X151047727Y-89350580D01*
X151149587Y-89323287D01*
X151240913Y-89270560D01*
X151315480Y-89195993D01*
X151368207Y-89104667D01*
X151395500Y-89002807D01*
X151395500Y-88897353D01*
X151368207Y-88795493D01*
X151315480Y-88704167D01*
X151240913Y-88629600D01*
X151216635Y-88615583D01*
X151200510Y-88598672D01*
X151181428Y-88585181D01*
X151176849Y-88573855D01*
X151168420Y-88565015D01*
X151163998Y-88542070D01*
X151155239Y-88520405D01*
X151157510Y-88508401D01*
X151155199Y-88496408D01*
X151163883Y-88474716D01*
X151168228Y-88451753D01*
X151179009Y-88436935D01*
X151181168Y-88431543D01*
X151188603Y-88422934D01*
X151189746Y-88421726D01*
X151215480Y-88395993D01*
X151217609Y-88392303D01*
X151225720Y-88383740D01*
X151250573Y-88369277D01*
X151273793Y-88352319D01*
X151280393Y-88351925D01*
X151286109Y-88348599D01*
X151314837Y-88349869D01*
X151343538Y-88348156D01*
X151349303Y-88351392D01*
X151355911Y-88351685D01*
X151379394Y-88368287D01*
X151404462Y-88382361D01*
X151410420Y-88390221D01*
X151412963Y-88392019D01*
X151414311Y-88395354D01*
X151423141Y-88407002D01*
X151474520Y-88495993D01*
X151549087Y-88570560D01*
X151640413Y-88623287D01*
X151702593Y-88639948D01*
X151762253Y-88676311D01*
X151792783Y-88739158D01*
X151794500Y-88759722D01*
X151794500Y-88802807D01*
X151821793Y-88904667D01*
X151874520Y-88995993D01*
X151949087Y-89070560D01*
X152040413Y-89123287D01*
X152142273Y-89150580D01*
X152142275Y-89150580D01*
X152247725Y-89150580D01*
X152247727Y-89150580D01*
X152349587Y-89123287D01*
X152440913Y-89070560D01*
X152515480Y-88995993D01*
X152568207Y-88904667D01*
X152595500Y-88802807D01*
X152595500Y-88697353D01*
X152573582Y-88615553D01*
X152574245Y-88587700D01*
X152571604Y-88559963D01*
X152575065Y-88553253D01*
X152575245Y-88545707D01*
X152590862Y-88522632D01*
X152603637Y-88497869D01*
X152612151Y-88491177D01*
X152614407Y-88487844D01*
X152631373Y-88476067D01*
X152633031Y-88475110D01*
X152700933Y-88458657D01*
X152756998Y-88475127D01*
X152840413Y-88523287D01*
X152840415Y-88523287D01*
X152845245Y-88526076D01*
X152893460Y-88576643D01*
X152906684Y-88645250D01*
X152903020Y-88665555D01*
X152894500Y-88697351D01*
X152894500Y-88697353D01*
X152894500Y-88802807D01*
X152921793Y-88904667D01*
X152974520Y-88995993D01*
X153049087Y-89070560D01*
X153140413Y-89123287D01*
X153242273Y-89150580D01*
X153242275Y-89150580D01*
X153347725Y-89150580D01*
X153347727Y-89150580D01*
X153449587Y-89123287D01*
X153540913Y-89070560D01*
X153615480Y-88995993D01*
X153668207Y-88904667D01*
X153695500Y-88802807D01*
X153695500Y-88716372D01*
X153715185Y-88649333D01*
X153767989Y-88603578D01*
X153774918Y-88601087D01*
X153774901Y-88601046D01*
X153782399Y-88597939D01*
X153782408Y-88597937D01*
X153873734Y-88545210D01*
X153948301Y-88470643D01*
X154001028Y-88379317D01*
X154028321Y-88277457D01*
X154028321Y-88172003D01*
X154021695Y-88147273D01*
X158499500Y-88147273D01*
X158499500Y-88252727D01*
X158526793Y-88354587D01*
X158579520Y-88445913D01*
X158654087Y-88520480D01*
X158745413Y-88573207D01*
X158819311Y-88593007D01*
X158878971Y-88629372D01*
X158906992Y-88680688D01*
X158926793Y-88754588D01*
X158926794Y-88754589D01*
X158979520Y-88845913D01*
X159054087Y-88920480D01*
X159145413Y-88973207D01*
X159247273Y-89000500D01*
X159247275Y-89000500D01*
X159352725Y-89000500D01*
X159352727Y-89000500D01*
X159454587Y-88973207D01*
X159545913Y-88920480D01*
X159620480Y-88845913D01*
X159673207Y-88754587D01*
X159700500Y-88652727D01*
X159700500Y-88547273D01*
X159673207Y-88445413D01*
X159620480Y-88354087D01*
X159545913Y-88279520D01*
X159454589Y-88226794D01*
X159454588Y-88226793D01*
X159380688Y-88206992D01*
X159321028Y-88170626D01*
X159293007Y-88119310D01*
X159287124Y-88097353D01*
X159273207Y-88045413D01*
X159220480Y-87954087D01*
X159145913Y-87879520D01*
X159054587Y-87826793D01*
X158952727Y-87799500D01*
X158847273Y-87799500D01*
X158745413Y-87826793D01*
X158745410Y-87826794D01*
X158654085Y-87879521D01*
X158579521Y-87954085D01*
X158526794Y-88045410D01*
X158526793Y-88045413D01*
X158499500Y-88147273D01*
X154021695Y-88147273D01*
X154001028Y-88070143D01*
X153948301Y-87978817D01*
X153929357Y-87959873D01*
X153895872Y-87898550D01*
X153900856Y-87828858D01*
X153942728Y-87772925D01*
X154008192Y-87748508D01*
X154034025Y-87750977D01*
X154034217Y-87749519D01*
X154042271Y-87750579D01*
X154042273Y-87750580D01*
X154042275Y-87750580D01*
X154147725Y-87750580D01*
X154147727Y-87750580D01*
X154249587Y-87723287D01*
X154340913Y-87670560D01*
X154415480Y-87595993D01*
X154443608Y-87547273D01*
X156099500Y-87547273D01*
X156099500Y-87652727D01*
X156126793Y-87754587D01*
X156179520Y-87845913D01*
X156254087Y-87920480D01*
X156345413Y-87973207D01*
X156447273Y-88000500D01*
X156447275Y-88000500D01*
X156552725Y-88000500D01*
X156552727Y-88000500D01*
X156654587Y-87973207D01*
X156745913Y-87920480D01*
X156820480Y-87845913D01*
X156873207Y-87754587D01*
X156900500Y-87652727D01*
X156900500Y-87547273D01*
X156873207Y-87445413D01*
X156820480Y-87354087D01*
X156745913Y-87279520D01*
X156654587Y-87226793D01*
X156552727Y-87199500D01*
X156447273Y-87199500D01*
X156345413Y-87226793D01*
X156345410Y-87226794D01*
X156254085Y-87279521D01*
X156179521Y-87354085D01*
X156126794Y-87445410D01*
X156126793Y-87445413D01*
X156099500Y-87547273D01*
X154443608Y-87547273D01*
X154468207Y-87504667D01*
X154495500Y-87402807D01*
X154495500Y-87297353D01*
X154468207Y-87195493D01*
X154436958Y-87141368D01*
X154420485Y-87073472D01*
X154436958Y-87017372D01*
X154473207Y-86954587D01*
X154500500Y-86852727D01*
X154500500Y-86747273D01*
X154473207Y-86645413D01*
X154420480Y-86554087D01*
X154345913Y-86479520D01*
X154254587Y-86426793D01*
X154152727Y-86399500D01*
X154047273Y-86399500D01*
X153945413Y-86426793D01*
X153945410Y-86426794D01*
X153854085Y-86479521D01*
X153779521Y-86554085D01*
X153726794Y-86645410D01*
X153726793Y-86645413D01*
X153699500Y-86747273D01*
X153699500Y-86852727D01*
X153726793Y-86954587D01*
X153758041Y-87008711D01*
X153774514Y-87076608D01*
X153758041Y-87132709D01*
X153721794Y-87195490D01*
X153721793Y-87195493D01*
X153694500Y-87297353D01*
X153694500Y-87402807D01*
X153721793Y-87504667D01*
X153761363Y-87573205D01*
X153774521Y-87595994D01*
X153793463Y-87614936D01*
X153826948Y-87676259D01*
X153821964Y-87745951D01*
X153780092Y-87801884D01*
X153714628Y-87826301D01*
X153688794Y-87823840D01*
X153688604Y-87825291D01*
X153680549Y-87824230D01*
X153680548Y-87824230D01*
X153575094Y-87824230D01*
X153473234Y-87851523D01*
X153473229Y-87851525D01*
X153422245Y-87880960D01*
X153354345Y-87897431D01*
X153288318Y-87874578D01*
X153272566Y-87861253D01*
X153240914Y-87829601D01*
X153240913Y-87829600D01*
X153156261Y-87780726D01*
X153149589Y-87776874D01*
X153149588Y-87776873D01*
X153149587Y-87776873D01*
X153047727Y-87749580D01*
X152942273Y-87749580D01*
X152840413Y-87776873D01*
X152840410Y-87776874D01*
X152757000Y-87825031D01*
X152689099Y-87841504D01*
X152633000Y-87825031D01*
X152549589Y-87776874D01*
X152549588Y-87776873D01*
X152549587Y-87776873D01*
X152447727Y-87749580D01*
X152342273Y-87749580D01*
X152240413Y-87776873D01*
X152240408Y-87776875D01*
X152233738Y-87780726D01*
X152165837Y-87797195D01*
X152099811Y-87774340D01*
X152056623Y-87719417D01*
X152049985Y-87649863D01*
X152064356Y-87611336D01*
X152068207Y-87604667D01*
X152095500Y-87502807D01*
X152095500Y-87397353D01*
X152068207Y-87295493D01*
X152015480Y-87204167D01*
X151940913Y-87129600D01*
X151856515Y-87080873D01*
X151849589Y-87076874D01*
X151849588Y-87076873D01*
X151849587Y-87076873D01*
X151747727Y-87049580D01*
X151642273Y-87049580D01*
X151540413Y-87076873D01*
X151540410Y-87076874D01*
X151449085Y-87129601D01*
X151374522Y-87204164D01*
X151374520Y-87204166D01*
X151374520Y-87204167D01*
X151340474Y-87263135D01*
X151289908Y-87311349D01*
X151221301Y-87324571D01*
X151156437Y-87298603D01*
X151125702Y-87263132D01*
X151120479Y-87254086D01*
X151045914Y-87179521D01*
X151045913Y-87179520D01*
X150954587Y-87126793D01*
X150852727Y-87099500D01*
X150747273Y-87099500D01*
X150645413Y-87126793D01*
X150645410Y-87126794D01*
X150554085Y-87179521D01*
X150479521Y-87254085D01*
X150426794Y-87345410D01*
X150426793Y-87345413D01*
X150399500Y-87447273D01*
X150399500Y-87552727D01*
X150426793Y-87654587D01*
X150469837Y-87729142D01*
X150479521Y-87745914D01*
X150530392Y-87796785D01*
X150563877Y-87858108D01*
X150558893Y-87927800D01*
X150550099Y-87946465D01*
X150521793Y-87995492D01*
X150521793Y-87995493D01*
X150494500Y-88097353D01*
X150494500Y-88202805D01*
X150495561Y-88210863D01*
X150492719Y-88211237D01*
X150491372Y-88267252D01*
X150452195Y-88325105D01*
X150387960Y-88352594D01*
X150319061Y-88340990D01*
X150267372Y-88293979D01*
X150265904Y-88291504D01*
X150215480Y-88204167D01*
X150140913Y-88129600D01*
X150049587Y-88076873D01*
X149947727Y-88049580D01*
X149842273Y-88049580D01*
X149740413Y-88076873D01*
X149740410Y-88076874D01*
X149649085Y-88129601D01*
X149574521Y-88204165D01*
X149521794Y-88295490D01*
X149521793Y-88295493D01*
X149494500Y-88397353D01*
X149494500Y-88440437D01*
X149474815Y-88507476D01*
X149422011Y-88553231D01*
X149402595Y-88560211D01*
X149388111Y-88564092D01*
X149340411Y-88576873D01*
X149340410Y-88576874D01*
X149249085Y-88629601D01*
X149174521Y-88704165D01*
X149121794Y-88795490D01*
X149121793Y-88795493D01*
X149094500Y-88897353D01*
X144369040Y-88897353D01*
X144420480Y-88845913D01*
X144473207Y-88754587D01*
X144500500Y-88652727D01*
X144500500Y-88547273D01*
X144473207Y-88445413D01*
X144420480Y-88354087D01*
X144345913Y-88279520D01*
X144254587Y-88226793D01*
X144152727Y-88199500D01*
X144047273Y-88199500D01*
X143945413Y-88226793D01*
X143945410Y-88226794D01*
X143854085Y-88279521D01*
X143779521Y-88354085D01*
X143726794Y-88445410D01*
X143726793Y-88445413D01*
X143699500Y-88547273D01*
X139116620Y-88547273D01*
X139677953Y-88038511D01*
X139682533Y-88034560D01*
X140277302Y-87546445D01*
X140282069Y-87542724D01*
X140900102Y-87084360D01*
X140905031Y-87080889D01*
X141404322Y-86747273D01*
X142199500Y-86747273D01*
X142199500Y-86852727D01*
X142226793Y-86954587D01*
X142279520Y-87045913D01*
X142354087Y-87120480D01*
X142445413Y-87173207D01*
X142547273Y-87200500D01*
X142547275Y-87200500D01*
X142652725Y-87200500D01*
X142652727Y-87200500D01*
X142754587Y-87173207D01*
X142799506Y-87147273D01*
X147099500Y-87147273D01*
X147099500Y-87252727D01*
X147126793Y-87354587D01*
X147179520Y-87445913D01*
X147254087Y-87520480D01*
X147345413Y-87573207D01*
X147447273Y-87600500D01*
X147447275Y-87600500D01*
X147552725Y-87600500D01*
X147552727Y-87600500D01*
X147654587Y-87573207D01*
X147745913Y-87520480D01*
X147820480Y-87445913D01*
X147842614Y-87407574D01*
X147893179Y-87359361D01*
X147961786Y-87346137D01*
X148026651Y-87372105D01*
X148057384Y-87407573D01*
X148079520Y-87445913D01*
X148154087Y-87520480D01*
X148245413Y-87573207D01*
X148347273Y-87600500D01*
X148347275Y-87600500D01*
X148452725Y-87600500D01*
X148452727Y-87600500D01*
X148554587Y-87573207D01*
X148638001Y-87525047D01*
X148705900Y-87508575D01*
X148761998Y-87525047D01*
X148845413Y-87573207D01*
X148947273Y-87600500D01*
X148947275Y-87600500D01*
X149052725Y-87600500D01*
X149052727Y-87600500D01*
X149154587Y-87573207D01*
X149245913Y-87520480D01*
X149320480Y-87445913D01*
X149373207Y-87354587D01*
X149400500Y-87252727D01*
X149400500Y-87147273D01*
X149373207Y-87045413D01*
X149320480Y-86954087D01*
X149245913Y-86879520D01*
X149154587Y-86826793D01*
X149052727Y-86799500D01*
X148947273Y-86799500D01*
X148845413Y-86826793D01*
X148845410Y-86826794D01*
X148762000Y-86874951D01*
X148694099Y-86891424D01*
X148638000Y-86874951D01*
X148554589Y-86826794D01*
X148554588Y-86826793D01*
X148554587Y-86826793D01*
X148452727Y-86799500D01*
X148347273Y-86799500D01*
X148245413Y-86826793D01*
X148245410Y-86826794D01*
X148154085Y-86879521D01*
X148079522Y-86954084D01*
X148079520Y-86954086D01*
X148079520Y-86954087D01*
X148057385Y-86992425D01*
X148006820Y-87040639D01*
X147938212Y-87053861D01*
X147873348Y-87027893D01*
X147842615Y-86992426D01*
X147820480Y-86954087D01*
X147745913Y-86879520D01*
X147654587Y-86826793D01*
X147552727Y-86799500D01*
X147447273Y-86799500D01*
X147345413Y-86826793D01*
X147345410Y-86826794D01*
X147254085Y-86879521D01*
X147179521Y-86954085D01*
X147126794Y-87045410D01*
X147126793Y-87045413D01*
X147099500Y-87147273D01*
X142799506Y-87147273D01*
X142845913Y-87120480D01*
X142920480Y-87045913D01*
X142973207Y-86954587D01*
X143000500Y-86852727D01*
X143000500Y-86747273D01*
X142973207Y-86645413D01*
X142920480Y-86554087D01*
X142845913Y-86479520D01*
X142754587Y-86426793D01*
X142652727Y-86399500D01*
X142547273Y-86399500D01*
X142445413Y-86426793D01*
X142445410Y-86426794D01*
X142354085Y-86479521D01*
X142279521Y-86554085D01*
X142226794Y-86645410D01*
X142226793Y-86645413D01*
X142199500Y-86747273D01*
X141404322Y-86747273D01*
X141544817Y-86653397D01*
X141549864Y-86650202D01*
X142209869Y-86254610D01*
X142215117Y-86251637D01*
X142597455Y-86047273D01*
X144899500Y-86047273D01*
X144899500Y-86152727D01*
X144926793Y-86254587D01*
X144979520Y-86345913D01*
X145054087Y-86420480D01*
X145145413Y-86473207D01*
X145247273Y-86500500D01*
X145247275Y-86500500D01*
X145352725Y-86500500D01*
X145352727Y-86500500D01*
X145454587Y-86473207D01*
X145545913Y-86420480D01*
X145620480Y-86345913D01*
X145673207Y-86254587D01*
X145700500Y-86152727D01*
X145700500Y-86047273D01*
X145673207Y-85945413D01*
X145620480Y-85854087D01*
X145545913Y-85779520D01*
X145454587Y-85726793D01*
X145352727Y-85699500D01*
X145247273Y-85699500D01*
X145145413Y-85726793D01*
X145145410Y-85726794D01*
X145054085Y-85779521D01*
X144979521Y-85854085D01*
X144926794Y-85945410D01*
X144926793Y-85945413D01*
X144899500Y-86047273D01*
X142597455Y-86047273D01*
X142893687Y-85888934D01*
X142899087Y-85886216D01*
X143594669Y-85557229D01*
X143600182Y-85554786D01*
X144101161Y-85347273D01*
X146099500Y-85347273D01*
X146099500Y-85452727D01*
X146126295Y-85552726D01*
X146126793Y-85554586D01*
X146126794Y-85554589D01*
X146127576Y-85555943D01*
X146179520Y-85645913D01*
X146254087Y-85720480D01*
X146345413Y-85773207D01*
X146447273Y-85800500D01*
X146447275Y-85800500D01*
X146552725Y-85800500D01*
X146552727Y-85800500D01*
X146654587Y-85773207D01*
X146688001Y-85753915D01*
X146755898Y-85737442D01*
X146811997Y-85753914D01*
X146845413Y-85773207D01*
X146947273Y-85800500D01*
X146947275Y-85800500D01*
X147052725Y-85800500D01*
X147052727Y-85800500D01*
X147154587Y-85773207D01*
X147245913Y-85720480D01*
X147320480Y-85645913D01*
X147373207Y-85554587D01*
X147373207Y-85554586D01*
X147377271Y-85547548D01*
X147379714Y-85548958D01*
X147414949Y-85505221D01*
X147481239Y-85483145D01*
X147548941Y-85500413D01*
X147596561Y-85551542D01*
X147605459Y-85574967D01*
X147626793Y-85654587D01*
X147679520Y-85745913D01*
X147754087Y-85820480D01*
X147845413Y-85873207D01*
X147947273Y-85900500D01*
X147947275Y-85900500D01*
X148052725Y-85900500D01*
X148052727Y-85900500D01*
X148154587Y-85873207D01*
X148245913Y-85820480D01*
X148320480Y-85745913D01*
X148373207Y-85654587D01*
X148400500Y-85552727D01*
X148400500Y-85447273D01*
X148373207Y-85345413D01*
X148320480Y-85254087D01*
X148245913Y-85179520D01*
X148229706Y-85170163D01*
X148920950Y-85170163D01*
X148920950Y-85275617D01*
X148928822Y-85304994D01*
X148948243Y-85377476D01*
X148948244Y-85377479D01*
X148953945Y-85387353D01*
X149000970Y-85468803D01*
X149075537Y-85543370D01*
X149166863Y-85596097D01*
X149268723Y-85623390D01*
X149268725Y-85623390D01*
X149374175Y-85623390D01*
X149374177Y-85623390D01*
X149476037Y-85596097D01*
X149567363Y-85543370D01*
X149641930Y-85468803D01*
X149694657Y-85377477D01*
X149721950Y-85275617D01*
X149721950Y-85170163D01*
X149694657Y-85068303D01*
X149658890Y-85006353D01*
X150361500Y-85006353D01*
X150361500Y-85111807D01*
X150381081Y-85184883D01*
X150388793Y-85213666D01*
X150388794Y-85213669D01*
X150393833Y-85222396D01*
X150441520Y-85304993D01*
X150516087Y-85379560D01*
X150607413Y-85432287D01*
X150709273Y-85459580D01*
X150709275Y-85459580D01*
X150814725Y-85459580D01*
X150814727Y-85459580D01*
X150916587Y-85432287D01*
X150994415Y-85387353D01*
X152139500Y-85387353D01*
X152139500Y-85492807D01*
X152156055Y-85554589D01*
X152166793Y-85594666D01*
X152166794Y-85594669D01*
X152180922Y-85619139D01*
X152219520Y-85685993D01*
X152294087Y-85760560D01*
X152385413Y-85813287D01*
X152487273Y-85840580D01*
X152487275Y-85840580D01*
X152592725Y-85840580D01*
X152592727Y-85840580D01*
X152694587Y-85813287D01*
X152785913Y-85760560D01*
X152860480Y-85685993D01*
X152913207Y-85594667D01*
X152940500Y-85492807D01*
X152940500Y-85387353D01*
X152913207Y-85285493D01*
X152860480Y-85194167D01*
X152785913Y-85119600D01*
X152694587Y-85066873D01*
X152592727Y-85039580D01*
X152487273Y-85039580D01*
X152385413Y-85066873D01*
X152385410Y-85066874D01*
X152294085Y-85119601D01*
X152219521Y-85194165D01*
X152166794Y-85285490D01*
X152166793Y-85285493D01*
X152139500Y-85387353D01*
X150994415Y-85387353D01*
X151007913Y-85379560D01*
X151082480Y-85304993D01*
X151135207Y-85213667D01*
X151162500Y-85111807D01*
X151162500Y-85006353D01*
X151135207Y-84904493D01*
X151082480Y-84813167D01*
X151007913Y-84738600D01*
X150916587Y-84685873D01*
X150814727Y-84658580D01*
X150709273Y-84658580D01*
X150607413Y-84685873D01*
X150607410Y-84685874D01*
X150516085Y-84738601D01*
X150441521Y-84813165D01*
X150388794Y-84904490D01*
X150388793Y-84904493D01*
X150361500Y-85006353D01*
X149658890Y-85006353D01*
X149641930Y-84976977D01*
X149567363Y-84902410D01*
X149476037Y-84849683D01*
X149374177Y-84822390D01*
X149268723Y-84822390D01*
X149166863Y-84849683D01*
X149166860Y-84849684D01*
X149075535Y-84902411D01*
X149000971Y-84976975D01*
X148948244Y-85068300D01*
X148948243Y-85068303D01*
X148920950Y-85170163D01*
X148229706Y-85170163D01*
X148154587Y-85126793D01*
X148052727Y-85099500D01*
X147947273Y-85099500D01*
X147845413Y-85126793D01*
X147845410Y-85126794D01*
X147754085Y-85179521D01*
X147679521Y-85254085D01*
X147622729Y-85352452D01*
X147620293Y-85351045D01*
X147585001Y-85394813D01*
X147518700Y-85416856D01*
X147451006Y-85399556D01*
X147403411Y-85348403D01*
X147394541Y-85325034D01*
X147373207Y-85245413D01*
X147320480Y-85154087D01*
X147245913Y-85079520D01*
X147154587Y-85026793D01*
X147052727Y-84999500D01*
X146947273Y-84999500D01*
X146845413Y-85026793D01*
X146845410Y-85026794D01*
X146812000Y-85046084D01*
X146744100Y-85062557D01*
X146688000Y-85046084D01*
X146654589Y-85026794D01*
X146654588Y-85026793D01*
X146654587Y-85026793D01*
X146552727Y-84999500D01*
X146447273Y-84999500D01*
X146345413Y-85026793D01*
X146345410Y-85026794D01*
X146254085Y-85079521D01*
X146179521Y-85154085D01*
X146126794Y-85245410D01*
X146126793Y-85245413D01*
X146099500Y-85347273D01*
X144101161Y-85347273D01*
X144311055Y-85260332D01*
X144316697Y-85258157D01*
X144328072Y-85254087D01*
X145041148Y-84998944D01*
X145046872Y-84997054D01*
X145783173Y-84773699D01*
X145789013Y-84772083D01*
X146535395Y-84585124D01*
X146541282Y-84583802D01*
X147295903Y-84433699D01*
X147301874Y-84432662D01*
X148062982Y-84319763D01*
X148068985Y-84319023D01*
X148834719Y-84243604D01*
X148840715Y-84243161D01*
X149609228Y-84205408D01*
X149615312Y-84205259D01*
X150384688Y-84205259D01*
X150390772Y-84205408D01*
G37*
%TD.AperFunction*%
%TD*%
M02*
