M48
; DRILL file {KiCad 9.0.7} date 2026-09-13T17:45:23-0400
; FORMAT={-:-/ absolute / metric / decimal}
; #@! TF.CreationDate,2026-09-13T17:45:23-04:00
; #@! TF.GenerationSoftware,Kicad,Pcbnew,9.0.7
; #@! TF.FileFunction,Plated,1,4,PTH
FMAT,2
METRIC
; #@! TA.AperFunction,Plated,PTH,ViaDrill
T1C0.200
; #@! TA.AperFunction,Plated,PTH,ComponentDrill
T2C0.550
; #@! TA.AperFunction,Plated,PTH,ComponentDrill
T3C0.600
%
G90
G05
T1
X134.6Y-100.7
X134.7Y-98.0
X135.7Y-94.6
X137.2Y-101.5
X137.295Y-98.305
X137.395Y-107.95
X137.889Y-103.732
X138.6Y-109.3
X138.7Y-93.1
X138.9Y-100.7
X139.0Y-89.2
X139.0Y-103.3
X139.3Y-108.0
X139.7Y-96.4
X140.1Y-97.0
X140.2Y-90.9
X140.391Y-99.3
X140.4Y-92.4
X140.5Y-102.2
X140.8Y-110.737
X141.3Y-105.0
X141.309Y-110.737
X141.395Y-111.95
X141.6Y-102.1
X141.618Y-91.917
X141.8Y-104.95
X141.999Y-92.298
X142.1Y-89.2
X142.2Y-100.0
X142.253Y-91.409
X142.4Y-94.4
X142.507Y-92.679
X142.6Y-86.8
X142.6Y-107.1
X142.634Y-91.79
X142.888Y-93.06
X142.9Y-109.7
X143.025Y-92.166
X143.2Y-95.3
X143.375Y-89.758
X143.375Y-92.552
X143.8Y-90.5
X143.9Y-104.786
X144.095Y-97.3
X144.095Y-97.85
X144.095Y-98.45
X144.095Y-99.05
X144.1Y-88.6
X144.1Y-112.7
X144.3Y-96.1
X144.3Y-100.0
X144.4Y-90.4
X144.6Y-101.9
X144.6Y-107.2
X144.695Y-97.85
X144.695Y-98.45
X144.8Y-96.0
X144.9Y-105.1
X145.047Y-94.838
X145.1Y-94.3
X145.1Y-107.2
X145.3Y-86.1
X145.3Y-96.1
X145.395Y-92.85
X145.5Y-93.6
X145.6Y-89.7
X145.9Y-89.3
X146.5Y-85.4
X146.8Y-109.8
X147.0Y-85.4
X147.2Y-103.595
X147.5Y-87.2
X147.7Y-103.65
X148.0Y-85.5
X148.1Y-107.7
X148.1Y-113.8
X148.2Y-105.8
X148.4Y-87.2
X148.5Y-111.9
X148.7Y-105.8
X148.9Y-111.5
X149.0Y-87.2
X149.0Y-91.0
X149.3Y-105.2
X149.321Y-85.223
X149.4Y-106.2
X149.495Y-88.95
X149.895Y-88.45
X150.3Y-114.7
X150.495Y-88.75
X150.5Y-91.0
X150.5Y-99.6
X150.5Y-100.1
X150.5Y-111.6
X150.762Y-85.059
X150.8Y-87.5
X150.8Y-101.2
X150.895Y-88.15
X150.995Y-88.95
X151.0Y-99.6
X151.0Y-100.1
X151.0Y-100.7
X151.0Y-105.4
X151.1Y-113.182
X151.3Y-101.2
X151.695Y-87.45
X151.7Y-91.0
X151.768Y-113.832
X151.795Y-88.25
X152.195Y-88.75
X152.2Y-105.3
X152.395Y-88.15
X152.54Y-85.44
X152.58Y-104.45
X152.795Y-90.95
X152.995Y-88.15
X153.295Y-88.75
X153.4Y-104.1
X153.628Y-88.225
X153.8Y-103.2
X153.8Y-107.6
X154.0Y-112.5
X154.045Y-90.05
X154.095Y-87.35
X154.1Y-86.8
X154.5Y-103.3
X154.6Y-93.3
X154.7Y-92.1
X154.7Y-102.6
X154.995Y-96.55
X155.1Y-95.2
X155.2Y-94.1
X155.207Y-95.727
X155.645Y-90.1
X155.7Y-91.6
X155.7Y-92.2
X155.745Y-113.05
X156.4Y-99.0
X156.5Y-87.6
X156.5Y-108.7
X156.8Y-91.2
X156.8Y-93.1
X156.9Y-99.0
X157.1Y-94.1
X157.1Y-95.9
X157.4Y-90.2
X157.7Y-112.3
X157.8Y-107.4
X158.059Y-91.425
X158.3Y-94.5
X158.3Y-95.0
X158.3Y-95.5
X158.9Y-88.2
X159.3Y-88.6
X159.67Y-101.46
X159.695Y-102.908
X159.8Y-106.6
X160.0Y-101.9
X160.0Y-102.45
X160.3Y-109.6
X160.358Y-101.482
X160.4Y-102.9
X160.5Y-98.9
X160.5Y-99.4
X160.6Y-100.6
X161.1Y-90.1
X161.1Y-108.7
X161.5Y-90.5
X161.5Y-96.9
X161.6Y-91.8
X161.9Y-90.9
X162.0Y-96.9
X162.0Y-103.8
X162.5Y-92.9
X162.5Y-93.4
X162.5Y-97.3
X162.6Y-100.7
X163.6Y-102.4
X164.6Y-96.8
X164.8Y-99.2
T2
X155.829Y-107.651
X156.713Y-106.768
X157.596Y-105.884
T3
G00X145.68Y-109.9
M15
G01X145.68Y-109.1
M16
G05
G00X145.68Y-114.1
M15
G01X145.68Y-112.9
M16
G05
G00X154.32Y-109.9
M15
G01X154.32Y-109.1
M16
G05
G00X154.32Y-114.1
M15
G01X154.32Y-112.9
M16
G05
M30
