%TF.GenerationSoftware,KiCad,Pcbnew,9.0.7*%
%TF.CreationDate,2026-09-13T17:45:20-04:00*%
%TF.ProjectId,BLDCM-Power,424c4443-4d2d-4506-9f77-65722e6b6963,v1.0*%
%TF.SameCoordinates,Original*%
%TF.FileFunction,Paste,Top*%
%TF.FilePolarity,Positive*%
%FSLAX46Y46*%
G04 Gerber Fmt 4.6, Leading zero omitted, Abs format (unit mm)*
G04 Created by KiCad (PCBNEW 9.0.7) date 2026-09-13 17:45:20*
%MOMM*%
%LPD*%
G01*
G04 APERTURE LIST*
G04 Aperture macros list*
%AMRoundRect*
0 Rectangle with rounded corners*
0 $1 Rounding radius*
0 $2 $3 $4 $5 $6 $7 $8 $9 X,Y pos of 4 corners*
0 Add a 4 corners polygon primitive as box body*
4,1,4,$2,$3,$4,$5,$6,$7,$8,$9,$2,$3,0*
0 Add four circle primitives for the rounded corners*
1,1,$1+$1,$2,$3*
1,1,$1+$1,$4,$5*
1,1,$1+$1,$6,$7*
1,1,$1+$1,$8,$9*
0 Add four rect primitives between the rounded corners*
20,1,$1+$1,$2,$3,$4,$5,0*
20,1,$1+$1,$4,$5,$6,$7,0*
20,1,$1+$1,$6,$7,$8,$9,0*
20,1,$1+$1,$8,$9,$2,$3,0*%
G04 Aperture macros list end*
%ADD10RoundRect,0.160000X-0.160000X0.222500X-0.160000X-0.222500X0.160000X-0.222500X0.160000X0.222500X0*%
%ADD11RoundRect,0.160000X0.160000X-0.222500X0.160000X0.222500X-0.160000X0.222500X-0.160000X-0.222500X0*%
%ADD12RoundRect,0.200000X0.250000X0.200000X-0.250000X0.200000X-0.250000X-0.200000X0.250000X-0.200000X0*%
%ADD13RoundRect,0.045000X0.105000X-0.305000X0.105000X0.305000X-0.105000X0.305000X-0.105000X-0.305000X0*%
%ADD14RoundRect,0.082500X1.117500X-0.742500X1.117500X0.742500X-1.117500X0.742500X-1.117500X-0.742500X0*%
%ADD15RoundRect,0.160000X-0.222500X-0.160000X0.222500X-0.160000X0.222500X0.160000X-0.222500X0.160000X0*%
%ADD16RoundRect,0.100000X-0.548008X0.371231X0.371231X-0.548008X0.548008X-0.371231X-0.371231X0.548008X0*%
%ADD17RoundRect,0.160000X0.222500X0.160000X-0.222500X0.160000X-0.222500X-0.160000X0.222500X-0.160000X0*%
%ADD18RoundRect,0.250000X0.475000X-0.337500X0.475000X0.337500X-0.475000X0.337500X-0.475000X-0.337500X0*%
%ADD19RoundRect,0.148936X-0.478802X-0.194454X-0.194454X-0.478802X0.478802X0.194454X0.194454X0.478802X0*%
%ADD20RoundRect,0.160000X0.270468X-0.044194X-0.044194X0.270468X-0.270468X0.044194X0.044194X-0.270468X0*%
%ADD21RoundRect,0.200000X-0.200000X0.250000X-0.200000X-0.250000X0.200000X-0.250000X0.200000X0.250000X0*%
%ADD22RoundRect,0.100000X0.650000X0.125000X-0.650000X0.125000X-0.650000X-0.125000X0.650000X-0.125000X0*%
%ADD23RoundRect,0.045000X-0.255000X-0.105000X0.255000X-0.105000X0.255000X0.105000X-0.255000X0.105000X0*%
%ADD24RoundRect,0.085000X-0.765000X-1.165000X0.765000X-1.165000X0.765000X1.165000X-0.765000X1.165000X0*%
%ADD25RoundRect,0.045000X0.141421X0.289914X-0.289914X-0.141421X-0.141421X-0.289914X0.289914X0.141421X0*%
%ADD26RoundRect,0.082500X-0.265165X1.315219X-1.315219X0.265165X0.265165X-1.315219X1.315219X-0.265165X0*%
%ADD27RoundRect,0.137500X0.387500X0.137500X-0.387500X0.137500X-0.387500X-0.137500X0.387500X-0.137500X0*%
%ADD28R,0.300000X1.100000*%
%ADD29R,0.800000X0.200000*%
%ADD30R,0.200000X0.800000*%
%ADD31R,1.800000X1.800000*%
G04 APERTURE END LIST*
D10*
%TO.C,R1*%
X157700000Y-97727500D03*
X157700000Y-98872500D03*
%TD*%
D11*
%TO.C,C14*%
X159000000Y-96522500D03*
X159000000Y-95377500D03*
%TD*%
D12*
%TO.C,U12*%
X139700000Y-100650000D03*
X139700000Y-98750000D03*
X137700000Y-99700000D03*
%TD*%
D13*
%TO.C,U9*%
X160125000Y-96000000D03*
X160775000Y-96000000D03*
X161425000Y-96000000D03*
X162075000Y-96000000D03*
X162075000Y-93100000D03*
X161425000Y-93100000D03*
X160775000Y-93100000D03*
X160125000Y-93100000D03*
D14*
X161100000Y-94550000D03*
%TD*%
D15*
%TO.C,C2*%
X153237500Y-97378080D03*
X154382500Y-97378080D03*
%TD*%
D11*
%TO.C,R15*%
X163200000Y-96022500D03*
X163200000Y-94877500D03*
%TD*%
D16*
%TO.C,U1*%
X139975589Y-105841271D03*
X139515970Y-106300891D03*
X139056351Y-106760510D03*
X138596731Y-107220129D03*
X142697951Y-111321349D03*
X143157570Y-110861729D03*
X143617189Y-110402110D03*
X144076809Y-109942491D03*
%TD*%
D17*
%TO.C,C4*%
X158072500Y-92000000D03*
X156927500Y-92000000D03*
%TD*%
D18*
%TO.C,C9*%
X149775000Y-100937500D03*
X149775000Y-98862500D03*
%TD*%
D17*
%TO.C,R23*%
X136572500Y-100700000D03*
X135427500Y-100700000D03*
%TD*%
D15*
%TO.C,C8*%
X149427500Y-110967080D03*
X150572500Y-110967080D03*
%TD*%
D19*
%TO.C,R4*%
X152963604Y-103063604D03*
X154236396Y-104336396D03*
%TD*%
D17*
%TO.C,R5*%
X154382500Y-96235080D03*
X153237500Y-96235080D03*
%TD*%
%TO.C,R22*%
X136572500Y-102864610D03*
X135427500Y-102864610D03*
%TD*%
D10*
%TO.C,R6*%
X152032000Y-91598580D03*
X152032000Y-92743580D03*
%TD*%
D20*
%TO.C,C1*%
X139990819Y-110736899D03*
X139181181Y-109927261D03*
%TD*%
D17*
%TO.C,C15*%
X136572500Y-101864610D03*
X135427500Y-101864610D03*
%TD*%
D21*
%TO.C,U7*%
X157550000Y-93100000D03*
X155650000Y-93100000D03*
X156600000Y-95100000D03*
%TD*%
D22*
%TO.C,U6*%
X152900000Y-114482080D03*
X152900000Y-113832080D03*
X152900000Y-113182080D03*
X152900000Y-112532080D03*
X147100000Y-112532080D03*
X147100000Y-113182080D03*
X147100000Y-113832080D03*
X147100000Y-114482080D03*
%TD*%
D10*
%TO.C,R11*%
X161795000Y-101577580D03*
X161795000Y-102722580D03*
%TD*%
D16*
%TO.C,U4*%
X143604129Y-102339731D03*
X143144510Y-102799351D03*
X142684891Y-103258970D03*
X142225271Y-103718589D03*
X146326491Y-107819809D03*
X146786110Y-107360189D03*
X147245729Y-106900570D03*
X147705349Y-106440951D03*
%TD*%
D17*
%TO.C,R24*%
X136572500Y-99700000D03*
X135427500Y-99700000D03*
%TD*%
D10*
%TO.C,R10*%
X150762000Y-91598580D03*
X150762000Y-92743580D03*
%TD*%
%TO.C,R13*%
X156600000Y-96427500D03*
X156600000Y-97572500D03*
%TD*%
D15*
%TO.C,C6*%
X146125500Y-94838080D03*
X147270500Y-94838080D03*
%TD*%
D10*
%TO.C,R17*%
X159000000Y-93077500D03*
X159000000Y-94222500D03*
%TD*%
%TO.C,R18*%
X163400000Y-99605000D03*
X163400000Y-100750000D03*
%TD*%
D17*
%TO.C,R9*%
X154382500Y-93949080D03*
X153237500Y-93949080D03*
%TD*%
D19*
%TO.C,R12*%
X154163604Y-101863604D03*
X155436396Y-103136396D03*
%TD*%
D23*
%TO.C,U8*%
X159700000Y-97800000D03*
X159700000Y-98750000D03*
X159700000Y-99700000D03*
X162500000Y-99700000D03*
X162500000Y-98750000D03*
X162500000Y-97800000D03*
D24*
X161100000Y-98750000D03*
%TD*%
D10*
%TO.C,R8*%
X148476000Y-91598580D03*
X148476000Y-92743580D03*
%TD*%
D17*
%TO.C,R20*%
X136572500Y-96600000D03*
X135427500Y-96600000D03*
%TD*%
D25*
%TO.C,U5*%
X144221734Y-91962204D03*
X143762115Y-91502585D03*
X143302495Y-91042965D03*
X142842876Y-90583346D03*
X140792266Y-92633956D03*
X141251885Y-93093575D03*
X141711505Y-93553195D03*
X142171124Y-94012814D03*
D26*
X142507000Y-92298080D03*
%TD*%
D12*
%TO.C,U11*%
X139700000Y-103814610D03*
X139700000Y-101914610D03*
X137700000Y-102864610D03*
%TD*%
D19*
%TO.C,R2*%
X151763604Y-104263604D03*
X153036396Y-105536396D03*
%TD*%
D27*
%TO.C,U2*%
X160300000Y-90850000D03*
X160300000Y-89900000D03*
X160300000Y-88950000D03*
X157700000Y-88950000D03*
X157700000Y-90850000D03*
%TD*%
D17*
%TO.C,R21*%
X136572500Y-103864610D03*
X135427500Y-103864610D03*
%TD*%
%TO.C,C17*%
X136572500Y-95600000D03*
X135427500Y-95600000D03*
%TD*%
D10*
%TO.C,C12*%
X163400000Y-97305000D03*
X163400000Y-98450000D03*
%TD*%
D12*
%TO.C,U10*%
X139700000Y-97550000D03*
X139700000Y-95650000D03*
X137700000Y-96600000D03*
%TD*%
D15*
%TO.C,C3*%
X159227500Y-92000000D03*
X160372500Y-92000000D03*
%TD*%
D11*
%TO.C,C10*%
X151700000Y-100472500D03*
X151700000Y-99327500D03*
%TD*%
D17*
%TO.C,R7*%
X154382500Y-95092080D03*
X153237500Y-95092080D03*
%TD*%
%TO.C,C16*%
X136572500Y-98700000D03*
X135427500Y-98700000D03*
%TD*%
D15*
%TO.C,C7*%
X146125500Y-95981080D03*
X147270500Y-95981080D03*
%TD*%
D10*
%TO.C,R16*%
X158800000Y-99927500D03*
X158800000Y-101072500D03*
%TD*%
%TO.C,C13*%
X163200000Y-92627500D03*
X163200000Y-93772500D03*
%TD*%
D11*
%TO.C,R14*%
X156600000Y-90272500D03*
X156600000Y-89127500D03*
%TD*%
D17*
%TO.C,R19*%
X136572500Y-97600000D03*
X135427500Y-97600000D03*
%TD*%
D28*
%TO.C,J1*%
X146500000Y-89800000D03*
X146500000Y-86300000D03*
X147000000Y-89800000D03*
X147000000Y-86300000D03*
X147500000Y-89800000D03*
X147500000Y-86300000D03*
X148000000Y-89800000D03*
X148000000Y-86300000D03*
X148500000Y-89800000D03*
X148500000Y-86300000D03*
X149000000Y-89800000D03*
X149000000Y-86300000D03*
X149500000Y-89800000D03*
X149500000Y-86300000D03*
X150000000Y-89800000D03*
X150000000Y-86300000D03*
X150500000Y-89800000D03*
X150500000Y-86300000D03*
X151000000Y-89800000D03*
X151000000Y-86300000D03*
X151500000Y-89800000D03*
X151500000Y-86300000D03*
X152000000Y-89800000D03*
X152000000Y-86300000D03*
X152500000Y-89800000D03*
X152500000Y-86300000D03*
X153000000Y-89800000D03*
X153000000Y-86300000D03*
X153500000Y-89800000D03*
X153500000Y-86300000D03*
%TD*%
D29*
%TO.C,U3*%
X151754080Y-96400000D03*
X151754080Y-96000000D03*
X151754080Y-95600000D03*
X151754080Y-95200000D03*
X151754080Y-94800000D03*
D30*
X151054080Y-94100000D03*
X150654080Y-94100000D03*
X150254080Y-94100000D03*
X149854080Y-94100000D03*
X149454080Y-94100000D03*
D29*
X148754080Y-94800000D03*
X148754080Y-95200000D03*
X148754080Y-95600000D03*
X148754080Y-96000000D03*
X148754080Y-96400000D03*
D30*
X149454080Y-97100000D03*
X149854080Y-97100000D03*
X150254080Y-97100000D03*
X150654080Y-97100000D03*
X151054080Y-97100000D03*
D31*
X150254080Y-95600000D03*
%TD*%
D10*
%TO.C,C11*%
X158800000Y-97677500D03*
X158800000Y-98822500D03*
%TD*%
D20*
%TO.C,C5*%
X143546819Y-107180899D03*
X142737181Y-106371261D03*
%TD*%
M02*
